<svg width="149" height="149" viewBox="0 0 149 149" fill="none" xmlns="http://www.w3.org/2000/svg">
<g opacity="0.3">
<path d="M0 144C0 144.552 0.447715 145 1 145C1.55228 145 2 144.552 2 144C2 143.448 1.55228 143 1 143C0.447715 143 0 143.448 0 144Z" fill="#C2B5A6"/>
<path d="M144 2C144.552 2 145 1.55228 145 1C145 0.447715 144.552 -2.41411e-08 144 0C143.448 2.41411e-08 143 0.447715 143 1C143 1.55228 143.448 2 144 2Z" fill="#C2B5A6"/>
<path d="M0 148C0 148.552 0.447715 149 1 149C1.55228 149 2 148.552 2 148C2 147.448 1.55228 147 1 147C0.447715 147 0 147.448 0 148Z" fill="#C2B5A6"/>
<path d="M148 2C148.552 2 149 1.55228 149 1C149 0.447715 148.552 -2.41411e-08 148 0C147.448 2.41411e-08 147 0.447715 147 1C147 1.55228 147.448 2 148 2Z" fill="#C2B5A6"/>
<path d="M60.3036 1.01801L138.971 2.03602C139.241 2.03903 139.5 1.93492 139.693 1.74655C139.886 1.55817 139.996 1.30092 140 1.03125C140.003 0.761588 139.9 0.501546 139.712 0.308204C139.524 0.114862 139.267 0.00401717 138.998 4.37113e-08H138.971L60.3036 1.01801Z" fill="#C2B5A6"/>
<path d="M10.5453 14.2011C13.1404 16.7971 16.9869 17.1583 16.9869 17.1583C16.9869 17.1583 16.6259 13.309 14.0314 10.7129C11.4368 8.11625 7.58966 7.75567 7.58966 7.75567C7.58966 7.75567 7.95003 11.6044 10.5453 14.2011Z" fill="#C2B5A6"/>
<path d="M18.1017 12.9422C18.1017 12.9422 18.0633 12.7649 18.0289 12.4467C17.9783 12.0126 17.9537 11.5758 17.9554 11.1388C17.9598 10.5329 18.0101 9.92813 18.1057 9.32978C18.1667 9.00633 18.2223 8.67527 18.3123 8.34686C18.3888 8.01445 18.4877 7.68761 18.6085 7.36862C18.7239 7.05077 18.8666 6.74353 19.0351 6.45038C19.192 6.15773 19.3841 5.89129 19.51 5.60862C19.6384 5.32629 19.7882 5.06521 19.8829 4.78715C19.975 4.50747 20.1108 4.26553 20.1989 4.01367C20.2982 3.76948 20.3565 3.5143 20.4506 3.31416C20.532 3.10438 20.5989 2.9132 20.6479 2.74618C20.7046 2.56499 20.7506 2.38065 20.7857 2.19408L20.7871 2.18614C20.7898 2.17079 20.7894 2.15505 20.786 2.13984C20.7826 2.12463 20.7762 2.11025 20.7672 2.09752C20.7582 2.08479 20.7468 2.07397 20.7336 2.06569C20.7204 2.0574 20.7057 2.05182 20.6903 2.04925C20.674 2.0467 20.6573 2.04748 20.6413 2.05156C20.4581 2.10521 20.2796 2.17359 20.1074 2.25604C19.911 2.3463 19.7193 2.44663 19.5331 2.55663C19.2977 2.70081 19.0772 2.86797 18.8747 3.05566C18.6227 3.2637 18.395 3.49949 18.1958 3.75856C17.9672 4.0429 17.7696 4.35083 17.6062 4.67714C17.4498 5.03574 17.3291 5.40892 17.246 5.79125C17.1797 6.18793 17.0711 6.57233 17.03 6.9716C16.7886 8.39107 16.8592 9.84611 17.2366 11.2356C17.385 11.8543 17.6116 12.4517 17.9109 13.0131L17.9136 13.0164C17.9259 13.0375 17.9454 13.0535 17.9685 13.0615C17.9916 13.0695 18.0167 13.069 18.0395 13.06C18.0622 13.051 18.081 13.0342 18.0924 13.0126C18.1038 12.991 18.1071 12.966 18.1017 12.9422Z" fill="#C2B5A6"/>
<path d="M1.0175 60.2554L7.62939e-05 138.969C-0.00164283 139.102 0.0229677 139.235 0.0725098 139.359C0.122052 139.484 0.195573 139.597 0.288834 139.692C0.382095 139.788 0.493277 139.865 0.616058 139.917C0.73884 139.97 0.870815 139.998 1.00443 140C1.13804 140.002 1.27066 139.977 1.39476 139.927C1.51886 139.878 1.63198 139.804 1.72768 139.711C1.82337 139.618 1.89975 139.506 1.95247 139.384C2.00519 139.261 2.03321 139.129 2.03493 138.995V138.969L1.0175 60.2554Z" fill="#C2B5A6"/>
<path d="M13.0053 17.839C12.4446 17.5388 11.8475 17.312 11.2288 17.1643C9.84037 16.7864 8.38635 16.7155 6.96774 16.9565C6.5683 16.998 6.18411 17.1066 5.78799 17.1733C5.40591 17.2563 5.03295 17.3768 4.67453 17.5332C4.34866 17.697 4.04094 17.8947 3.75647 18.123C3.49773 18.3228 3.26201 18.5508 3.05365 18.8027C2.86621 19.0052 2.69937 19.2259 2.55559 19.4615C2.44561 19.6477 2.34521 19.8393 2.25482 20.0358C2.17231 20.2079 2.10407 20.3866 2.0508 20.57C2.04585 20.5891 2.04576 20.6091 2.05051 20.6282C2.05525 20.6474 2.0647 20.665 2.07799 20.6796C2.09128 20.6942 2.10798 20.7052 2.1266 20.7117C2.14522 20.7182 2.16517 20.7199 2.18463 20.7168L2.19257 20.7151C2.37923 20.6797 2.56369 20.6336 2.74503 20.5769C2.91195 20.5282 3.10268 20.4609 3.312 20.3794C3.51202 20.2849 3.76774 20.2273 4.01151 20.1275C4.26315 20.0394 4.50496 19.9035 4.78448 19.8114C5.06204 19.7166 5.32298 19.5665 5.60521 19.4386C5.88805 19.3126 6.15427 19.1201 6.44641 18.9631C6.73965 18.7948 7.0468 18.652 7.36447 18.5362C7.68341 18.4159 8.01003 18.317 8.34215 18.2403C8.67071 18.1495 9.00122 18.0945 9.32448 18.0332C9.92241 17.9379 10.5267 17.8876 11.1321 17.8828C11.569 17.8816 12.0057 17.9064 12.4397 17.957C12.7576 17.9911 12.9351 18.0299 12.9351 18.0299C12.9589 18.035 12.9838 18.0314 13.0052 18.0199C13.0267 18.0084 13.0434 17.9896 13.0523 17.9669C13.0612 17.9443 13.0618 17.9192 13.0539 17.8961C13.046 17.873 13.0302 17.8535 13.0093 17.841L13.0053 17.839Z" fill="#C2B5A6"/>
<path d="M3.65779 134.395C3.65779 134.395 3.77636 121.009 3.95453 100.93C4.03668 90.8901 4.13068 79.1767 4.2327 66.6269C4.27645 60.3519 4.32147 53.8673 4.36781 47.2781C4.39101 43.9835 4.41421 40.6672 4.43741 37.3293C4.45796 35.6724 4.41556 33.9687 4.59306 32.347C4.81157 30.8102 5.33932 29.3337 6.14438 28.0069C6.96254 26.6667 8.04967 25.511 9.33705 24.6128C10.618 23.6848 12.0394 22.9684 13.5471 22.4909C16.5684 21.5115 19.793 21.3392 22.9014 21.9909C24.3664 22.3447 25.7513 22.9727 26.983 23.8417C28.2088 24.7116 29.2641 25.7999 30.0962 27.0521C31.7258 29.5171 32.3925 32.4956 31.9694 35.4205L31.8767 36.0011C31.8429 36.189 31.7893 36.3282 31.7495 36.4942L31.6183 36.975L31.4329 37.4659C30.8081 39.0656 29.7582 40.464 28.3968 41.5101C27.0353 42.5562 25.414 43.2101 23.7081 43.4013C23.3783 43.4427 23.0458 43.437 22.7159 43.4629C22.3847 43.4639 22.0548 43.4334 21.725 43.4231C21.4905 43.3916 21.0043 43.3326 20.7367 43.2621C20.4396 43.1942 20.1475 43.1062 19.8624 42.9986C18.6938 42.5669 17.6525 41.8483 16.834 40.9088C16.0154 39.9693 15.446 38.8391 15.1779 37.6219C14.9228 36.4641 14.9569 35.2611 15.2773 34.1195C15.6145 33.0408 16.258 32.0836 17.1294 31.3644C17.9403 30.6809 18.9243 30.2351 19.9727 30.0764C21.0211 29.9177 22.0929 30.0522 23.0696 30.465C23.9534 30.8929 24.6809 31.5874 25.1495 32.4507C25.3701 32.8678 25.5303 33.3142 25.6251 33.7765C25.6701 34.0037 25.6971 34.2341 25.7059 34.4655C25.7175 34.5797 25.7188 34.6947 25.7099 34.8091L25.6999 35.0663L25.698 35.109C25.6967 35.1352 25.7145 35.0282 25.702 35.0958C25.6529 35.3463 25.6043 35.5946 25.5562 35.8407C25.4939 36.0647 25.3972 36.2149 25.329 36.4084C25.2415 36.5981 25.1334 36.7776 25.0065 36.9435C24.8935 37.1212 24.7557 37.2817 24.5971 37.4201C24.0208 37.9967 23.2726 38.3699 22.4655 38.4832C22.2728 38.5036 22.079 38.5117 21.8853 38.5073L21.7409 38.511L21.668 38.5127L21.6323 38.5137C21.5792 38.5067 21.664 38.5253 21.6409 38.52L21.0175 38.4024C20.9345 38.3776 20.8536 38.3458 20.7758 38.3075C20.6143 38.2542 20.4608 38.1793 20.3194 38.0849C19.724 37.7351 19.2709 37.1866 19.0397 36.5357C18.9834 36.3841 18.9422 36.2274 18.9165 36.0677C18.8725 35.9153 18.8548 35.7565 18.8641 35.5981C18.8543 35.4515 18.8561 35.3044 18.8694 35.1581C18.9032 34.9974 18.9244 34.8204 18.9681 34.6796C19.1371 34.1635 19.4744 33.7192 19.9259 33.418C20.3197 33.1388 20.7906 32.9891 21.2733 32.9895C21.3761 32.9827 21.4792 32.9837 21.5819 32.9925C21.6958 33.013 21.8058 33.0332 21.9131 33.0528C22.0899 33.104 22.2588 33.1793 22.4152 33.2765C22.654 33.4201 22.86 33.6122 23.0199 33.8404C23.1799 34.0686 23.2902 34.3279 23.3438 34.6014C23.3772 34.7928 23.3927 34.987 23.3902 35.1813L23.5916 35.2038C23.6108 34.9897 23.608 34.7741 23.5829 34.5606C23.5404 34.2436 23.432 33.939 23.2646 33.6664C23.0973 33.3939 22.8747 33.1595 22.6112 32.9783C22.4226 32.8446 22.2156 32.739 21.9966 32.6651C21.8906 32.6386 21.782 32.6117 21.67 32.5839C21.54 32.5604 21.408 32.5497 21.2759 32.5521C20.7015 32.5249 20.1326 32.6752 19.6464 32.9825C19.0532 33.3351 18.603 33.8853 18.3746 34.5368C18.3164 34.7041 18.2919 34.8589 18.2481 35.0242C18.2144 35.2155 18.1991 35.4096 18.2024 35.6038C18.1842 35.7963 18.1958 35.9905 18.2369 36.1794C18.2599 36.3773 18.3014 36.5725 18.3607 36.7626C18.6114 37.5925 19.1445 38.3084 19.8676 38.7861C20.0612 38.9264 20.2723 39.0407 20.4956 39.1261C20.6048 39.1788 20.7172 39.2247 20.8321 39.2636L21.4488 39.4127C21.4778 39.4189 21.5072 39.4226 21.5368 39.424L21.5813 39.426L21.8489 39.4366C22.0903 39.4547 22.3328 39.4542 22.5741 39.4349C23.6023 39.3288 24.5681 38.8909 25.3257 38.1873C25.5334 38.0137 25.7177 37.814 25.8742 37.5931C26.0509 37.3761 26.2035 37.1405 26.3292 36.8905C26.4579 36.6273 26.5709 36.3566 26.6677 36.08C26.7254 35.8358 26.7832 35.5894 26.8413 35.341C26.8488 35.3055 26.8546 35.2697 26.8584 35.2336L26.8704 35.0749L26.8876 34.8621C26.9021 34.7196 26.9056 34.5761 26.8982 34.433C26.8969 34.1421 26.8732 33.8517 26.8273 33.5644C26.7299 32.9747 26.5476 32.4022 26.2862 31.8648C25.724 30.7332 24.8209 29.8068 23.7042 29.2164C22.4848 28.6291 21.1235 28.401 19.7793 28.5589C18.4352 28.7167 17.1636 29.2539 16.1132 30.1078C14.977 31.0087 14.1264 32.22 13.6644 33.595C13.2238 35.0151 13.1452 36.5229 13.4359 37.9812C13.7411 39.5118 14.4263 40.9409 15.4282 42.1372C16.4301 43.3334 17.7167 44.2582 19.1695 44.8265C20.7042 45.3825 22.3439 45.5875 23.9681 45.4263C25.5923 45.2652 27.1598 44.7421 28.5555 43.8953C30.7593 42.6073 32.4641 40.6126 33.3936 38.2343L33.6221 37.6329C33.689 37.4231 33.7433 37.2017 33.8036 36.9857C33.8572 36.7729 33.9288 36.5396 33.9645 36.3421L34.0606 35.7622C34.5474 32.3113 33.7382 28.8023 31.7893 25.9138C29.7975 22.9505 26.7401 20.8702 23.2538 20.106C19.8277 19.4427 16.288 19.6851 12.9842 20.8092C11.3122 21.367 9.74013 22.1889 8.32756 23.2435C6.87374 24.2957 5.65257 25.6367 4.74043 27.1827C3.82829 28.7287 3.24483 30.4464 3.02652 32.2283C2.8636 33.9326 2.92782 35.5806 2.92586 37.2554C2.94044 40.5911 2.95501 43.9094 2.96954 47.2102C2.99803 53.8027 3.02718 60.2908 3.05499 66.5696C3.12391 79.1277 3.18815 90.8487 3.24309 100.895C3.37027 120.989 3.45377 134.385 3.45377 134.385L3.65779 134.395Z" fill="#C2B5A6"/>
<path d="M20.3598 50.1966C20.3598 50.1966 20.0571 50.1031 19.5272 49.9394C19.3947 49.8983 19.2485 49.853 19.0887 49.8036C18.9396 49.7426 18.7789 49.6767 18.6065 49.6061C18.2207 49.4626 17.8461 49.2907 17.4857 49.0917C17.287 48.9861 17.079 48.8757 16.8644 48.7617C16.663 48.6272 16.4544 48.488 16.2404 48.3451C15.8003 48.0467 15.3756 47.726 14.968 47.3844C14.5765 46.9928 14.1499 46.6285 13.787 46.1869C13.4079 45.7614 13.0565 45.312 12.7351 44.8414C12.4362 44.3625 12.1821 43.857 11.976 43.3313C11.7495 42.8273 11.6196 42.3 11.405 41.8345C11.2579 41.3424 11.0049 40.9043 10.8459 40.4532C10.7612 40.2299 10.6579 40.0152 10.5664 39.8031C10.4843 39.5887 10.4167 39.3776 10.3307 39.1748C10.1531 38.7699 10.0299 38.3834 9.89479 38.0321C9.74903 37.6813 9.63445 37.3641 9.54771 37.097C9.44547 36.8013 9.32829 36.511 9.19664 36.2271L8.88667 36.1927C8.71203 36.4648 8.5594 36.7505 8.43025 37.047C8.36866 37.1898 8.30088 37.3473 8.2269 37.5195C8.17921 37.6961 8.12754 37.8874 8.0726 38.0918C7.94173 38.5534 7.86655 39.029 7.84869 39.5085C7.83011 39.7723 7.82683 40.0473 7.82149 40.3349C7.84936 40.6163 7.87121 40.9115 7.91428 41.2125C7.99613 41.8463 8.15768 42.4672 8.39511 43.0606C8.67954 43.6807 9.03426 44.2662 9.45229 44.8053C9.85105 45.3716 10.3425 45.8747 10.7863 46.3999C11.2596 46.8936 11.765 47.3555 12.2992 47.7824C12.8107 48.1915 13.3523 48.5613 13.9194 48.8886C14.4499 49.1815 14.9999 49.4376 15.5654 49.6551C15.8337 49.7529 16.0945 49.8478 16.3478 49.9398C16.6074 50.0067 16.8578 50.0713 17.0989 50.1336C17.5345 50.2515 17.9782 50.3375 18.4263 50.3908C18.6237 50.4196 18.8085 50.4468 18.9788 50.4719C19.1463 50.4763 19.2995 50.4804 19.4384 50.4842C19.9929 50.4971 20.3095 50.5048 20.3095 50.5048L20.3598 50.1966Z" fill="#C2B5A6"/>
<path d="M7.06377 48.5645C7.06377 48.5645 7.03264 48.6235 6.97363 48.7342C6.89772 48.8921 6.83311 49.0552 6.78026 49.2223C6.69918 49.4678 6.63629 49.7189 6.5921 49.9736C6.53505 50.2903 6.50581 50.6114 6.50468 50.9332C6.49636 51.304 6.5232 51.6747 6.58485 52.0404C6.641 52.4446 6.7485 52.8399 6.90479 53.2168C7.08895 53.6138 7.3136 53.9907 7.57513 54.3415C7.83871 54.7014 8.10637 55.0676 8.37328 55.4334C8.6336 55.7992 8.89851 56.1595 9.18605 56.4962C9.71894 57.136 10.3036 57.7309 10.9341 58.2747C11.2009 58.5126 11.4811 58.735 11.7733 58.9408C12.0442 59.1283 12.2926 59.3 12.5126 59.4525C12.7457 59.583 12.949 59.697 13.1166 59.7908C13.4491 59.971 13.6399 60.0741 13.6399 60.0741L13.8294 59.8262C13.8294 59.8262 13.6982 59.6592 13.4697 59.367C13.3564 59.2244 13.2187 59.0514 13.061 58.8533C12.9186 58.6449 12.7583 58.4099 12.5828 58.1534C12.3913 57.8853 12.2161 57.6059 12.0581 57.3167C11.8655 57.0081 11.6886 56.6899 11.5282 56.3633C11.3494 56.0326 11.1864 55.6806 11.0248 55.3227C10.8512 54.9732 10.7036 54.603 10.5611 54.2328C10.2551 53.5004 10.1756 52.677 9.91731 52C9.65375 51.3689 9.31408 50.7724 8.90587 50.2237C8.59288 49.7872 8.24769 49.3747 7.87318 48.9897C7.72749 48.8382 7.60424 48.7216 7.51288 48.6424C7.42077 48.5592 7.3718 48.5148 7.3718 48.5148L7.06377 48.5645Z" fill="#C2B5A6"/>
<path d="M134.146 3.618C134.146 3.618 120.758 3.53385 100.676 3.40728C90.6349 3.3519 78.9206 3.28729 66.3697 3.2184C60.0943 3.19058 53.6102 3.16207 47.0215 3.13323C43.7268 3.11864 40.4104 3.10405 37.0724 3.08945C35.3986 3.09149 33.7513 3.02715 32.0482 3.19024C30.2673 3.40859 28.5505 3.99237 27.0053 4.90504C25.4602 5.8177 24.1199 7.03962 23.0683 8.49434C22.0145 9.90773 21.1933 11.4807 20.636 13.1536C19.5123 16.4591 19.2699 20.0008 19.9326 23.4288C20.6966 26.9173 22.7759 29.9765 25.7377 31.9695C28.6244 33.9195 32.1312 34.7293 35.5801 34.2422L36.1597 34.1461C36.3571 34.1099 36.5902 34.0387 36.8029 33.985C37.0188 33.925 37.24 33.8707 37.45 33.8034L38.0508 33.5744C40.4278 32.6446 42.4213 30.9388 43.7082 28.7336C44.5546 27.3372 45.0777 25.7689 45.2388 24.1438C45.4 22.5187 45.1952 20.8781 44.6395 19.3425C44.0713 17.889 43.1469 16.6017 41.9514 15.5992C40.7558 14.5967 39.3275 13.9111 37.7978 13.6056C36.3404 13.3146 34.8334 13.3932 33.4141 13.8343C32.0397 14.2958 30.829 15.1471 29.9293 16.2845C29.0759 17.3355 28.5389 18.6078 28.381 19.9527C28.2231 21.2977 28.4509 22.6598 29.0377 23.8801C29.6282 24.9971 30.5539 25.9007 31.6846 26.4636C32.222 26.7249 32.7942 26.9072 33.3836 27.0047C33.6708 27.0506 33.9611 27.0743 34.252 27.0756C34.3949 27.0833 34.5382 27.0796 34.6806 27.0647L34.9992 27.0399L35.0522 27.0355C35.0882 27.0318 35.124 27.0261 35.1595 27.0183C35.4072 26.9603 35.6532 26.9027 35.8974 26.8453C36.1739 26.7479 36.4445 26.6347 36.7081 26.5063C36.958 26.3804 37.1935 26.2276 37.4103 26.0506C37.6309 25.8942 37.8304 25.7099 38.0038 25.5022C38.7069 24.7443 39.1445 23.7781 39.2504 22.7494C39.2699 22.5079 39.2706 22.2651 39.2523 22.0234L39.2451 21.8448L39.2418 21.7556L39.2398 21.7112C39.2383 21.6816 39.2345 21.6521 39.2285 21.6231L39.0795 21.006C39.041 20.891 38.9949 20.7786 38.9417 20.6697C38.8567 20.4462 38.7427 20.235 38.6025 20.0414C38.125 19.3177 37.4093 18.7841 36.5796 18.5333C36.3897 18.4736 36.1945 18.4322 35.9967 18.4093C35.808 18.3686 35.614 18.3569 35.4218 18.3749C35.2278 18.3714 35.0339 18.3867 34.8428 18.4206C34.6773 18.4643 34.5223 18.4891 34.3554 18.5472C33.7043 18.7754 33.1543 19.2258 32.802 19.8193C32.4946 20.3059 32.3445 20.8754 32.3722 21.4504C32.3695 21.5825 32.3801 21.7145 32.4039 21.8444C32.4317 21.9561 32.4583 22.0651 32.4848 22.1715C32.5588 22.3903 32.6641 22.5973 32.7974 22.7859C32.9785 23.0496 33.2128 23.2725 33.4852 23.44C33.7577 23.6075 34.0622 23.716 34.3792 23.7585C34.5925 23.7832 34.8078 23.7862 35.0217 23.7675L34.9992 23.5653C34.8052 23.5686 34.6113 23.5532 34.4203 23.5193C34.1467 23.4657 33.8875 23.3552 33.6593 23.1951C33.4311 23.035 33.2391 22.8287 33.0955 22.5897C32.9987 22.4334 32.9236 22.2646 32.8723 22.088C32.853 21.9803 32.8325 21.87 32.812 21.7566C32.8033 21.6537 32.8024 21.5502 32.8093 21.4471C32.8085 20.9642 32.9581 20.493 33.2372 20.099C33.5385 19.6473 33.9826 19.3098 34.4984 19.1407C34.6388 19.0972 34.8157 19.0764 34.9767 19.0423C35.1229 19.0288 35.27 19.027 35.4165 19.037C35.5746 19.0276 35.7332 19.0452 35.8854 19.089C36.045 19.1147 36.2016 19.1561 36.3531 19.2126C37.0036 19.4441 37.5518 19.8973 37.9018 20.4927C37.9961 20.6344 38.0709 20.7881 38.1243 20.9497C38.1621 21.0276 38.1936 21.1083 38.2184 21.1913L38.2773 21.5018L38.3363 21.8153C38.3415 21.8388 38.323 21.754 38.3297 21.807L38.329 21.8428L38.327 21.915L38.3237 22.0595C38.3281 22.2535 38.3199 22.4475 38.2992 22.6404C38.1858 23.448 37.8129 24.1967 37.2367 24.7735C37.0987 24.932 36.9385 25.0698 36.7612 25.1825C36.5951 25.3095 36.4156 25.4178 36.2259 25.5055C36.0325 25.5738 35.8828 25.6709 35.659 25.7332C35.4125 25.7813 35.1643 25.8299 34.9144 25.879C34.8468 25.8913 34.9535 25.8734 34.9276 25.8751L34.6276 25.8866C34.5131 25.8957 34.398 25.8945 34.2838 25.883C34.0527 25.8737 33.8226 25.8465 33.5956 25.8018C33.1335 25.7069 32.6872 25.5467 32.2702 25.326C31.4075 24.8569 30.7135 24.1291 30.2857 23.2449C29.8731 22.2675 29.7388 21.1951 29.8976 20.1461C30.0564 19.0971 30.502 18.1125 31.1852 17.3012C31.9039 16.4296 32.8603 15.7858 33.938 15.4481C35.079 15.1276 36.2814 15.0936 37.4388 15.349C38.6552 15.6172 39.7849 16.1869 40.7239 17.0059C41.6629 17.8249 42.3811 18.8668 42.8126 20.036C42.9203 20.3211 43.0082 20.6134 43.0756 20.9106C43.1465 21.178 43.2048 21.6651 43.2366 21.8994C43.2472 22.2292 43.2777 22.5596 43.2763 22.8906C43.2505 23.2207 43.2565 23.554 43.2147 23.8841C43.0643 25.226 42.6277 26.52 41.9343 27.6784C40.8725 29.478 39.2331 30.8649 37.2831 31.6133L36.7923 31.7989L36.312 31.9294C36.1457 31.9698 36.0067 32.0232 35.8192 32.0567L35.2389 32.1498C32.3155 32.5734 29.3385 31.9062 26.875 30.2752C25.6236 29.4428 24.536 28.3871 23.6664 27.1608C22.7981 25.9281 22.1704 24.5422 21.8164 23.0762C21.1651 19.9662 21.3375 16.74 22.3165 13.7173C22.7937 12.2085 23.5096 10.7861 24.4368 9.50406C25.3348 8.21601 26.49 7.12835 27.8295 6.30982C29.1556 5.50447 30.6311 4.97633 32.1668 4.75729C33.7877 4.58036 35.4907 4.6221 37.1466 4.60188C40.4784 4.57873 43.7926 4.55555 47.089 4.53231C53.6745 4.48623 60.1553 4.44117 66.4267 4.39712C78.9697 4.29539 90.6766 4.20058 100.71 4.11907C120.778 3.94044 134.156 3.82147 134.156 3.82147L134.146 3.618Z" fill="#C2B5A6"/>
<path d="M50.3142 20.4831C50.3142 20.4831 50.3069 20.1663 50.2936 19.6116C50.2897 19.4727 50.2857 19.3195 50.2817 19.1519C50.2565 18.9813 50.2287 18.7964 50.2002 18.5989C50.147 18.1505 50.0611 17.7066 49.9432 17.2707C49.881 17.0298 49.8163 16.7793 49.7492 16.5191C49.6577 16.2663 49.5624 16.0051 49.465 15.7364C49.023 14.5524 48.391 13.4486 47.5938 12.4683C47.1668 11.934 46.7052 11.4283 46.212 10.9545C45.6867 10.5105 45.184 10.0187 44.6183 9.62005C44.0796 9.20149 43.4944 8.84655 42.8743 8.56227C42.2813 8.32429 41.6606 8.1626 41.0269 8.08109C40.7262 8.03766 40.4314 8.01614 40.1499 7.98798C39.8624 7.99327 39.5882 7.9966 39.3246 8.01512C38.8453 8.03299 38.3698 8.10821 37.9084 8.23915C37.7044 8.29453 37.513 8.34618 37.3361 8.39389L36.8645 8.59709C36.5681 8.72655 36.2824 8.87911 36.01 9.05336L36.0444 9.36358C36.3282 9.49534 36.6184 9.61256 36.9141 9.71479C37.1811 9.802 37.4977 9.91629 37.8488 10.0624C38.1998 10.1977 38.586 10.3206 38.9907 10.4985C39.1934 10.5844 39.404 10.6526 39.6186 10.7342C39.8306 10.8263 40.0452 10.9297 40.2685 11.0142C40.7195 11.1736 41.1567 11.4264 41.6489 11.5735C42.1145 11.7886 42.6411 11.9185 43.1452 12.1448C43.6705 12.3512 44.1756 12.6055 44.6541 12.9047C45.1245 13.2262 45.5736 13.5778 45.9987 13.9572C46.4399 14.3204 46.8042 14.7465 47.1956 15.1385C47.537 15.5462 47.8574 15.971 48.1555 16.4114C48.2985 16.6258 48.4374 16.8341 48.5721 17.0364C48.686 17.2511 48.7967 17.4586 48.902 17.658C49.101 18.0184 49.2728 18.3932 49.416 18.7791C49.4869 18.9515 49.5527 19.1123 49.6134 19.2616C49.663 19.4214 49.7083 19.5676 49.7492 19.7004C49.9128 20.2306 50.0062 20.5335 50.0062 20.5335L50.3142 20.4831Z" fill="#C2B5A6"/>
<path d="M48.3251 7.53795C48.3251 7.53795 48.3701 7.58702 48.4529 7.67911C48.5317 7.77094 48.6483 7.89418 48.8 8.04003C49.1849 8.41447 49.5972 8.75972 50.0333 9.0729C50.5817 9.48134 51.1778 9.82131 51.8085 10.0853C52.4848 10.3434 53.3082 10.423 54.0401 10.7289C54.4097 10.8717 54.78 11.0198 55.129 11.1928C55.4868 11.3551 55.8391 11.5182 56.169 11.6968C56.5121 11.8602 56.8241 12.0471 57.1222 12.2267C57.4112 12.3852 57.6905 12.5607 57.9588 12.7523C58.2145 12.9276 58.4496 13.088 58.6583 13.2305C58.8557 13.3885 59.0292 13.5261 59.1709 13.6394L59.6307 13.9989L59.8784 13.8094C59.8784 13.8094 59.775 13.6189 59.5949 13.2858C59.5008 13.1185 59.3869 12.915 59.2571 12.6813C59.1047 12.4613 58.9325 12.2131 58.7457 11.9424C58.5399 11.6498 58.3174 11.3693 58.0793 11.1023C57.8255 10.7915 57.5516 10.4975 57.2593 10.2225C56.9607 9.91102 56.6408 9.62058 56.3021 9.35326C55.9656 9.0653 55.606 8.80089 55.2403 8.54008C54.8747 8.27261 54.5084 8.00522 54.1487 7.74176C53.7983 7.47961 53.4216 7.25462 53.0247 7.07041C52.648 6.91415 52.2529 6.80668 51.8489 6.75062C51.4836 6.68898 51.1132 6.66201 50.7427 6.67006C50.4211 6.67139 50.1002 6.70077 49.7836 6.75788C49.529 6.80224 49.278 6.86505 49.0325 6.94581C48.8655 6.99874 48.7026 7.06363 48.545 7.13998C48.4337 7.19861 48.3754 7.22976 48.3754 7.22976L48.3251 7.53795Z" fill="#C2B5A6"/>
</g>
</svg>
