<svg width="84" height="37" viewBox="0 0 84 37" fill="none" xmlns="http://www.w3.org/2000/svg">
<g opacity="0.8" filter="url(#filter0_d_330_3625)">
<path d="M0.945091 1.15949C0.956599 1.18028 0.967114 1.20109 0.974927 1.22205C1.03706 1.38771 1.17274 1.55004 1.22266 1.71901C1.34486 2.29541 1.2766 2.87687 1.02015 3.4441C0.777802 3.85547 0.709682 4.284 0.819417 4.70691C0.965435 5.03601 1.58423 5.21375 1.75614 5.51194C1.85451 5.68258 1.68534 5.84769 1.91307 6.00197C2.19168 6.1907 2.62317 6.18765 2.75486 6.48199C2.89961 6.8057 2.2642 7.09655 2.67354 7.39779C2.85231 7.52939 3.12588 7.60027 3.27281 7.74188C3.41648 7.86792 3.52258 8.00208 3.58831 8.14083C3.55041 8.28128 2.96412 8.49597 2.77994 8.60753C2.53616 8.75517 2.2784 8.8689 2.01796 9.00474C1.65107 9.19605 1.29124 9.37514 0.895478 9.55502C0.527328 9.72237 0.383027 9.80688 0.757435 10.0467C0.89462 10.1345 1.15759 10.166 1.25591 10.2662C1.41096 10.4242 1.21024 10.6889 1.15577 10.8469C0.957416 11.4224 0.794784 11.9955 0.571997 12.5646C0.425373 12.9391 0.589318 13.3177 0.525772 13.6922C0.498517 13.8527 0.300249 13.9952 0.276072 14.1508C0.240893 14.377 0.675885 14.7131 0.952315 14.9094C1.2603 15.1281 1.77502 15.3158 2.03209 15.5455C2.54736 16.006 2.16397 16.6208 2.40862 17.085C2.54303 17.4431 2.58455 17.8072 2.53232 18.1697C2.56279 18.3066 2.61027 18.4425 2.67451 18.577C2.71216 18.8074 2.32266 18.8866 1.82934 19.0806C1.47038 19.1952 1.16597 19.3415 0.934309 19.5108C0.677493 19.7562 0.912387 19.8981 0.996122 20.1273C1.13962 20.52 0.77384 20.9284 0.768248 21.333C0.76415 21.6263 0.503911 21.7892 0.515883 22.0977C0.566205 22.3734 0.504109 22.6509 0.33271 22.9164C0.199007 23.0821 -0.0563379 23.2003 0.0111544 23.3885C0.123245 23.7013 1.06958 23.8383 1.38952 24.0754C1.71653 24.3177 1.53023 24.8074 1.65152 25.108C1.82983 25.5499 1.76023 25.9187 2.09926 26.343C2.28625 26.6507 2.34831 26.9713 2.28244 27.2892C2.32847 27.4726 2.33448 27.6577 2.3004 27.8417C2.17235 28.0357 2.08473 27.9369 1.76963 28.0797C1.2864 28.2987 1.06527 28.7295 0.776319 28.9998C-0.0618944 29.7839 0.263519 30.7726 0.263519 31.6417C1.50454 31.8836 3.25539 31.6865 4.5533 31.7841C5.23855 31.8409 5.93356 31.8699 6.63012 31.8708C7.90052 31.8681 9.05321 31.7546 10.315 31.7568C12.1802 31.7599 14.0176 31.6653 15.8776 31.6417C16.6989 31.6314 17.5099 31.622 18.3287 31.5835C18.8328 31.5358 19.3487 31.5188 19.8627 31.5328C20.2941 31.5726 20.7179 31.6931 21.175 31.7331C22.8368 31.8787 24.532 31.596 26.1952 31.6299C26.7062 31.6403 26.9485 31.7539 27.4802 31.759C28.749 31.7712 30.0242 31.7564 31.2938 31.7564C32.3383 31.7564 33.4253 31.8008 34.4666 31.7619C34.8851 31.7247 35.2856 31.6538 35.6493 31.5526C36.8256 31.3411 38.1053 31.4125 39.38 31.4125C39.7924 31.5702 40.3077 31.6618 40.8462 31.6732C41.7825 31.7348 42.7726 31.7607 43.6554 31.8451C45.2279 31.9796 46.8521 31.9082 48.3386 31.6391C49.3934 31.4485 50.6195 31.5245 51.7449 31.5271C53.3395 31.5309 54.8471 31.4436 56.4146 31.3874C59.1526 31.2892 62.173 31.1415 64.8859 31.3874C65.4814 31.4414 66.1043 31.4571 66.709 31.5043C67.3497 31.5505 68.0024 31.5506 68.6431 31.5047C68.992 31.4709 69.3404 31.4362 69.6885 31.4007C69.918 31.4294 70.1446 31.4623 70.3683 31.4994C70.874 31.5225 71.3805 31.5414 71.8879 31.5561C72.7579 31.5847 73.6101 31.6825 74.4057 31.8451C75.3606 32.061 76.2896 31.9828 77.3438 31.9848C77.8606 31.9858 78.5861 32.0601 79.0013 31.871C79.0234 31.448 78.9155 31.0257 78.6806 30.6162C78.5065 30.2164 78.5065 29.8049 78.6806 29.4051C78.8984 28.9411 79.0137 28.4684 79.0251 27.994C78.9762 27.608 78.5652 27.3783 78.2253 27.0501C77.9361 26.7598 77.8719 26.4335 78.043 26.1245C78.2318 25.9048 78.389 25.6798 78.5136 25.4508C78.563 25.1397 78.1584 24.8506 78.0349 24.5511C77.9363 24.3122 78.0352 24.0833 77.9356 23.8467C77.6829 23.3603 77.5332 22.864 77.4888 22.3647C77.4495 21.9833 77.5278 21.6013 77.7214 21.2298C78.0188 20.8664 78.3689 20.5124 78.7695 20.17C79.2755 19.6292 80.2026 18.9512 79.9604 18.349C79.7759 17.8902 79.6774 17.4395 79.4745 16.9792C79.2409 16.5908 79.089 16.1932 79.021 15.7917C79.0051 15.3037 78.3494 14.825 78.5279 14.3395C78.5985 14.1476 79.0199 13.9516 79.0381 13.767C78.9932 13.6566 78.8719 13.5556 78.6918 13.4786C78.363 13.2161 78.197 12.9181 78.2114 12.6162C78.2302 12.3183 78.2461 12.0203 78.259 11.7222C78.2781 11.6589 78.2692 11.5945 78.233 11.5327C78.1968 11.4709 78.1339 11.4131 78.0479 11.3624C77.6933 10.4049 78.1215 9.40593 78.678 8.48792C79.1174 7.76304 79.5313 7.27856 79.5024 6.56578C79.4814 6.04574 79.506 5.52427 79.506 5.00405C79.506 4.39521 79.7295 3.80529 79.7642 3.20102C79.7937 2.68541 79.5592 2.19987 79.493 1.69048C79.515 1.42565 79.5005 1.16046 79.4498 0.896438C79.3235 0.641265 79.2577 0.380683 79.2536 0.119148C79.2544 0.0874648 78.7453 0.399665 78.7435 0.367982C78.1688 0.324928 77.5835 0.319363 77.0053 0.351454C76.1545 0.350694 75.3052 0.320009 74.4649 0.259679C73.641 0.208349 73.0152 0.339575 72.1899 0.352688C70.7651 0.375339 69.3234 0.348403 67.8972 0.348403C66.5655 0.348403 65.4523 0.554892 64.2065 0.666379C62.8924 0.784009 61.7638 0.586943 60.4794 0.571743C59.7525 0.551121 59.0235 0.551121 58.2966 0.571743C57.7216 0.598887 57.1724 0.691668 56.5875 0.700472C55.7905 0.71214 54.9983 0.639592 54.2735 0.488546C54.0357 0.437675 54.0164 0.364246 53.7478 0.337377C53.328 0.295377 52.5903 0.440037 52.1882 0.491803C51.2743 0.606938 50.3338 0.6727 49.386 0.687724C47.7309 0.746298 46.066 0.69867 44.4402 0.546248C44.0675 0.491545 43.6788 0.462603 43.2872 0.460393C42.2609 0.450306 41.2321 0.477108 40.206 0.468442C39.806 0.477555 39.4051 0.469185 39.0086 0.443452C38.752 0.414116 38.5238 0.347331 38.3589 0.253355C37.5096 0.131483 36.6518 0.30269 35.8469 0.348403C35.8405 0.379353 35.5817 0.410279 35.5753 0.441206C34.6471 0.462916 28.66 0.484902 28.7384 0.786327C28.1115 0.891899 27.2283 0.734651 26.5787 0.703106C24.5489 0.604595 22.5897 0.244987 20.5627 0.102413C19.1228 -0.0369705 17.6338 -0.0340465 16.1966 0.110987C15.3193 0.218943 14.511 0.453839 13.5908 0.471216C11.965 0.487213 10.3384 0.465243 8.71747 0.405395C8.30324 0.393864 7.88898 0.382721 7.47448 0.373436C7.26729 0.368805 7.06005 0.364697 6.85277 0.361105C6.6725 0.352672 6.49113 0.350188 6.31007 0.353675C6.17712 0.361808 6.04327 0.366561 5.90916 0.367912C5.23474 0.369448 4.56029 0.37463 3.88591 0.368944C3.69658 0.361126 3.50822 0.348981 3.32157 0.33256C3.15913 0.327107 2.99611 0.326043 2.83339 0.329373C2.41795 0.329969 2.00892 0.316905 1.59469 0.31021C1.49147 0.308651 1.38824 0.307107 1.28499 0.305579C1.14447 0.300306 1.00403 0.29459 0.863655 0.288431C0.775014 0.297647 0.763252 0.302551 0.736148 0.349662C0.657145 0.456987 0.635531 0.571313 0.673103 0.683184C0.723879 0.800333 0.824678 0.90838 0.874252 1.02823C0.892508 1.07244 0.921015 1.1159 0.945091 1.15949Z" fill="#FED21E"/>
</g>
<defs>
<filter id="filter0_d_330_3625" x="0" y="0" width="84" height="37" filterUnits="userSpaceOnUse" color-interpolation-filters="sRGB">
<feFlood flood-opacity="0" result="BackgroundImageFix"/>
<feColorMatrix in="SourceAlpha" type="matrix" values="0 0 0 0 0 0 0 0 0 0 0 0 0 0 0 0 0 0 127 0" result="hardAlpha"/>
<feOffset dx="2" dy="3"/>
<feGaussianBlur stdDeviation="1"/>
<feComposite in2="hardAlpha" operator="out"/>
<feColorMatrix type="matrix" values="0 0 0 0 0 0 0 0 0 0 0 0 0 0 0 0 0 0 0.4 0"/>
<feBlend mode="normal" in2="BackgroundImageFix" result="effect1_dropShadow_330_3625"/>
<feBlend mode="normal" in="SourceGraphic" in2="effect1_dropShadow_330_3625" result="shape"/>
</filter>
</defs>
</svg>
