<svg width="89" height="63" viewBox="0 0 89 63" fill="none" xmlns="http://www.w3.org/2000/svg">
<g filter="url(#filter0_d_325_2253)">
<path d="M84.973 1.66247e-06L0 0V58H78.4011C78.3862 57.5834 78.3173 57.1701 78.1957 56.7692C78.1198 56.214 78.2182 55.4276 77.8653 54.9978C77.5503 54.6141 77.1091 54.4854 76.8766 54.0247C76.7764 53.8262 76.7791 53.5811 76.6827 53.3962C76.5444 53.1852 76.3849 52.9872 76.2066 52.8047C75.8743 52.3537 75.6961 51.8182 75.6957 51.2695C75.6491 50.7042 75.8555 49.9721 75.3486 49.5401C75.0879 49.3181 74.6671 49.242 74.4313 48.9816C73.9856 48.4894 74.215 48.0152 74.1884 47.3825C74.1958 47.444 74.1851 47.5063 74.1577 47.5625C74.1302 47.6188 74.0869 47.6669 74.0324 47.7018C73.5753 47.7211 73.5583 46.8649 73.3839 46.5966C73.299 46.4661 73.0977 46.4164 73.0376 46.2901C72.9088 46.0193 72.9891 45.7597 72.8436 45.484C72.718 45.2389 72.606 44.9879 72.5081 44.732C72.4333 44.5458 72.2991 44.1804 72.1373 43.8553V40.5692C72.5154 40.3183 72.9204 40.1056 73.3458 39.9344C73.0038 39.6846 73.2735 39.6288 73.3095 39.3967C73.3635 39.0485 73.2979 38.7982 73.5041 38.5051C73.776 38.1186 74.1538 38.0666 74.5814 37.9169C75.0567 37.7505 75.1187 37.5316 75.3299 37.0789C75.5717 36.5883 75.7049 36.0567 75.7214 35.5162C75.6988 35.0888 75.6157 34.6661 75.4743 34.2594C75.4037 33.9389 75.4232 33.6066 75.531 33.2954C75.6388 32.9842 75.831 32.7048 76.0888 32.4849C76.421 32.1735 76.6461 31.7754 76.735 31.3423C76.8449 29.8873 75.1448 30.2539 74.3946 29.4672C74.2465 29.2651 74.1339 29.0419 74.061 28.8062C74.0176 28.6539 73.965 28.504 73.9035 28.3573C73.8103 28.2393 73.694 28.1392 73.5608 28.0621C73.4019 27.575 74.2048 27.5172 74.3485 27.179C74.4816 26.8657 74.2393 26.7294 74.183 26.4732C74.1154 26.1659 74.2162 25.8587 73.8172 25.6879C73.5817 25.5871 73.2628 25.6993 73.0136 25.6682C73.0828 25.3166 73.2448 24.9869 73.4846 24.7094C73.7244 24.4319 74.0344 24.2154 74.3863 24.0798C74.7324 23.9274 75.2474 23.9392 75.5611 23.7781C75.8214 23.6095 76.0212 23.3705 76.134 23.0928C76.4968 22.5217 76.7955 21.9166 77.0251 21.2874C77.1461 20.8909 77.0461 20.677 77.6032 20.4942C77.8275 20.4484 78.0559 20.4225 78.2854 20.4167C78.5716 20.3056 78.8679 20.2194 79.1708 20.159C79.4248 20.1827 79.6812 20.1522 79.921 20.0699C79.9617 19.6091 79.9648 19.1461 79.9303 18.6848C79.9472 18.2457 79.8862 17.8071 79.7497 17.3868C79.6625 17.1985 79.5974 17.0017 79.5555 16.8001C79.5312 15.7922 80.6374 15.1003 80.6322 14.1284C80.6288 13.4841 80.0749 12.7998 79.784 12.245C79.526 11.7531 79.4454 11.7636 78.9063 11.5627C78.4657 11.4454 78.0376 11.2897 77.6277 11.0977C77.0421 10.7157 77.2684 10.049 77.2125 9.50534C76.7036 9.42984 76.12 9.6715 75.6282 9.44898C75.3649 9.29847 75.1624 9.06985 75.0525 8.79916C75.0405 8.70261 75.0109 8.6087 74.9652 8.52152C74.8361 8.35591 74.6806 8.21011 74.504 8.08929C74.3522 7.7352 74.3519 7.3396 74.5032 6.9853C75.4245 6.6866 76.4572 6.87875 77.3904 6.96116C77.4501 6.75195 77.6484 6.58848 77.7016 6.38421C77.7885 6.05021 77.6139 5.8337 77.5798 5.51598C77.5617 5.32509 77.5899 5.13282 77.6621 4.95363C77.7344 4.77444 77.849 4.61299 77.9972 4.48143C78.2614 4.33638 78.7028 4.4355 78.9784 4.44325C80.3301 4.48131 80.9349 2.66401 81.6834 1.81644C82.1679 1.26778 82.2485 1.39825 82.9919 1.42166C83.6602 1.47444 84.3322 1.47154 85 1.41301C84.9961 0.942207 84.9731 0.471867 84.973 1.66247e-06Z" fill="#DEC09C"/>
</g>
<path d="M21.1797 13.5C21.1797 13.7474 21.237 13.9701 21.3516 14.168C21.4661 14.3633 21.6198 14.5273 21.8125 14.6602C22.0052 14.793 22.2266 14.9154 22.4766 15.0273C22.7266 15.1393 22.9896 15.2461 23.2656 15.3477C23.5417 15.4466 23.8177 15.5508 24.0938 15.6602C24.3698 15.7669 24.6328 15.8958 24.8828 16.0469C25.1328 16.1953 25.3542 16.3633 25.5469 16.5508C25.7396 16.7357 25.8932 16.9688 26.0078 17.25C26.1224 17.5286 26.1797 17.8411 26.1797 18.1875C26.1797 18.612 26.0859 19.0078 25.8984 19.375C25.7109 19.7422 25.4531 20.0573 25.125 20.3203C24.7995 20.5807 24.4036 20.7852 23.9375 20.9336C23.4714 21.082 22.9688 21.1562 22.4297 21.1562C22.2214 21.1562 22.0013 21.1419 21.7695 21.1133C21.5404 21.0872 21.2969 21.0417 21.0391 20.9766C20.7839 20.9115 20.5378 20.832 20.3008 20.7383C20.0638 20.6445 19.8359 20.526 19.6172 20.3828C19.401 20.237 19.2122 20.0755 19.0508 19.8984C18.8893 19.7214 18.7604 19.513 18.6641 19.2734C18.5703 19.0312 18.5234 18.7734 18.5234 18.5C18.5234 18.1536 18.6445 17.8594 18.8867 17.6172C19.1315 17.3724 19.4271 17.25 19.7734 17.25C20.1198 17.25 20.4141 17.3724 20.6562 17.6172C20.901 17.8594 21.0234 18.1536 21.0234 18.5C21.0234 18.724 20.9688 18.931 20.8594 19.1211C20.7526 19.3086 20.6068 19.4583 20.4219 19.5703C20.8125 19.7943 21.3255 19.9062 21.9609 19.9062C22.526 19.9062 22.9531 19.819 23.2422 19.6445C23.5339 19.4701 23.6797 19.1927 23.6797 18.8125C23.6797 18.5651 23.6224 18.3438 23.5078 18.1484C23.3932 17.9505 23.2396 17.7852 23.0469 17.6523C22.8542 17.5195 22.6328 17.3971 22.3828 17.2852C22.1328 17.1732 21.8698 17.0677 21.5938 16.9688C21.3177 16.8672 21.0417 16.763 20.7656 16.6562C20.4896 16.5469 20.2266 16.418 19.9766 16.2695C19.7266 16.1185 19.5052 15.9505 19.3125 15.7656C19.1198 15.5781 18.9661 15.3451 18.8516 15.0664C18.737 14.7852 18.6797 14.4714 18.6797 14.125C18.6797 13.6979 18.7643 13.3021 18.9336 12.9375C19.1055 12.5703 19.3451 12.2565 19.6523 11.9961C19.9622 11.7331 20.3424 11.5273 20.793 11.3789C21.2435 11.2305 21.737 11.1562 22.2734 11.1562C22.4818 11.1562 22.6979 11.1706 22.9219 11.1992C23.1484 11.2253 23.3841 11.2708 23.6289 11.3359C23.8763 11.401 24.1133 11.4805 24.3398 11.5742C24.5664 11.668 24.7826 11.7878 24.9883 11.9336C25.1966 12.0768 25.3763 12.237 25.5273 12.4141C25.6784 12.5911 25.7982 12.7995 25.8867 13.0391C25.9779 13.2786 26.0234 13.5365 26.0234 13.8125C26.0234 14.1589 25.901 14.4544 25.6562 14.6992C25.4141 14.9414 25.1198 15.0625 24.7734 15.0625C24.4271 15.0625 24.1315 14.9414 23.8867 14.6992C23.6445 14.4544 23.5234 14.1589 23.5234 13.8125C23.5234 13.5807 23.582 13.3685 23.6992 13.1758C23.8164 12.9805 23.9714 12.8281 24.1641 12.7188C23.8177 12.5104 23.3438 12.4062 22.7422 12.4062C22.1927 12.4062 21.7943 12.4922 21.5469 12.6641C21.3021 12.8333 21.1797 13.112 21.1797 13.5ZM26.8828 11.3125H35.9453V14.4375H34.5391V13.8125C34.5391 13.6849 34.5273 13.5534 34.5039 13.418C34.4831 13.2826 34.4492 13.1484 34.4023 13.0156C34.3581 12.8828 34.293 12.7747 34.207 12.6914C34.1211 12.6055 34.0234 12.5625 33.9141 12.5625H32.6641V19.75H33.9141V21H28.9141V19.75H30.1641V12.5625H28.9141C28.8047 12.5625 28.707 12.6055 28.6211 12.6914C28.5352 12.7747 28.4688 12.8828 28.4219 13.0156C28.3776 13.1484 28.3438 13.2826 28.3203 13.418C28.2995 13.5534 28.2891 13.6849 28.2891 13.8125V14.4375H26.8828V11.3125ZM36.8047 11.3125H45.2422V14.4375H43.8359V13.8125C43.8359 13.6849 43.8242 13.5534 43.8008 13.418C43.7799 13.2826 43.7461 13.1484 43.6992 13.0156C43.6549 12.8828 43.5898 12.7747 43.5039 12.6914C43.418 12.6055 43.3203 12.5625 43.2109 12.5625H40.5547V16H41.9609V14.5938H43.2109V18.6562H41.9609V17.25H40.5547V19.75H43.3672C43.4766 19.75 43.5742 19.7083 43.6602 19.625C43.7461 19.5391 43.8112 19.4297 43.8555 19.2969C43.9023 19.1641 43.9362 19.0299 43.957 18.8945C43.9805 18.7591 43.9922 18.6276 43.9922 18.5V17.875H45.3984V21H36.8047V19.75H38.0547V12.5625H36.8047V11.3125ZM46.4922 21V19.75H47.7422V12.5625H46.4922V11.3125H50.5547C51.5 11.3125 52.2409 11.3424 52.7773 11.4023C53.3164 11.4622 53.7357 11.556 54.0352 11.6836C54.3372 11.8086 54.6146 11.9974 54.8672 12.25C55.0938 12.4766 55.2643 12.7617 55.3789 13.1055C55.4961 13.4466 55.5547 13.8125 55.5547 14.2031C55.5547 14.5208 55.513 14.8151 55.4297 15.0859C55.349 15.3542 55.2331 15.5924 55.082 15.8008C54.9336 16.0065 54.75 16.1914 54.5312 16.3555C54.3151 16.5169 54.0755 16.6536 53.8125 16.7656C53.5495 16.8776 53.2578 16.9701 52.9375 17.043C52.6198 17.1159 52.2904 17.1693 51.9492 17.2031C51.6107 17.2344 51.25 17.25 50.8672 17.25H50.2422V19.75H51.8047V21H46.4922ZM50.2422 16H50.8672C52.1172 16 52.7422 15.4271 52.7422 14.2812C52.7422 14.0833 52.7279 13.9036 52.6992 13.7422C52.6732 13.5807 52.6237 13.4245 52.5508 13.2734C52.4779 13.1224 52.3841 12.9961 52.2695 12.8945C52.1549 12.793 52.0052 12.7122 51.8203 12.6523C51.6354 12.5924 51.4219 12.5625 51.1797 12.5625H50.2422V16ZM36.4727 39.4629V41.5723H33.3745L33.0449 45H30.4082L30.7378 41.5723H27.5737L27.2441 45H24.6074L24.937 41.5723H22.7617V39.4629H25.1414L25.6555 34.1895H22.7617V32.0801H25.8599L26.1895 28.6523H28.8262L28.4966 32.0801H31.6606L31.9902 28.6523H34.627L34.2974 32.0801H36.4727V34.1895H34.093L33.5789 39.4629H36.4727ZM31.4563 34.1895H28.2922L27.7781 39.4629H30.9421L31.4563 34.1895ZM40.843 42.0798C41.1331 42.405 41.4934 42.6665 41.9241 42.8643C42.3591 43.0576 42.7832 43.1543 43.1963 43.1543C44.1411 43.1543 44.8596 42.9038 45.3518 42.4028C45.8484 41.8975 46.0967 41.1812 46.0967 40.2539C46.0967 38.6719 44.9541 37.8809 42.6689 37.8809V35.7715C43.1831 35.7715 43.6292 35.7319 44.0071 35.6528C44.3894 35.5693 44.6948 35.4595 44.9233 35.3232C45.1519 35.187 45.3364 35.0156 45.4771 34.8091C45.6177 34.5981 45.7122 34.3828 45.7605 34.1631C45.8088 33.939 45.833 33.6841 45.833 33.3984C45.833 32.4448 45.6243 31.7241 45.2068 31.2363C44.7893 30.7441 44.1191 30.498 43.1963 30.498C42.7832 30.498 42.3591 30.5969 41.9241 30.7947C41.4934 30.988 41.1331 31.2473 40.843 31.5725C41.3616 31.6384 41.7944 31.8713 42.1416 32.2712C42.4932 32.6667 42.6689 33.1304 42.6689 33.6621C42.6689 34.2466 42.4624 34.7454 42.0493 35.1584C41.6406 35.5671 41.144 35.7715 40.5596 35.7715C40.1509 35.7715 39.7773 35.666 39.439 35.4551C39.1006 35.2397 38.8435 34.9541 38.6677 34.5981C38.4041 34.1016 38.2722 33.5698 38.2722 33.0029C38.2722 32.5415 38.3601 32.0867 38.5359 31.6384C38.7117 31.1902 38.9731 30.7727 39.3203 30.386C39.6675 29.9949 40.0784 29.6499 40.553 29.3511C41.0276 29.0522 41.5835 28.8171 42.2207 28.6458C42.8579 28.4744 43.5347 28.3887 44.251 28.3887C44.8926 28.3887 45.488 28.4348 46.0374 28.5271C46.5867 28.6194 47.0657 28.749 47.4744 28.916C47.8831 29.0786 48.25 29.2764 48.5752 29.5093C48.9004 29.7422 49.1707 29.9949 49.386 30.2673C49.6013 30.5398 49.7793 30.8364 49.9199 31.1572C50.0605 31.478 50.1616 31.801 50.2231 32.1262C50.2847 32.447 50.3154 32.7832 50.3154 33.1348V33.1479V33.1545V33.1677V33.1743V33.1875V33.1941V33.2073V33.2205V33.2271V33.2402V33.2468V33.26V33.2666L50.3088 33.2798V33.2864V33.2996V33.3062V33.3193V33.3259V33.3391V33.3457V33.3589V33.3655L50.3022 33.3787V33.3853V33.3984V33.405V33.4182V33.4248V33.438L50.2957 33.4446V33.4512V33.4644V33.4709V33.4841V33.4907L50.2891 33.5039V33.5105V33.5171V33.5303V33.5369L50.2825 33.55V33.5566V33.5632V33.5764L50.2759 33.583V33.5962V33.6028V33.6094L50.2693 33.6226V33.6292V33.6423V33.6489L50.2627 33.6555V33.6687V33.6753V33.6819L50.2561 33.6951V33.7017V33.7083L50.2495 33.7214V33.728V33.7346V33.7478L50.2429 33.7544V33.761V33.7742L50.2363 33.7808V33.7874V33.8005L50.2297 33.8071V33.8137V33.8203L50.2231 33.8335V33.8401V33.8467L50.2166 33.8599V33.8665V33.873L50.21 33.8796V33.8928V33.8994L50.2034 33.906V33.9126L50.1968 33.9258V33.9324V33.939L50.1902 33.9456V33.9587L50.1836 33.9653V33.9719V33.9785L50.177 33.9917V33.9983L50.1704 34.0049V34.0115V34.0247L50.1638 34.0312V34.0378L50.1572 34.0444V34.051L50.1506 34.0642V34.0708V34.0774L50.144 34.084V34.0906L50.1375 34.1038V34.1104L50.1309 34.1169V34.1235L50.1243 34.1301V34.1433V34.1499L50.1177 34.1565V34.1631C49.7881 34.9717 49.1003 35.6594 48.0544 36.2263C47.6282 36.4548 47.1755 36.6438 46.6965 36.7932C47.281 36.8855 47.8062 37.0327 48.272 37.2349C48.7422 37.4326 49.1509 37.6831 49.498 37.9863C49.8452 38.2896 50.1111 38.6565 50.2957 39.0872C50.4846 39.5134 50.5791 39.9902 50.5791 40.5176C50.5791 41.0098 50.5088 41.48 50.3682 41.9282C50.2275 42.3721 49.9968 42.8005 49.676 43.2136C49.3552 43.6223 48.9553 43.9783 48.4763 44.2815C47.9973 44.5803 47.3953 44.8198 46.6702 45C45.9495 45.1758 45.1431 45.2637 44.251 45.2637C43.5347 45.2637 42.8579 45.178 42.2207 45.0066C41.5835 44.8352 41.0276 44.6001 40.553 44.3013C40.0784 44.0024 39.6675 43.6597 39.3203 43.2729C38.9731 42.8818 38.7117 42.4622 38.5359 42.0139C38.3601 41.5657 38.2722 41.1108 38.2722 40.6494C38.2722 40.0825 38.4041 39.5508 38.6677 39.0542C38.8435 38.6982 39.1006 38.4148 39.439 38.2039C39.7773 37.9885 40.1509 37.8809 40.5596 37.8809C41.144 37.8809 41.6406 38.0874 42.0493 38.5005C42.4624 38.9092 42.6689 39.4058 42.6689 39.9902C42.6689 40.522 42.4932 40.9878 42.1416 41.3877C41.7944 41.7832 41.3616 42.0139 40.843 42.0798Z" fill="#623223"/>
<defs>
<filter id="filter0_d_325_2253" x="0" y="0" width="89" height="63" filterUnits="userSpaceOnUse" color-interpolation-filters="sRGB">
<feFlood flood-opacity="0" result="BackgroundImageFix"/>
<feColorMatrix in="SourceAlpha" type="matrix" values="0 0 0 0 0 0 0 0 0 0 0 0 0 0 0 0 0 0 127 0" result="hardAlpha"/>
<feOffset dx="2" dy="3"/>
<feGaussianBlur stdDeviation="1"/>
<feComposite in2="hardAlpha" operator="out"/>
<feColorMatrix type="matrix" values="0 0 0 0 0 0 0 0 0 0 0 0 0 0 0 0 0 0 0.4 0"/>
<feBlend mode="normal" in2="BackgroundImageFix" result="effect1_dropShadow_325_2253"/>
<feBlend mode="normal" in="SourceGraphic" in2="effect1_dropShadow_325_2253" result="shape"/>
</filter>
</defs>
</svg>
