<svg width="174" height="36" viewBox="0 0 174 36" fill="none" xmlns="http://www.w3.org/2000/svg">
<g opacity="0.5" clip-path="url(#clip0_342_4441)">
<path d="M94.4995 22.5C95.1208 22.5 95.6245 21.9963 95.6245 21.375C95.6245 20.7537 95.1208 20.25 94.4995 20.25C93.8782 20.25 93.3745 20.7537 93.3745 21.375C93.3745 21.9963 93.8782 22.5 94.4995 22.5Z" fill="black"/>
<path d="M103.5 17.9998H102.375V8.99982C102.375 7.75613 101.368 6.74982 100.125 6.74982V4.49982C100.125 3.74438 99.8973 3.15826 99.4467 2.75663C98.7796 2.16151 97.9077 2.24476 97.8177 2.25264C97.7772 2.25657 96.983 2.33813 95.6864 2.47201L95.3259 1.48145C94.9006 0.312572 93.6108 -0.28874 92.4419 0.13651L82.1983 3.86476C77.363 4.36707 72.7854 4.84632 70.8127 5.0657C69.1595 5.24907 68.6594 7.26057 68.6246 8.42045C68.6223 8.49582 68.6364 8.56839 68.6611 8.6342C68.642 8.75345 68.6246 8.87438 68.6246 8.99982V33.7498C68.6246 34.9935 69.6309 35.9998 70.8746 35.9998H100.125C101.368 35.9998 102.375 34.9935 102.375 33.7498V24.7498H103.5C104.121 24.7498 104.625 24.2464 104.625 23.6248V19.1248C104.625 18.5033 104.121 17.9998 103.5 17.9998ZM99.5621 10.1248C99.8731 10.1248 100.125 10.3763 100.125 10.6873C100.125 10.9984 99.8731 11.2498 99.5621 11.2498H98.4371C98.126 11.2498 97.8746 10.9984 97.8746 10.6873C97.8746 10.3763 98.126 10.1248 98.4371 10.1248H99.5621ZM96.7496 10.6873C96.7496 10.9984 96.4981 11.2498 96.1871 11.2498H95.0621C94.751 11.2498 94.4996 10.9984 94.4996 10.6873C94.4996 10.3763 94.751 10.1248 95.0621 10.1248H96.1871C96.4981 10.1248 96.7496 10.3763 96.7496 10.6873ZM72.5621 32.6248H71.4371C71.126 32.6248 70.8746 32.3734 70.8746 32.0623C70.8746 31.7513 71.126 31.4998 71.4371 31.4998H72.5621C72.8731 31.4998 73.1246 31.7513 73.1246 32.0623C73.1246 32.3734 72.8731 32.6248 72.5621 32.6248ZM72.5621 11.2498H71.4371C71.126 11.2498 70.8746 10.9984 70.8746 10.6873C70.8746 10.3763 71.126 10.1248 71.4371 10.1248H72.5621C72.8731 10.1248 73.1246 10.3763 73.1246 10.6873C73.1246 10.9984 72.8731 11.2498 72.5621 11.2498ZM75.9371 32.6248H74.8121C74.501 32.6248 74.2496 32.3734 74.2496 32.0623C74.2496 31.7513 74.501 31.4998 74.8121 31.4998H75.9371C76.2481 31.4998 76.4996 31.7513 76.4996 32.0623C76.4996 32.3734 76.2481 32.6248 75.9371 32.6248ZM75.9371 11.2498H74.8121C74.501 11.2498 74.2496 10.9984 74.2496 10.6873C74.2496 10.3763 74.501 10.1248 74.8121 10.1248H75.9371C76.2481 10.1248 76.4996 10.3763 76.4996 10.6873C76.4996 10.9984 76.2481 11.2498 75.9371 11.2498ZM79.3121 32.6248H78.1871C77.876 32.6248 77.6246 32.3734 77.6246 32.0623C77.6246 31.7513 77.876 31.4998 78.1871 31.4998H79.3121C79.6231 31.4998 79.8746 31.7513 79.8746 32.0623C79.8746 32.3734 79.6231 32.6248 79.3121 32.6248ZM79.3121 11.2498H78.1871C77.876 11.2498 77.6246 10.9984 77.6246 10.6873C77.6246 10.3763 77.876 10.1248 78.1871 10.1248H79.3121C79.6231 10.1248 79.8746 10.3763 79.8746 10.6873C79.8746 10.9984 79.6231 11.2498 79.3121 11.2498ZM82.6871 32.6248H81.5621C81.251 32.6248 80.9996 32.3734 80.9996 32.0623C80.9996 31.7513 81.251 31.4998 81.5621 31.4998H82.6871C82.9981 31.4998 83.2496 31.7513 83.2496 32.0623C83.2496 32.3734 82.9981 32.6248 82.6871 32.6248ZM82.6871 11.2498H81.5621C81.251 11.2498 80.9996 10.9984 80.9996 10.6873C80.9996 10.3763 81.251 10.1248 81.5621 10.1248H82.6871C82.9981 10.1248 83.2496 10.3763 83.2496 10.6873C83.2496 10.9984 82.9981 11.2498 82.6871 11.2498ZM86.0621 32.6248H84.9371C84.626 32.6248 84.3746 32.3734 84.3746 32.0623C84.3746 31.7513 84.626 31.4998 84.9371 31.4998H86.0621C86.3731 31.4998 86.6246 31.7513 86.6246 32.0623C86.6246 32.3734 86.3731 32.6248 86.0621 32.6248ZM86.0621 11.2498H84.9371C84.626 11.2498 84.3746 10.9984 84.3746 10.6873C84.3746 10.3763 84.626 10.1248 84.9371 10.1248H86.0621C86.3731 10.1248 86.6246 10.3763 86.6246 10.6873C86.6246 10.9984 86.3731 11.2498 86.0621 11.2498ZM86.2589 6.74982H77.5599L92.8267 1.19345C93.4111 0.980822 94.0563 1.28176 94.2689 1.86563L96.0464 6.74982H92.6163C92.1517 5.44032 90.9058 4.49982 89.4371 4.49982C87.9684 4.49982 86.7224 5.44032 86.2589 6.74982ZM93.3746 10.6873C93.3746 10.9984 93.1231 11.2498 92.8121 11.2498H91.6871C91.376 11.2498 91.1246 10.9984 91.1246 10.6873C91.1246 10.3763 91.376 10.1248 91.6871 10.1248H92.8121C93.1231 10.1248 93.3746 10.3763 93.3746 10.6873ZM89.4371 5.62482C90.2679 5.62482 90.9851 6.08045 91.3749 6.74982H87.4987C87.8891 6.08045 88.6063 5.62482 89.4371 5.62482ZM89.4371 32.6248H88.3121C88.001 32.6248 87.7496 32.3734 87.7496 32.0623C87.7496 31.7513 88.001 31.4998 88.3121 31.4998H89.4371C89.7481 31.4998 89.9996 31.7513 89.9996 32.0623C89.9996 32.3734 89.7481 32.6248 89.4371 32.6248ZM89.4371 11.2498H88.3121C88.001 11.2498 87.7496 10.9984 87.7496 10.6873C87.7496 10.3763 88.001 10.1248 88.3121 10.1248H89.4371C89.7481 10.1248 89.9996 10.3763 89.9996 10.6873C89.9996 10.9984 89.7481 11.2498 89.4371 11.2498ZM92.8121 32.6248H91.6871C91.376 32.6248 91.1246 32.3734 91.1246 32.0623C91.1246 31.7513 91.376 31.4998 91.6871 31.4998H92.8121C93.1231 31.4998 93.3746 31.7513 93.3746 32.0623C93.3746 32.3734 93.1231 32.6248 92.8121 32.6248ZM96.1871 32.6248H95.0621C94.751 32.6248 94.4996 32.3734 94.4996 32.0623C94.4996 31.7513 94.751 31.4998 95.0621 31.4998H96.1871C96.4981 31.4998 96.7496 31.7513 96.7496 32.0623C96.7496 32.3734 96.4981 32.6248 96.1871 32.6248ZM99.5621 32.6248H98.4371C98.126 32.6248 97.8746 32.3734 97.8746 32.0623C97.8746 31.7513 98.126 31.4998 98.4371 31.4998H99.5621C99.8731 31.4998 100.125 31.7513 100.125 32.0623C100.125 32.3734 99.8731 32.6248 99.5621 32.6248ZM103.5 23.0623C103.5 23.3734 103.248 23.6248 102.937 23.6248H92.8121C92.501 23.6248 92.2496 23.3734 92.2496 23.0623V19.6873C92.2496 19.3763 92.501 19.1248 92.8121 19.1248H102.937C103.248 19.1248 103.5 19.3763 103.5 19.6873V23.0623Z" fill="black"/>
</g>
<g opacity="0.5">
<path d="M61.7447 22.3306C62.2309 21.9836 62.6433 21.5434 62.958 21.0357C63.2727 20.5279 63.4833 19.9627 63.5778 19.3729C63.7349 18.3821 63.4927 17.3694 62.9042 16.557C62.3156 15.7446 61.4289 15.1988 60.4385 15.0394C59.6016 14.9069 58.7464 15.1116 58.0602 15.6086C57.374 16.1056 56.9127 16.8543 56.7775 17.6907C56.6634 18.4048 56.8377 19.135 57.2619 19.7207C57.6861 20.3063 58.3256 20.6995 59.0397 20.8136C59.6551 20.9108 60.2839 20.7601 60.7885 20.3946C61.2931 20.0291 61.6323 19.4786 61.7319 18.8635C61.8154 18.3487 61.6984 17.8215 61.4048 17.3904C61.61 17.6214 61.7613 17.8951 61.8478 18.1917C61.9343 18.4883 61.9538 18.8004 61.9049 19.1055C61.7984 19.767 61.4604 20.3691 60.9513 20.8046C60.4422 21.2402 59.795 21.4808 59.125 21.4837H59.1184C59.0276 21.4838 58.9369 21.4794 58.8466 21.4703C58.7847 21.4646 58.7751 21.4639 57.4631 21.4556C56.7709 21.4515 55.7321 21.4455 55.5686 21.4398C55.453 21.4302 55.3366 21.4451 55.2272 21.4837H54.3386C55.0857 21.1723 55.7111 20.626 56.1202 19.9276C56.2937 19.5855 56.3711 19.2027 56.344 18.82C56.3169 18.4374 56.1863 18.0693 55.9661 17.7551C55.8865 17.6497 55.7836 17.5641 55.6653 17.505C55.5089 16.8324 55.2063 16.2025 54.7791 15.66C54.6353 15.4875 54.4288 15.3791 54.2051 15.3587C53.9814 15.3383 53.7587 15.4077 53.5862 15.5515C53.4136 15.6953 53.3052 15.9017 53.2848 16.1255C53.2645 16.3492 53.3338 16.5718 53.4776 16.7444C53.5019 16.7752 54.3862 17.8884 53.9133 18.8857C53.6483 19.4437 52.6519 20.5309 48.9342 21.1056C46.4221 21.3824 43.8956 21.5086 41.3684 21.4837H38.0001H31.6313C29.1039 21.5086 26.5773 21.3823 24.065 21.1056C20.3473 20.5309 19.351 19.4437 19.0864 18.8857C18.6134 17.8884 19.4978 16.7752 19.5221 16.7444C19.6651 16.5718 19.7338 16.3495 19.7132 16.1263C19.6926 15.9031 19.5843 15.6972 19.4121 15.5537C19.2399 15.4102 19.0179 15.3408 18.7946 15.3607C18.5714 15.3806 18.3651 15.4883 18.2211 15.66C17.7934 16.2023 17.4906 16.8323 17.3343 17.505C17.2161 17.5641 17.1132 17.6497 17.0335 17.7551C16.8133 18.0693 16.6826 18.4373 16.6555 18.82C16.6284 19.2027 16.7058 19.5855 16.8795 19.9276C17.2886 20.626 17.914 21.1723 18.6611 21.4837H17.7725C17.6631 21.4451 17.5467 21.4302 17.4311 21.4398C17.2676 21.4455 16.2288 21.4515 15.5361 21.4556C14.2246 21.4639 14.215 21.4646 14.1526 21.4703C14.0624 21.4794 13.9719 21.4838 13.8813 21.4837H13.8742C13.2042 21.4808 12.5571 21.2401 12.0481 20.8046C11.5391 20.369 11.2012 19.7669 11.0948 19.1055C11.0459 18.8004 11.0654 18.4883 11.1519 18.1917C11.2384 17.8951 11.3897 17.6214 11.5949 17.3904C11.3011 17.8214 11.184 18.3487 11.2678 18.8635C11.3674 19.4786 11.7066 20.0291 12.2112 20.3946C12.7157 20.7601 13.3446 20.9108 13.96 20.8136C14.3136 20.7572 14.6525 20.6316 14.9576 20.444C15.2626 20.2565 15.5277 20.0107 15.7377 19.7207C15.9478 19.4307 16.0986 19.1022 16.1816 18.7539C16.2646 18.4056 16.2782 18.0443 16.2216 17.6907C16.0866 16.8544 15.6255 16.1056 14.9393 15.6086C14.2532 15.1116 13.398 14.9069 12.5612 15.0394C11.5708 15.1988 10.6841 15.7446 10.0955 16.557C9.50701 17.3694 9.26474 18.3821 9.42188 19.3729C9.51622 19.9628 9.72686 20.528 10.0415 21.0358C10.3562 21.5435 10.7687 21.9837 11.255 22.3306C10.7687 22.6776 10.3562 23.1177 10.0416 23.6255C9.72687 24.1332 9.51623 24.6985 9.42188 25.2883C9.26474 26.2791 9.50701 27.2918 10.0955 28.1042C10.6841 28.9166 11.5708 29.4624 12.5612 29.6219C13.398 29.7543 14.2532 29.5496 14.9393 29.0526C15.6255 28.5556 16.0866 27.8069 16.2216 26.9705C16.2782 26.6169 16.2646 26.2557 16.1816 25.9074C16.0986 25.5591 15.9478 25.2305 15.7377 24.9405C15.5277 24.6505 15.2626 24.4047 14.9576 24.2172C14.6525 24.0297 14.3136 23.9041 13.96 23.8476C13.3446 23.7505 12.7157 23.9012 12.2112 24.2667C11.7066 24.6322 11.3674 25.1827 11.2678 25.7977C11.184 26.3125 11.3011 26.8399 11.5949 27.2708C11.3897 27.0399 11.2384 26.7662 11.1519 26.4696C11.0654 26.173 11.0459 25.8609 11.0948 25.5558C11.2012 24.8944 11.539 24.2922 12.0481 23.8567C12.5571 23.4211 13.2042 23.1805 13.8742 23.1776H13.8813C13.9719 23.1774 14.0624 23.1819 14.1526 23.1909C14.215 23.1966 14.2246 23.1973 15.5361 23.2057C16.2288 23.2097 17.2676 23.2157 17.4311 23.2214C17.5467 23.2311 17.6631 23.2161 17.7725 23.1776H18.6611C17.914 23.4889 17.2886 24.0352 16.8795 24.7336C16.7058 25.0757 16.6284 25.4586 16.6555 25.8412C16.6826 26.2239 16.8133 26.592 17.0335 26.9062C17.1132 27.0116 17.2161 27.0972 17.3343 27.1562C17.4906 27.8289 17.7934 28.4589 18.2211 29.0012C18.3651 29.1729 18.5714 29.2806 18.7946 29.3005C19.0179 29.3205 19.2399 29.2511 19.4121 29.1076C19.5843 28.9641 19.6926 28.7581 19.7132 28.5349C19.7338 28.3117 19.6651 28.0895 19.5221 27.9168C19.4978 27.8861 18.6134 26.7729 19.0864 25.7756C19.351 25.2175 20.3473 24.1303 24.065 23.5556C26.5773 23.2789 29.1039 23.1526 31.6313 23.1776H38.0001H41.3684C43.8956 23.1526 46.4221 23.2789 48.9342 23.5556C52.6519 24.1303 53.6483 25.2175 53.9133 25.7756C54.3862 26.7729 53.5019 27.8861 53.4776 27.9168C53.3338 28.0894 53.2645 28.3121 53.2848 28.5358C53.3052 28.7595 53.4136 28.966 53.5862 29.1098C53.7587 29.2536 53.9814 29.3229 54.2051 29.3025C54.4288 29.2822 54.6353 29.1738 54.7791 29.0012C55.2063 28.4587 55.5089 27.8288 55.6653 27.1562C55.7835 27.0972 55.8865 27.0116 55.9661 26.9062C56.1863 26.592 56.3169 26.2239 56.344 25.8412C56.3711 25.4586 56.2937 25.0757 56.1202 24.7336C55.7111 24.0352 55.0857 23.4889 54.3385 23.1776H55.2272C55.3366 23.2161 55.453 23.2311 55.5686 23.2214C55.7321 23.2157 56.7709 23.2097 57.4631 23.2057C58.7751 23.1973 58.7847 23.1966 58.8466 23.1909C58.9369 23.1819 59.0276 23.1774 59.1184 23.1776H59.125C59.795 23.1804 60.4422 23.4211 60.9513 23.8566C61.4604 24.2922 61.7984 24.8943 61.9049 25.5558C61.9538 25.8609 61.9343 26.173 61.8478 26.4696C61.7613 26.7662 61.61 27.0398 61.4048 27.2708C61.6984 26.8398 61.8154 26.3125 61.7319 25.7977C61.6323 25.1827 61.2931 24.6322 60.7885 24.2667C60.2839 23.9012 59.6551 23.7505 59.0397 23.8476C58.3256 23.9618 57.6861 24.3549 57.2619 24.9406C56.8377 25.5262 56.6634 26.2564 56.7775 26.9705C56.9127 27.8069 57.3739 28.5557 58.0602 29.0527C58.7464 29.5496 59.6016 29.7544 60.4385 29.6219C61.4289 29.4624 62.3156 28.9166 62.9042 28.1042C63.4927 27.2918 63.7349 26.2791 63.5778 25.2883C63.4833 24.6985 63.2727 24.1333 62.958 23.6255C62.6433 23.1178 62.2309 22.6776 61.7447 22.3306ZM59.996 26.3305C59.9405 26.4068 59.857 26.458 59.7639 26.4728C59.654 26.4903 59.5487 26.5293 59.4539 26.5876C59.3591 26.6458 59.2768 26.7222 59.2115 26.8123C59.1463 26.9024 59.0994 27.0044 59.0736 27.1127C59.0478 27.2209 59.0436 27.3331 59.0612 27.4429C59.0793 27.5585 59.1215 27.6689 59.1851 27.7671C58.991 27.6558 58.8243 27.5024 58.6972 27.3181C58.5702 27.1339 58.486 26.9236 58.451 26.7026C58.4295 26.5687 58.4346 26.432 58.466 26.3001C58.4975 26.1683 58.5546 26.0439 58.6341 25.9342C58.7136 25.8244 58.814 25.7314 58.9295 25.6605C59.045 25.5895 59.1733 25.542 59.3072 25.5207C59.4789 25.4936 59.6545 25.5357 59.7954 25.6376C59.9363 25.7396 60.031 25.8932 60.059 26.0649C60.0664 26.1111 60.0647 26.1584 60.0539 26.204C60.0431 26.2495 60.0234 26.2925 59.996 26.3305ZM12.9407 26.0649C12.9686 25.8932 13.0634 25.7396 13.2043 25.6376C13.3452 25.5357 13.5207 25.4936 13.6925 25.5207C13.8264 25.5421 13.9547 25.5896 14.0702 25.6605C14.1857 25.7315 14.2861 25.8245 14.3657 25.9342C14.4452 26.044 14.5024 26.1683 14.5339 26.3001C14.5654 26.432 14.5706 26.5687 14.5492 26.7026C14.5139 26.9236 14.4296 27.1339 14.3025 27.3181C14.1754 27.5023 14.0087 27.6557 13.8146 27.7671C13.8907 27.6487 13.9362 27.5133 13.9468 27.3729C13.9574 27.2326 13.9329 27.0918 13.8754 26.9633C13.818 26.8348 13.7294 26.7227 13.6177 26.6371C13.5061 26.5514 13.3748 26.495 13.2358 26.4728C13.1896 26.4655 13.1453 26.4492 13.1054 26.4247C13.0655 26.4002 13.0309 26.3681 13.0034 26.3302C12.976 26.2923 12.9563 26.2494 12.9456 26.2038C12.9348 26.1583 12.9332 26.1111 12.9407 26.0649ZM13.0036 18.3308C13.0591 18.2545 13.1426 18.2033 13.2358 18.1884C13.3748 18.1663 13.5061 18.1098 13.6177 18.0242C13.7294 17.9385 13.818 17.8264 13.8754 17.6979C13.9329 17.5694 13.9574 17.4286 13.9468 17.2883C13.9362 17.148 13.8907 17.0125 13.8146 16.8941C14.0087 17.0055 14.1754 17.1589 14.3025 17.3431C14.4296 17.5273 14.5139 17.7376 14.5492 17.9586C14.5706 18.0925 14.5654 18.2292 14.5339 18.3611C14.5024 18.4929 14.4452 18.6173 14.3657 18.727C14.2861 18.8367 14.1857 18.9297 14.0702 19.0007C13.9547 19.0716 13.8264 19.1191 13.6925 19.1405C13.5207 19.1676 13.3452 19.1256 13.2043 19.0236C13.0634 18.9216 12.9686 18.768 12.9407 18.5963C12.9331 18.5501 12.9348 18.5028 12.9456 18.4572C12.9564 18.4117 12.9761 18.3687 13.0036 18.3308ZM60.059 18.5963C60.031 18.768 59.9363 18.9216 59.7954 19.0236C59.6545 19.1255 59.4789 19.1676 59.3072 19.1405C59.1733 19.1192 59.045 19.0717 58.9295 19.0008C58.814 18.9298 58.7136 18.8368 58.6341 18.727C58.5546 18.6173 58.4975 18.4929 58.466 18.3611C58.4346 18.2292 58.4295 18.0925 58.451 17.9586C58.486 17.7376 58.5702 17.5273 58.6972 17.3431C58.8243 17.1589 58.991 17.0055 59.1851 16.8941C59.1215 16.9923 59.0793 17.1027 59.0612 17.2183C59.0436 17.3281 59.0478 17.4403 59.0736 17.5486C59.0994 17.6568 59.1463 17.7588 59.2115 17.8489C59.2768 17.939 59.3591 18.0154 59.4539 18.0736C59.5487 18.1319 59.654 18.1709 59.7639 18.1884C59.8101 18.1957 59.8544 18.2121 59.8943 18.2365C59.9341 18.261 59.9688 18.2931 59.9962 18.331C60.0236 18.3689 60.0433 18.4119 60.0541 18.4574C60.0648 18.5029 60.0665 18.5501 60.059 18.5963Z" fill="url(#paint0_linear_342_4441)"/>
<path d="M6.98189 23.5029C6.75001 23.503 6.5233 23.4344 6.33045 23.3056C6.1376 23.1768 5.98726 22.9938 5.89846 22.7796C5.80965 22.5654 5.78637 22.3296 5.83155 22.1022C5.87673 21.8748 5.98834 21.6658 6.15227 21.5018C6.31621 21.3378 6.52509 21.2261 6.75251 21.1809C6.97994 21.1356 7.21568 21.1588 7.42992 21.2475C7.64416 21.3362 7.82728 21.4865 7.95612 21.6793C8.08496 21.8721 8.15372 22.0987 8.15372 22.3306C8.15367 22.6414 8.03021 22.9395 7.81048 23.1593C7.59074 23.3792 7.29271 23.5028 6.98189 23.5029Z" fill="url(#paint1_linear_342_4441)"/>
<path d="M3.55888 23.0555C3.41552 23.0555 3.27539 23.0129 3.15621 22.9332C3.03704 22.8536 2.94416 22.7403 2.88933 22.6079C2.8345 22.4754 2.82018 22.3297 2.84818 22.1891C2.87618 22.0484 2.94524 21.9193 3.04662 21.818C3.14801 21.7166 3.27718 21.6476 3.41779 21.6196C3.5584 21.5917 3.70414 21.606 3.83658 21.6609C3.96903 21.7158 4.08223 21.8087 4.16187 21.9279C4.24151 22.0471 4.28402 22.1872 4.28403 22.3306C4.28406 22.4258 4.26532 22.5201 4.22889 22.6081C4.19245 22.6961 4.13903 22.776 4.07169 22.8433C4.00434 22.9107 3.92439 22.9641 3.8364 23.0005C3.74841 23.0369 3.6541 23.0556 3.55888 23.0555Z" fill="url(#paint2_linear_342_4441)"/>
<path d="M0.470559 22.8016C0.37742 22.8015 0.2864 22.7738 0.209002 22.722C0.131604 22.6702 0.0713042 22.5966 0.035724 22.5105C0.000143833 22.4245 -0.00911927 22.3298 0.00910561 22.2384C0.0273305 22.1471 0.0722252 22.0632 0.138115 21.9974C0.204004 21.9316 0.287931 21.8867 0.379286 21.8686C0.470641 21.8505 0.565324 21.8598 0.651365 21.8955C0.737407 21.9311 0.810945 21.9915 0.862684 22.0689C0.914423 22.1464 0.94204 22.2374 0.942045 22.3306C0.942049 22.3925 0.929853 22.4538 0.906155 22.5109C0.882456 22.5681 0.84772 22.6201 0.803932 22.6638C0.760144 22.7076 0.708163 22.7423 0.65096 22.7659C0.593758 22.7895 0.532456 22.8017 0.470559 22.8016Z" fill="url(#paint3_linear_342_4441)"/>
</g>
<g opacity="0.5">
<path d="M111.504 22.3306C111.018 21.9836 110.606 21.5434 110.291 21.0357C109.976 20.5279 109.766 19.9627 109.671 19.3729C109.514 18.3821 109.756 17.3694 110.345 16.557C110.933 15.7446 111.82 15.1988 112.811 15.0394C113.647 14.9069 114.503 15.1116 115.189 15.6086C115.875 16.1056 116.336 16.8543 116.471 17.6907C116.586 18.4048 116.411 19.135 115.987 19.7207C115.563 20.3063 114.923 20.6995 114.209 20.8136C113.594 20.9108 112.965 20.7601 112.461 20.3946C111.956 20.0291 111.617 19.4786 111.517 18.8635C111.434 18.3487 111.551 17.8215 111.844 17.3904C111.639 17.6214 111.488 17.8951 111.401 18.1917C111.315 18.4883 111.295 18.8004 111.344 19.1055C111.451 19.767 111.789 20.3691 112.298 20.8046C112.807 21.2402 113.454 21.4808 114.124 21.4837H114.131C114.221 21.4838 114.312 21.4794 114.402 21.4703C114.464 21.4646 114.474 21.4639 115.786 21.4556C116.478 21.4515 117.517 21.4455 117.68 21.4398C117.796 21.4302 117.912 21.4451 118.022 21.4837H118.91C118.163 21.1723 117.538 20.626 117.129 19.9276C116.955 19.5855 116.878 19.2027 116.905 18.82C116.932 18.4374 117.063 18.0693 117.283 17.7551C117.362 17.6497 117.465 17.5641 117.584 17.505C117.74 16.8324 118.043 16.2025 118.47 15.66C118.614 15.4875 118.82 15.3791 119.044 15.3587C119.268 15.3383 119.49 15.4077 119.663 15.5515C119.835 15.6953 119.944 15.9017 119.964 16.1255C119.985 16.3492 119.915 16.5718 119.771 16.7444C119.747 16.7752 118.863 17.8884 119.336 18.8857C119.601 19.4437 120.597 20.5309 124.315 21.1056C126.827 21.3824 129.353 21.5086 131.881 21.4837H135.249H141.618C144.145 21.5086 146.672 21.3823 149.184 21.1056C152.902 20.5309 153.898 19.4437 154.163 18.8857C154.636 17.8884 153.751 16.7752 153.727 16.7444C153.584 16.5718 153.515 16.3495 153.536 16.1263C153.556 15.9031 153.665 15.6972 153.837 15.5537C154.009 15.4102 154.231 15.3408 154.454 15.3607C154.678 15.3806 154.884 15.4883 155.028 15.66C155.456 16.2023 155.758 16.8323 155.915 17.505C156.033 17.5641 156.136 17.6497 156.216 17.7551C156.436 18.0693 156.566 18.4373 156.594 18.82C156.621 19.2027 156.543 19.5855 156.369 19.9276C155.96 20.626 155.335 21.1723 154.588 21.4837H155.477C155.586 21.4451 155.702 21.4302 155.818 21.4398C155.981 21.4455 157.02 21.4515 157.713 21.4556C159.024 21.4639 159.034 21.4646 159.096 21.4703C159.187 21.4794 159.277 21.4838 159.368 21.4837H159.375C160.045 21.4808 160.692 21.2401 161.201 20.8046C161.71 20.369 162.048 19.7669 162.154 19.1055C162.203 18.8004 162.184 18.4883 162.097 18.1917C162.011 17.8951 161.859 17.6214 161.654 17.3904C161.948 17.8214 162.065 18.3487 161.981 18.8635C161.882 19.4786 161.542 20.0291 161.038 20.3946C160.533 20.7601 159.904 20.9108 159.289 20.8136C158.935 20.7572 158.596 20.6316 158.291 20.444C157.986 20.2565 157.721 20.0107 157.511 19.7207C157.301 19.4307 157.15 19.1022 157.067 18.7539C156.984 18.4056 156.971 18.0443 157.027 17.6907C157.162 16.8544 157.624 16.1056 158.31 15.6086C158.996 15.1116 159.851 14.9069 160.688 15.0394C161.678 15.1988 162.565 15.7446 163.153 16.557C163.742 17.3694 163.984 18.3821 163.827 19.3729C163.733 19.9628 163.522 20.528 163.207 21.0358C162.893 21.5435 162.48 21.9837 161.994 22.3306C162.48 22.6776 162.893 23.1177 163.207 23.6255C163.522 24.1332 163.733 24.6985 163.827 25.2883C163.984 26.2791 163.742 27.2918 163.153 28.1042C162.565 28.9166 161.678 29.4624 160.688 29.6219C159.851 29.7543 158.996 29.5496 158.31 29.0526C157.624 28.5556 157.162 27.8069 157.027 26.9705C156.971 26.6169 156.984 26.2557 157.067 25.9074C157.15 25.5591 157.301 25.2305 157.511 24.9405C157.721 24.6505 157.986 24.4047 158.291 24.2172C158.596 24.0297 158.935 23.9041 159.289 23.8476C159.904 23.7505 160.533 23.9012 161.038 24.2667C161.542 24.6322 161.882 25.1827 161.981 25.7977C162.065 26.3125 161.948 26.8399 161.654 27.2708C161.859 27.0399 162.011 26.7662 162.097 26.4696C162.184 26.173 162.203 25.8609 162.154 25.5558C162.048 24.8944 161.71 24.2922 161.201 23.8567C160.692 23.4211 160.045 23.1805 159.375 23.1776H159.368C159.277 23.1774 159.187 23.1819 159.096 23.1909C159.034 23.1966 159.024 23.1973 157.713 23.2057C157.02 23.2097 155.981 23.2157 155.818 23.2214C155.702 23.2311 155.586 23.2161 155.477 23.1776H154.588C155.335 23.4889 155.96 24.0352 156.369 24.7336C156.543 25.0757 156.621 25.4586 156.594 25.8412C156.566 26.2239 156.436 26.592 156.216 26.9062C156.136 27.0116 156.033 27.0972 155.915 27.1562C155.758 27.8289 155.456 28.4589 155.028 29.0012C154.884 29.1729 154.678 29.2806 154.454 29.3005C154.231 29.3205 154.009 29.2511 153.837 29.1076C153.665 28.9641 153.556 28.7581 153.536 28.5349C153.515 28.3117 153.584 28.0895 153.727 27.9168C153.751 27.8861 154.636 26.7729 154.163 25.7756C153.898 25.2175 152.902 24.1303 149.184 23.5556C146.672 23.2789 144.145 23.1526 141.618 23.1776H135.249H131.881C129.353 23.1526 126.827 23.2789 124.315 23.5556C120.597 24.1303 119.601 25.2175 119.336 25.7756C118.863 26.7729 119.747 27.8861 119.771 27.9168C119.915 28.0894 119.985 28.3121 119.964 28.5358C119.944 28.7595 119.835 28.966 119.663 29.1098C119.49 29.2536 119.268 29.3229 119.044 29.3025C118.82 29.2822 118.614 29.1738 118.47 29.0012C118.043 28.4587 117.74 27.8288 117.584 27.1562C117.465 27.0972 117.363 27.0116 117.283 26.9062C117.063 26.592 116.932 26.2239 116.905 25.8412C116.878 25.4586 116.955 25.0757 117.129 24.7336C117.538 24.0352 118.163 23.4889 118.91 23.1776H118.022C117.912 23.2161 117.796 23.2311 117.68 23.2214C117.517 23.2157 116.478 23.2097 115.786 23.2057C114.474 23.1973 114.464 23.1966 114.402 23.1909C114.312 23.1819 114.221 23.1774 114.131 23.1776H114.124C113.454 23.1804 112.807 23.4211 112.298 23.8566C111.789 24.2922 111.451 24.8943 111.344 25.5558C111.295 25.8609 111.315 26.173 111.401 26.4696C111.488 26.7662 111.639 27.0398 111.844 27.2708C111.551 26.8398 111.434 26.3125 111.517 25.7977C111.617 25.1827 111.956 24.6322 112.461 24.2667C112.965 23.9012 113.594 23.7505 114.209 23.8476C114.923 23.9618 115.563 24.3549 115.987 24.9406C116.411 25.5262 116.586 26.2564 116.471 26.9705C116.336 27.8069 115.875 28.5557 115.189 29.0527C114.503 29.5496 113.647 29.7544 112.811 29.6219C111.82 29.4624 110.933 28.9166 110.345 28.1042C109.756 27.2918 109.514 26.2791 109.671 25.2883C109.766 24.6985 109.976 24.1333 110.291 23.6255C110.606 23.1178 111.018 22.6776 111.504 22.3306ZM113.253 26.3305C113.309 26.4068 113.392 26.458 113.485 26.4728C113.595 26.4903 113.7 26.5293 113.795 26.5876C113.89 26.6458 113.972 26.7222 114.037 26.8123C114.103 26.9024 114.15 27.0044 114.175 27.1127C114.201 27.2209 114.205 27.3331 114.188 27.4429C114.17 27.5585 114.127 27.6689 114.064 27.7671C114.258 27.6558 114.425 27.5024 114.552 27.3181C114.679 27.1339 114.763 26.9236 114.798 26.7026C114.82 26.5687 114.814 26.432 114.783 26.3001C114.752 26.1683 114.694 26.0439 114.615 25.9342C114.535 25.8244 114.435 25.7314 114.32 25.6605C114.204 25.5895 114.076 25.542 113.942 25.5207C113.77 25.4936 113.595 25.5357 113.454 25.6376C113.313 25.7396 113.218 25.8932 113.19 26.0649C113.183 26.1111 113.184 26.1584 113.195 26.204C113.206 26.2495 113.226 26.2925 113.253 26.3305ZM160.308 26.0649C160.28 25.8932 160.186 25.7396 160.045 25.6376C159.904 25.5357 159.728 25.4936 159.556 25.5207C159.423 25.5421 159.294 25.5896 159.179 25.6605C159.063 25.7315 158.963 25.8245 158.883 25.9342C158.804 26.044 158.747 26.1683 158.715 26.3001C158.684 26.432 158.678 26.5687 158.7 26.7026C158.735 26.9236 158.819 27.1339 158.946 27.3181C159.074 27.5023 159.24 27.6557 159.434 27.7671C159.358 27.6487 159.313 27.5133 159.302 27.3729C159.292 27.2326 159.316 27.0918 159.374 26.9633C159.431 26.8348 159.52 26.7227 159.631 26.6371C159.743 26.5514 159.874 26.495 160.013 26.4728C160.059 26.4655 160.104 26.4492 160.144 26.4247C160.184 26.4002 160.218 26.3681 160.246 26.3302C160.273 26.2923 160.293 26.2494 160.303 26.2038C160.314 26.1583 160.316 26.1111 160.308 26.0649ZM160.245 18.3308C160.19 18.2545 160.106 18.2033 160.013 18.1884C159.874 18.1663 159.743 18.1098 159.631 18.0242C159.52 17.9385 159.431 17.8264 159.374 17.6979C159.316 17.5694 159.292 17.4286 159.302 17.2883C159.313 17.148 159.358 17.0125 159.434 16.8941C159.24 17.0055 159.074 17.1589 158.946 17.3431C158.819 17.5273 158.735 17.7376 158.7 17.9586C158.678 18.0925 158.684 18.2292 158.715 18.3611C158.747 18.4929 158.804 18.6173 158.883 18.727C158.963 18.8367 159.063 18.9297 159.179 19.0007C159.294 19.0716 159.423 19.1191 159.556 19.1405C159.728 19.1676 159.904 19.1256 160.045 19.0236C160.186 18.9216 160.28 18.768 160.308 18.5963C160.316 18.5501 160.314 18.5028 160.303 18.4572C160.293 18.4117 160.273 18.3687 160.245 18.3308ZM113.19 18.5963C113.218 18.768 113.313 18.9216 113.454 19.0236C113.595 19.1255 113.77 19.1676 113.942 19.1405C114.076 19.1192 114.204 19.0717 114.32 19.0008C114.435 18.9298 114.535 18.8368 114.615 18.727C114.694 18.6173 114.752 18.4929 114.783 18.3611C114.814 18.2292 114.82 18.0925 114.798 17.9586C114.763 17.7376 114.679 17.5273 114.552 17.3431C114.425 17.1589 114.258 17.0055 114.064 16.8941C114.127 16.9923 114.17 17.1027 114.188 17.2183C114.205 17.3281 114.201 17.4403 114.175 17.5486C114.15 17.6568 114.103 17.7588 114.038 17.8489C113.972 17.939 113.89 18.0154 113.795 18.0736C113.7 18.1319 113.595 18.1709 113.485 18.1884C113.439 18.1957 113.395 18.2121 113.355 18.2365C113.315 18.261 113.28 18.2931 113.253 18.331C113.225 18.3689 113.206 18.4119 113.195 18.4574C113.184 18.5029 113.183 18.5501 113.19 18.5963Z" fill="url(#paint4_linear_342_4441)"/>
<path d="M166.267 23.5029C166.499 23.503 166.726 23.4344 166.919 23.3056C167.111 23.1768 167.262 22.9938 167.351 22.7796C167.439 22.5654 167.463 22.3296 167.417 22.1022C167.372 21.8748 167.261 21.6658 167.097 21.5018C166.933 21.3378 166.724 21.2261 166.497 21.1809C166.269 21.1356 166.033 21.1588 165.819 21.2475C165.605 21.3362 165.422 21.4865 165.293 21.6793C165.164 21.8721 165.095 22.0987 165.095 22.3306C165.095 22.6414 165.219 22.9395 165.439 23.1593C165.658 23.3792 165.956 23.5028 166.267 23.5029Z" fill="url(#paint5_linear_342_4441)"/>
<path d="M169.69 23.0555C169.834 23.0555 169.974 23.0129 170.093 22.9332C170.212 22.8536 170.305 22.7403 170.36 22.6079C170.415 22.4754 170.429 22.3297 170.401 22.1891C170.373 22.0484 170.304 21.9193 170.202 21.818C170.101 21.7166 169.972 21.6476 169.831 21.6196C169.691 21.5917 169.545 21.606 169.412 21.6609C169.28 21.7158 169.167 21.8087 169.087 21.9279C169.008 22.0471 168.965 22.1872 168.965 22.3306C168.965 22.4258 168.984 22.5201 169.02 22.6081C169.057 22.6961 169.11 22.776 169.177 22.8433C169.245 22.9107 169.325 22.9641 169.413 23.0005C169.501 23.0369 169.595 23.0556 169.69 23.0555Z" fill="url(#paint6_linear_342_4441)"/>
<path d="M172.778 22.8016C172.872 22.8015 172.963 22.7738 173.04 22.722C173.117 22.6702 173.178 22.5966 173.213 22.5105C173.249 22.4245 173.258 22.3298 173.24 22.2384C173.222 22.1471 173.177 22.0632 173.111 21.9974C173.045 21.9316 172.961 21.8867 172.87 21.8686C172.778 21.8505 172.684 21.8598 172.598 21.8955C172.512 21.9311 172.438 21.9915 172.386 22.0689C172.335 22.1464 172.307 22.2374 172.307 22.3306C172.307 22.3925 172.319 22.4538 172.343 22.5109C172.367 22.5681 172.401 22.6201 172.445 22.6638C172.489 22.7076 172.541 22.7423 172.598 22.7659C172.655 22.7895 172.717 22.8017 172.778 22.8016Z" fill="url(#paint7_linear_342_4441)"/>
</g>
<defs>
<linearGradient id="paint0_linear_342_4441" x1="0" y1="22.3306" x2="53.5" y2="22.3306" gradientUnits="userSpaceOnUse">
<stop offset="0.95"/>
<stop offset="0.95163" stop-color="#666666" stop-opacity="0"/>
</linearGradient>
<linearGradient id="paint1_linear_342_4441" x1="0" y1="22.3306" x2="53.5" y2="22.3306" gradientUnits="userSpaceOnUse">
<stop offset="0.95"/>
<stop offset="0.95163" stop-color="#666666" stop-opacity="0"/>
</linearGradient>
<linearGradient id="paint2_linear_342_4441" x1="0" y1="22.3306" x2="53.5" y2="22.3306" gradientUnits="userSpaceOnUse">
<stop offset="0.95"/>
<stop offset="0.95163" stop-color="#666666" stop-opacity="0"/>
</linearGradient>
<linearGradient id="paint3_linear_342_4441" x1="0" y1="22.3306" x2="53.5" y2="22.3306" gradientUnits="userSpaceOnUse">
<stop offset="0.95"/>
<stop offset="0.95163" stop-color="#666666" stop-opacity="0"/>
</linearGradient>
<linearGradient id="paint4_linear_342_4441" x1="173.249" y1="22.3306" x2="119.749" y2="22.3306" gradientUnits="userSpaceOnUse">
<stop offset="0.95"/>
<stop offset="0.95163" stop-color="#666666" stop-opacity="0"/>
</linearGradient>
<linearGradient id="paint5_linear_342_4441" x1="173.249" y1="22.3306" x2="119.749" y2="22.3306" gradientUnits="userSpaceOnUse">
<stop offset="0.95"/>
<stop offset="0.95163" stop-color="#666666" stop-opacity="0"/>
</linearGradient>
<linearGradient id="paint6_linear_342_4441" x1="173.249" y1="22.3306" x2="119.749" y2="22.3306" gradientUnits="userSpaceOnUse">
<stop offset="0.95"/>
<stop offset="0.95163" stop-color="#666666" stop-opacity="0"/>
</linearGradient>
<linearGradient id="paint7_linear_342_4441" x1="173.249" y1="22.3306" x2="119.749" y2="22.3306" gradientUnits="userSpaceOnUse">
<stop offset="0.95"/>
<stop offset="0.95163" stop-color="#666666" stop-opacity="0"/>
</linearGradient>
<clipPath id="clip0_342_4441">
<rect width="36" height="36" fill="white" transform="translate(68.6245)"/>
</clipPath>
</defs>
</svg>
