<svg width="62" height="63" viewBox="0 0 62 63" fill="none" xmlns="http://www.w3.org/2000/svg">
<g opacity="0.85">
<g filter="url(#filter0_d_325_2302)">
<path d="M0.685191 2.10157C0.693534 2.13926 0.701157 2.17698 0.706822 2.21496C0.751868 2.51522 0.850235 2.80946 0.886425 3.1157C0.975027 4.16043 0.925537 5.21433 0.739609 6.24244C0.563907 6.98804 0.51452 7.76475 0.594077 8.53128C0.699941 9.12776 1.14857 9.44992 1.2732 9.99039C1.34452 10.2997 1.22188 10.5989 1.38697 10.8786C1.58897 11.2206 1.9018 11.2151 1.99728 11.7486C2.10222 12.3353 1.64155 12.8625 1.93831 13.4085C2.06793 13.647 2.26626 13.7755 2.37279 14.0322C2.47695 14.2606 2.55387 14.5038 2.60153 14.7553C2.57404 15.0098 2.14898 15.3989 2.01546 15.6011C1.83871 15.8687 1.65184 16.0749 1.46302 16.3211C1.19702 16.6678 0.936146 16.9924 0.649221 17.3185C0.382313 17.6218 0.277695 17.775 0.54914 18.2096C0.6486 18.3688 0.839252 18.4259 0.910535 18.6075C1.02295 18.8938 0.87742 19.3736 0.837937 19.66C0.694127 20.703 0.576219 21.7418 0.414698 22.7733C0.308396 23.4522 0.427255 24.1383 0.381185 24.8172C0.361425 25.108 0.217681 25.3663 0.200153 25.6484C0.174647 26.0584 0.490017 26.6675 0.690428 27.0233C0.913718 27.4197 1.28689 27.7599 1.47326 28.1763C1.84683 29.0109 1.56887 30.1252 1.74625 30.9665C1.8437 31.6157 1.8738 32.2755 1.83593 32.9327C1.85802 33.1807 1.89244 33.4271 1.93902 33.6707C1.96632 34.0884 1.68393 34.2319 1.32627 34.5837C1.06603 34.7914 0.845331 35.0565 0.677374 35.3633C0.491182 35.808 0.661481 36.0653 0.722188 36.4807C0.826222 37.1925 0.561034 37.9327 0.55698 38.6661C0.554008 39.1977 0.365336 39.493 0.374016 40.052C0.410499 40.5517 0.365479 41.0548 0.241215 41.536C0.14428 41.8363 -0.040845 42.0506 0.00808697 42.3917C0.0893524 42.9587 0.775445 43.207 1.0074 43.6367C1.24448 44.0759 1.10941 44.9634 1.19735 45.5082C1.32663 46.3092 1.27617 46.9777 1.52196 47.7466C1.65753 48.3044 1.70253 48.8855 1.65477 49.4616C1.68814 49.7941 1.6925 50.1296 1.66779 50.4631C1.57495 50.8147 1.51143 50.6356 1.28299 50.8945C0.932638 51.2915 0.772318 52.0721 0.562831 52.5621C-0.0448734 53.9834 0.191051 55.7754 0.191051 57.3506C1.09079 57.7891 2.36016 57.4317 3.30114 57.6087C3.79795 57.7116 4.30183 57.7642 4.80683 57.7658C5.72788 57.7609 6.56358 57.5553 7.47837 57.5592C8.83063 57.5649 10.1627 57.3933 11.5112 57.3506C12.1067 57.3318 12.6946 57.3148 13.2883 57.2451C13.6538 57.1586 14.0278 57.1278 14.4005 57.1532C14.7132 57.2254 15.0204 57.4437 15.3519 57.5163C16.5567 57.7801 17.7857 57.2677 18.9915 57.3292C19.362 57.3481 19.5377 57.554 19.9232 57.5632C20.843 57.5853 21.7675 57.5584 22.688 57.5584C23.4453 57.5584 24.2333 57.6389 24.9883 57.5684C25.2917 57.501 25.5821 57.3725 25.8458 57.1891C26.6986 56.8057 27.6263 56.9351 28.5505 56.9351C28.8495 57.221 29.2231 57.3871 29.6135 57.4076C30.2923 57.5193 31.0101 57.5663 31.6502 57.7192C32.7902 57.963 33.9678 57.8335 35.0455 57.3459C35.8102 57.0004 36.6991 57.1381 37.5151 57.1429C38.6711 57.1497 39.7641 56.9916 40.9006 56.8896C42.8857 56.7116 45.0754 56.4439 47.0423 56.8896C47.474 56.9875 47.9256 57.016 48.364 57.1015C48.8285 57.1852 49.3017 57.1855 49.7663 57.1022C50.0192 57.041 50.2718 56.9781 50.5242 56.9137C50.6905 56.9658 50.8548 57.0254 51.017 57.0926C51.3837 57.1346 51.7509 57.1689 52.1187 57.1954C52.7495 57.2473 53.3673 57.4246 53.9441 57.7192C54.6364 58.1105 55.31 57.9689 56.0743 57.9725C56.4489 57.9742 56.9749 58.1089 57.2759 57.7662C57.292 56.9995 57.2137 56.234 57.0434 55.4919C56.9172 54.7672 56.9172 54.0214 57.0434 53.2967C57.2013 52.4558 57.285 51.599 57.2932 50.7392C57.2577 50.0395 56.9597 49.6232 56.7133 49.0283C56.5037 48.5021 56.4571 47.9108 56.5812 47.3507C56.7181 46.9525 56.8321 46.5446 56.9224 46.1296C56.9582 45.5658 56.6648 45.0417 56.5753 44.499C56.5038 44.0659 56.5755 43.651 56.5033 43.2221C56.3201 42.3405 56.2116 41.441 56.1794 40.536C56.1509 39.8448 56.2076 39.1524 56.348 38.479C56.5636 37.8204 56.8175 37.1786 57.1079 36.5582C57.4748 35.5779 58.1469 34.349 57.9713 33.2576C57.8375 32.426 57.7661 31.6092 57.619 30.7748C57.4496 30.0708 57.3395 29.3502 57.2902 28.6225C57.2787 27.7379 56.8033 26.8703 56.9327 25.9903C56.9839 25.6425 57.2894 25.2872 57.3026 24.9527C57.27 24.7525 57.1821 24.5694 57.0516 24.43C56.8132 23.9543 56.6928 23.4141 56.7032 22.8669C56.7169 22.3268 56.7284 21.7867 56.7377 21.2465C56.7516 21.1317 56.7452 21.015 56.7189 20.903C56.6927 20.7911 56.6471 20.6862 56.5848 20.5944C56.3277 18.8589 56.6381 17.0483 57.0415 15.3844C57.3601 14.0705 57.6602 13.1924 57.6393 11.9005C57.624 10.9579 57.6418 10.0127 57.6418 9.06984C57.6418 7.96633 57.8039 6.8971 57.8291 5.80186C57.8505 4.8673 57.6804 3.98726 57.6324 3.064C57.6483 2.58399 57.6379 2.10333 57.6011 1.62479C57.5095 1.16229 57.4619 0.689987 57.4589 0.215956C57.4594 0.15853 57.0903 0.724393 57.0891 0.666968C56.6724 0.588933 56.248 0.578845 55.8288 0.63701C55.2121 0.635633 54.5963 0.580016 53.987 0.470669C53.3897 0.377633 52.936 0.61548 52.3377 0.639248C51.3047 0.680302 50.2595 0.631481 49.2255 0.631481C48.26 0.631481 47.4529 1.00574 46.5498 1.20781C45.597 1.42102 44.7788 1.06383 43.8475 1.03628C43.3205 0.998907 42.792 0.998907 42.265 1.03628C41.8481 1.08548 41.45 1.25365 41.0259 1.2696C40.4481 1.29075 39.8738 1.15926 39.3483 0.88549C39.1759 0.793285 39.1619 0.660195 38.9672 0.611496C38.6628 0.535371 38.128 0.797567 37.8364 0.891393C37.1739 1.10008 36.492 1.21927 35.8048 1.2465C34.6049 1.35267 33.3979 1.26634 32.2192 0.990075C31.949 0.890925 31.6672 0.838468 31.3832 0.834463C30.6392 0.816179 29.8933 0.864759 29.1494 0.849052C28.8594 0.865569 28.5687 0.850398 28.2812 0.803756C28.0952 0.750585 27.9297 0.629538 27.8102 0.459205C27.1945 0.238312 26.5726 0.548625 25.989 0.631481C25.9844 0.687577 25.7968 0.743631 25.7921 0.799685C25.1191 0.839036 20.7785 0.878885 20.8354 1.42522C20.3809 1.61657 19.7405 1.33156 19.2696 1.27438C17.798 1.09583 16.3775 0.444038 14.908 0.185623C13.864 -0.067009 12.7845 -0.0617092 11.7425 0.201163C11.1065 0.396834 10.5205 0.822583 9.85336 0.85408C8.67461 0.883074 7.49532 0.843252 6.32017 0.734779C6.01985 0.713878 5.71951 0.693681 5.419 0.676853C5.26879 0.668459 5.11854 0.661013 4.96826 0.654503C4.83756 0.639219 4.70607 0.634715 4.5748 0.641036C4.47841 0.655777 4.38137 0.664393 4.28414 0.666841C3.79519 0.669625 3.30621 0.679017 2.81729 0.668712C2.68002 0.65454 2.54346 0.632529 2.40814 0.602765C2.29037 0.592882 2.17218 0.590953 2.05421 0.596989C1.75301 0.598069 1.45647 0.574389 1.15615 0.562256C1.08132 0.559431 1.00648 0.556632 0.931619 0.553861C0.829744 0.544304 0.727922 0.533944 0.62615 0.522781C0.561885 0.539485 0.553358 0.548373 0.533707 0.633763C0.47643 0.828288 0.46076 1.03551 0.488 1.23827C0.524812 1.4506 0.597891 1.64644 0.633833 1.86368C0.647069 1.94379 0.667736 2.02258 0.685191 2.10157Z" fill="#6665D2"/>
</g>
<path d="M41.6792 19.9852C37.5539 16.8982 33.6015 16.985 33.6015 16.985L33.1976 17.4465C38.1019 18.9178 40.381 21.0814 40.381 21.0814C33.3643 17.2183 24.4269 17.246 17.1286 21.0814C17.1286 21.0814 19.4942 18.8023 24.6872 17.3309L24.3988 16.9846C24.3988 16.9846 20.4752 16.8982 16.3211 19.9849C16.3211 19.9849 12.1667 27.4567 12.1667 36.6597C12.1667 36.6597 14.5903 40.8141 20.9659 41.0161C20.9659 41.0161 22.0333 39.7467 22.8987 38.6505C19.235 37.5543 17.8501 35.2751 17.8501 35.2751C20.1519 36.7155 22.4793 37.6169 25.3798 38.189C30.0987 39.1603 35.9685 38.1616 40.3526 35.2751C40.3526 35.2751 38.9101 37.6119 35.1308 38.6793C35.9962 39.7467 37.0348 40.9873 37.0348 40.9873C43.4104 40.7853 45.8336 36.6309 45.8336 36.6601C45.8332 27.457 41.6792 19.9852 41.6792 19.9852ZM23.6198 33.977C22.0041 33.977 20.6771 32.5633 20.6771 30.8036C20.7952 26.5891 26.4739 26.602 26.5624 30.8036C26.5624 32.5633 25.2639 33.977 23.6198 33.977ZM34.1494 33.977C32.5337 33.977 31.2068 32.5633 31.2068 30.8036C31.3364 26.5973 36.9441 26.5955 37.0921 30.8036C37.0921 32.5633 35.7939 33.977 34.1494 33.977Z" fill="white"/>
</g>
<defs>
<filter id="filter0_d_325_2302" x="0" y="0" width="62" height="63" filterUnits="userSpaceOnUse" color-interpolation-filters="sRGB">
<feFlood flood-opacity="0" result="BackgroundImageFix"/>
<feColorMatrix in="SourceAlpha" type="matrix" values="0 0 0 0 0 0 0 0 0 0 0 0 0 0 0 0 0 0 127 0" result="hardAlpha"/>
<feOffset dx="2" dy="3"/>
<feGaussianBlur stdDeviation="1"/>
<feComposite in2="hardAlpha" operator="out"/>
<feColorMatrix type="matrix" values="0 0 0 0 0 0 0 0 0 0 0 0 0 0 0 0 0 0 0.4 0"/>
<feBlend mode="normal" in2="BackgroundImageFix" result="effect1_dropShadow_325_2302"/>
<feBlend mode="normal" in="SourceGraphic" in2="effect1_dropShadow_325_2302" result="shape"/>
</filter>
</defs>
</svg>
