<svg width="26" height="36" viewBox="0 0 26 36" fill="none" xmlns="http://www.w3.org/2000/svg">
<g style="mix-blend-mode:multiply" filter="url(#filter0_d_325_2321)">
<path fill-rule="evenodd" clip-rule="evenodd" d="M23.9164 0.520071C23.9164 0.580315 23.9892 0.593791 24 0.520071C23.8597 0.504614 23.6919 0.29178 23.6163 0.520071C23.3795 0.272382 23.104 0.111188 22.8138 0.0504771C22.5236 -0.0102334 22.2274 0.0313746 21.951 0.17169C22.005 0.253336 22.1619 0.197055 22.1647 0.346079C22.0592 0.197055 22.0133 0.38492 21.951 0.462206C21.9457 0.371048 21.9565 0.260866 21.8646 0.287817C21.8403 0.392451 21.9917 0.52998 21.8646 0.578333C21.7077 0.450712 21.8051 0.504614 21.7807 0.346079C21.7727 0.39245 21.7456 0.415835 21.6941 0.403944C21.7024 0.334585 21.7727 0.27236 21.6941 0.229952C21.6861 0.293762 21.6481 0.319128 21.6105 0.346079C21.6238 0.137208 21.6808 0.222025 21.6105 0.113824C20.6877 -0.015037 19.759 -0.0345237 18.834 0.0555628C18.1502 0.160196 17.4175 0.396414 16.8688 0.520071C16.8957 0.524035 16.9201 0.527998 16.912 0.578333C16.6047 0.562268 16.2985 0.641495 16.0146 0.810587C15.7821 0.791167 15.2306 0.791167 14.9901 0.810587C14.9541 0.726383 14.9115 0.648442 14.863 0.578333C14.8547 0.648089 14.8683 0.744795 14.8195 0.752326C14.7359 0.613211 14.5898 0.522053 14.6034 0.403944C14.525 0.508578 14.5546 0.760252 14.4331 0.810587C14.4276 0.68257 14.3276 0.887873 14.2194 0.810587C14.2141 0.744795 14.2305 0.648089 14.1762 0.636199C14.1627 1.00004 13.5301 0.740832 13.2815 0.752326C12.9272 0.771746 12.2003 1.14906 11.9135 0.69446C11.9351 0.845465 11.7648 1.02342 11.7001 0.870435C11.8083 0.880343 11.8055 0.736868 11.8731 0.69446C11.792 0.688515 11.8432 0.504614 11.7432 0.520071C11.792 0.771747 11.4675 0.686534 11.3593 0.988544C11.4512 0.934246 11.354 0.655619 11.3161 0.810587C11.3405 0.810587 11.3648 0.860922 11.3161 0.870435C11.1863 0.748759 11.5027 0.587845 11.3593 0.462206C11.3648 0.760253 10.881 0.818119 11.062 0.988544C10.9189 1.004 10.7971 0.99647 10.7592 0.870435C10.6133 1.25568 10.316 1.03492 9.94835 0.988544C9.83078 1.07665 9.70133 1.12743 9.56881 1.13742C9.43629 1.1474 9.30383 1.11636 9.18045 1.04641C9.32108 1.08525 9.25076 0.922751 9.22391 0.870435C9.25169 0.874946 9.2797 0.86568 9.30328 0.844185C9.32686 0.82269 9.34457 0.790266 9.35346 0.752326C9.27236 0.698424 9.20758 0.926715 9.18045 0.752326C9.22917 0.740832 9.248 0.688515 9.2671 0.636199C9.14806 0.648089 9.11844 0.547419 9.18045 0.462206C9.09408 0.597754 8.99138 0.748759 8.88315 0.69446C8.99388 0.764216 9.02903 0.767783 8.92633 0.870435C9.03457 0.98458 9.12094 0.810588 9.18045 0.928697C8.78045 0.996471 8.89118 1.1122 8.4992 1.04641C8.5477 1.02283 8.59136 0.982382 8.62626 0.928697C8.54515 0.922752 8.59664 0.736869 8.4992 0.752326C8.39401 0.831594 8.46958 0.870435 8.41283 0.928697C8.18584 1.15897 7.91262 0.87638 7.68839 0.928697C7.73158 0.924734 7.79635 0.95763 7.72881 0.988544C7.6668 0.938209 7.56382 0.94019 7.60175 0.756289C7.50458 0.887873 7.39358 0.992507 7.25849 0.810587C7.25046 0.880343 7.26652 0.97705 7.2178 0.988544C6.79996 0.931968 6.38538 0.8337 5.97709 0.69446C5.83647 0.899367 5.4121 0.703973 5.4229 0.462206C5.41167 0.503213 5.39418 0.540113 5.37172 0.570214C5.34926 0.600315 5.32239 0.622858 5.29307 0.636199C4.56863 0.68257 3.56295 0.570406 2.81692 0.578333C2.67339 0.585042 2.52985 0.565463 2.38979 0.520071C1.71933 0.535529 1.13828 0.725375 0.551425 0.69446C0.586581 0.68257 0.63807 0.69446 0.63807 0.636199C0.378413 0.665528 0.459521 1.07772 0.297304 1.10467C0.321665 1.10863 0.346025 1.1122 0.340765 1.16254C0.383949 1.16254 0.389485 1.2093 0.424365 1.2208C0.432669 0.922752 0.505473 1.2751 0.511009 1.27708C0.556961 1.31354 0.621737 1.2093 0.63807 1.2208C0.732742 1.28659 0.81911 1.58067 0.981326 1.80143C1.31504 2.17453 1.61559 2.60472 1.87628 3.0824C1.77358 3.26828 1.62216 3.0939 1.5787 3.14066C1.70327 3.191 1.62742 3.22944 1.62216 3.37292C1.84362 3.15612 1.8032 3.37649 1.91947 3.14066C2.01663 3.3206 1.95739 3.37292 2.00584 3.49063C2.21151 3.39987 2.31421 3.88737 2.21954 4.13151C2.29511 4.09663 2.39532 4.30154 2.43297 4.13151C2.36266 4.17392 2.24639 4.01538 2.3466 4.01538C2.54397 4.22822 2.69789 4.45651 2.64667 4.71215C2.65412 4.67376 2.67121 4.64067 2.69467 4.61924C2.71812 4.5978 2.74628 4.58953 2.77373 4.59602C2.71948 4.78547 2.91436 4.63843 2.8601 4.82788C2.86564 4.8901 2.67629 4.94797 2.81692 5.00227C2.82771 4.94044 2.86564 4.91309 2.90356 4.88614C2.83851 5.1069 3.01955 4.9983 2.98716 5.17824C2.93041 5.10294 2.82771 5.10294 2.81692 5.23849C2.87643 5.38909 3.01152 5.43586 3.03062 5.64473C3.09032 5.65392 3.15042 5.6335 3.20087 5.58687C3.36694 5.78166 3.48684 6.04526 3.54412 6.3415C4.29015 7.54914 4.67133 8.44685 5.37972 9.77855C5.46608 9.643 5.36892 9.71275 5.33653 9.60416C5.4121 9.63507 5.58788 9.53282 5.59314 9.66242C5.45529 9.65053 5.48242 9.7512 5.4229 9.95254C5.49668 9.97329 5.57321 9.95256 5.6366 9.89467C5.45003 10.1963 5.74733 10.0263 5.6366 10.3592C5.85003 10.4016 5.8337 10.75 5.97709 10.8855C6.05017 10.7849 5.91481 10.6572 6.10415 10.6493C6.07979 10.773 6.01502 10.8427 5.97709 10.9434C6.16893 11.0635 6.16367 10.9588 6.1908 11.1756C6.27191 11.1871 6.28519 11.1098 6.36381 11.1178C6.34194 11.2823 6.23924 11.35 6.36381 11.5839C6.3663 11.4911 6.35551 11.3829 6.44741 11.4079C6.45571 11.4622 6.54208 12.157 6.66112 12.0484C6.56091 12.0484 6.67717 11.8918 6.74471 11.9323C6.65835 12.1276 6.84492 12.1241 6.74471 12.3987C6.93129 12.4685 6.85572 12.5303 7.0016 12.631C6.95842 12.629 6.89364 12.6579 6.95842 12.6908C7.15026 12.6928 6.87177 12.3912 7.08825 12.3987C7.0016 12.5188 7.1043 12.5109 7.13143 12.631C7.0232 12.6619 6.96922 12.9929 7.08825 12.8633C7.11272 12.7517 7.15742 12.6515 7.2178 12.5727C7.32078 12.7547 7.16382 12.8866 7.2178 12.9794C7.29891 12.929 7.34763 13.1573 7.30168 13.3876C7.48022 13.5327 7.57213 13.2116 7.72881 13.3876C7.72078 13.432 7.72881 13.5018 7.68839 13.5037C7.62334 13.4903 7.61531 13.409 7.55856 13.3876C7.53144 13.5794 7.46666 13.4978 7.42874 13.5636C7.69365 13.7649 7.55856 13.5521 7.85864 13.5037C7.82902 13.7534 7.66126 13.7495 7.77199 13.9702C7.80715 13.7495 7.82625 14.3031 7.89905 14.0301C7.84507 13.9682 7.85864 13.7958 7.9857 13.738C7.98354 13.8018 7.99906 13.8644 8.02888 13.912C7.97767 13.9044 7.93172 13.8077 7.89905 13.912C7.95857 14.0903 8.02085 13.8965 8.06957 14.0864C7.92092 14.0939 8.15871 14.2798 8.02888 14.2603C7.87746 14.2449 8.10473 14.0051 7.9857 14.0301C7.99649 14.1307 7.78279 14.208 7.89905 14.2603C7.96936 14.1252 7.89379 14.2798 7.89905 14.3785C8.33172 14.8798 8.48314 15.3867 9.01021 16.1259C8.99138 15.942 9.0617 15.8861 9.13727 15.8338C9.07249 16.1105 8.99388 16.393 9.22391 16.4164C9.22917 16.5615 9.30502 16.5983 9.18045 16.6487C9.19402 16.5555 9.1237 16.4917 9.09685 16.5904C9.18322 16.6059 9.18045 16.7494 9.2671 16.7648C9.2372 16.6098 9.35346 16.6523 9.39416 16.5904C9.41224 16.7138 9.46133 16.8234 9.53211 16.8983C9.60288 16.9733 9.69042 17.0084 9.77811 16.9971C9.53727 17.1635 9.84288 17.3026 9.90766 17.349C9.81852 17.3645 9.96994 17.504 9.82129 17.5234C9.82129 17.4073 9.70503 17.4497 9.73741 17.2872C9.6895 17.3239 9.63471 17.3381 9.58084 17.3277C9.52697 17.3173 9.47676 17.2829 9.43734 17.2293C9.52399 17.1132 9.52122 17.2563 9.60758 17.2872C9.56163 17.024 9.33741 17.1711 9.35346 16.9408C9.20204 16.9039 9.18599 17.328 9.13727 17.4073C9.11844 17.4362 9.06696 17.3336 9.0509 17.349C8.89671 17.4961 8.44799 18.3942 8.75332 18.3363C8.68578 18.5257 8.55871 18.0846 8.53989 18.3942C8.58584 18.452 8.71014 18.456 8.75332 18.5143C8.76688 18.6458 8.62903 18.5761 8.62626 18.6843C8.68301 18.8297 8.78598 18.6225 8.79678 18.7445C8.79124 18.8159 8.80204 18.909 8.75332 18.9205C8.69408 18.6728 8.40729 18.8392 8.36965 18.9768C8.35331 18.8781 8.43165 18.8278 8.36965 18.8044C8.1911 18.8083 7.92092 19.1528 8.11276 19.4429C7.9749 19.4314 8.04521 19.6965 7.89905 19.6751C7.90459 19.6093 7.9749 19.5435 7.89905 19.5031C7.83705 19.6288 7.67206 19.6173 7.64493 19.7952C7.69088 19.8067 7.74791 19.8884 7.68839 19.9074C7.5749 19.7564 7.65324 20.0041 7.51538 19.9656C7.65047 20.2712 7.48022 20.3719 7.60175 20.7242C7.47664 20.6693 7.3429 20.6693 7.2178 20.7242C7.25046 20.8404 7.1342 20.9176 7.2178 21.1305C7.15302 21.119 7.145 21.0377 7.08825 21.0144C6.98001 21.3124 6.95565 21.4674 6.74471 21.5371C6.71509 21.8043 6.86098 21.4519 6.83136 21.7151C6.73143 21.7381 6.73946 21.6065 6.61793 21.6568C6.56367 21.8003 6.71233 21.9394 6.61793 21.9473C6.50693 21.742 6.46651 22.1253 6.32035 22.0635C6.24478 22.6401 5.85557 22.7872 5.6366 23.2866C5.66415 23.3105 5.68653 23.3448 5.70129 23.3858C5.71604 23.4268 5.72259 23.4728 5.7202 23.5188C5.6366 23.4336 5.57155 23.5767 5.50678 23.4027C5.54193 23.7007 5.23383 23.7083 5.33653 23.929C5.13086 23.9405 4.95258 24.231 5.03895 24.4514H4.86594C4.83355 24.707 4.95258 24.405 4.95258 24.5675C4.28514 25.4457 3.68357 26.4212 3.15768 27.4782C2.95485 27.6876 2.79361 27.969 2.68986 28.2947C2.68709 28.2602 2.68183 28.2253 2.64667 28.2368C2.63311 28.349 2.70342 28.349 2.73055 28.4108C2.59519 28.3335 2.2439 28.8135 2.38979 28.9336C2.2248 28.9217 2.23311 29.1464 2.17636 29.282C1.98978 29.1694 1.63822 29.9399 1.44915 30.0406C1.48957 30.056 1.48957 30.1991 1.44915 30.2146C1.41649 30.079 1.34645 30.4972 1.23821 30.2728C1.22188 30.4817 1.12195 30.4857 1.19503 30.683C1.1132 30.7364 1.02683 30.7741 0.938142 30.7952C0.886654 31.2752 0.578553 31.3643 0.681254 31.7861C0.567757 31.7591 0.370385 31.817 0.297304 31.7861C0.432669 31.9486 -0.0323879 32.2351 0.210937 32.3707C0.20284 32.3154 0.20678 32.2579 0.222225 32.206C0.237669 32.154 0.263875 32.1101 0.297304 32.0801C0.281249 32.2506 0.273221 32.4325 0.170244 32.4868C0.111005 32.4943 0.010796 32.2894 0 32.4285C0.116264 32.5292 -0.0296197 32.9897 0.467825 32.9513C0.327201 33.2648 0.551425 33.1059 0.511009 33.4194C0.68679 33.4467 0.470317 33.2608 0.63807 33.2454C0.825995 33.4435 1.0447 33.5735 1.27541 33.624C1.50612 33.6745 1.74194 33.6442 1.96265 33.5355C2.47291 33.7772 3.01927 33.8173 3.54412 33.6516C3.54136 33.6516 3.52779 33.6865 3.67118 33.7099C4.01444 33.7677 4.39285 33.5434 4.73888 33.6516C4.69293 33.4194 4.61182 33.3924 4.78234 33.5355C4.80116 33.4309 4.72005 33.3845 4.78234 33.3615C4.78234 33.4348 4.85514 33.4118 4.86594 33.4737C4.83919 33.4835 4.8159 33.5071 4.80048 33.5399C4.78507 33.5727 4.77861 33.6124 4.78234 33.6516C5.09549 33.6829 5.4101 33.6635 5.7202 33.5938C5.67425 33.5783 5.6175 33.4966 5.67702 33.4737C5.69861 33.5819 5.72574 33.4503 5.76366 33.4194C5.75536 33.6401 5.79882 33.4388 5.89322 33.4737C5.89875 33.5434 5.88519 33.6401 5.93668 33.6516C6.81961 33.7046 7.70406 33.6657 8.58307 33.5355H8.66972C8.65616 33.8724 9.12647 33.5355 9.18045 33.5355C9.2183 33.5854 9.26233 33.6248 9.31028 33.6516C9.75375 33.7329 10.3132 33.5549 10.9322 33.6516C10.9262 33.6299 10.9236 33.6066 10.9246 33.5833C10.9257 33.56 10.9303 33.5373 10.9382 33.5168C10.946 33.4964 10.957 33.4787 10.9702 33.465C10.9834 33.4513 10.9985 33.4419 11.0146 33.4376C11.0306 33.4332 11.0471 33.434 11.0629 33.4399C11.0787 33.4457 11.0934 33.4565 11.1059 33.4714C11.1184 33.4863 11.1285 33.505 11.1354 33.5262C11.1424 33.5473 11.1459 33.5704 11.1459 33.5938C11.0836 33.528 11.0404 33.5315 11.0188 33.6516C12.6814 33.6322 13.5384 33.6207 15.2035 33.6516C15.209 33.5819 15.1955 33.4852 15.2467 33.4737C15.2793 33.8684 15.647 33.3266 15.5443 33.6516C15.6398 33.5994 15.7425 33.5796 15.8443 33.5938C16.5978 33.6578 17.3533 33.6578 18.1068 33.5938C18.5799 33.4273 19.2855 33.7523 19.7289 33.5355C20.2762 33.3605 20.8403 33.3213 21.3968 33.4194C21.4751 33.4039 21.3724 33.3227 21.44 33.2993C21.5482 33.3072 21.4995 33.528 21.6105 33.5355C21.6645 33.3885 21.4427 33.3496 21.567 33.2993C21.6158 33.3112 21.6888 33.2917 21.6941 33.3615C21.6988 33.4024 21.6974 33.4442 21.6899 33.4843C21.6825 33.5243 21.6692 33.5616 21.6509 33.5938C21.8212 33.5509 21.843 33.4118 21.74 33.4194C21.7558 33.3521 21.7838 33.292 21.8212 33.2454C21.9239 33.218 21.7996 33.5085 21.951 33.4194C21.851 33.1098 22.0213 33.3651 22.1212 33.4194C22.0429 33.4852 21.843 33.377 21.7807 33.5938C21.9148 33.6268 22.0525 33.5837 22.1647 33.4737C22.1915 33.7638 22.7241 33.9766 22.6782 33.826C22.7701 34.1237 22.8188 33.7872 22.9783 34C23.0319 33.6695 23.1686 33.3788 23.3622 33.1831C23.2811 32.4055 23.5028 32.0762 23.4026 31.5538C23.4461 31.4222 23.6379 31.6814 23.7027 31.4959C23.5297 31.163 23.6379 30.8959 23.5731 30.5087C23.6194 30.5049 23.6651 30.5241 23.7027 30.563C23.7135 30.3152 23.546 30.3113 23.4893 30.1567C23.5432 30.1603 23.5488 30.23 23.6163 30.2146V29.9823C23.5513 29.9787 23.4702 29.9902 23.4893 29.8662C23.8162 29.4833 23.492 28.9102 23.6595 28.4108C23.892 28.5349 23.6216 28.1825 23.7893 28.2368C23.654 28.1092 23.6758 28.0434 23.5325 28.1786V27.9467C23.7785 27.8032 23.4729 26.7157 23.7027 26.6075C23.4594 26.4525 23.6783 26.2048 23.5325 26.1969C23.7041 25.5807 23.7041 24.8936 23.5325 24.2774C23.6488 23.7174 23.6181 23.1157 23.4461 22.5858C23.4837 22.7757 23.381 22.7717 23.319 22.8221C23.4621 22.6865 23.319 22.4313 23.4026 22.3536C23.492 22.3032 23.4893 22.6516 23.5325 22.4737C23.4162 22.2105 23.4893 22.1641 23.5325 21.9473C23.4677 21.9394 23.373 21.9668 23.3622 21.8891C23.4973 21.9125 23.4973 21.6223 23.4026 21.4828C23.6271 21.3552 23.4594 21.0453 23.6595 21.0726C23.4837 21.1035 23.6999 20.8713 23.5325 21.0144C23.6352 20.8289 23.5839 20.8094 23.5325 20.6081C23.6379 20.666 23.6216 20.6275 23.7893 20.666C23.7163 20.488 23.3622 19.7334 23.6163 19.8495C23.7243 19.7064 23.5352 19.6676 23.4893 19.559C23.6432 19.4199 23.3866 19.2455 23.6163 19.0949C23.3702 19.1258 23.4837 18.4191 23.6163 18.5721C23.3838 18.4639 23.6515 18.3189 23.4461 18.3363C23.4973 18.2511 23.4973 18.1001 23.5731 18.0458C23.6974 18.0418 23.6271 18.1774 23.7462 18.2202C23.7027 17.7786 23.6163 17.7323 23.5731 17.349C23.892 17.1322 23.6487 15.6654 23.7893 15.0189C23.7403 14.9953 23.6958 14.9556 23.6595 14.9028C23.7406 14.8953 23.6891 14.7094 23.7893 14.7288C23.834 13.5026 23.7905 12.273 23.6595 11.0595C23.7974 10.8661 23.7135 10.8621 23.6163 10.8855C23.8812 10.4404 23.7406 10.1848 23.8729 9.66242C23.757 9.57721 23.8162 9.39132 23.6595 9.43016C23.6703 9.36437 23.7082 9.33901 23.7462 9.31404C23.8109 9.318 23.7785 9.46108 23.8729 9.43016C23.7758 9.10873 23.892 9.01203 23.7893 8.72944C24 8.77422 23.7893 8.1488 23.9164 7.91298C23.7893 7.91298 23.773 8.18368 23.8298 8.26493C23.7845 8.26424 23.7402 8.28317 23.7027 8.31923C23.7866 8.18764 23.6919 8.2574 23.6595 8.1488C23.9136 8.16426 23.665 7.8781 23.7462 7.85868C23.7838 7.94389 24.0163 7.59155 23.8298 7.50634V7.73859C23.7406 7.61097 23.7027 7.81429 23.5731 7.79685C23.5621 7.66527 23.6974 7.73463 23.7027 7.62246C23.6216 7.56856 23.5596 7.79685 23.5325 7.62246C23.5812 7.57213 23.7379 7.22018 23.7838 7.4988C23.9568 7.41359 23.757 6.9471 23.8729 6.80601C23.5947 6.7632 23.7542 6.77866 23.6163 6.9257C23.5704 6.68988 23.7486 6.63954 23.8298 6.75171C23.7677 6.52896 23.7406 6.52342 23.6163 6.63162C23.6595 6.48457 23.6731 6.35299 23.5731 6.3415C23.5892 6.26025 23.6271 6.24479 23.5731 6.16711C23.6 6.08586 23.7379 6.15958 23.7462 6.05098C23.6866 6.04741 23.6999 5.90394 23.7893 5.93485C23.7082 6.02403 23.8489 6.16354 23.7462 6.28323C23.9244 6.2329 23.9164 5.5286 23.7893 5.29239C23.9192 5.31577 23.8597 5.08352 23.9596 5.06211C23.8658 4.81302 23.8131 4.53644 23.8056 4.25363C23.7981 3.97083 23.836 3.68933 23.9164 3.43078C23.8298 3.37292 23.7326 3.33011 23.7027 3.19853C23.757 3.20249 23.7622 3.27582 23.8298 3.25679C23.8973 3.04951 23.6866 3.22191 23.7027 3.0824C23.9109 2.90445 23.8298 1.82839 23.7462 1.68531C23.9081 1.61159 23.7218 1.42412 23.8298 1.27708C23.665 1.39875 23.7218 1.54381 23.4026 1.51092C23.4513 1.32543 23.3351 1.36982 23.319 1.27708C23.4541 1.22476 23.4082 1.42967 23.4893 1.45305C23.6028 1.3833 23.6623 1.03492 23.7893 1.16254C23.7514 0.833576 24.0299 0.628668 23.7893 0.69446C23.8677 0.688515 23.819 0.504614 23.9164 0.520071ZM6.19329 10.7694L6.1908 10.773C6.18526 10.8158 6.20685 10.8233 6.23398 10.8273C6.15011 10.8661 6.15287 10.8233 6.1908 10.773L6.19329 10.7694C6.24135 10.7077 6.30035 10.6662 6.36381 10.6493C6.41225 10.6628 6.3854 10.7092 6.36381 10.7092C6.35551 10.7769 6.37184 10.8118 6.40423 10.8273C6.34194 11.0171 6.29876 10.7111 6.19329 10.7694ZM7.08825 12.2826C6.97475 12.302 6.96922 12.4685 6.79094 12.3987V12.2247C6.86098 12.2014 6.86928 12.2672 6.87454 12.3409C6.9288 12.327 6.93129 12.1665 6.87454 12.1665C6.96119 12.0698 7.14776 12.329 7.2178 12.457C7.17738 12.6116 7.11261 12.3349 7.08825 12.2826ZM9.65105 16.0661C9.59153 16.0526 9.68869 15.7775 9.48052 15.8338C9.4725 15.6654 9.47527 15.5163 9.60758 15.5417C9.61035 15.6927 9.5752 15.615 9.52122 15.6016C9.67264 15.7272 9.69423 16.0292 9.82129 16.1842C9.77257 16.3891 9.6779 15.8861 9.65105 16.0661ZM2.81692 28.7592C2.88169 28.6201 2.84405 28.3296 3.03062 28.349C3.02509 28.4576 3.08183 28.4731 3.07381 28.5852C3.16848 28.6201 3.13581 28.4731 3.20087 28.4691C3.29277 28.326 3.15215 28.651 3.11422 28.7013C3.07658 28.6007 2.95754 28.6046 2.98716 28.4108C2.86564 28.5349 2.89803 28.6431 3.03062 28.6431C2.99796 28.7592 2.88169 28.8524 2.81692 28.7592ZM3.11422 33.0092C3.13056 32.9085 3.08183 32.901 3.03062 32.893C3.10343 32.7305 3.14135 32.8387 3.28724 32.8352C3.24959 32.92 3.22246 33.0206 3.11422 33.0092ZM3.88461 27.42C3.8226 27.5286 3.97403 27.2539 3.88461 27.072C3.99839 27.1414 4.01721 27.1219 3.97126 27.3039C4.01998 27.2884 4.14704 27.0486 4.1415 27.3039C4.10634 27.2924 4.09832 27.246 4.05513 27.246C4.13071 27.6293 3.91977 27.3506 3.88461 27.42ZM5.16601 33.5938C5.12006 33.5783 5.13639 33.4737 5.08241 33.4737C5.09321 33.3964 5.1876 33.4273 5.25266 33.4194C5.24989 33.3615 5.20117 33.373 5.16601 33.3615C5.23383 33.3147 5.2283 33.1756 5.33653 33.1831C5.33101 33.2654 5.31286 33.3448 5.28338 33.4158C5.2539 33.4868 5.21382 33.5475 5.16601 33.5938ZM6.36381 32.6608C6.39772 32.7278 6.4122 32.811 6.40423 32.893C6.36907 32.9434 6.28796 32.9279 6.27717 33.0092C6.29876 32.92 6.24201 32.5526 6.49087 32.5446C6.50969 32.6687 6.42859 32.6568 6.36381 32.6608ZM9.18045 32.9513C9.03457 32.8506 9.29395 32.6842 9.35346 32.8352C9.359 32.901 9.34267 32.9394 9.31028 32.9513C9.31582 33.0206 9.38613 33.0012 9.43734 33.0092C9.34267 33.3072 9.20204 32.8775 9.18045 32.9513ZM23.5325 8.38106C23.6028 8.49718 23.7271 8.54197 23.7462 8.72944C23.7082 8.69456 23.6703 8.65968 23.6595 8.72944C23.5784 8.70645 23.654 8.4623 23.4893 8.55544C23.5164 8.50549 23.5315 8.44433 23.5325 8.38106Z" fill="#FF4C2E"/>
</g>
<defs>
<filter id="filter0_d_325_2321" x="0" y="0" width="26" height="36" filterUnits="userSpaceOnUse" color-interpolation-filters="sRGB">
<feFlood flood-opacity="0" result="BackgroundImageFix"/>
<feColorMatrix in="SourceAlpha" type="matrix" values="0 0 0 0 0 0 0 0 0 0 0 0 0 0 0 0 0 0 127 0" result="hardAlpha"/>
<feOffset dx="2" dy="2"/>
<feComposite in2="hardAlpha" operator="out"/>
<feColorMatrix type="matrix" values="0 0 0 0 0.312565 0 0 0 0 0.0937695 0 0 0 0 0 0 0 0 0.85 0"/>
<feBlend mode="normal" in2="BackgroundImageFix" result="effect1_dropShadow_325_2321"/>
<feBlend mode="normal" in="SourceGraphic" in2="effect1_dropShadow_325_2321" result="shape"/>
</filter>
</defs>
</svg>
