<svg width="28" height="28" viewBox="0 0 28 28" fill="none" xmlns="http://www.w3.org/2000/svg">
<path d="M24.8423 3.39957C21.3972 4.82645 6.62492 10.9453 2.54336 12.613C-0.193917 13.6812 1.40852 14.6827 1.40852 14.6827C1.40852 14.6827 3.74512 15.4838 5.74824 16.0847C7.75108 16.6856 8.81928 16.0181 8.81928 16.0181L18.2329 9.67549C21.571 7.40553 20.77 9.27481 19.9686 10.0762C18.2329 11.8122 15.362 14.5492 12.9585 16.7525C11.8903 17.6871 12.4243 18.4882 12.8919 18.8889C14.6276 20.3578 19.368 23.3622 19.6348 23.5624C21.0452 24.5609 23.8194 25.9981 24.2414 22.9615L25.9105 12.4797C26.4447 8.94133 26.9787 5.66981 27.0453 4.73517C27.2458 2.46493 24.8423 3.39957 24.8423 3.39957Z" fill="white"/>
</svg>
