<svg width="27" height="36" viewBox="0 0 27 36" fill="none" xmlns="http://www.w3.org/2000/svg">
<g filter="url(#filter0_d_325_2918)">
<path fill-rule="evenodd" clip-rule="evenodd" d="M24.4164 0.520071C24.4164 0.580315 24.4892 0.593791 24.5 0.520071C24.3597 0.504614 24.1919 0.29178 24.1163 0.520071C23.8795 0.272382 23.604 0.111188 23.3138 0.0504771C23.0236 -0.0102334 22.7274 0.0313746 22.451 0.17169C22.505 0.253336 22.6619 0.197055 22.6647 0.346079C22.5592 0.197055 22.5133 0.38492 22.451 0.462206C22.4457 0.371048 22.4565 0.260866 22.3646 0.287817C22.3403 0.392451 22.4917 0.52998 22.3646 0.578333C22.2077 0.450712 22.3051 0.504614 22.2807 0.346079C22.2727 0.39245 22.2456 0.415835 22.1941 0.403944C22.2024 0.334585 22.2727 0.27236 22.1941 0.229952C22.1861 0.293762 22.1481 0.319128 22.1105 0.346079C22.1238 0.137208 22.1808 0.222025 22.1105 0.113824C21.1877 -0.015037 20.259 -0.0345237 19.334 0.0555628C18.6502 0.160196 17.9175 0.396414 17.3688 0.520071C17.3957 0.524035 17.4201 0.527998 17.412 0.578333C17.1047 0.562268 16.7985 0.641495 16.5146 0.810587C16.2821 0.791167 15.7306 0.791167 15.4901 0.810587C15.4541 0.726383 15.4115 0.648442 15.363 0.578333C15.3547 0.648089 15.3683 0.744795 15.3195 0.752326C15.2359 0.613211 15.0898 0.522053 15.1034 0.403944C15.025 0.508578 15.0546 0.760252 14.9331 0.810587C14.9276 0.68257 14.8276 0.887873 14.7194 0.810587C14.7141 0.744795 14.7305 0.648089 14.6762 0.636199C14.6627 1.00004 14.0301 0.740832 13.7815 0.752326C13.4272 0.771746 12.7003 1.14906 12.4135 0.69446C12.4351 0.845465 12.2648 1.02342 12.2001 0.870435C12.3083 0.880343 12.3055 0.736868 12.3731 0.69446C12.292 0.688515 12.3432 0.504614 12.2432 0.520071C12.292 0.771747 11.9675 0.686534 11.8593 0.988544C11.9512 0.934246 11.854 0.655619 11.8161 0.810587C11.8405 0.810587 11.8648 0.860922 11.8161 0.870435C11.6863 0.748759 12.0027 0.587845 11.8593 0.462206C11.8648 0.760253 11.381 0.818119 11.562 0.988544C11.4189 1.004 11.2971 0.99647 11.2592 0.870435C11.1133 1.25568 10.816 1.03492 10.4484 0.988544C10.3308 1.07665 10.2013 1.12743 10.0688 1.13742C9.93629 1.1474 9.80383 1.11636 9.68045 1.04641C9.82108 1.08525 9.75076 0.922751 9.72391 0.870435C9.75169 0.874946 9.7797 0.86568 9.80328 0.844185C9.82686 0.82269 9.84457 0.790266 9.85346 0.752326C9.77236 0.698424 9.70758 0.926715 9.68045 0.752326C9.72917 0.740832 9.748 0.688515 9.7671 0.636199C9.64806 0.648089 9.61844 0.547419 9.68045 0.462206C9.59408 0.597754 9.49138 0.748759 9.38315 0.69446C9.49388 0.764216 9.52903 0.767783 9.42633 0.870435C9.53457 0.98458 9.62094 0.810588 9.68045 0.928697C9.28045 0.996471 9.39118 1.1122 8.9992 1.04641C9.0477 1.02283 9.09136 0.982382 9.12626 0.928697C9.04515 0.922752 9.09664 0.736869 8.9992 0.752326C8.89401 0.831594 8.96958 0.870435 8.91283 0.928697C8.68584 1.15897 8.41262 0.87638 8.18839 0.928697C8.23158 0.924734 8.29635 0.95763 8.22881 0.988544C8.1668 0.938209 8.06382 0.94019 8.10175 0.756289C8.00458 0.887873 7.89358 0.992507 7.75849 0.810587C7.75046 0.880343 7.76652 0.97705 7.7178 0.988544C7.29996 0.931968 6.88538 0.8337 6.47709 0.69446C6.33647 0.899367 5.9121 0.703973 5.9229 0.462206C5.91167 0.503213 5.89418 0.540113 5.87172 0.570214C5.84926 0.600315 5.82239 0.622858 5.79307 0.636199C5.06863 0.68257 4.06295 0.570406 3.31692 0.578333C3.17339 0.585042 3.02985 0.565463 2.88979 0.520071C2.21933 0.535529 1.63828 0.725375 1.05143 0.69446C1.08658 0.68257 1.13807 0.69446 1.13807 0.636199C0.878413 0.665528 0.959521 1.07772 0.797304 1.10467C0.821665 1.10863 0.846025 1.1122 0.840765 1.16254C0.883949 1.16254 0.889485 1.2093 0.924365 1.2208C0.932669 0.922752 1.00547 1.2751 1.01101 1.27708C1.05696 1.31354 1.12174 1.2093 1.13807 1.2208C1.23274 1.28659 1.31911 1.58067 1.48133 1.80143C1.81504 2.17453 2.11559 2.60472 2.37628 3.0824C2.27358 3.26828 2.12216 3.0939 2.0787 3.14066C2.20327 3.191 2.12742 3.22944 2.12216 3.37292C2.34362 3.15612 2.3032 3.37649 2.41947 3.14066C2.51663 3.3206 2.45739 3.37292 2.50584 3.49063C2.71151 3.39987 2.81421 3.88737 2.71954 4.13151C2.79511 4.09663 2.89532 4.30154 2.93297 4.13151C2.86266 4.17392 2.74639 4.01538 2.8466 4.01538C3.04397 4.22822 3.19789 4.45651 3.14667 4.71215C3.15412 4.67376 3.17121 4.64067 3.19467 4.61924C3.21812 4.5978 3.24628 4.58953 3.27373 4.59602C3.21948 4.78547 3.41436 4.63843 3.3601 4.82788C3.36564 4.8901 3.17629 4.94797 3.31692 5.00227C3.32771 4.94044 3.36564 4.91309 3.40356 4.88614C3.33851 5.1069 3.51955 4.9983 3.48716 5.17824C3.43041 5.10294 3.32771 5.10294 3.31692 5.23849C3.37643 5.38909 3.51152 5.43586 3.53062 5.64473C3.59032 5.65392 3.65042 5.6335 3.70087 5.58687C3.86694 5.78166 3.98684 6.04526 4.04412 6.3415C4.79015 7.54914 5.17133 8.44685 5.87972 9.77855C5.96608 9.643 5.86892 9.71275 5.83653 9.60416C5.9121 9.63507 6.08788 9.53282 6.09314 9.66242C5.95529 9.65053 5.98242 9.7512 5.9229 9.95254C5.99668 9.97329 6.07321 9.95256 6.1366 9.89467C5.95003 10.1963 6.24733 10.0263 6.1366 10.3592C6.35003 10.4016 6.3337 10.75 6.47709 10.8855C6.55017 10.7849 6.41481 10.6572 6.60415 10.6493C6.57979 10.773 6.51502 10.8427 6.47709 10.9434C6.66893 11.0635 6.66367 10.9588 6.6908 11.1756C6.77191 11.1871 6.78519 11.1098 6.86381 11.1178C6.84194 11.2823 6.73924 11.35 6.86381 11.5839C6.8663 11.4911 6.85551 11.3829 6.94741 11.4079C6.95571 11.4622 7.04208 12.157 7.16112 12.0484C7.06091 12.0484 7.17717 11.8918 7.24471 11.9323C7.15835 12.1276 7.34492 12.1241 7.24471 12.3987C7.43129 12.4685 7.35572 12.5303 7.5016 12.631C7.45842 12.629 7.39364 12.6579 7.45842 12.6908C7.65026 12.6928 7.37177 12.3912 7.58825 12.3987C7.5016 12.5188 7.6043 12.5109 7.63143 12.631C7.5232 12.6619 7.46922 12.9929 7.58825 12.8633C7.61272 12.7517 7.65742 12.6515 7.7178 12.5727C7.82078 12.7547 7.66382 12.8866 7.7178 12.9794C7.79891 12.929 7.84763 13.1573 7.80168 13.3876C7.98022 13.5327 8.07213 13.2116 8.22881 13.3876C8.22078 13.432 8.22881 13.5018 8.18839 13.5037C8.12334 13.4903 8.11531 13.409 8.05856 13.3876C8.03144 13.5794 7.96666 13.4978 7.92874 13.5636C8.19365 13.7649 8.05856 13.5521 8.35864 13.5037C8.32902 13.7534 8.16126 13.7495 8.27199 13.9702C8.30715 13.7495 8.32625 14.3031 8.39905 14.0301C8.34507 13.9682 8.35864 13.7958 8.4857 13.738C8.48354 13.8018 8.49906 13.8644 8.52888 13.912C8.47767 13.9044 8.43172 13.8077 8.39905 13.912C8.45857 14.0903 8.52085 13.8965 8.56957 14.0864C8.42092 14.0939 8.65871 14.2798 8.52888 14.2603C8.37746 14.2449 8.60473 14.0051 8.4857 14.0301C8.49649 14.1307 8.28279 14.208 8.39905 14.2603C8.46936 14.1252 8.39379 14.2798 8.39905 14.3785C8.83172 14.8798 8.98314 15.3867 9.51021 16.1259C9.49138 15.942 9.5617 15.8861 9.63727 15.8338C9.57249 16.1105 9.49388 16.393 9.72391 16.4164C9.72917 16.5615 9.80502 16.5983 9.68045 16.6487C9.69402 16.5555 9.6237 16.4917 9.59685 16.5904C9.68322 16.6059 9.68045 16.7494 9.7671 16.7648C9.7372 16.6098 9.85346 16.6523 9.89416 16.5904C9.91224 16.7138 9.96133 16.8234 10.0321 16.8983C10.1029 16.9733 10.1904 17.0084 10.2781 16.9971C10.0373 17.1635 10.3429 17.3026 10.4077 17.349C10.3185 17.3645 10.4699 17.504 10.3213 17.5234C10.3213 17.4073 10.205 17.4497 10.2374 17.2872C10.1895 17.3239 10.1347 17.3381 10.0808 17.3277C10.027 17.3173 9.97676 17.2829 9.93734 17.2293C10.024 17.1132 10.0212 17.2563 10.1076 17.2872C10.0616 17.024 9.83741 17.1711 9.85346 16.9408C9.70204 16.9039 9.68599 17.328 9.63727 17.4073C9.61844 17.4362 9.56696 17.3336 9.5509 17.349C9.39671 17.4961 8.94799 18.3942 9.25332 18.3363C9.18578 18.5257 9.05871 18.0846 9.03989 18.3942C9.08584 18.452 9.21014 18.456 9.25332 18.5143C9.26688 18.6458 9.12903 18.5761 9.12626 18.6843C9.18301 18.8297 9.28598 18.6225 9.29678 18.7445C9.29124 18.8159 9.30204 18.909 9.25332 18.9205C9.19408 18.6728 8.90729 18.8392 8.86965 18.9768C8.85331 18.8781 8.93165 18.8278 8.86965 18.8044C8.6911 18.8083 8.42092 19.1528 8.61276 19.4429C8.4749 19.4314 8.54521 19.6965 8.39905 19.6751C8.40459 19.6093 8.4749 19.5435 8.39905 19.5031C8.33705 19.6288 8.17206 19.6173 8.14493 19.7952C8.19088 19.8067 8.24791 19.8884 8.18839 19.9074C8.0749 19.7564 8.15324 20.0041 8.01538 19.9656C8.15047 20.2712 7.98022 20.3719 8.10175 20.7242C7.97664 20.6693 7.8429 20.6693 7.7178 20.7242C7.75046 20.8404 7.6342 20.9176 7.7178 21.1305C7.65302 21.119 7.645 21.0377 7.58825 21.0144C7.48001 21.3124 7.45565 21.4674 7.24471 21.5371C7.21509 21.8043 7.36098 21.4519 7.33136 21.7151C7.23143 21.7381 7.23946 21.6065 7.11793 21.6568C7.06367 21.8003 7.21233 21.9394 7.11793 21.9473C7.00693 21.742 6.96651 22.1253 6.82035 22.0635C6.74478 22.6401 6.35557 22.7872 6.1366 23.2866C6.16415 23.3105 6.18653 23.3448 6.20129 23.3858C6.21604 23.4268 6.22259 23.4728 6.2202 23.5188C6.1366 23.4336 6.07155 23.5767 6.00678 23.4027C6.04193 23.7007 5.73383 23.7083 5.83653 23.929C5.63086 23.9405 5.45258 24.231 5.53895 24.4514H5.36594C5.33355 24.707 5.45258 24.405 5.45258 24.5675C4.78514 25.4457 4.18357 26.4212 3.65768 27.4782C3.45485 27.6876 3.29361 27.969 3.18986 28.2947C3.18709 28.2602 3.18183 28.2253 3.14667 28.2368C3.13311 28.349 3.20342 28.349 3.23055 28.4108C3.09519 28.3335 2.7439 28.8135 2.88979 28.9336C2.7248 28.9217 2.73311 29.1464 2.67636 29.282C2.48978 29.1694 2.13822 29.9399 1.94915 30.0406C1.98957 30.056 1.98957 30.1991 1.94915 30.2146C1.91649 30.079 1.84645 30.4972 1.73821 30.2728C1.72188 30.4817 1.62195 30.4857 1.69503 30.683C1.6132 30.7364 1.52683 30.7741 1.43814 30.7952C1.38665 31.2752 1.07855 31.3643 1.18125 31.7861C1.06776 31.7591 0.870385 31.817 0.797304 31.7861C0.932669 31.9486 0.467612 32.2351 0.710937 32.3707C0.70284 32.3154 0.70678 32.2579 0.722225 32.206C0.737669 32.154 0.763875 32.1101 0.797304 32.0801C0.781249 32.2506 0.773221 32.4325 0.670244 32.4868C0.611005 32.4943 0.510796 32.2894 0.5 32.4285C0.616264 32.5292 0.47038 32.9897 0.967825 32.9513C0.827201 33.2648 1.05143 33.1059 1.01101 33.4194C1.18679 33.4467 0.970317 33.2608 1.13807 33.2454C1.326 33.4435 1.5447 33.5735 1.77541 33.624C2.00612 33.6745 2.24194 33.6442 2.46265 33.5355C2.97291 33.7772 3.51927 33.8173 4.04412 33.6516C4.04136 33.6516 4.02779 33.6865 4.17118 33.7099C4.51444 33.7677 4.89285 33.5434 5.23888 33.6516C5.19293 33.4194 5.11182 33.3924 5.28234 33.5355C5.30116 33.4309 5.22005 33.3845 5.28234 33.3615C5.28234 33.4348 5.35514 33.4118 5.36594 33.4737C5.33919 33.4835 5.3159 33.5071 5.30048 33.5399C5.28507 33.5727 5.27861 33.6124 5.28234 33.6516C5.59549 33.6829 5.9101 33.6635 6.2202 33.5938C6.17425 33.5783 6.1175 33.4966 6.17702 33.4737C6.19861 33.5819 6.22574 33.4503 6.26366 33.4194C6.25536 33.6401 6.29882 33.4388 6.39322 33.4737C6.39875 33.5434 6.38519 33.6401 6.43668 33.6516C7.31961 33.7046 8.20406 33.6657 9.08307 33.5355H9.16972C9.15616 33.8724 9.62647 33.5355 9.68045 33.5355C9.7183 33.5854 9.76233 33.6248 9.81028 33.6516C10.2537 33.7329 10.8132 33.5549 11.4322 33.6516C11.4262 33.6299 11.4236 33.6066 11.4246 33.5833C11.4257 33.56 11.4303 33.5373 11.4382 33.5168C11.446 33.4964 11.457 33.4787 11.4702 33.465C11.4834 33.4513 11.4985 33.4419 11.5146 33.4376C11.5306 33.4332 11.5471 33.434 11.5629 33.4399C11.5787 33.4457 11.5934 33.4565 11.6059 33.4714C11.6184 33.4863 11.6285 33.505 11.6354 33.5262C11.6424 33.5473 11.6459 33.5704 11.6459 33.5938C11.5836 33.528 11.5404 33.5315 11.5188 33.6516C13.1814 33.6322 14.0384 33.6207 15.7035 33.6516C15.709 33.5819 15.6955 33.4852 15.7467 33.4737C15.7793 33.8684 16.147 33.3266 16.0443 33.6516C16.1398 33.5994 16.2425 33.5796 16.3443 33.5938C17.0978 33.6578 17.8533 33.6578 18.6068 33.5938C19.0799 33.4273 19.7855 33.7523 20.2289 33.5355C20.7762 33.3605 21.3403 33.3213 21.8968 33.4194C21.9751 33.4039 21.8724 33.3227 21.94 33.2993C22.0482 33.3072 21.9995 33.528 22.1105 33.5355C22.1645 33.3885 21.9427 33.3496 22.067 33.2993C22.1158 33.3112 22.1888 33.2917 22.1941 33.3615C22.1988 33.4024 22.1974 33.4442 22.1899 33.4843C22.1825 33.5243 22.1692 33.5616 22.1509 33.5938C22.3212 33.5509 22.343 33.4118 22.24 33.4194C22.2558 33.3521 22.2838 33.292 22.3212 33.2454C22.4239 33.218 22.2996 33.5085 22.451 33.4194C22.351 33.1098 22.5213 33.3651 22.6212 33.4194C22.5429 33.4852 22.343 33.377 22.2807 33.5938C22.4148 33.6268 22.5525 33.5837 22.6647 33.4737C22.6915 33.7638 23.2241 33.9766 23.1782 33.826C23.2701 34.1237 23.3188 33.7872 23.4783 34C23.5319 33.6695 23.6686 33.3788 23.8622 33.1831C23.7811 32.4055 24.0028 32.0762 23.9026 31.5538C23.9461 31.4222 24.1379 31.6814 24.2027 31.4959C24.0297 31.163 24.1379 30.8959 24.0731 30.5087C24.1194 30.5049 24.1651 30.5241 24.2027 30.563C24.2135 30.3152 24.046 30.3113 23.9893 30.1567C24.0432 30.1603 24.0488 30.23 24.1163 30.2146V29.9823C24.0513 29.9787 23.9702 29.9902 23.9893 29.8662C24.3162 29.4833 23.992 28.9102 24.1595 28.4108C24.392 28.5349 24.1216 28.1825 24.2893 28.2368C24.154 28.1092 24.1758 28.0434 24.0325 28.1786V27.9467C24.2785 27.8032 23.9729 26.7157 24.2027 26.6075C23.9594 26.4525 24.1783 26.2048 24.0325 26.1969C24.2041 25.5807 24.2041 24.8936 24.0325 24.2774C24.1488 23.7174 24.1181 23.1157 23.9461 22.5858C23.9837 22.7757 23.881 22.7717 23.819 22.8221C23.9621 22.6865 23.819 22.4313 23.9026 22.3536C23.992 22.3032 23.9893 22.6516 24.0325 22.4737C23.9162 22.2105 23.9893 22.1641 24.0325 21.9473C23.9677 21.9394 23.873 21.9668 23.8622 21.8891C23.9973 21.9125 23.9973 21.6223 23.9026 21.4828C24.1271 21.3552 23.9594 21.0453 24.1595 21.0726C23.9837 21.1035 24.1999 20.8713 24.0325 21.0144C24.1352 20.8289 24.0839 20.8094 24.0325 20.6081C24.1379 20.666 24.1216 20.6275 24.2893 20.666C24.2163 20.488 23.8622 19.7334 24.1163 19.8495C24.2243 19.7064 24.0352 19.6676 23.9893 19.559C24.1432 19.4199 23.8866 19.2455 24.1163 19.0949C23.8702 19.1258 23.9837 18.4191 24.1163 18.5721C23.8838 18.4639 24.1515 18.3189 23.9461 18.3363C23.9973 18.2511 23.9973 18.1001 24.0731 18.0458C24.1974 18.0418 24.1271 18.1774 24.2462 18.2202C24.2027 17.7786 24.1163 17.7323 24.0731 17.349C24.392 17.1322 24.1487 15.6654 24.2893 15.0189C24.2403 14.9953 24.1958 14.9556 24.1595 14.9028C24.2406 14.8953 24.1891 14.7094 24.2893 14.7288C24.334 13.5026 24.2905 12.273 24.1595 11.0595C24.2974 10.8661 24.2135 10.8621 24.1163 10.8855C24.3812 10.4404 24.2406 10.1848 24.3729 9.66242C24.257 9.57721 24.3162 9.39132 24.1595 9.43016C24.1703 9.36437 24.2082 9.33901 24.2462 9.31404C24.3109 9.318 24.2785 9.46108 24.3729 9.43016C24.2758 9.10873 24.392 9.01203 24.2893 8.72944C24.5 8.77422 24.2893 8.1488 24.4164 7.91298C24.2893 7.91298 24.273 8.18368 24.3298 8.26493C24.2845 8.26424 24.2402 8.28317 24.2027 8.31923C24.2866 8.18764 24.1919 8.2574 24.1595 8.1488C24.4136 8.16426 24.165 7.8781 24.2462 7.85868C24.2838 7.94389 24.5163 7.59155 24.3298 7.50634V7.73859C24.2406 7.61097 24.2027 7.81429 24.0731 7.79685C24.0621 7.66527 24.1974 7.73463 24.2027 7.62246C24.1216 7.56856 24.0596 7.79685 24.0325 7.62246C24.0812 7.57213 24.2379 7.22018 24.2838 7.4988C24.4568 7.41359 24.257 6.9471 24.3729 6.80601C24.0947 6.7632 24.2542 6.77866 24.1163 6.9257C24.0704 6.68988 24.2486 6.63954 24.3298 6.75171C24.2677 6.52896 24.2406 6.52342 24.1163 6.63162C24.1595 6.48457 24.1731 6.35299 24.0731 6.3415C24.0892 6.26025 24.1271 6.24479 24.0731 6.16711C24.1 6.08586 24.2379 6.15958 24.2462 6.05098C24.1866 6.04741 24.1999 5.90394 24.2893 5.93485C24.2082 6.02403 24.3489 6.16354 24.2462 6.28323C24.4244 6.2329 24.4164 5.5286 24.2893 5.29239C24.4192 5.31577 24.3597 5.08352 24.4596 5.06211C24.3658 4.81302 24.3131 4.53644 24.3056 4.25363C24.2981 3.97083 24.336 3.68933 24.4164 3.43078C24.3298 3.37292 24.2326 3.33011 24.2027 3.19853C24.257 3.20249 24.2622 3.27582 24.3298 3.25679C24.3973 3.04951 24.1866 3.22191 24.2027 3.0824C24.4109 2.90445 24.3298 1.82839 24.2462 1.68531C24.4081 1.61159 24.2218 1.42412 24.3298 1.27708C24.165 1.39875 24.2218 1.54381 23.9026 1.51092C23.9513 1.32543 23.8351 1.36982 23.819 1.27708C23.9541 1.22476 23.9082 1.42967 23.9893 1.45305C24.1028 1.3833 24.1623 1.03492 24.2893 1.16254C24.2514 0.833576 24.5299 0.628668 24.2893 0.69446C24.3677 0.688515 24.319 0.504614 24.4164 0.520071ZM6.69329 10.7694L6.6908 10.773C6.68526 10.8158 6.70685 10.8233 6.73398 10.8273C6.65011 10.8661 6.65287 10.8233 6.6908 10.773L6.69329 10.7694C6.74135 10.7077 6.80035 10.6662 6.86381 10.6493C6.91225 10.6628 6.8854 10.7092 6.86381 10.7092C6.85551 10.7769 6.87184 10.8118 6.90423 10.8273C6.84194 11.0171 6.79876 10.7111 6.69329 10.7694ZM7.58825 12.2826C7.47475 12.302 7.46922 12.4685 7.29094 12.3987V12.2247C7.36098 12.2014 7.36928 12.2672 7.37454 12.3409C7.4288 12.327 7.43129 12.1665 7.37454 12.1665C7.46119 12.0698 7.64776 12.329 7.7178 12.457C7.67738 12.6116 7.61261 12.3349 7.58825 12.2826ZM10.151 16.0661C10.0915 16.0526 10.1887 15.7775 9.98052 15.8338C9.9725 15.6654 9.97527 15.5163 10.1076 15.5417C10.1104 15.6927 10.0752 15.615 10.0212 15.6016C10.1726 15.7272 10.1942 16.0292 10.3213 16.1842C10.2726 16.3891 10.1779 15.8861 10.151 16.0661ZM3.31692 28.7592C3.38169 28.6201 3.34405 28.3296 3.53062 28.349C3.52509 28.4576 3.58183 28.4731 3.57381 28.5852C3.66848 28.6201 3.63581 28.4731 3.70087 28.4691C3.79277 28.326 3.65215 28.651 3.61422 28.7013C3.57658 28.6007 3.45754 28.6046 3.48716 28.4108C3.36564 28.5349 3.39803 28.6431 3.53062 28.6431C3.49796 28.7592 3.38169 28.8524 3.31692 28.7592ZM3.61422 33.0092C3.63056 32.9085 3.58183 32.901 3.53062 32.893C3.60343 32.7305 3.64135 32.8387 3.78724 32.8352C3.74959 32.92 3.72246 33.0206 3.61422 33.0092ZM4.38461 27.42C4.3226 27.5286 4.47403 27.2539 4.38461 27.072C4.49839 27.1414 4.51721 27.1219 4.47126 27.3039C4.51998 27.2884 4.64704 27.0486 4.6415 27.3039C4.60634 27.2924 4.59832 27.246 4.55513 27.246C4.63071 27.6293 4.41977 27.3506 4.38461 27.42ZM5.66601 33.5938C5.62006 33.5783 5.63639 33.4737 5.58241 33.4737C5.59321 33.3964 5.6876 33.4273 5.75266 33.4194C5.74989 33.3615 5.70117 33.373 5.66601 33.3615C5.73383 33.3147 5.7283 33.1756 5.83653 33.1831C5.83101 33.2654 5.81286 33.3448 5.78338 33.4158C5.7539 33.4868 5.71382 33.5475 5.66601 33.5938ZM6.86381 32.6608C6.89772 32.7278 6.9122 32.811 6.90423 32.893C6.86907 32.9434 6.78796 32.9279 6.77717 33.0092C6.79876 32.92 6.74201 32.5526 6.99087 32.5446C7.00969 32.6687 6.92859 32.6568 6.86381 32.6608ZM9.68045 32.9513C9.53457 32.8506 9.79395 32.6842 9.85346 32.8352C9.859 32.901 9.84267 32.9394 9.81028 32.9513C9.81582 33.0206 9.88613 33.0012 9.93734 33.0092C9.84267 33.3072 9.70204 32.8775 9.68045 32.9513ZM24.0325 8.38106C24.1028 8.49718 24.2271 8.54197 24.2462 8.72944C24.2082 8.69456 24.1703 8.65968 24.1595 8.72944C24.0784 8.70645 24.154 8.4623 23.9893 8.55544C24.0164 8.50549 24.0315 8.44433 24.0325 8.38106Z" fill="#FF4C2E"/>
</g>
<defs>
<filter id="filter0_d_325_2918" x="0.5" y="0" width="26" height="36" filterUnits="userSpaceOnUse" color-interpolation-filters="sRGB">
<feFlood flood-opacity="0" result="BackgroundImageFix"/>
<feColorMatrix in="SourceAlpha" type="matrix" values="0 0 0 0 0 0 0 0 0 0 0 0 0 0 0 0 0 0 127 0" result="hardAlpha"/>
<feOffset dx="2" dy="2"/>
<feComposite in2="hardAlpha" operator="out"/>
<feColorMatrix type="matrix" values="0 0 0 0 0.312565 0 0 0 0 0.0937695 0 0 0 0 0 0 0 0 0.85 0"/>
<feBlend mode="normal" in2="BackgroundImageFix" result="effect1_dropShadow_325_2918"/>
<feBlend mode="normal" in="SourceGraphic" in2="effect1_dropShadow_325_2918" result="shape"/>
</filter>
</defs>
</svg>
