<svg width="27" height="36" viewBox="0 0 27 36" fill="none" xmlns="http://www.w3.org/2000/svg">
<g filter="url(#filter0_d_325_2920)">
<path fill-rule="evenodd" clip-rule="evenodd" d="M0.5836 0.520071C0.5836 0.580315 0.510796 0.593791 0.5 0.520071C0.640348 0.504614 0.808102 0.29178 0.883673 0.520071C1.12051 0.272382 1.39599 0.111188 1.6862 0.0504771C1.97641 -0.0102334 2.27259 0.0313746 2.54902 0.17169C2.49504 0.253336 2.33808 0.197055 2.33532 0.346079C2.44078 0.197055 2.48674 0.38492 2.54902 0.462206C2.55428 0.371048 2.54348 0.260866 2.63539 0.287817C2.65975 0.392451 2.50833 0.52998 2.63539 0.578333C2.79234 0.450712 2.6949 0.504614 2.71926 0.346079C2.72729 0.39245 2.75442 0.415835 2.80591 0.403944C2.7976 0.334585 2.72729 0.27236 2.80591 0.229952C2.81394 0.293762 2.85186 0.319128 2.88951 0.346079C2.87622 0.137208 2.8192 0.222025 2.88951 0.113824C3.81231 -0.015037 4.74097 -0.0345237 5.66601 0.0555628C6.34976 0.160196 7.0825 0.396414 7.63115 0.520071C7.6043 0.524035 7.57994 0.527998 7.58797 0.578333C7.89532 0.562268 8.20145 0.641495 8.48542 0.810587C8.71795 0.791167 9.26937 0.791167 9.50993 0.810587C9.54586 0.726383 9.5885 0.648442 9.63699 0.578333C9.6453 0.648089 9.63173 0.744795 9.68045 0.752326C9.76405 0.613211 9.91021 0.522053 9.89665 0.403944C9.97499 0.508578 9.94537 0.760252 10.0669 0.810587C10.0724 0.68257 10.1724 0.887873 10.2806 0.810587C10.2859 0.744795 10.2695 0.648089 10.3238 0.636199C10.3373 1.00004 10.9699 0.740832 11.2185 0.752326C11.5728 0.771746 12.2997 1.14906 12.5865 0.69446C12.5649 0.845465 12.7352 1.02342 12.7999 0.870435C12.6917 0.880343 12.6945 0.736868 12.6269 0.69446C12.708 0.688515 12.6568 0.504614 12.7568 0.520071C12.708 0.771747 13.0325 0.686534 13.1407 0.988544C13.0488 0.934246 13.146 0.655619 13.1839 0.810587C13.1595 0.810587 13.1352 0.860922 13.1839 0.870435C13.3137 0.748759 12.9973 0.587845 13.1407 0.462206C13.1352 0.760253 13.619 0.818119 13.438 0.988544C13.5811 1.004 13.7029 0.99647 13.7408 0.870435C13.8867 1.25568 14.184 1.03492 14.5516 0.988544C14.6692 1.07665 14.7987 1.12743 14.9312 1.13742C15.0637 1.1474 15.1962 1.11636 15.3195 1.04641C15.1789 1.08525 15.2492 0.922751 15.2761 0.870435C15.2483 0.874946 15.2203 0.86568 15.1967 0.844185C15.1731 0.82269 15.1554 0.790266 15.1465 0.752326C15.2276 0.698424 15.2924 0.926715 15.3195 0.752326C15.2708 0.740832 15.252 0.688515 15.2329 0.636199C15.3519 0.648089 15.3816 0.547419 15.3195 0.462206C15.4059 0.597754 15.5086 0.748759 15.6169 0.69446C15.5061 0.764216 15.471 0.767783 15.5737 0.870435C15.4654 0.98458 15.3791 0.810588 15.3195 0.928697C15.7196 0.996471 15.6088 1.1122 16.0008 1.04641C15.9523 1.02283 15.9086 0.982382 15.8737 0.928697C15.9548 0.922752 15.9034 0.736869 16.0008 0.752326C16.106 0.831594 16.0304 0.870435 16.0872 0.928697C16.3142 1.15897 16.5874 0.87638 16.8116 0.928697C16.7684 0.924734 16.7036 0.95763 16.7712 0.988544C16.8332 0.938209 16.9362 0.94019 16.8983 0.756289C16.9954 0.887873 17.1064 0.992507 17.2415 0.810587C17.2495 0.880343 17.2335 0.97705 17.2822 0.988544C17.7 0.931968 18.1146 0.8337 18.5229 0.69446C18.6635 0.899367 19.0879 0.703973 19.0771 0.462206C19.0883 0.503213 19.1058 0.540113 19.1283 0.570214C19.1507 0.600315 19.1776 0.622858 19.2069 0.636199C19.9314 0.68257 20.9371 0.570406 21.6831 0.578333C21.8266 0.585042 21.9702 0.565463 22.1102 0.520071C22.7807 0.535529 23.3617 0.725375 23.9486 0.69446C23.9134 0.68257 23.8619 0.69446 23.8619 0.636199C24.1216 0.665528 24.0405 1.07772 24.2027 1.10467C24.1783 1.10863 24.154 1.1122 24.1592 1.16254C24.1161 1.16254 24.1105 1.2093 24.0756 1.2208C24.0673 0.922752 23.9945 1.2751 23.989 1.27708C23.943 1.31354 23.8783 1.2093 23.8619 1.2208C23.7673 1.28659 23.6809 1.58067 23.5187 1.80143C23.185 2.17453 22.8844 2.60472 22.6237 3.0824C22.7264 3.26828 22.8778 3.0939 22.9213 3.14066C22.7967 3.191 22.8726 3.22944 22.8778 3.37292C22.6564 3.15612 22.6968 3.37649 22.5805 3.14066C22.4834 3.3206 22.5426 3.37292 22.4942 3.49063C22.2885 3.39987 22.1858 3.88737 22.2805 4.13151C22.2049 4.09663 22.1047 4.30154 22.067 4.13151C22.1373 4.17392 22.2536 4.01538 22.1534 4.01538C21.956 4.22822 21.8021 4.45651 21.8533 4.71215C21.8459 4.67376 21.8288 4.64067 21.8053 4.61924C21.7819 4.5978 21.7537 4.58953 21.7263 4.59602C21.7805 4.78547 21.5856 4.63843 21.6399 4.82788C21.6344 4.8901 21.8237 4.94797 21.6831 5.00227C21.6723 4.94044 21.6344 4.91309 21.5964 4.88614C21.6615 5.1069 21.4804 4.9983 21.5128 5.17824C21.5696 5.10294 21.6723 5.10294 21.6831 5.23849C21.6236 5.38909 21.4885 5.43586 21.4694 5.64473C21.4097 5.65392 21.3496 5.6335 21.2991 5.58687C21.1331 5.78166 21.0132 6.04526 20.9559 6.3415C20.2098 7.54914 19.8287 8.44685 19.1203 9.77855C19.0339 9.643 19.1311 9.71275 19.1635 9.60416C19.0879 9.63507 18.9121 9.53282 18.9069 9.66242C19.0447 9.65053 19.0176 9.7512 19.0771 9.95254C19.0033 9.97329 18.9268 9.95256 18.8634 9.89467C19.05 10.1963 18.7527 10.0263 18.8634 10.3592C18.65 10.4016 18.6663 10.75 18.5229 10.8855C18.4498 10.7849 18.5852 10.6572 18.3958 10.6493C18.4202 10.773 18.485 10.8427 18.5229 10.9434C18.3311 11.0635 18.3363 10.9588 18.3092 11.1756C18.2281 11.1871 18.2148 11.1098 18.1362 11.1178C18.1581 11.2823 18.2608 11.35 18.1362 11.5839C18.1337 11.4911 18.1445 11.3829 18.0526 11.4079C18.0443 11.4622 17.9579 12.157 17.8389 12.0484C17.9391 12.0484 17.8228 11.8918 17.7553 11.9323C17.8417 12.1276 17.6551 12.1241 17.7553 12.3987C17.5687 12.4685 17.6443 12.5303 17.4984 12.631C17.5416 12.629 17.6064 12.6579 17.5416 12.6908C17.3497 12.6928 17.6282 12.3912 17.4118 12.3987C17.4984 12.5188 17.3957 12.5109 17.3686 12.631C17.4768 12.6619 17.5308 12.9929 17.4118 12.8633C17.3873 12.7517 17.3426 12.6515 17.2822 12.5727C17.1792 12.7547 17.3362 12.8866 17.2822 12.9794C17.2011 12.929 17.1524 13.1573 17.1983 13.3876C17.0198 13.5327 16.9279 13.2116 16.7712 13.3876C16.7792 13.432 16.7712 13.5018 16.8116 13.5037C16.8767 13.4903 16.8847 13.409 16.9414 13.3876C16.9686 13.5794 17.0333 13.4978 17.0713 13.5636C16.8063 13.7649 16.9414 13.5521 16.6414 13.5037C16.671 13.7534 16.8387 13.7495 16.728 13.9702C16.6929 13.7495 16.6738 14.3031 16.6009 14.0301C16.6549 13.9682 16.6414 13.7958 16.5143 13.738C16.5165 13.8018 16.5009 13.8644 16.4711 13.912C16.5223 13.9044 16.5683 13.8077 16.6009 13.912C16.5414 14.0903 16.4791 13.8965 16.4304 14.0864C16.5791 14.0939 16.3413 14.2798 16.4711 14.2603C16.6225 14.2449 16.3953 14.0051 16.5143 14.0301C16.5035 14.1307 16.7172 14.208 16.6009 14.2603C16.5306 14.1252 16.6062 14.2798 16.6009 14.3785C16.1683 14.8798 16.0169 15.3867 15.4898 16.1259C15.5086 15.942 15.4383 15.8861 15.3627 15.8338C15.4275 16.1105 15.5061 16.393 15.2761 16.4164C15.2708 16.5615 15.195 16.5983 15.3195 16.6487C15.306 16.5555 15.3763 16.4917 15.4031 16.5904C15.3168 16.6059 15.3195 16.7494 15.2329 16.7648C15.2628 16.6098 15.1465 16.6523 15.1058 16.5904C15.0878 16.7138 15.0387 16.8234 14.9679 16.8983C14.8971 16.9733 14.8096 17.0084 14.7219 16.9971C14.9627 17.1635 14.6571 17.3026 14.5923 17.349C14.6815 17.3645 14.5301 17.504 14.6787 17.5234C14.6787 17.4073 14.795 17.4497 14.7626 17.2872C14.8105 17.3239 14.8653 17.3381 14.9192 17.3277C14.973 17.3173 15.0232 17.2829 15.0627 17.2293C14.976 17.1132 14.9788 17.2563 14.8924 17.2872C14.9384 17.024 15.1626 17.1711 15.1465 16.9408C15.298 16.9039 15.314 17.328 15.3627 17.4073C15.3816 17.4362 15.433 17.3336 15.4491 17.349C15.6033 17.4961 16.052 18.3942 15.7467 18.3363C15.8142 18.5257 15.9413 18.0846 15.9601 18.3942C15.9142 18.452 15.7899 18.456 15.7467 18.5143C15.7331 18.6458 15.871 18.5761 15.8737 18.6843C15.817 18.8297 15.714 18.6225 15.7032 18.7445C15.7088 18.8159 15.698 18.909 15.7467 18.9205C15.8059 18.6728 16.0927 18.8392 16.1304 18.9768C16.1467 18.8781 16.0683 18.8278 16.1304 18.8044C16.3089 18.8083 16.5791 19.1528 16.3872 19.4429C16.5251 19.4314 16.4548 19.6965 16.6009 19.6751C16.5954 19.6093 16.5251 19.5435 16.6009 19.5031C16.663 19.6288 16.8279 19.6173 16.8551 19.7952C16.8091 19.8067 16.7521 19.8884 16.8116 19.9074C16.9251 19.7564 16.8468 20.0041 16.9846 19.9656C16.8495 20.2712 17.0198 20.3719 16.8983 20.7242C17.0234 20.6693 17.1571 20.6693 17.2822 20.7242C17.2495 20.8404 17.3658 20.9176 17.2822 21.1305C17.347 21.119 17.355 21.0377 17.4118 21.0144C17.52 21.3124 17.5443 21.4674 17.7553 21.5371C17.7849 21.8043 17.639 21.4519 17.6686 21.7151C17.7686 21.7381 17.7605 21.6065 17.8821 21.6568C17.9363 21.8003 17.7877 21.9394 17.8821 21.9473C17.9931 21.742 18.0335 22.1253 18.1797 22.0635C18.2552 22.6401 18.6444 22.7872 18.8634 23.2866C18.8359 23.3105 18.8135 23.3448 18.7987 23.3858C18.784 23.4268 18.7774 23.4728 18.7798 23.5188C18.8634 23.4336 18.9284 23.5767 18.9932 23.4027C18.9581 23.7007 19.2662 23.7083 19.1635 23.929C19.3691 23.9405 19.5474 24.231 19.461 24.4514H19.6341C19.6664 24.707 19.5474 24.405 19.5474 24.5675C20.2149 25.4457 20.8164 26.4212 21.3423 27.4782C21.5452 27.6876 21.7064 27.969 21.8101 28.2947C21.8129 28.2602 21.8182 28.2253 21.8533 28.2368C21.8669 28.349 21.7966 28.349 21.7694 28.4108C21.9048 28.3335 22.2561 28.8135 22.1102 28.9336C22.2752 28.9217 22.2669 29.1464 22.3236 29.282C22.5102 29.1694 22.8618 29.9399 23.0508 30.0406C23.0104 30.056 23.0104 30.1991 23.0508 30.2146C23.0835 30.079 23.1535 30.4972 23.2618 30.2728C23.2781 30.4817 23.378 30.4857 23.305 30.683C23.3868 30.7364 23.4732 30.7741 23.5619 30.7952C23.6133 31.2752 23.9214 31.3643 23.8187 31.7861C23.9322 31.7591 24.1296 31.817 24.2027 31.7861C24.0673 31.9486 24.5324 32.2351 24.2891 32.3707C24.2972 32.3154 24.2932 32.2579 24.2778 32.206C24.2623 32.154 24.2361 32.1101 24.2027 32.0801C24.2188 32.2506 24.2268 32.4325 24.3298 32.4868C24.389 32.4943 24.4892 32.2894 24.5 32.4285C24.3837 32.5292 24.5296 32.9897 24.0322 32.9513C24.1728 33.2648 23.9486 33.1059 23.989 33.4194C23.8132 33.4467 24.0297 33.2608 23.8619 33.2454C23.674 33.4435 23.4553 33.5735 23.2246 33.624C22.9939 33.6745 22.7581 33.6442 22.5373 33.5355C22.0271 33.7772 21.4807 33.8173 20.9559 33.6516C20.9586 33.6516 20.9722 33.6865 20.8288 33.7099C20.4856 33.7677 20.1071 33.5434 19.7611 33.6516C19.8071 33.4194 19.8882 33.3924 19.7177 33.5355C19.6988 33.4309 19.7799 33.3845 19.7177 33.3615C19.7177 33.4348 19.6449 33.4118 19.6341 33.4737C19.6608 33.4835 19.6841 33.5071 19.6995 33.5399C19.7149 33.5727 19.7214 33.6124 19.7177 33.6516C19.4045 33.6829 19.0899 33.6635 18.7798 33.5938C18.8257 33.5783 18.8825 33.4966 18.823 33.4737C18.8014 33.5819 18.7743 33.4503 18.7363 33.4194C18.7446 33.6401 18.7012 33.4388 18.6068 33.4737C18.6012 33.5434 18.6148 33.6401 18.5633 33.6516C17.6804 33.7046 16.7959 33.6657 15.9169 33.5355H15.8303C15.8438 33.8724 15.3735 33.5355 15.3195 33.5355C15.2817 33.5854 15.2377 33.6248 15.1897 33.6516C14.7463 33.7329 14.1868 33.5549 13.5678 33.6516C13.5738 33.6299 13.5764 33.6066 13.5754 33.5833C13.5743 33.56 13.5697 33.5373 13.5618 33.5168C13.554 33.4964 13.543 33.4787 13.5298 33.465C13.5166 33.4513 13.5015 33.4419 13.4854 33.4376C13.4694 33.4332 13.4529 33.434 13.4371 33.4399C13.4213 33.4457 13.4066 33.4565 13.3941 33.4714C13.3816 33.4863 13.3715 33.505 13.3646 33.5262C13.3576 33.5473 13.3541 33.5704 13.3541 33.5938C13.4164 33.528 13.4596 33.5315 13.4812 33.6516C11.8186 33.6322 10.9616 33.6207 9.2965 33.6516C9.29097 33.5819 9.30453 33.4852 9.25332 33.4737C9.22065 33.8684 8.85304 33.3266 8.95574 33.6516C8.86018 33.5994 8.75747 33.5796 8.65566 33.5938C7.90218 33.6578 7.1467 33.6578 6.39322 33.5938C5.92013 33.4273 5.21452 33.7523 4.77105 33.5355C4.22383 33.3605 3.65971 33.3213 3.10321 33.4194C3.02487 33.4039 3.12757 33.3227 3.06003 33.2993C2.95179 33.3072 3.00051 33.528 2.88951 33.5355C2.83553 33.3885 3.05726 33.3496 2.93297 33.2993C2.88425 33.3112 2.81117 33.2917 2.80591 33.3615C2.80122 33.4024 2.80264 33.4442 2.81009 33.4843C2.81753 33.5243 2.83083 33.5616 2.84909 33.5938C2.67885 33.5509 2.65698 33.4118 2.75996 33.4194C2.74424 33.3521 2.71624 33.292 2.67885 33.2454C2.57615 33.218 2.70044 33.5085 2.54902 33.4194C2.64895 33.1098 2.47871 33.3651 2.37878 33.4194C2.45712 33.4852 2.65698 33.377 2.71926 33.5938C2.58524 33.6268 2.44749 33.5837 2.33532 33.4737C2.30846 33.7638 1.77586 33.9766 1.82181 33.826C1.72991 34.1237 1.68119 33.7872 1.52174 34C1.46807 33.6695 1.33142 33.3788 1.13779 33.1831C1.2189 32.4055 0.997169 32.0762 1.09738 31.5538C1.05392 31.4222 0.86208 31.6814 0.797305 31.4959C0.970317 31.163 0.862079 30.8959 0.926855 30.5087C0.880598 30.5049 0.834855 30.5241 0.797305 30.563C0.786509 30.3152 0.953984 30.3113 1.01073 30.1567C0.956752 30.1603 0.951217 30.23 0.883673 30.2146V29.9823C0.948726 29.9787 1.02983 29.9902 1.01073 29.8662C0.683808 29.4833 1.00796 28.9102 0.840489 28.4108C0.60796 28.5349 0.878414 28.1825 0.710661 28.2368C0.846026 28.1092 0.824155 28.0434 0.967548 28.1786V27.9467C0.721455 27.8032 1.02706 26.7157 0.797305 26.6075C1.04063 26.4525 0.821664 26.2048 0.967548 26.1969C0.795874 25.5807 0.795874 24.8936 0.967548 24.2774C0.851184 23.7174 0.881903 23.1157 1.05392 22.5858C1.01627 22.7757 1.11897 22.7717 1.18098 22.8221C1.03786 22.6865 1.18098 22.4313 1.09738 22.3536C1.00797 22.3032 1.01073 22.6516 0.967548 22.4737C1.08381 22.2105 1.01073 22.1641 0.967548 21.9473C1.03232 21.9394 1.127 21.9668 1.13779 21.8891C1.00271 21.9125 1.00271 21.6223 1.09738 21.4828C0.872877 21.3552 1.04063 21.0453 0.840489 21.0726C1.01627 21.1035 0.800072 20.8713 0.967548 21.0144C0.864847 20.8289 0.916059 20.8094 0.967548 20.6081C0.862079 20.666 0.878414 20.6275 0.710661 20.666C0.783741 20.488 1.13779 19.7334 0.883673 19.8495C0.775714 19.7064 0.96478 19.6676 1.01073 19.559C0.85682 19.4199 1.11343 19.2455 0.883673 19.0949C1.12977 19.1258 1.01627 18.4191 0.883673 18.5721C1.1162 18.4639 0.848516 18.3189 1.05392 18.3363C1.0027 18.2511 1.0027 18.1001 0.926855 18.0458C0.802563 18.0418 0.872875 18.1774 0.753843 18.2202C0.797304 17.7786 0.883671 17.7323 0.926855 17.349C0.607959 17.1322 0.851286 15.6654 0.710661 15.0189C0.759698 14.9953 0.804171 14.9556 0.840489 14.9028C0.759381 14.8953 0.81087 14.7094 0.710661 14.7288C0.66598 13.5026 0.709485 12.273 0.840489 11.0595C0.702633 10.8661 0.78651 10.8621 0.883673 10.8855C0.618757 10.4404 0.759381 10.1848 0.627061 9.66242C0.743049 9.57721 0.683809 9.39132 0.840489 9.43016C0.829693 9.36437 0.791767 9.33901 0.753843 9.31404C0.689067 9.318 0.721457 9.46108 0.627061 9.43016C0.724225 9.10873 0.607961 9.01203 0.710661 8.72944C0.500001 8.77422 0.71066 8.1488 0.5836 7.91298C0.71066 7.91298 0.726991 8.18368 0.670243 8.26493C0.715454 8.26424 0.759752 8.28317 0.797305 8.31923C0.713428 8.18764 0.808101 8.2574 0.840489 8.1488C0.586368 8.16426 0.834951 7.8781 0.753843 7.85868C0.716195 7.94389 0.483667 7.59155 0.670243 7.50634V7.73859C0.759379 7.61097 0.797304 7.81429 0.926855 7.79685C0.937928 7.66527 0.802564 7.73463 0.797305 7.62246C0.878413 7.56856 0.940419 7.79685 0.967548 7.62246C0.918827 7.57213 0.762149 7.22018 0.716197 7.4988C0.543185 7.41359 0.743049 6.9471 0.627061 6.80601C0.905265 6.7632 0.745817 6.77866 0.883673 6.9257C0.929626 6.68988 0.751351 6.63954 0.670243 6.75171C0.732251 6.52896 0.759381 6.52342 0.883673 6.63162C0.84049 6.48457 0.826923 6.35299 0.926855 6.3415C0.9108 6.26025 0.872875 6.24479 0.926855 6.16711C0.900004 6.08586 0.762147 6.15958 0.753843 6.05098C0.813359 6.04741 0.800074 5.90394 0.710661 5.93485C0.791769 6.02403 0.651143 6.16354 0.753843 6.28323C0.575571 6.2329 0.583601 5.5286 0.710661 5.29239C0.580833 5.31577 0.640347 5.08352 0.540415 5.06211C0.634243 4.81302 0.686926 4.53644 0.694412 4.25363C0.701898 3.97083 0.663989 3.68933 0.5836 3.43078C0.670244 3.37292 0.767408 3.33011 0.797305 3.19853C0.743048 3.20249 0.737787 3.27582 0.670243 3.25679C0.602699 3.04951 0.81336 3.22191 0.797305 3.0824C0.589136 2.90445 0.670243 1.82839 0.753843 1.68531C0.591903 1.61159 0.778203 1.42412 0.670243 1.27708C0.834951 1.39875 0.778205 1.54381 1.09738 1.51092C1.04866 1.32543 1.16492 1.36982 1.18098 1.27708C1.04589 1.22476 1.09184 1.42967 1.01073 1.45305C0.897236 1.3833 0.837721 1.03492 0.710661 1.16254C0.748585 0.833576 0.470105 0.628668 0.710661 0.69446C0.632321 0.688515 0.68104 0.504614 0.5836 0.520071ZM18.3067 10.7694L18.3092 10.773C18.3147 10.8158 18.2931 10.8233 18.266 10.8273C18.3499 10.8661 18.3471 10.8233 18.3092 10.773L18.3067 10.7694C18.2586 10.7077 18.1997 10.6662 18.1362 10.6493C18.0877 10.6628 18.1146 10.7092 18.1362 10.7092C18.1445 10.7769 18.1282 10.8118 18.0958 10.8273C18.1581 11.0171 18.2012 10.7111 18.3067 10.7694ZM17.4118 12.2826C17.5252 12.302 17.5308 12.4685 17.7091 12.3987V12.2247C17.639 12.2014 17.6307 12.2672 17.6255 12.3409C17.5712 12.327 17.5687 12.1665 17.6255 12.1665C17.5388 12.0698 17.3522 12.329 17.2822 12.457C17.3226 12.6116 17.3874 12.3349 17.4118 12.2826ZM14.849 16.0661C14.9085 16.0526 14.8113 15.7775 15.0195 15.8338C15.0275 15.6654 15.0247 15.5163 14.8924 15.5417C14.8896 15.6927 14.9248 15.615 14.9788 15.6016C14.8274 15.7272 14.8058 16.0292 14.6787 16.1842C14.7274 16.3891 14.8221 15.8861 14.849 16.0661ZM21.6831 28.7592C21.6183 28.6201 21.656 28.3296 21.4694 28.349C21.4749 28.4576 21.4182 28.4731 21.4262 28.5852C21.3315 28.6201 21.3642 28.4731 21.2991 28.4691C21.2072 28.326 21.3479 28.651 21.3858 28.7013C21.4234 28.6007 21.5425 28.6046 21.5128 28.4108C21.6344 28.5349 21.602 28.6431 21.4694 28.6431C21.502 28.7592 21.6183 28.8524 21.6831 28.7592ZM21.3858 33.0092C21.3694 32.9085 21.4182 32.901 21.4694 32.893C21.3966 32.7305 21.3586 32.8387 21.2128 32.8352C21.2504 32.92 21.2775 33.0206 21.3858 33.0092ZM20.6154 27.42C20.6774 27.5286 20.526 27.2539 20.6154 27.072C20.5016 27.1414 20.4828 27.1219 20.5287 27.3039C20.48 27.2884 20.353 27.0486 20.3585 27.3039C20.3937 27.2924 20.4017 27.246 20.4449 27.246C20.3693 27.6293 20.5802 27.3506 20.6154 27.42ZM19.334 33.5938C19.3799 33.5783 19.3636 33.4737 19.4176 33.4737C19.4068 33.3964 19.3124 33.4273 19.2473 33.4194C19.2501 33.3615 19.2988 33.373 19.334 33.3615C19.2662 33.3147 19.2717 33.1756 19.1635 33.1831C19.169 33.2654 19.1871 33.3448 19.2166 33.4158C19.2461 33.4868 19.2862 33.5475 19.334 33.5938ZM18.1362 32.6608C18.1023 32.7278 18.0878 32.811 18.0958 32.893C18.1309 32.9434 18.212 32.9279 18.2228 33.0092C18.2012 32.92 18.258 32.5526 18.0091 32.5446C17.9903 32.6687 18.0714 32.6568 18.1362 32.6608ZM15.3195 32.9513C15.4654 32.8506 15.2061 32.6842 15.1465 32.8352C15.141 32.901 15.1573 32.9394 15.1897 32.9513C15.1842 33.0206 15.1139 33.0012 15.0627 33.0092C15.1573 33.3072 15.298 32.8775 15.3195 32.9513ZM0.967548 8.38106C0.897235 8.49718 0.772943 8.54197 0.753843 8.72944C0.791767 8.69456 0.829693 8.65968 0.840489 8.72944C0.921597 8.70645 0.846024 8.4623 1.01073 8.55544C0.983601 8.50549 0.968455 8.44433 0.967548 8.38106Z" fill="#FF4C2E"/>
</g>
<defs>
<filter id="filter0_d_325_2920" x="0.5" y="0" width="26" height="36" filterUnits="userSpaceOnUse" color-interpolation-filters="sRGB">
<feFlood flood-opacity="0" result="BackgroundImageFix"/>
<feColorMatrix in="SourceAlpha" type="matrix" values="0 0 0 0 0 0 0 0 0 0 0 0 0 0 0 0 0 0 127 0" result="hardAlpha"/>
<feOffset dx="2" dy="2"/>
<feComposite in2="hardAlpha" operator="out"/>
<feColorMatrix type="matrix" values="0 0 0 0 0.312565 0 0 0 0 0.0937695 0 0 0 0 0 0 0 0 0.85 0"/>
<feBlend mode="normal" in2="BackgroundImageFix" result="effect1_dropShadow_325_2920"/>
<feBlend mode="normal" in="SourceGraphic" in2="effect1_dropShadow_325_2920" result="shape"/>
</filter>
</defs>
</svg>
