<svg width="310" height="45" viewBox="0 0 310 45" fill="none" xmlns="http://www.w3.org/2000/svg">
<g clip-path="url(#clip0_351_1942)">
<path d="M310 44.9163L310 -268L0 -268L-1.27892e-05 24.5822C2.22659 24.5362 4.43573 24.3229 6.57814 23.9467C9.54603 23.7118 13.7488 24.0163 16.0461 22.9243C18.0968 21.9497 18.7851 20.5847 21.2471 19.8651C22.308 19.5552 23.618 19.5637 24.6066 19.2654C25.7341 18.8372 26.7927 18.3439 27.7682 17.7922C30.1786 16.7641 33.0407 16.2126 35.9731 16.2112C38.9947 16.0673 42.9077 16.7058 45.2164 15.1374C46.4033 14.3309 46.8098 13.0286 48.2017 12.2991C50.8323 10.9202 53.3673 11.6298 56.7486 11.5476C56.4198 11.5704 56.0871 11.5376 55.7864 11.4525C55.4857 11.3675 55.2284 11.2335 55.0423 11.065C54.9388 9.65067 59.5151 9.59803 60.949 9.05837C61.6468 8.79574 61.9121 8.17278 62.5872 7.98702C64.0345 7.58824 65.4221 7.83686 66.8959 7.38659C68.2056 6.99798 69.5472 6.65151 70.9153 6.34862C71.9102 6.11702 73.8634 5.70185 75.6012 5.20134L93.1646 5.20135C94.5054 6.37107 95.6425 7.62436 96.5573 8.94054C97.8924 7.88227 98.1907 8.71687 99.4316 8.82824C101.293 8.9952 102.63 8.79243 104.197 9.43035C106.263 10.2716 106.54 11.4405 107.341 12.7636C108.23 14.2343 109.4 14.4262 111.82 15.0794C114.442 15.8278 117.283 16.24 120.172 16.291C122.457 16.2209 124.716 15.9638 126.89 15.5264C128.603 15.3079 130.378 15.3683 132.042 15.7018C133.705 16.0352 135.198 16.6301 136.374 17.4276C138.038 18.4554 140.166 19.1519 142.481 19.427C150.258 19.7672 148.298 14.5069 152.503 12.1857C153.583 11.7275 154.776 11.3789 156.036 11.1533C156.85 11.0192 157.651 10.8565 158.435 10.6661C159.066 10.3776 159.601 10.0178 160.013 9.6058C162.616 9.11416 162.925 11.5982 164.733 12.043C166.407 12.4548 167.136 11.7052 168.505 11.5308C170.148 11.3217 171.79 11.6335 172.702 10.3991C173.241 9.67044 172.642 8.68367 172.808 7.91259C174.687 8.12689 176.449 8.62796 177.932 9.36999C179.416 10.112 180.573 11.0713 181.298 12.1599C182.112 13.2309 182.049 14.8242 182.91 15.7949C183.812 16.6003 185.089 17.2185 186.573 17.5676C189.626 18.6901 192.859 19.6142 196.223 20.3248C198.342 20.6992 199.485 20.3898 200.462 22.1133C200.707 22.8075 200.845 23.5141 200.876 24.2241C201.47 25.1097 201.931 26.0267 202.254 26.9638C202.127 27.7497 202.29 28.5431 202.73 29.285C205.193 29.4107 207.668 29.4203 210.133 29.3136C212.48 29.366 214.824 29.1772 217.07 28.7551C218.077 28.4851 219.129 28.2836 220.207 28.154C225.594 28.0788 229.292 31.5017 234.486 31.4856C237.93 31.475 241.588 29.7611 244.552 28.861C247.182 28.0629 247.126 27.8136 248.2 26.1454C248.827 24.7821 249.658 23.4576 250.685 22.1892C252.726 20.3772 256.29 21.0776 259.196 20.9047C259.599 19.3299 258.307 17.5241 259.497 16.0025C260.301 15.1879 261.523 14.5613 262.97 14.2212C263.486 14.184 263.988 14.0927 264.454 13.9512C265.339 13.5518 266.118 13.0705 266.764 12.5243C268.657 12.0545 270.771 12.0535 272.665 12.5215C274.261 15.3724 273.234 18.5675 272.794 21.4551C273.912 21.6398 274.786 22.2533 275.877 22.4179C277.663 22.6868 278.82 22.1465 280.518 22.0411C281.538 21.985 282.566 22.0721 283.524 22.2958C284.481 22.5194 285.344 22.8739 286.048 23.3325C286.823 24.1499 286.293 25.5157 286.252 26.3686C286.048 30.5508 295.761 32.4221 300.291 34.7379C303.224 36.2371 302.527 36.4866 302.401 38.7867C302.119 40.8546 302.135 42.9338 302.448 45C304.964 44.9878 307.478 44.9169 310 44.9163Z" fill="#DEC09C"/>
</g>
<defs>
<clipPath id="clip0_351_1942">
<rect width="310" height="45" fill="white"/>
</clipPath>
</defs>
</svg>
