<svg width="40" height="68" viewBox="0 0 40 68" fill="none" xmlns="http://www.w3.org/2000/svg">
<path opacity="0.5" d="M38.5506 0.803327C38.5247 0.813109 38.4986 0.822047 38.4724 0.828688C38.2654 0.8815 38.0624 0.996827 37.8512 1.03926C37.1307 1.14313 36.4039 1.08511 35.6949 0.867128C35.1807 0.661132 34.645 0.60323 34.1164 0.696504C33.705 0.82062 33.4828 1.3466 33.1101 1.49272C32.8968 1.57634 32.6904 1.43254 32.4975 1.62611C32.2616 1.86293 32.2654 2.22969 31.8975 2.34163C31.4929 2.46467 31.1293 1.92457 30.7528 2.2725C30.5883 2.42446 30.4997 2.657 30.3226 2.78189C30.1651 2.90401 29.9974 2.99419 29.824 3.05006C29.6484 3.01784 29.38 2.5195 29.2406 2.36295C29.056 2.15573 28.9139 1.93664 28.7441 1.71527C28.5049 1.40341 28.2811 1.09755 28.0562 0.761156C27.847 0.448229 27.7414 0.325572 27.4417 0.643819C27.3318 0.760427 27.2925 0.98395 27.1672 1.06752C26.9698 1.19932 26.6389 1.0287 26.4414 0.982408C25.722 0.813803 25.0056 0.675566 24.2943 0.486197C23.8261 0.361567 23.3529 0.500919 22.8847 0.446906C22.6842 0.423739 22.506 0.255211 22.3114 0.234661C22.0287 0.204758 21.6086 0.574502 21.3633 0.809467C21.0899 1.07125 20.8552 1.50877 20.5681 1.72727C19.9925 2.16525 19.224 1.83937 18.6438 2.04732C18.1961 2.16158 17.741 2.19687 17.2878 2.15247C17.1168 2.17837 16.9468 2.21872 16.7788 2.27333C16.4908 2.30533 16.3918 1.97426 16.1492 1.55494C16.0059 1.24982 15.8231 0.991076 15.6115 0.794162C15.3048 0.575868 15.1274 0.775528 14.8409 0.846702C14.35 0.968673 13.8395 0.657763 13.3337 0.65301C12.9671 0.649526 12.7634 0.428323 12.3779 0.4385C12.0333 0.481273 11.6863 0.428492 11.3545 0.282802C11.1474 0.169155 10.9996 -0.0478885 10.7643 0.00948C10.3733 0.104757 10.2021 0.909141 9.90575 1.18109C9.60285 1.45905 8.99077 1.30069 8.61505 1.40379C8.06263 1.55536 7.6016 1.4962 7.0713 1.78437C6.68663 1.94331 6.28584 1.99607 5.88854 1.94007C5.65922 1.9792 5.42788 1.98431 5.19788 1.95533C4.95536 1.84649 5.07893 1.77202 4.90037 1.50419C4.62659 1.09344 4.08818 0.905475 3.75028 0.65987C2.77008 -0.0526119 1.53422 0.223989 0.447833 0.223989C0.145445 1.27885 0.391925 2.76708 0.269846 3.8703C0.198867 4.45276 0.162619 5.04352 0.161526 5.6356C0.164907 6.71544 0.306726 7.69523 0.304032 8.76774C0.300077 10.3531 0.418402 11.9149 0.447832 13.4959C0.460814 14.1941 0.472534 14.8834 0.52062 15.5794C0.580249 16.0079 0.601555 16.4464 0.58398 16.8833C0.534232 17.25 0.383672 17.6102 0.333608 17.9988C0.151637 19.4112 0.505061 20.8522 0.46262 22.2659C0.44961 22.7002 0.307586 22.9063 0.301224 23.3582C0.286036 24.4366 0.304547 25.5206 0.304547 26.5997C0.304547 27.4875 0.249007 28.4115 0.297638 29.2966C0.344173 29.6523 0.43276 29.9928 0.559221 30.3019C0.823667 31.3018 0.7344 32.3895 0.7344 33.473C0.537242 33.8235 0.422723 34.2615 0.408547 34.7192C0.331488 35.5151 0.299075 36.3567 0.193646 37.1071C0.0255088 38.4437 0.114811 39.8243 0.451128 41.0878C0.68941 41.9844 0.594411 43.0266 0.591115 43.9832C0.586415 45.3386 0.695483 46.62 0.765778 47.9524C0.888544 50.2797 1.07318 52.8471 0.765778 55.1531C0.698291 55.6592 0.678607 56.1886 0.61966 56.7027C0.561912 57.2472 0.561745 57.802 0.61917 58.3466C0.66141 58.6432 0.70475 58.9394 0.749188 59.2352C0.713252 59.4303 0.672119 59.6229 0.62579 59.813C0.596818 60.2429 0.573191 60.6735 0.554917 61.1047C0.519131 61.8442 0.396853 62.5686 0.193645 63.2448C-0.0761882 64.0565 0.0214466 64.8462 0.0189821 65.7423C0.0177785 66.1815 -0.0751013 66.7982 0.161261 67.1511C0.690011 67.1699 1.21793 67.0782 1.72974 66.8785C2.22953 66.7306 2.74384 66.7306 3.24363 66.8785C3.82361 67.0636 4.41448 67.1617 5.00746 67.1713C5.48998 67.1297 5.77713 66.7804 6.18738 66.4915C6.55029 66.2457 6.95808 66.1911 7.34437 66.3365C7.61897 66.4971 7.90026 66.6307 8.18645 66.7366C8.57533 66.7786 8.93678 66.4346 9.31106 66.3297C9.60973 66.2459 9.89587 66.3299 10.1917 66.2453C10.7996 66.0304 11.42 65.9033 12.0442 65.8655C12.5209 65.8321 12.9983 65.8986 13.4627 66.0632C13.917 66.3159 14.3596 66.6136 14.7875 66.9541C15.4635 67.3842 16.311 68.1722 17.0637 67.9663C17.6373 67.8095 18.2006 67.7258 18.776 67.5534C19.2615 67.3547 19.7585 67.2256 20.2603 67.1678C20.8704 67.1543 21.4688 66.597 22.0756 66.7487C22.3155 66.8088 22.5605 67.1669 22.7913 67.1824C22.9293 67.1442 23.0556 67.0411 23.1517 66.8881C23.4798 66.6086 23.8523 66.4674 24.2297 66.4797C24.6022 66.4957 24.9747 66.5092 25.3472 66.5201C25.4264 66.5364 25.5069 66.5289 25.5841 66.4981C25.6613 66.4673 25.7337 66.4138 25.7969 66.3407C26.9938 66.0393 28.2426 66.4033 29.3901 66.8763C30.2962 67.2498 30.9018 67.6016 31.7928 67.5771C32.4428 67.5592 33.0947 67.5801 33.7449 67.5801C34.506 67.5801 35.2434 67.7701 35.9987 67.7996C36.6432 67.8247 37.2502 67.6253 37.8869 67.569C38.2179 67.5877 38.5494 67.5755 38.8794 67.5323C39.1984 67.425 39.5241 67.3691 39.8511 67.3656C39.8907 67.3662 39.5004 66.9335 39.54 66.932C39.5938 66.4435 39.6008 65.946 39.5607 65.4545C39.5616 64.7314 39.6 64.0094 39.6754 63.2952C39.7396 62.5948 39.5755 62.0629 39.5591 61.3614C39.5308 60.1504 39.5645 58.9249 39.5645 57.7126C39.5645 56.5807 39.3064 55.6344 39.167 54.5756C39.02 53.4585 39.2663 52.4992 39.2853 51.4075C39.3111 50.7896 39.3111 50.1699 39.2853 49.5521C39.2514 49.0633 39.1354 48.5966 39.1244 48.0994C39.1098 47.4219 39.2005 46.7486 39.3893 46.1325C39.4529 45.9304 39.5447 45.9139 39.5783 45.6856C39.6308 45.3288 39.45 44.7018 39.3852 44.36C39.2413 43.5832 39.1591 42.7837 39.1403 41.9781C39.0671 40.5713 39.1267 39.1561 39.3172 37.7742C39.3856 37.4574 39.4217 37.127 39.4245 36.7941C39.4371 35.9218 39.4036 35.0473 39.4144 34.1751C39.4031 33.8351 39.4135 33.4943 39.4457 33.1573C39.4824 32.9392 39.5658 32.7452 39.6833 32.605C39.8356 31.8832 39.6216 31.1541 39.5645 30.4699C39.5258 30.4644 39.4871 30.2445 39.4485 30.239C39.4214 29.45 39.3939 24.361 39.0171 24.4277C38.8851 23.8948 39.0817 23.1441 39.1211 22.5919C39.2443 20.8666 39.6938 19.2012 39.872 17.4783C40.0462 16.2544 40.0426 14.9887 39.8613 13.7671C39.7263 13.0214 39.4327 12.3344 39.411 11.5522C39.391 10.1702 39.4184 8.78761 39.4933 7.40985C39.5077 7.05775 39.5216 6.70563 39.5332 6.35331C39.539 6.1772 39.5441 6.00105 39.5486 5.82485C39.5592 5.67163 39.5623 5.51746 39.5579 5.36356C39.5477 5.25055 39.5418 5.13678 39.5401 5.02278C39.5382 4.44953 39.5317 3.87625 39.5388 3.30303C39.5486 3.14209 39.5638 2.98199 39.5843 2.82334C39.5911 2.68526 39.5924 2.54669 39.5883 2.40838C39.5875 2.05525 39.6039 1.70758 39.6122 1.35548C39.6142 1.26775 39.6161 1.18001 39.618 1.09224C39.6246 0.972804 39.6318 0.853426 39.6395 0.734107C39.6279 0.658762 39.6218 0.648764 39.5629 0.625726C39.4288 0.558573 39.2859 0.540201 39.146 0.572138C38.9996 0.615297 38.8645 0.700976 38.7147 0.743114C38.6595 0.758632 38.6051 0.782863 38.5506 0.803327Z" fill="#DEC09C"/>
<g opacity="0.8">
<path d="M7.1422 33.4203C7.14746 33.4187 7.15244 33.4174 7.15662 33.4169C7.18977 33.4131 7.24454 33.387 7.27434 33.3871C7.36169 33.4016 7.39275 33.4733 7.36649 33.5999C7.33066 33.7084 7.34824 33.7666 7.41831 33.7713C7.4909 33.7569 7.69095 33.5882 7.76852 33.5634C7.81291 33.5492 7.7771 33.6142 7.85858 33.56C7.95826 33.4936 8.08653 33.3648 8.15178 33.3516C8.22351 33.3371 8.05993 33.5521 8.2085 33.4568C8.27339 33.4152 8.36115 33.3399 8.41744 33.3087C8.47138 33.277 8.51484 33.2573 8.54669 33.2499C8.54781 33.2737 8.39213 33.4673 8.34712 33.532C8.28755 33.6177 8.22082 33.7045 8.15524 33.7941C8.06285 33.9203 7.97148 34.0434 7.86949 34.1771C7.77461 34.3016 7.73909 34.3521 7.87182 34.2617C7.92045 34.2286 8.00158 34.1531 8.03972 34.1326C8.09987 34.1004 8.06347 34.1836 8.06122 34.2138C8.05299 34.3237 8.0552 34.4229 8.03913 34.5395C8.02856 34.6163 8.11086 34.6009 8.12503 34.653C8.13109 34.6753 8.08462 34.7469 8.09118 34.7679C8.10069 34.7984 8.25998 34.6985 8.35968 34.6335C8.47076 34.5611 8.64069 34.4243 8.73758 34.368C8.93178 34.2552 8.87191 34.4238 8.98581 34.3919C9.05751 34.3836 9.10206 34.4034 9.11855 34.451C9.13972 34.454 9.16588 34.4519 9.1969 34.4446C9.22848 34.4538 9.11945 34.5768 8.98964 34.7409C8.89283 34.858 8.81508 34.9616 8.76103 35.0456C8.70621 35.1437 8.78873 35.0863 8.83393 35.0816C8.91139 35.0736 8.83852 35.2187 8.87262 35.2561C8.89733 35.2832 8.8342 35.3752 8.86503 35.3989C8.90439 35.4082 8.91042 35.4513 8.88283 35.5258C8.85764 35.5803 8.79202 35.6668 8.82877 35.6633C8.88981 35.6576 9.18383 35.3878 9.30009 35.3134C9.41893 35.2374 9.40671 35.3362 9.46941 35.3266C9.56159 35.3126 9.57346 35.3659 9.71195 35.3024C9.79486 35.2739 9.84169 35.2837 9.85016 35.3315C9.88009 35.334 9.89824 35.3485 9.90434 35.3749C9.88335 35.4302 9.84851 35.4476 9.76727 35.5541C9.64267 35.7174 9.61486 35.8214 9.55268 35.9313C9.37228 36.2504 9.55661 36.2408 9.63343 36.3176C10.0245 35.9693 10.5287 35.4303 10.924 35.0523C11.1331 34.8531 11.3427 34.6487 11.5503 34.4412C11.9285 34.0625 12.2619 33.7091 12.638 33.3334C13.1939 32.7781 13.7329 32.2223 14.2849 31.6662C14.5287 31.4206 14.7694 31.1781 15.01 30.9308C15.1559 30.7764 15.3081 30.6212 15.4624 30.4693C15.5945 30.3444 15.7314 30.2288 15.8711 30.0961C16.379 29.6139 16.859 29.0839 17.3575 28.5915C17.5106 28.4402 17.5929 28.378 17.7517 28.2201C18.1308 27.8432 18.5093 27.462 18.8875 27.0838C19.1987 26.7726 19.5265 26.4527 19.8332 26.1391C19.9546 26.0111 20.0677 25.8855 20.1671 25.7682C20.4988 25.3991 20.8863 25.0242 21.2661 24.6444C21.4029 24.5355 21.5645 24.3901 21.7259 24.2307C22.0103 23.9572 22.3075 23.6646 22.578 23.409C23.0583 22.9525 23.5358 22.4623 23.9549 21.9957C24.2523 21.6646 24.6242 21.3061 24.9597 20.971C25.4351 20.4964 25.8765 20.0395 26.3385 19.5676C27.1455 18.7432 28.0322 17.8304 28.8621 17.044C29.0443 16.8713 29.2312 16.6872 29.4156 16.5112C29.6105 16.3244 29.8049 16.13 29.9918 15.9351C30.0927 15.8281 30.1935 15.7213 30.294 15.6144C30.3649 15.5486 30.4353 15.484 30.5052 15.4207C30.6579 15.272 30.8105 15.1228 30.9629 14.973C31.2247 14.7163 31.4872 14.4711 31.7385 14.2485C32.0421 13.9831 32.3119 13.6994 32.6262 13.3855C32.7802 13.2317 33.0029 13.0221 33.1099 12.8817C33.0791 12.8377 33.0096 12.8325 32.9034 12.8663C32.8162 12.8828 32.7799 12.8465 32.7964 12.7593C32.8202 12.6534 32.8128 12.5772 32.7743 12.5319C32.7256 12.5124 32.5829 12.6145 32.4526 12.6868C32.3408 12.7472 32.2928 12.7376 32.3165 12.6593C32.3533 12.5836 32.3803 12.5169 32.3971 12.4595C32.3844 12.4173 32.2383 12.5123 32.175 12.5226C32.1245 12.5308 32.1337 12.4812 32.0831 12.4899C31.9649 12.5222 31.8764 12.5229 31.8191 12.492C31.7736 12.47 31.7632 12.4129 31.788 12.3224C31.8445 12.2017 31.9175 12.0661 32.0066 11.9165C32.1095 11.718 32.3258 11.3819 32.2004 11.4008C32.1049 11.4152 32.0357 11.4047 31.9346 11.4245C31.8307 11.4597 31.7503 11.4698 31.6945 11.4546C31.6466 11.4162 31.409 11.5692 31.4193 11.4731C31.4233 11.4351 31.5315 11.2923 31.5207 11.2706C31.4975 11.2742 31.4524 11.3014 31.392 11.3482C31.2709 11.423 31.1951 11.4461 31.1727 11.4151C31.1519 11.3832 31.1303 11.3521 31.1078 11.3219C31.1079 11.3106 31.0996 11.3076 31.0833 11.3129C31.0671 11.3182 31.0432 11.3319 31.0131 11.353C30.8229 11.374 30.8621 11.1581 30.9468 10.9112C31.0136 10.7163 31.0941 10.5501 31.0225 10.4957C30.9702 10.456 30.9315 10.4026 30.8855 10.3566C30.8317 10.3028 30.8461 10.1841 30.8031 10.1203C30.7663 10.066 30.6535 10.0929 30.5887 10.0676C30.5719 10.0377 30.5441 10.0185 30.5057 10.0103C30.4455 10.0254 30.4029 10.0219 30.3786 10C30.376 9.99701 30.2519 10.1763 30.2486 10.174C30.0736 10.3414 29.8987 10.5153 29.7293 10.6904C29.4758 10.9437 29.2201 11.194 28.9644 11.439C28.7144 11.6799 28.5396 11.878 28.2949 12.125C27.8725 12.5514 27.4406 12.9785 27.0157 13.4034C26.619 13.8001 26.3056 14.15 25.9444 14.531C25.5633 14.9329 25.2096 15.2516 24.8257 15.6329C24.6073 15.8477 24.3901 16.0648 24.1754 16.2832C24.0065 16.4569 23.8511 16.6287 23.6776 16.8037C23.4412 17.0422 23.1988 17.2718 22.9696 17.4743C22.8942 17.5407 22.882 17.5399 22.7996 17.6176C22.6708 17.7389 22.4638 17.9715 22.3486 18.0958C22.0866 18.3783 21.8122 18.6643 21.5312 18.9479C21.0433 19.4462 20.5431 19.9379 20.0453 20.4088C19.9294 20.515 19.8111 20.6282 19.6942 20.7447C19.3876 21.0495 19.0835 21.3584 18.777 21.6633C18.6587 21.7833 18.5385 21.902 18.4181 22.0178C18.3391 22.0916 18.2652 22.1537 18.2078 22.1946C17.944 22.4368 17.7036 22.7074 17.4679 22.9513C17.4687 22.9559 17.3943 23.0357 17.3951 23.0404C17.1205 23.3188 15.3389 25.1043 15.3889 25.1076C15.2115 25.3037 14.9345 25.5529 14.7382 25.7436C14.1248 26.3396 13.5093 26.8915 12.8929 27.4827C12.4516 27.8994 12.0083 28.3432 11.593 28.7842C11.3412 29.0551 11.1212 29.3166 10.8486 29.5923C10.3656 30.078 9.87912 30.5607 9.39096 31.0382C9.26654 31.1606 9.14214 31.283 9.01784 31.4057C8.95571 31.467 8.89361 31.5284 8.83154 31.5898C8.7771 31.6428 8.72284 31.6966 8.66921 31.7508C8.63033 31.7912 8.59087 31.8315 8.55104 31.8715C8.35027 32.0726 8.1498 32.2739 7.9484 32.4743C7.89131 32.5301 7.83412 32.5851 7.77707 32.6392C7.72819 32.6872 7.67954 32.7356 7.63135 32.7844C7.50765 32.9082 7.38464 33.0289 7.26065 33.1517C7.22976 33.1823 7.19887 33.2129 7.16798 33.2436C7.12565 33.285 7.08331 33.3263 7.04095 33.3676C7.01536 33.3948 7.01229 33.3987 7.00837 33.411C6.99433 33.444 6.99799 33.4605 7.01907 33.4592C7.04455 33.4545 7.08413 33.434 7.10949 33.4298C7.11884 33.4283 7.13117 33.4236 7.1422 33.4203Z" fill="#623223"/>
<path d="M7.1422 35.1556C7.14746 35.1572 7.15244 35.1585 7.15662 35.159C7.18977 35.1628 7.24454 35.1889 7.27434 35.1888C7.36169 35.1743 7.39275 35.1026 7.36649 34.976C7.33066 34.8675 7.34824 34.8093 7.41831 34.8046C7.4909 34.819 7.69095 34.9877 7.76852 35.0125C7.81291 35.0267 7.7771 34.9618 7.85858 35.016C7.95826 35.0823 8.08653 35.2111 8.15178 35.2243C8.22351 35.2388 8.05993 35.0238 8.2085 35.1191C8.27339 35.1608 8.36115 35.236 8.41744 35.2672C8.47138 35.2989 8.51484 35.3186 8.54669 35.326C8.54781 35.3023 8.39213 35.1086 8.34712 35.0439C8.28755 34.9582 8.22082 34.8714 8.15524 34.7818C8.06285 34.6556 7.97148 34.5326 7.86949 34.3988C7.77461 34.2743 7.73909 34.2238 7.87182 34.3142C7.92045 34.3473 8.00158 34.4228 8.03972 34.4433C8.09987 34.4755 8.06347 34.3923 8.06122 34.3621C8.05299 34.2522 8.0552 34.1531 8.03913 34.0364C8.02856 33.9596 8.11086 33.975 8.12503 33.923C8.13109 33.9007 8.08462 33.829 8.09118 33.808C8.10069 33.7776 8.25998 33.8774 8.35968 33.9424C8.47076 34.0149 8.64069 34.1516 8.73758 34.2079C8.93178 34.3207 8.87191 34.1521 8.98581 34.184C9.05751 34.1924 9.10206 34.1726 9.11855 34.1249C9.13972 34.1219 9.16588 34.1241 9.1969 34.1313C9.22848 34.1222 9.11945 33.9991 8.98964 33.835C8.89283 33.718 8.81508 33.6143 8.76103 33.5304C8.70621 33.4322 8.78873 33.4896 8.83393 33.4943C8.91139 33.5023 8.83852 33.3573 8.87262 33.3198C8.89733 33.2927 8.8342 33.2008 8.86503 33.1771C8.90439 33.1677 8.91042 33.1247 8.88283 33.0501C8.85764 32.9957 8.79202 32.9091 8.82877 32.9126C8.88981 32.9183 9.18383 33.1882 9.30009 33.2625C9.41893 33.3385 9.40671 33.2397 9.46941 33.2493C9.56159 33.2634 9.57346 33.21 9.71195 33.2735C9.79486 33.302 9.84169 33.2922 9.85016 33.2445C9.88009 33.242 9.89824 33.2274 9.90434 33.201C9.88335 33.1457 9.84851 33.1283 9.76727 33.0218C9.64267 32.8585 9.61486 32.7546 9.55268 32.6446C9.37228 32.3256 9.55661 32.3351 9.63343 32.2583C10.0245 32.6066 10.5287 33.1456 10.924 33.5236C11.1331 33.7228 11.3427 33.9273 11.5503 34.1347C11.9285 34.5134 12.2619 34.8668 12.638 35.2425C13.1939 35.7979 13.7329 36.3536 14.2849 36.9098C14.5287 37.1554 14.7694 37.3978 15.01 37.6451C15.1559 37.7995 15.3081 37.9547 15.4624 38.1066C15.5945 38.2316 15.7314 38.3472 15.8711 38.4798C16.379 38.962 16.859 39.492 17.3575 39.9844C17.5106 40.1358 17.5929 40.1979 17.7517 40.3559C18.1308 40.7328 18.5093 41.1139 18.8875 41.4922C19.1987 41.8033 19.5265 42.1232 19.8332 42.4369C19.9546 42.5648 20.0677 42.6904 20.1671 42.8077C20.4988 43.1768 20.8863 43.5517 21.2661 43.9315C21.4029 44.0404 21.5645 44.1858 21.7259 44.3452C22.0103 44.6187 22.3075 44.9113 22.578 45.1669C23.0583 45.6234 23.5358 46.1136 23.9549 46.5802C24.2523 46.9113 24.6242 47.2698 24.9597 47.6049C25.4351 48.0796 25.8765 48.5364 26.3385 49.0083C27.1455 49.8327 28.0322 50.7455 28.8621 51.532C29.0443 51.7046 29.2312 51.8887 29.4156 52.0647C29.6105 52.2515 29.8049 52.4459 29.9918 52.6409C30.0927 52.7478 30.1935 52.8547 30.294 52.9615C30.3649 53.0273 30.4353 53.0919 30.5052 53.1553C30.6579 53.3039 30.8105 53.4531 30.9629 53.6029C31.2247 53.8596 31.4872 54.1048 31.7385 54.3274C32.0421 54.5929 32.3119 54.8765 32.6262 55.1904C32.7802 55.3442 33.0029 55.5538 33.1099 55.6942C33.0791 55.7382 33.0096 55.7434 32.9034 55.7096C32.8162 55.6931 32.7799 55.7294 32.7964 55.8166C32.8202 55.9225 32.8128 55.9987 32.7743 56.044C32.7256 56.0635 32.5829 55.9614 32.4526 55.8891C32.3408 55.8287 32.2928 55.8384 32.3165 55.9167C32.3533 55.9923 32.3803 56.0591 32.3971 56.1164C32.3844 56.1586 32.2383 56.0636 32.175 56.0533C32.1245 56.0451 32.1337 56.0948 32.0831 56.086C31.9649 56.0537 31.8764 56.053 31.8191 56.0839C31.7736 56.1059 31.7632 56.163 31.788 56.2535C31.8445 56.3742 31.9175 56.5098 32.0066 56.6594C32.1095 56.8579 32.3258 57.194 32.2004 57.1751C32.1049 57.1607 32.0357 57.1712 31.9346 57.1515C31.8307 57.1162 31.7503 57.1061 31.6945 57.1213C31.6466 57.1597 31.409 57.0067 31.4193 57.1028C31.4233 57.1408 31.5315 57.2836 31.5207 57.3054C31.4975 57.3017 31.4524 57.2745 31.392 57.2277C31.2709 57.1529 31.1951 57.1298 31.1727 57.1608C31.1519 57.1927 31.1303 57.2238 31.1078 57.254C31.1079 57.2653 31.0996 57.2683 31.0833 57.263C31.0671 57.2577 31.0432 57.2441 31.0131 57.2229C30.8229 57.2019 30.8621 57.4178 30.9468 57.6647C31.0136 57.8597 31.0941 58.0258 31.0225 58.0802C30.9702 58.1199 30.9315 58.1733 30.8855 58.2193C30.8317 58.2731 30.8461 58.3918 30.8031 58.4556C30.7663 58.51 30.6535 58.483 30.5887 58.5083C30.5719 58.5382 30.5441 58.5574 30.5057 58.5656C30.4455 58.5505 30.4029 58.554 30.3786 58.5759C30.376 58.5789 30.2519 58.3997 30.2486 58.4019C30.0736 58.2345 29.8987 58.0606 29.7293 57.8856C29.4758 57.6322 29.2201 57.3819 28.9644 57.1369C28.7144 56.896 28.5396 56.698 28.2949 56.4509C27.8725 56.0245 27.4406 55.5974 27.0157 55.1725C26.619 54.7758 26.3056 54.4259 25.9444 54.0449C25.5633 53.6431 25.2096 53.3243 24.8257 52.943C24.6073 52.7283 24.3901 52.5111 24.1754 52.2927C24.0065 52.119 23.8511 51.9472 23.6776 51.7722C23.4412 51.5337 23.1988 51.3042 22.9696 51.1016C22.8942 51.0353 22.882 51.036 22.7996 50.9583C22.6708 50.837 22.4638 50.6044 22.3486 50.4801C22.0866 50.1977 21.8122 49.9116 21.5312 49.628C21.0433 49.1298 20.5431 48.638 20.0453 48.1671C19.9294 48.0609 19.8111 47.9477 19.6942 47.8312C19.3876 47.5264 19.0835 47.2175 18.777 46.9126C18.6587 46.7927 18.5385 46.674 18.4181 46.5581C18.3391 46.4843 18.2652 46.4222 18.2078 46.3814C17.944 46.1391 17.7036 45.8685 17.4679 45.6247C17.4687 45.62 17.3943 45.5402 17.3951 45.5355C17.1205 45.2571 15.3389 43.4716 15.3889 43.4683C15.2115 43.2722 14.9345 43.023 14.7382 42.8323C14.1248 42.2363 13.5093 41.6844 12.8929 41.0932C12.4516 40.6766 12.0083 40.2327 11.593 39.7917C11.3412 39.5209 11.1212 39.2593 10.8486 38.9837C10.3656 38.4979 9.87912 38.0153 9.39096 37.5377C9.26654 37.4153 9.14214 37.2929 9.01784 37.1702C8.95571 37.1089 8.89361 37.0475 8.83154 36.9861C8.7771 36.9331 8.72284 36.8793 8.66921 36.8251C8.63033 36.7848 8.59087 36.7445 8.55104 36.7044C8.35027 36.5033 8.1498 36.302 7.9484 36.1016C7.89131 36.0459 7.83412 35.9908 7.77707 35.9367C7.72819 35.8888 7.67954 35.8403 7.63135 35.7915C7.50765 35.6677 7.38464 35.547 7.26065 35.4242C7.22976 35.3936 7.19887 35.363 7.16798 35.3323C7.12565 35.291 7.08331 35.2496 7.04095 35.2083C7.01536 35.1811 7.01229 35.1772 7.00837 35.165C6.99433 35.1319 6.99799 35.1154 7.01907 35.1167C7.04455 35.1215 7.08413 35.1419 7.10949 35.1461C7.11884 35.1476 7.13117 35.1523 7.1422 35.1556Z" fill="#623223"/>
</g>
</svg>
