<svg width="40" height="68" viewBox="0 0 40 68" fill="none" xmlns="http://www.w3.org/2000/svg">
<path opacity="0.5" d="M1.44936 0.803327C1.47535 0.813109 1.50137 0.822047 1.52756 0.828688C1.73463 0.8815 1.93756 0.996827 2.14876 1.03926C2.86926 1.14313 3.59609 1.08511 4.30513 0.867128C4.81934 0.661132 5.355 0.60323 5.88364 0.696504C6.29501 0.82062 6.51719 1.3466 6.88993 1.49272C7.10322 1.57634 7.30961 1.43254 7.50247 1.62611C7.73837 1.86293 7.73456 2.22969 8.10248 2.34163C8.50712 2.46467 8.87069 1.92457 9.24724 2.2725C9.41173 2.42446 9.50034 2.657 9.67735 2.78189C9.8349 2.90401 10.0026 2.99419 10.176 3.05006C10.3516 3.01784 10.62 2.5195 10.7594 2.36295C10.944 2.15573 11.0861 1.93664 11.2559 1.71527C11.4951 1.40341 11.7189 1.09755 11.9438 0.761156C12.153 0.448229 12.2586 0.325572 12.5583 0.643819C12.6682 0.760427 12.7075 0.98395 12.8328 1.06752C13.0302 1.19932 13.3611 1.0287 13.5586 0.982408C14.278 0.813803 14.9944 0.675566 15.7057 0.486197C16.1739 0.361567 16.6471 0.500919 17.1153 0.446906C17.3158 0.423739 17.494 0.255211 17.6886 0.234661C17.9713 0.204758 18.3914 0.574502 18.6367 0.809467C18.9101 1.07125 19.1448 1.50877 19.4319 1.72727C20.0075 2.16525 20.776 1.83937 21.3562 2.04732C21.8039 2.16158 22.259 2.19687 22.7122 2.15247C22.8832 2.17837 23.0532 2.21872 23.2212 2.27333C23.5092 2.30533 23.6082 1.97426 23.8508 1.55494C23.9941 1.24982 24.1769 0.991076 24.3885 0.794162C24.6952 0.575868 24.8726 0.775528 25.1591 0.846702C25.65 0.968673 26.1605 0.657763 26.6663 0.65301C27.0329 0.649526 27.2366 0.428323 27.6221 0.4385C27.9667 0.481273 28.3137 0.428492 28.6455 0.282802C28.8526 0.169155 29.0004 -0.0478885 29.2357 0.00948C29.6267 0.104757 29.7979 0.909141 30.0942 1.18109C30.3971 1.45905 31.0092 1.30069 31.385 1.40379C31.9374 1.55536 32.3984 1.4962 32.9287 1.78437C33.3134 1.94331 33.7142 1.99607 34.1115 1.94007C34.3408 1.9792 34.5721 1.98431 34.8021 1.95533C35.0446 1.84649 34.9211 1.77202 35.0996 1.50419C35.3734 1.09344 35.9118 0.905475 36.2497 0.65987C37.2299 -0.0526119 38.4658 0.223989 39.5522 0.223989C39.8546 1.27885 39.6081 2.76708 39.7302 3.8703C39.8011 4.45276 39.8374 5.04352 39.8385 5.6356C39.8351 6.71544 39.6933 7.69523 39.696 8.76774C39.6999 10.3531 39.5816 11.9149 39.5522 13.4959C39.5392 14.1941 39.5275 14.8834 39.4794 15.5794C39.4198 16.0079 39.3984 16.4464 39.416 16.8833C39.4658 17.25 39.6163 17.6102 39.6664 17.9988C39.8484 19.4112 39.4949 20.8522 39.5374 22.2659C39.5504 22.7002 39.6924 22.9063 39.6988 23.3582C39.714 24.4366 39.6955 25.5206 39.6955 26.5997C39.6955 27.4875 39.751 28.4115 39.7024 29.2966C39.6558 29.6523 39.5672 29.9928 39.4408 30.3019C39.1763 31.3018 39.2656 32.3895 39.2656 33.473C39.4628 33.8235 39.5773 34.2615 39.5915 34.7192C39.6685 35.5151 39.7009 36.3567 39.8064 37.1071C39.9745 38.4437 39.8852 39.8243 39.5489 41.0878C39.3106 41.9844 39.4056 43.0266 39.4089 43.9832C39.4136 45.3386 39.3045 46.62 39.2342 47.9524C39.1115 50.2797 38.9268 52.8471 39.2342 55.1531C39.3017 55.6592 39.3214 56.1886 39.3803 56.7027C39.4381 57.2472 39.4383 57.802 39.3808 58.3466C39.3386 58.6432 39.2952 58.9394 39.2508 59.2352C39.2867 59.4303 39.3279 59.6229 39.3742 59.813C39.4032 60.2429 39.4268 60.6735 39.4451 61.1047C39.4809 61.8442 39.6031 62.5686 39.8064 63.2448C40.0762 64.0565 39.9786 64.8462 39.981 65.7423C39.9822 66.1815 40.0751 66.7982 39.8387 67.1511C39.31 67.1699 38.7821 67.0782 38.2703 66.8785C37.7705 66.7306 37.2562 66.7306 36.7564 66.8785C36.1764 67.0636 35.5855 67.1617 34.9925 67.1713C34.51 67.1297 34.2229 66.7804 33.8126 66.4915C33.4497 66.2457 33.0419 66.1911 32.6556 66.3365C32.381 66.4971 32.0997 66.6307 31.8135 66.7366C31.4247 66.7786 31.0632 66.4346 30.6889 66.3297C30.3903 66.2459 30.1041 66.3299 29.8083 66.2453C29.2004 66.0304 28.58 65.9033 27.9558 65.8655C27.4791 65.8321 27.0017 65.8986 26.5373 66.0632C26.083 66.3159 25.6404 66.6136 25.2125 66.9541C24.5365 67.3842 23.689 68.1722 22.9363 67.9663C22.3627 67.8095 21.7994 67.7258 21.224 67.5534C20.7385 67.3547 20.2415 67.2256 19.7397 67.1678C19.1296 67.1543 18.5312 66.597 17.9244 66.7487C17.6845 66.8088 17.4395 67.1669 17.2087 67.1824C17.0707 67.1442 16.9444 67.0411 16.8483 66.8881C16.5202 66.6086 16.1477 66.4674 15.7703 66.4797C15.3978 66.4957 15.0253 66.5092 14.6528 66.5201C14.5736 66.5364 14.4931 66.5289 14.4159 66.4981C14.3387 66.4673 14.2663 66.4138 14.2031 66.3407C13.0062 66.0393 11.7574 66.4033 10.6099 66.8763C9.70381 67.2498 9.0982 67.6016 8.20723 67.5771C7.55718 67.5592 6.90534 67.5801 6.25506 67.5801C5.49402 67.5801 4.75662 67.7701 4.00128 67.7996C3.35676 67.8247 2.74984 67.6253 2.11311 67.569C1.78207 67.5877 1.45057 67.5755 1.12055 67.5323C0.801585 67.425 0.475856 67.3691 0.148938 67.3656C0.109334 67.3662 0.499585 66.9335 0.459981 66.932C0.406163 66.4435 0.399207 65.946 0.43932 65.4545C0.43837 64.7314 0.400014 64.0094 0.324602 63.2952C0.260439 62.5948 0.424471 62.0629 0.440863 61.3614C0.469176 60.1504 0.435506 58.9249 0.435506 57.7126C0.435506 56.5807 0.693617 55.6344 0.832976 54.5756C0.980014 53.4585 0.73368 52.4992 0.714681 51.4075C0.688904 50.7896 0.688904 50.1699 0.714681 49.5521C0.748611 49.0633 0.864587 48.5966 0.875592 48.0994C0.890177 47.4219 0.799492 46.7486 0.610685 46.1325C0.547095 45.9304 0.455309 45.9139 0.421723 45.6856C0.369224 45.3288 0.550048 44.7018 0.614756 44.36C0.758675 43.5832 0.840877 42.7837 0.859657 41.9781C0.932874 40.5713 0.873339 39.1561 0.682812 37.7742C0.614432 37.4574 0.578256 37.127 0.575493 36.7941C0.562884 35.9218 0.596387 35.0473 0.585554 34.1751C0.596946 33.8351 0.586483 33.4943 0.554316 33.1573C0.517646 32.9392 0.434165 32.7452 0.316695 32.605C0.164355 31.8832 0.378363 31.1541 0.435505 30.4699C0.474192 30.4644 0.51285 30.2445 0.551508 30.239C0.578646 29.45 0.606129 24.361 0.98291 24.4277C1.11487 23.8948 0.918315 23.1441 0.878883 22.5919C0.755744 20.8666 0.306234 19.2012 0.128017 17.4783C-0.0462124 16.2544 -0.0425574 14.9887 0.138734 13.7671C0.273679 13.0214 0.567299 12.3344 0.589021 11.5522C0.609017 10.1702 0.581554 8.78761 0.506744 7.40985C0.49233 7.05775 0.478401 6.70563 0.466795 6.35331C0.461006 6.1772 0.455871 6.00105 0.451381 5.82485C0.440841 5.67163 0.437735 5.51746 0.442094 5.36356C0.45226 5.25055 0.458202 5.13678 0.459891 5.02278C0.461811 4.44953 0.468287 3.87625 0.46118 3.30303C0.451407 3.14209 0.436227 2.98199 0.4157 2.82334C0.408884 2.68526 0.407554 2.54669 0.411717 2.40838C0.412462 2.05525 0.396131 1.70758 0.387763 1.35548C0.385814 1.26775 0.383884 1.18001 0.381973 1.09224C0.375382 0.972804 0.368238 0.853426 0.360538 0.734107C0.372058 0.658762 0.378188 0.648764 0.437078 0.625726C0.571233 0.558573 0.714142 0.540201 0.85398 0.572138C1.00042 0.615297 1.13548 0.700976 1.28529 0.743114C1.34054 0.758632 1.39488 0.782863 1.44936 0.803327Z" fill="#DEC09C"/>
<g opacity="0.8">
<path d="M32.8578 33.4203C32.8525 33.4187 32.8476 33.4174 32.8434 33.4169C32.8102 33.4131 32.7555 33.387 32.7257 33.3871C32.6383 33.4016 32.6072 33.4733 32.6335 33.5999C32.6693 33.7084 32.6518 33.7666 32.5817 33.7713C32.5091 33.7569 32.3091 33.5882 32.2315 33.5634C32.1871 33.5492 32.2229 33.6142 32.1414 33.56C32.0417 33.4936 31.9135 33.3648 31.8482 33.3516C31.7765 33.3371 31.9401 33.5521 31.7915 33.4568C31.7266 33.4152 31.6388 33.3399 31.5826 33.3087C31.5286 33.277 31.4852 33.2573 31.4533 33.2499C31.4522 33.2737 31.6079 33.4673 31.6529 33.532C31.7124 33.6177 31.7792 33.7045 31.8448 33.7941C31.9372 33.9203 32.0285 34.0434 32.1305 34.1771C32.2254 34.3016 32.2609 34.3521 32.1282 34.2617C32.0795 34.2286 31.9984 34.1531 31.9603 34.1326C31.9001 34.1004 31.9365 34.1836 31.9388 34.2138C31.947 34.3237 31.9448 34.4229 31.9609 34.5395C31.9714 34.6163 31.8891 34.6009 31.875 34.653C31.8689 34.6753 31.9154 34.7469 31.9088 34.7679C31.8993 34.7984 31.74 34.6985 31.6403 34.6335C31.5292 34.5611 31.3593 34.4243 31.2624 34.368C31.0682 34.2552 31.1281 34.4238 31.0142 34.3919C30.9425 34.3836 30.8979 34.4034 30.8815 34.451C30.8603 34.454 30.8341 34.4519 30.8031 34.4446C30.7715 34.4538 30.8806 34.5768 31.0104 34.7409C31.1072 34.858 31.1849 34.9616 31.239 35.0456C31.2938 35.1437 31.2113 35.0863 31.1661 35.0816C31.0886 35.0736 31.1615 35.2187 31.1274 35.2561C31.1027 35.2832 31.1658 35.3752 31.135 35.3989C31.0956 35.4082 31.0896 35.4513 31.1172 35.5258C31.1424 35.5803 31.208 35.6668 31.1712 35.6633C31.1102 35.6576 30.8162 35.3878 30.6999 35.3134C30.5811 35.2374 30.5933 35.3362 30.5306 35.3266C30.4384 35.3126 30.4265 35.3659 30.288 35.3024C30.2051 35.2739 30.1583 35.2837 30.1498 35.3315C30.1199 35.334 30.1018 35.3485 30.0957 35.3749C30.1167 35.4302 30.1515 35.4476 30.2327 35.5541C30.3573 35.7174 30.3851 35.8214 30.4473 35.9313C30.6277 36.2504 30.4434 36.2408 30.3666 36.3176C29.9755 35.9693 29.4713 35.4303 29.076 35.0523C28.8669 34.8531 28.6573 34.6487 28.4497 34.4412C28.0715 34.0625 27.7381 33.7091 27.362 33.3334C26.8061 32.7781 26.2671 32.2223 25.7151 31.6662C25.4713 31.4206 25.2306 31.1781 24.99 30.9308C24.8441 30.7764 24.6919 30.6212 24.5376 30.4693C24.4055 30.3444 24.2686 30.2288 24.1289 30.0961C23.621 29.6139 23.141 29.0839 22.6425 28.5915C22.4894 28.4402 22.4071 28.378 22.2483 28.2201C21.8692 27.8432 21.4907 27.462 21.1125 27.0838C20.8013 26.7726 20.4735 26.4527 20.1668 26.1391C20.0454 26.0111 19.9323 25.8855 19.8329 25.7682C19.5012 25.3991 19.1137 25.0242 18.7339 24.6444C18.5971 24.5355 18.4355 24.3901 18.2741 24.2307C17.9897 23.9572 17.6925 23.6646 17.422 23.409C16.9417 22.9525 16.4642 22.4623 16.0451 21.9957C15.7477 21.6646 15.3758 21.3061 15.0403 20.971C14.5649 20.4964 14.1235 20.0395 13.6615 19.5676C12.8545 18.7432 11.9678 17.8304 11.1379 17.044C10.9557 16.8713 10.7688 16.6872 10.5844 16.5112C10.3895 16.3244 10.1951 16.13 10.0082 15.9351C9.90729 15.8281 9.80654 15.7213 9.706 15.6144C9.6351 15.5486 9.56469 15.484 9.49477 15.4207C9.34206 15.272 9.18949 15.1228 9.03707 14.973C8.77535 14.7163 8.51283 14.4711 8.26147 14.2485C7.95791 13.9831 7.68806 13.6994 7.37383 13.3855C7.21981 13.2317 6.99711 13.0221 6.89013 12.8817C6.92091 12.8377 6.9904 12.8325 7.09657 12.8663C7.18376 12.8828 7.22013 12.8465 7.20362 12.7593C7.17976 12.6534 7.18716 12.5772 7.22572 12.5319C7.27441 12.5124 7.41715 12.6145 7.54741 12.6868C7.65921 12.7472 7.70719 12.7376 7.68353 12.6593C7.64669 12.5836 7.61974 12.5169 7.60287 12.4595C7.61564 12.4173 7.76175 12.5123 7.825 12.5226C7.87549 12.5308 7.86627 12.4812 7.91685 12.4899C8.03514 12.5222 8.12357 12.5229 8.18094 12.492C8.22637 12.47 8.23681 12.4129 8.21196 12.3224C8.1555 12.2017 8.08249 12.0661 7.99339 11.9165C7.89046 11.718 7.67421 11.3819 7.79959 11.4008C7.89512 11.4152 7.96429 11.4047 8.06541 11.4245C8.16935 11.4597 8.24974 11.4698 8.30548 11.4546C8.35336 11.4162 8.591 11.5692 8.58072 11.4731C8.57665 11.4351 8.46845 11.2923 8.47934 11.2706C8.50249 11.2742 8.54756 11.3014 8.60798 11.3482C8.72914 11.423 8.80494 11.4461 8.82735 11.4151C8.84806 11.3832 8.86967 11.3521 8.89219 11.3219C8.89209 11.3106 8.90041 11.3076 8.91666 11.3129C8.93292 11.3182 8.95677 11.3319 8.98685 11.353C9.17713 11.374 9.13786 11.1581 9.05323 10.9112C8.9864 10.7163 8.90593 10.5501 8.97752 10.4957C9.02975 10.456 9.06852 10.4026 9.1145 10.3566C9.16831 10.3028 9.15386 10.1841 9.19694 10.1203C9.23372 10.066 9.34649 10.0929 9.41126 10.0676C9.42812 10.0377 9.45585 10.0185 9.4943 10.0103C9.55448 10.0254 9.5971 10.0219 9.62145 10C9.62402 9.99701 9.74808 10.1763 9.75141 10.174C9.92643 10.3414 10.1013 10.5153 10.2707 10.6904C10.5242 10.9437 10.7799 11.194 11.0356 11.439C11.2856 11.6799 11.4604 11.878 11.7051 12.125C12.1275 12.5514 12.5594 12.9785 12.9843 13.4034C13.381 13.8001 13.6944 14.15 14.0556 14.531C14.4367 14.9329 14.7904 15.2516 15.1743 15.6329C15.3927 15.8477 15.6099 16.0648 15.8246 16.2832C15.9935 16.4569 16.1489 16.6287 16.3224 16.8037C16.5588 17.0422 16.8012 17.2718 17.0304 17.4743C17.1058 17.5407 17.118 17.5399 17.2004 17.6176C17.3292 17.7389 17.5362 17.9715 17.6514 18.0958C17.9134 18.3783 18.1878 18.6643 18.4688 18.9479C18.9567 19.4462 19.4569 19.9379 19.9547 20.4088C20.0706 20.515 20.1889 20.6282 20.3058 20.7447C20.6124 21.0495 20.9165 21.3584 21.223 21.6633C21.3413 21.7833 21.4615 21.902 21.5819 22.0178C21.6609 22.0916 21.7348 22.1537 21.7922 22.1946C22.056 22.4368 22.2964 22.7074 22.5321 22.9513C22.5313 22.9559 22.6057 23.0357 22.6049 23.0404C22.8795 23.3188 24.6611 25.1043 24.6111 25.1076C24.7885 25.3037 25.0655 25.5529 25.2618 25.7436C25.8752 26.3396 26.4907 26.8915 27.1071 27.4827C27.5484 27.8994 27.9917 28.3432 28.407 28.7842C28.6588 29.0551 28.8788 29.3166 29.1514 29.5923C29.6344 30.078 30.1209 30.5607 30.609 31.0382C30.7335 31.1606 30.8579 31.283 30.9822 31.4057C31.0443 31.467 31.1064 31.5284 31.1685 31.5898C31.2229 31.6428 31.2772 31.6966 31.3308 31.7508C31.3697 31.7912 31.4091 31.8315 31.449 31.8715C31.6497 32.0726 31.8502 32.2739 32.0516 32.4743C32.1087 32.5301 32.1659 32.5851 32.2229 32.6392C32.2718 32.6872 32.3205 32.7356 32.3686 32.7844C32.4924 32.9082 32.6154 33.0289 32.7394 33.1517C32.7702 33.1823 32.8011 33.2129 32.832 33.2436C32.8743 33.285 32.9167 33.3263 32.9591 33.3676C32.9846 33.3948 32.9877 33.3987 32.9916 33.411C33.0057 33.444 33.002 33.4605 32.9809 33.4592C32.9554 33.4545 32.9159 33.434 32.8905 33.4298C32.8812 33.4283 32.8688 33.4236 32.8578 33.4203Z" fill="#623223"/>
<path d="M32.8578 35.1556C32.8525 35.1572 32.8476 35.1585 32.8434 35.159C32.8102 35.1628 32.7555 35.1889 32.7257 35.1888C32.6383 35.1743 32.6072 35.1026 32.6335 34.976C32.6693 34.8675 32.6518 34.8093 32.5817 34.8046C32.5091 34.819 32.3091 34.9877 32.2315 35.0125C32.1871 35.0267 32.2229 34.9618 32.1414 35.016C32.0417 35.0823 31.9135 35.2111 31.8482 35.2243C31.7765 35.2388 31.9401 35.0238 31.7915 35.1191C31.7266 35.1608 31.6388 35.236 31.5826 35.2672C31.5286 35.2989 31.4852 35.3186 31.4533 35.326C31.4522 35.3023 31.6079 35.1086 31.6529 35.0439C31.7124 34.9582 31.7792 34.8714 31.8448 34.7818C31.9372 34.6556 32.0285 34.5326 32.1305 34.3988C32.2254 34.2743 32.2609 34.2238 32.1282 34.3142C32.0795 34.3473 31.9984 34.4228 31.9603 34.4433C31.9001 34.4755 31.9365 34.3923 31.9388 34.3621C31.947 34.2522 31.9448 34.1531 31.9609 34.0364C31.9714 33.9596 31.8891 33.975 31.875 33.923C31.8689 33.9007 31.9154 33.829 31.9088 33.808C31.8993 33.7776 31.74 33.8774 31.6403 33.9424C31.5292 34.0149 31.3593 34.1516 31.2624 34.2079C31.0682 34.3207 31.1281 34.1521 31.0142 34.184C30.9425 34.1924 30.8979 34.1726 30.8815 34.1249C30.8603 34.1219 30.8341 34.1241 30.8031 34.1313C30.7715 34.1222 30.8806 33.9991 31.0104 33.835C31.1072 33.718 31.1849 33.6143 31.239 33.5304C31.2938 33.4322 31.2113 33.4896 31.1661 33.4943C31.0886 33.5023 31.1615 33.3573 31.1274 33.3198C31.1027 33.2927 31.1658 33.2008 31.135 33.1771C31.0956 33.1677 31.0896 33.1247 31.1172 33.0501C31.1424 32.9957 31.208 32.9091 31.1712 32.9126C31.1102 32.9183 30.8162 33.1882 30.6999 33.2625C30.5811 33.3385 30.5933 33.2397 30.5306 33.2493C30.4384 33.2634 30.4265 33.21 30.288 33.2735C30.2051 33.302 30.1583 33.2922 30.1498 33.2445C30.1199 33.242 30.1018 33.2274 30.0957 33.201C30.1167 33.1457 30.1515 33.1283 30.2327 33.0218C30.3573 32.8585 30.3851 32.7546 30.4473 32.6446C30.6277 32.3256 30.4434 32.3351 30.3666 32.2583C29.9755 32.6066 29.4713 33.1456 29.076 33.5236C28.8669 33.7228 28.6573 33.9273 28.4497 34.1347C28.0715 34.5134 27.7381 34.8668 27.362 35.2425C26.8061 35.7979 26.2671 36.3536 25.7151 36.9098C25.4713 37.1554 25.2306 37.3978 24.99 37.6451C24.8441 37.7995 24.6919 37.9547 24.5376 38.1066C24.4055 38.2316 24.2686 38.3472 24.1289 38.4798C23.621 38.962 23.141 39.492 22.6425 39.9844C22.4894 40.1358 22.4071 40.1979 22.2483 40.3559C21.8692 40.7328 21.4907 41.1139 21.1125 41.4922C20.8013 41.8033 20.4735 42.1232 20.1668 42.4369C20.0454 42.5648 19.9323 42.6904 19.8329 42.8077C19.5012 43.1768 19.1137 43.5517 18.7339 43.9315C18.5971 44.0404 18.4355 44.1858 18.2741 44.3452C17.9897 44.6187 17.6925 44.9113 17.422 45.1669C16.9417 45.6234 16.4642 46.1136 16.0451 46.5802C15.7477 46.9113 15.3758 47.2698 15.0403 47.6049C14.5649 48.0796 14.1235 48.5364 13.6615 49.0083C12.8545 49.8327 11.9678 50.7455 11.1379 51.532C10.9557 51.7046 10.7688 51.8887 10.5844 52.0647C10.3895 52.2515 10.1951 52.4459 10.0082 52.6409C9.90729 52.7478 9.80654 52.8547 9.706 52.9615C9.6351 53.0273 9.56469 53.0919 9.49477 53.1553C9.34206 53.3039 9.18949 53.4531 9.03707 53.6029C8.77535 53.8596 8.51283 54.1048 8.26147 54.3274C7.95791 54.5929 7.68806 54.8765 7.37383 55.1904C7.21981 55.3442 6.99711 55.5538 6.89013 55.6942C6.92091 55.7382 6.9904 55.7434 7.09657 55.7096C7.18376 55.6931 7.22013 55.7294 7.20362 55.8166C7.17976 55.9225 7.18716 55.9987 7.22572 56.044C7.27441 56.0635 7.41715 55.9614 7.54741 55.8891C7.65921 55.8287 7.70719 55.8384 7.68353 55.9167C7.64669 55.9923 7.61974 56.0591 7.60287 56.1164C7.61564 56.1586 7.76175 56.0636 7.825 56.0533C7.87549 56.0451 7.86627 56.0948 7.91685 56.086C8.03514 56.0537 8.12357 56.053 8.18094 56.0839C8.22637 56.1059 8.23681 56.163 8.21196 56.2535C8.1555 56.3742 8.08249 56.5098 7.99339 56.6594C7.89046 56.8579 7.67421 57.194 7.79959 57.1751C7.89512 57.1607 7.96429 57.1712 8.06541 57.1515C8.16935 57.1162 8.24974 57.1061 8.30548 57.1213C8.35336 57.1597 8.591 57.0067 8.58072 57.1028C8.57665 57.1408 8.46845 57.2836 8.47934 57.3054C8.50249 57.3017 8.54756 57.2745 8.60798 57.2277C8.72914 57.1529 8.80494 57.1298 8.82735 57.1608C8.84806 57.1927 8.86967 57.2238 8.89219 57.254C8.89209 57.2653 8.90041 57.2683 8.91666 57.263C8.93292 57.2577 8.95677 57.2441 8.98685 57.2229C9.17713 57.2019 9.13786 57.4178 9.05323 57.6647C8.9864 57.8597 8.90593 58.0258 8.97752 58.0802C9.02975 58.1199 9.06852 58.1733 9.1145 58.2193C9.16831 58.2731 9.15386 58.3918 9.19694 58.4556C9.23372 58.51 9.34649 58.483 9.41126 58.5083C9.42812 58.5382 9.45585 58.5574 9.4943 58.5656C9.55448 58.5505 9.5971 58.554 9.62145 58.5759C9.62402 58.5789 9.74808 58.3997 9.75141 58.4019C9.92643 58.2345 10.1013 58.0606 10.2707 57.8856C10.5242 57.6322 10.7799 57.3819 11.0356 57.1369C11.2856 56.896 11.4604 56.698 11.7051 56.4509C12.1275 56.0245 12.5594 55.5974 12.9843 55.1725C13.381 54.7758 13.6944 54.4259 14.0556 54.0449C14.4367 53.6431 14.7904 53.3243 15.1743 52.943C15.3927 52.7283 15.6099 52.5111 15.8246 52.2927C15.9935 52.119 16.1489 51.9472 16.3224 51.7722C16.5588 51.5337 16.8012 51.3042 17.0304 51.1016C17.1058 51.0353 17.118 51.036 17.2004 50.9583C17.3292 50.837 17.5362 50.6044 17.6514 50.4801C17.9134 50.1977 18.1878 49.9116 18.4688 49.628C18.9567 49.1298 19.4569 48.638 19.9547 48.1671C20.0706 48.0609 20.1889 47.9477 20.3058 47.8312C20.6124 47.5264 20.9165 47.2175 21.223 46.9126C21.3413 46.7927 21.4615 46.674 21.5819 46.5581C21.6609 46.4843 21.7348 46.4222 21.7922 46.3814C22.056 46.1391 22.2964 45.8685 22.5321 45.6247C22.5313 45.62 22.6057 45.5402 22.6049 45.5355C22.8795 45.2571 24.6611 43.4716 24.6111 43.4683C24.7885 43.2722 25.0655 43.023 25.2618 42.8323C25.8752 42.2363 26.4907 41.6844 27.1071 41.0932C27.5484 40.6766 27.9917 40.2327 28.407 39.7917C28.6588 39.5209 28.8788 39.2593 29.1514 38.9837C29.6344 38.4979 30.1209 38.0153 30.609 37.5377C30.7335 37.4153 30.8579 37.2929 30.9822 37.1702C31.0443 37.1089 31.1064 37.0475 31.1685 36.9861C31.2229 36.9331 31.2772 36.8793 31.3308 36.8251C31.3697 36.7848 31.4091 36.7445 31.449 36.7044C31.6497 36.5033 31.8502 36.302 32.0516 36.1016C32.1087 36.0459 32.1659 35.9908 32.2229 35.9367C32.2718 35.8888 32.3205 35.8403 32.3686 35.7915C32.4924 35.6677 32.6154 35.547 32.7394 35.4242C32.7702 35.3936 32.8011 35.363 32.832 35.3323C32.8743 35.291 32.9167 35.2496 32.9591 35.2083C32.9846 35.1811 32.9877 35.1772 32.9916 35.165C33.0057 35.1319 33.002 35.1154 32.9809 35.1167C32.9554 35.1215 32.9159 35.1419 32.8905 35.1461C32.8812 35.1476 32.8688 35.1523 32.8578 35.1556Z" fill="#623223"/>
</g>
</svg>
