<svg width="74" height="33" viewBox="0 0 74 33" fill="none" xmlns="http://www.w3.org/2000/svg">
<g opacity="0.85" filter="url(#filter0_d_370_2191)">
<path d="M0.826955 0.144936C0.837024 0.147535 0.846224 0.150137 0.853061 0.152756C0.907427 0.173463 1.02615 0.193756 1.06982 0.214876C1.17676 0.286926 1.11703 0.359609 0.892632 0.430513C0.680577 0.481934 0.620972 0.5355 0.71699 0.588364C0.844756 0.629501 1.3862 0.651719 1.53662 0.688993C1.6227 0.710322 1.47468 0.730961 1.67394 0.750247C1.91772 0.773837 2.29527 0.773456 2.41051 0.810248C2.53716 0.850712 1.98118 0.887069 2.33934 0.924724C2.49577 0.941173 2.73515 0.950034 2.86371 0.967735C2.98942 0.98349 3.08225 1.00026 3.13977 1.0176C3.1066 1.03516 2.5936 1.062 2.43245 1.07594C2.21914 1.0944 1.9936 1.10861 1.76572 1.12559C1.44468 1.14951 1.12983 1.17189 0.783543 1.19438C0.461412 1.2153 0.335149 1.22586 0.662756 1.25583C0.782793 1.26682 1.01289 1.27075 1.09892 1.28328C1.23459 1.30302 1.05896 1.33611 1.0113 1.35586C0.837739 1.4278 0.695436 1.49944 0.500497 1.57057C0.372202 1.61739 0.515653 1.66471 0.460051 1.71153C0.436202 1.73159 0.262718 1.7494 0.241563 1.76886C0.210781 1.79713 0.591399 1.83914 0.833276 1.86367C1.10276 1.89101 1.55314 1.91448 1.77808 1.94319C2.22894 2.00075 1.89347 2.0776 2.10754 2.13562C2.22516 2.18039 2.26149 2.2259 2.21578 2.27122C2.24244 2.28832 2.28398 2.30532 2.34019 2.32212C2.37314 2.35092 2.03233 2.36082 1.60067 2.38508C1.28658 2.39941 1.02023 2.41769 0.81752 2.43885C0.592806 2.46952 0.798339 2.48726 0.871606 2.51591C0.997164 2.565 0.67711 2.61605 0.672217 2.66663C0.668631 2.70329 0.440922 2.72366 0.451398 2.76221C0.495429 2.79667 0.441096 2.83137 0.291121 2.86455C0.174131 2.88526 -0.0492957 2.90004 0.00976013 2.92357C0.107839 2.96267 0.935882 2.97979 1.21583 3.00942C1.50196 3.03972 1.33895 3.10092 1.44508 3.1385C1.60111 3.19374 1.54021 3.23984 1.83685 3.29287C2.00047 3.33134 2.05478 3.37142 1.99713 3.41115C2.03741 3.43408 2.04267 3.45721 2.01285 3.48021C1.9008 3.50446 1.82414 3.49211 1.54843 3.50996C1.1256 3.53734 0.932108 3.59118 0.679279 3.62497C-0.0541576 3.72299 0.230579 3.84658 0.230579 3.95522C1.31647 3.98546 2.84847 3.96081 3.98414 3.97302C4.58373 3.98011 5.19187 3.98374 5.80135 3.98385C6.91295 3.98351 7.92156 3.96933 9.02561 3.9696C10.6577 3.96999 12.2654 3.95816 13.8929 3.95522C14.6115 3.95392 15.3211 3.95275 16.0376 3.94794C16.4787 3.94198 16.9301 3.93984 17.3799 3.9416C17.7573 3.94658 18.1281 3.96163 18.5282 3.96664C19.9822 3.98484 21.4655 3.94949 22.9208 3.95374C23.3679 3.95504 23.58 3.96924 24.0452 3.96988C25.1554 3.9714 26.2712 3.96955 27.382 3.96955C28.296 3.96955 29.2471 3.9751 30.1583 3.97024C30.5245 3.96558 30.8749 3.95672 31.1932 3.94408C32.2224 3.91763 33.3421 3.92656 34.4575 3.92656C34.8183 3.94628 35.2692 3.95773 35.7404 3.95915C36.5597 3.96685 37.426 3.97009 38.1985 3.98064C39.5744 3.99745 40.9956 3.98852 42.2962 3.95489C43.2193 3.93106 44.2921 3.94056 45.2768 3.94089C46.672 3.94136 47.9912 3.93045 49.3628 3.92342C51.7586 3.91115 54.4014 3.89268 56.7752 3.92342C57.2962 3.93017 57.8412 3.93214 58.3704 3.93803C58.931 3.94381 59.5021 3.94383 60.0627 3.93808C60.368 3.93386 60.6729 3.92953 60.9774 3.92508C61.1782 3.92867 61.3765 3.93279 61.5722 3.93742C62.0148 3.94032 62.458 3.94268 62.9019 3.94451C63.6632 3.94809 64.4089 3.96031 65.1049 3.98064C65.9405 4.00762 66.7534 3.99786 67.6758 3.9981C68.128 3.99822 68.7628 4.00751 69.1261 3.98387C69.1455 3.931 69.0511 3.87821 68.8455 3.82703C68.6932 3.77705 68.6932 3.72562 68.8455 3.67564C69.0361 3.61764 69.137 3.55855 69.1469 3.49925C69.1041 3.451 68.7445 3.42229 68.4471 3.38126C68.1941 3.34497 68.1379 3.30419 68.2876 3.26556C68.4529 3.2381 68.5904 3.20997 68.6994 3.18135C68.7427 3.14247 68.3886 3.10632 68.2805 3.06889C68.1943 3.03903 68.2808 3.01041 68.1937 2.98083C67.9725 2.92004 67.8416 2.858 67.8027 2.79558C67.7683 2.74791 67.8368 2.70017 68.0062 2.65373C68.2664 2.6083 68.5728 2.56404 68.9233 2.52125C69.3661 2.45365 70.1773 2.3689 69.9653 2.29363C69.8039 2.23627 69.7177 2.17994 69.5402 2.1224C69.3358 2.07385 69.2029 2.02415 69.1434 1.97397C69.1294 1.91296 68.5557 1.85312 68.7119 1.79244C68.7737 1.76845 69.1424 1.74395 69.1583 1.72087C69.119 1.70707 69.0129 1.69444 68.8554 1.68483C68.5676 1.65202 68.4224 1.61477 68.4349 1.57703C68.4515 1.53978 68.4653 1.50253 68.4766 1.46528C68.4933 1.45736 68.4856 1.44931 68.4539 1.44159C68.4222 1.43387 68.3671 1.42663 68.2919 1.42031C67.9816 1.30062 68.3563 1.17574 68.8432 1.06099C69.2277 0.97038 69.5899 0.90982 69.5646 0.820723C69.5462 0.755717 69.5677 0.690534 69.5677 0.625506C69.5677 0.549402 69.7633 0.475662 69.7937 0.400128C69.8195 0.335676 69.6143 0.274983 69.5563 0.211311C69.5756 0.178207 69.563 0.145057 69.5186 0.112055C69.4081 0.0801582 69.3505 0.0475853 69.3469 0.0148935C69.3476 0.0109331 68.9021 0.0499582 68.9006 0.0459978C68.3977 0.040616 67.8856 0.0399204 67.3796 0.0439317C66.6352 0.0438367 65.8921 0.0400011 65.1568 0.0324599C64.4359 0.0260436 63.8883 0.0424469 63.1661 0.044086C61.9195 0.0469173 60.658 0.0435504 59.4101 0.0435504C58.2449 0.0435504 57.2707 0.0693615 56.1807 0.0832973C55.0308 0.0980012 54.0433 0.0733678 52.9194 0.0714679C52.2834 0.0688902 51.6455 0.0688902 51.0095 0.0714679C50.5064 0.0748608 50.0259 0.0864585 49.5141 0.087559C48.8166 0.0890175 48.1235 0.079949 47.4893 0.0610683C47.2813 0.0547093 47.2643 0.0455307 47.0293 0.0421721C46.662 0.0369222 46.0165 0.0550047 45.6647 0.0614754C44.865 0.0758673 44.042 0.0840875 43.2127 0.0859655C41.7646 0.0932873 40.3078 0.0873337 38.8852 0.068281C38.5591 0.0614431 38.219 0.0578254 37.8763 0.0575491C36.9783 0.0562882 36.0781 0.0596385 35.1803 0.0585553C34.8303 0.0596944 34.4794 0.0586482 34.1325 0.0554314C33.908 0.0517645 33.7083 0.0434164 33.564 0.0316693C32.8209 0.0164353 32.0703 0.0378362 31.3661 0.0435504C31.3605 0.0474191 31.134 0.0512849 31.1284 0.0551507C30.3162 0.0578645 25.0775 0.0606128 25.1461 0.0982909C24.5976 0.111487 23.8248 0.0918314 23.2564 0.0878882C21.4803 0.0755743 19.7659 0.0306233 17.9924 0.0128016C16.7325 -0.00462131 15.4295 -0.00425581 14.172 0.0138733C13.4044 0.0273679 12.6971 0.0567299 11.892 0.0589021C10.4694 0.0609017 9.04607 0.0581553 7.62779 0.0506744C7.26533 0.0492329 6.90286 0.0478401 6.54017 0.0466795C6.35888 0.0461006 6.17755 0.0455871 5.99617 0.0451381C5.83844 0.0440841 5.67974 0.0437735 5.52131 0.0442094C5.40498 0.045226 5.28786 0.0458202 5.17051 0.045989C4.5804 0.046181 3.99026 0.0468287 3.40017 0.046118C3.2345 0.0451407 3.0697 0.0436227 2.90638 0.04157C2.76424 0.0408884 2.6216 0.0407553 2.47922 0.0411716C2.1157 0.0412462 1.7578 0.0396131 1.39535 0.0387763C1.30504 0.0385814 1.21471 0.0383884 1.12437 0.0381973C1.00142 0.0375382 0.878526 0.0368238 0.755698 0.0360538C0.678138 0.0372058 0.667845 0.0378188 0.644129 0.0437078C0.575002 0.0571233 0.55609 0.0714142 0.588965 0.085398C0.633394 0.100042 0.721593 0.113548 0.764971 0.128529C0.780945 0.134054 0.805889 0.139488 0.826955 0.144936Z" fill="white"/>
</g>
<g opacity="0.85" filter="url(#filter1_d_370_2191)">
<path d="M0.826955 12.1449C0.837024 12.1475 0.846224 12.1501 0.853061 12.1528C0.907427 12.1735 1.02615 12.1938 1.06982 12.2149C1.17676 12.2869 1.11703 12.3596 0.892632 12.4305C0.680577 12.4819 0.620972 12.5355 0.71699 12.5884C0.844756 12.6295 1.3862 12.6517 1.53662 12.689C1.6227 12.7103 1.47468 12.731 1.67394 12.7502C1.91772 12.7738 2.29527 12.7735 2.41051 12.8102C2.53716 12.8507 1.98118 12.8871 2.33934 12.9247C2.49577 12.9412 2.73515 12.95 2.86371 12.9677C2.98942 12.9835 3.08225 13.0003 3.13977 13.0176C3.1066 13.0352 2.5936 13.062 2.43245 13.0759C2.21914 13.0944 1.9936 13.1086 1.76572 13.1256C1.44468 13.1495 1.12983 13.1719 0.783543 13.1944C0.461412 13.2153 0.335149 13.2259 0.662756 13.2558C0.782793 13.2668 1.01289 13.2708 1.09892 13.2833C1.23459 13.303 1.05896 13.3361 1.0113 13.3559C0.837739 13.4278 0.695436 13.4994 0.500497 13.5706C0.372202 13.6174 0.515653 13.6647 0.460051 13.7115C0.436202 13.7316 0.262718 13.7494 0.241563 13.7689C0.210781 13.7971 0.591399 13.8391 0.833276 13.8637C1.10276 13.891 1.55314 13.9145 1.77808 13.9432C2.22894 14.0008 1.89347 14.0776 2.10754 14.1356C2.22516 14.1804 2.26149 14.2259 2.21578 14.2712C2.24244 14.2883 2.28398 14.3053 2.34019 14.3221C2.37314 14.3509 2.03233 14.3608 1.60067 14.3851C1.28658 14.3994 1.02023 14.4177 0.81752 14.4388C0.592806 14.4695 0.798339 14.4873 0.871606 14.5159C0.997164 14.565 0.67711 14.616 0.672217 14.6666C0.668631 14.7033 0.440922 14.7237 0.451398 14.7622C0.495429 14.7967 0.441096 14.8314 0.291121 14.8645C0.174131 14.8853 -0.0492957 14.9 0.00976013 14.9236C0.107839 14.9627 0.935882 14.9798 1.21583 15.0094C1.50196 15.0397 1.33895 15.1009 1.44508 15.1385C1.60111 15.1937 1.54021 15.2398 1.83685 15.2929C2.00047 15.3313 2.05478 15.3714 1.99713 15.4111C2.03741 15.4341 2.04267 15.4572 2.01285 15.4802C1.9008 15.5045 1.82414 15.4921 1.54843 15.51C1.1256 15.5373 0.932108 15.5912 0.679279 15.625C-0.0541576 15.723 0.230579 15.8466 0.230579 15.9552C1.31647 15.9855 2.84847 15.9608 3.98414 15.973C4.58373 15.9801 5.19187 15.9837 5.80135 15.9838C6.91295 15.9835 7.92156 15.9693 9.02561 15.9696C10.6577 15.97 12.2654 15.9582 13.8929 15.9552C14.6115 15.9539 15.3211 15.9527 16.0376 15.9479C16.4787 15.942 16.9301 15.9398 17.3799 15.9416C17.7573 15.9466 18.1281 15.9616 18.5282 15.9666C19.9822 15.9848 21.4655 15.9495 22.9208 15.9537C23.3679 15.955 23.58 15.9692 24.0452 15.9699C25.1554 15.9714 26.2712 15.9695 27.382 15.9695C28.296 15.9695 29.2471 15.9751 30.1583 15.9702C30.5245 15.9656 30.8749 15.9567 31.1932 15.9441C32.2224 15.9176 33.3421 15.9266 34.4575 15.9266C34.8183 15.9463 35.2692 15.9577 35.7404 15.9591C36.5597 15.9669 37.426 15.9701 38.1985 15.9806C39.5744 15.9974 40.9956 15.9885 42.2962 15.9549C43.2193 15.9311 44.2921 15.9406 45.2768 15.9409C46.672 15.9414 47.9912 15.9305 49.3628 15.9234C51.7586 15.9111 54.4014 15.8927 56.7752 15.9234C57.2962 15.9302 57.8412 15.9321 58.3704 15.938C58.931 15.9438 59.5021 15.9438 60.0627 15.9381C60.368 15.9339 60.6729 15.9295 60.9774 15.9251C61.1782 15.9287 61.3765 15.9328 61.5722 15.9374C62.0148 15.9403 62.458 15.9427 62.9019 15.9445C63.6632 15.9481 64.4089 15.9603 65.1049 15.9806C65.9405 16.0076 66.7534 15.9979 67.6758 15.9981C68.128 15.9982 68.7628 16.0075 69.1261 15.9839C69.1455 15.931 69.0511 15.8782 68.8455 15.827C68.6932 15.777 68.6932 15.7256 68.8455 15.6756C69.0361 15.6176 69.137 15.5586 69.1469 15.4993C69.1041 15.451 68.7445 15.4223 68.4471 15.3813C68.1941 15.345 68.1379 15.3042 68.2876 15.2656C68.4529 15.2381 68.5904 15.21 68.6994 15.1814C68.7427 15.1425 68.3886 15.1063 68.2805 15.0689C68.1943 15.039 68.2808 15.0104 68.1937 14.9808C67.9725 14.92 67.8416 14.858 67.8027 14.7956C67.7683 14.7479 67.8368 14.7002 68.0062 14.6537C68.2664 14.6083 68.5728 14.564 68.9233 14.5213C69.3661 14.4537 70.1773 14.3689 69.9653 14.2936C69.8039 14.2363 69.7177 14.1799 69.5402 14.1224C69.3358 14.0738 69.2029 14.0241 69.1434 13.974C69.1294 13.913 68.5557 13.8531 68.7119 13.7924C68.7737 13.7684 69.1424 13.7439 69.1583 13.7209C69.119 13.7071 69.0129 13.6944 68.8554 13.6848C68.5676 13.652 68.4224 13.6148 68.4349 13.577C68.4515 13.5398 68.4653 13.5025 68.4766 13.4653C68.4933 13.4574 68.4856 13.4493 68.4539 13.4416C68.4222 13.4339 68.3671 13.4266 68.2919 13.4203C67.9816 13.3006 68.3563 13.1757 68.8432 13.061C69.2277 12.9704 69.5899 12.9098 69.5646 12.8207C69.5462 12.7557 69.5677 12.6905 69.5677 12.6255C69.5677 12.5494 69.7633 12.4757 69.7937 12.4001C69.8195 12.3357 69.6143 12.275 69.5563 12.2113C69.5756 12.1782 69.563 12.1451 69.5186 12.1121C69.4081 12.0802 69.3505 12.0476 69.3469 12.0149C69.3476 12.0109 68.9021 12.05 68.9006 12.046C68.3977 12.0406 67.8856 12.0399 67.3796 12.0439C66.6352 12.0438 65.8921 12.04 65.1568 12.0325C64.4359 12.026 63.8883 12.0424 63.1661 12.0441C61.9195 12.0469 60.658 12.0436 59.4101 12.0436C58.2449 12.0436 57.2707 12.0694 56.1807 12.0833C55.0308 12.098 54.0433 12.0734 52.9194 12.0715C52.2834 12.0689 51.6455 12.0689 51.0095 12.0715C50.5064 12.0749 50.0259 12.0865 49.5141 12.0876C48.8166 12.089 48.1235 12.0799 47.4893 12.0611C47.2813 12.0547 47.2643 12.0455 47.0293 12.0422C46.662 12.0369 46.0165 12.055 45.6647 12.0615C44.865 12.0759 44.042 12.0841 43.2127 12.086C41.7646 12.0933 40.3078 12.0873 38.8852 12.0683C38.5591 12.0614 38.219 12.0578 37.8763 12.0575C36.9783 12.0563 36.0781 12.0596 35.1803 12.0586C34.8303 12.0597 34.4794 12.0586 34.1325 12.0554C33.908 12.0518 33.7083 12.0434 33.564 12.0317C32.8209 12.0164 32.0703 12.0378 31.3661 12.0436C31.3605 12.0474 31.134 12.0513 31.1284 12.0552C30.3162 12.0579 25.0775 12.0606 25.1461 12.0983C24.5976 12.1115 23.8248 12.0918 23.2564 12.0879C21.4803 12.0756 19.7659 12.0306 17.9924 12.0128C16.7325 11.9954 15.4295 11.9957 14.172 12.0139C13.4044 12.0274 12.6971 12.0567 11.892 12.0589C10.4694 12.0609 9.04607 12.0582 7.62779 12.0507C7.26533 12.0492 6.90286 12.0478 6.54017 12.0467C6.35888 12.0461 6.17755 12.0456 5.99617 12.0451C5.83844 12.0441 5.67974 12.0438 5.52131 12.0442C5.40498 12.0452 5.28786 12.0458 5.17051 12.046C4.5804 12.0462 3.99026 12.0468 3.40017 12.0461C3.2345 12.0451 3.0697 12.0436 2.90638 12.0416C2.76424 12.0409 2.6216 12.0408 2.47922 12.0412C2.1157 12.0412 1.7578 12.0396 1.39535 12.0388C1.30504 12.0386 1.21471 12.0384 1.12437 12.0382C1.00142 12.0375 0.878526 12.0368 0.755698 12.0361C0.678138 12.0372 0.667845 12.0378 0.644129 12.0437C0.575002 12.0571 0.55609 12.0714 0.588965 12.0854C0.633394 12.1 0.721593 12.1135 0.764971 12.1285C0.780945 12.1341 0.805889 12.1395 0.826955 12.1449Z" fill="white"/>
</g>
<g opacity="0.85" filter="url(#filter2_d_370_2191)">
<path d="M0.826955 24.1449C0.837024 24.1475 0.846224 24.1501 0.853061 24.1528C0.907427 24.1735 1.02615 24.1938 1.06982 24.2149C1.17676 24.2869 1.11703 24.3596 0.892632 24.4305C0.680577 24.4819 0.620972 24.5355 0.71699 24.5884C0.844756 24.6295 1.3862 24.6517 1.53662 24.689C1.6227 24.7103 1.47468 24.731 1.67394 24.7502C1.91772 24.7738 2.29527 24.7735 2.41051 24.8102C2.53716 24.8507 1.98118 24.8871 2.33934 24.9247C2.49577 24.9412 2.73515 24.95 2.86371 24.9677C2.98942 24.9835 3.08225 25.0003 3.13977 25.0176C3.1066 25.0352 2.5936 25.062 2.43245 25.0759C2.21914 25.0944 1.9936 25.1086 1.76572 25.1256C1.44468 25.1495 1.12983 25.1719 0.783543 25.1944C0.461412 25.2153 0.335149 25.2259 0.662756 25.2558C0.782793 25.2668 1.01289 25.2708 1.09892 25.2833C1.23459 25.303 1.05896 25.3361 1.0113 25.3559C0.837739 25.4278 0.695436 25.4994 0.500497 25.5706C0.372202 25.6174 0.515653 25.6647 0.460051 25.7115C0.436202 25.7316 0.262718 25.7494 0.241563 25.7689C0.210781 25.7971 0.591399 25.8391 0.833276 25.8637C1.10276 25.891 1.55314 25.9145 1.77808 25.9432C2.22894 26.0008 1.89347 26.0776 2.10754 26.1356C2.22516 26.1804 2.26149 26.2259 2.21578 26.2712C2.24244 26.2883 2.28398 26.3053 2.34019 26.3221C2.37314 26.3509 2.03233 26.3608 1.60067 26.3851C1.28658 26.3994 1.02023 26.4177 0.81752 26.4388C0.592806 26.4695 0.798339 26.4873 0.871606 26.5159C0.997164 26.565 0.67711 26.616 0.672217 26.6666C0.668631 26.7033 0.440922 26.7237 0.451398 26.7622C0.495429 26.7967 0.441096 26.8314 0.291121 26.8645C0.174131 26.8853 -0.0492957 26.9 0.00976013 26.9236C0.107839 26.9627 0.935882 26.9798 1.21583 27.0094C1.50196 27.0397 1.33895 27.1009 1.44508 27.1385C1.60111 27.1937 1.54021 27.2398 1.83685 27.2929C2.00047 27.3313 2.05478 27.3714 1.99713 27.4111C2.03741 27.4341 2.04267 27.4572 2.01285 27.4802C1.9008 27.5045 1.82414 27.4921 1.54843 27.51C1.1256 27.5373 0.932108 27.5912 0.679279 27.625C-0.0541576 27.723 0.230579 27.8466 0.230579 27.9552C1.31647 27.9855 2.84847 27.9608 3.98414 27.973C4.58373 27.9801 5.19187 27.9837 5.80135 27.9838C6.91295 27.9835 7.92156 27.9693 9.02561 27.9696C10.6577 27.97 12.2654 27.9582 13.8929 27.9552C14.6115 27.9539 15.3211 27.9527 16.0376 27.9479C16.4787 27.942 16.9301 27.9398 17.3799 27.9416C17.7573 27.9466 18.1281 27.9616 18.5282 27.9666C19.9822 27.9848 21.4655 27.9495 22.9208 27.9537C23.3679 27.955 23.58 27.9692 24.0452 27.9699C25.1554 27.9714 26.2712 27.9695 27.382 27.9695C28.296 27.9695 29.2471 27.9751 30.1583 27.9702C30.5245 27.9656 30.8749 27.9567 31.1932 27.9441C32.2224 27.9176 33.3421 27.9266 34.4575 27.9266C34.8183 27.9463 35.2692 27.9577 35.7404 27.9591C36.5597 27.9669 37.426 27.9701 38.1985 27.9806C39.5744 27.9974 40.9956 27.9885 42.2962 27.9549C43.2193 27.9311 44.2921 27.9406 45.2768 27.9409C46.672 27.9414 47.9912 27.9305 49.3628 27.9234C51.7586 27.9111 54.4014 27.8927 56.7752 27.9234C57.2962 27.9302 57.8412 27.9321 58.3704 27.938C58.931 27.9438 59.5021 27.9438 60.0627 27.9381C60.368 27.9339 60.6729 27.9295 60.9774 27.9251C61.1782 27.9287 61.3765 27.9328 61.5722 27.9374C62.0148 27.9403 62.458 27.9427 62.9019 27.9445C63.6632 27.9481 64.4089 27.9603 65.1049 27.9806C65.9405 28.0076 66.7534 27.9979 67.6758 27.9981C68.128 27.9982 68.7628 28.0075 69.1261 27.9839C69.1455 27.931 69.0511 27.8782 68.8455 27.827C68.6932 27.777 68.6932 27.7256 68.8455 27.6756C69.0361 27.6176 69.137 27.5586 69.1469 27.4993C69.1041 27.451 68.7445 27.4223 68.4471 27.3813C68.1941 27.345 68.1379 27.3042 68.2876 27.2656C68.4529 27.2381 68.5904 27.21 68.6994 27.1814C68.7427 27.1425 68.3886 27.1063 68.2805 27.0689C68.1943 27.039 68.2808 27.0104 68.1937 26.9808C67.9725 26.92 67.8416 26.858 67.8027 26.7956C67.7683 26.7479 67.8368 26.7002 68.0062 26.6537C68.2664 26.6083 68.5728 26.564 68.9233 26.5213C69.3661 26.4537 70.1773 26.3689 69.9653 26.2936C69.8039 26.2363 69.7177 26.1799 69.5402 26.1224C69.3358 26.0738 69.2029 26.0241 69.1434 25.974C69.1294 25.913 68.5557 25.8531 68.7119 25.7924C68.7737 25.7684 69.1424 25.7439 69.1583 25.7209C69.119 25.7071 69.0129 25.6944 68.8554 25.6848C68.5676 25.652 68.4224 25.6148 68.4349 25.577C68.4515 25.5398 68.4653 25.5025 68.4766 25.4653C68.4933 25.4574 68.4856 25.4493 68.4539 25.4416C68.4222 25.4339 68.3671 25.4266 68.2919 25.4203C67.9816 25.3006 68.3563 25.1757 68.8432 25.061C69.2277 24.9704 69.5899 24.9098 69.5646 24.8207C69.5462 24.7557 69.5677 24.6905 69.5677 24.6255C69.5677 24.5494 69.7633 24.4757 69.7937 24.4001C69.8195 24.3357 69.6143 24.275 69.5563 24.2113C69.5756 24.1782 69.563 24.1451 69.5186 24.1121C69.4081 24.0802 69.3505 24.0476 69.3469 24.0149C69.3476 24.0109 68.9021 24.05 68.9006 24.046C68.3977 24.0406 67.8856 24.0399 67.3796 24.0439C66.6352 24.0438 65.8921 24.04 65.1568 24.0325C64.4359 24.026 63.8883 24.0424 63.1661 24.0441C61.9195 24.0469 60.658 24.0436 59.4101 24.0436C58.2449 24.0436 57.2707 24.0694 56.1807 24.0833C55.0308 24.098 54.0433 24.0734 52.9194 24.0715C52.2834 24.0689 51.6455 24.0689 51.0095 24.0715C50.5064 24.0749 50.0259 24.0865 49.5141 24.0876C48.8166 24.089 48.1235 24.0799 47.4893 24.0611C47.2813 24.0547 47.2643 24.0455 47.0293 24.0422C46.662 24.0369 46.0165 24.055 45.6647 24.0615C44.865 24.0759 44.042 24.0841 43.2127 24.086C41.7646 24.0933 40.3078 24.0873 38.8852 24.0683C38.5591 24.0614 38.219 24.0578 37.8763 24.0575C36.9783 24.0563 36.0781 24.0596 35.1803 24.0586C34.8303 24.0597 34.4794 24.0586 34.1325 24.0554C33.908 24.0518 33.7083 24.0434 33.564 24.0317C32.8209 24.0164 32.0703 24.0378 31.3661 24.0436C31.3605 24.0474 31.134 24.0513 31.1284 24.0552C30.3162 24.0579 25.0775 24.0606 25.1461 24.0983C24.5976 24.1115 23.8248 24.0918 23.2564 24.0879C21.4803 24.0756 19.7659 24.0306 17.9924 24.0128C16.7325 23.9954 15.4295 23.9957 14.172 24.0139C13.4044 24.0274 12.6971 24.0567 11.892 24.0589C10.4694 24.0609 9.04607 24.0582 7.62779 24.0507C7.26533 24.0492 6.90286 24.0478 6.54017 24.0467C6.35888 24.0461 6.17755 24.0456 5.99617 24.0451C5.83844 24.0441 5.67974 24.0438 5.52131 24.0442C5.40498 24.0452 5.28786 24.0458 5.17051 24.046C4.5804 24.0462 3.99026 24.0468 3.40017 24.0461C3.2345 24.0451 3.0697 24.0436 2.90638 24.0416C2.76424 24.0409 2.6216 24.0408 2.47922 24.0412C2.1157 24.0412 1.7578 24.0396 1.39535 24.0388C1.30504 24.0386 1.21471 24.0384 1.12437 24.0382C1.00142 24.0375 0.878526 24.0368 0.755698 24.0361C0.678138 24.0372 0.667845 24.0378 0.644129 24.0437C0.575002 24.0571 0.55609 24.0714 0.588965 24.0854C0.633394 24.1 0.721593 24.1135 0.764971 24.1285C0.780945 24.1341 0.805889 24.1395 0.826955 24.1449Z" fill="white"/>
</g>
<defs>
<filter id="filter0_d_370_2191" x="0" y="0" width="74" height="9" filterUnits="userSpaceOnUse" color-interpolation-filters="sRGB">
<feFlood flood-opacity="0" result="BackgroundImageFix"/>
<feColorMatrix in="SourceAlpha" type="matrix" values="0 0 0 0 0 0 0 0 0 0 0 0 0 0 0 0 0 0 127 0" result="hardAlpha"/>
<feOffset dx="2" dy="3"/>
<feGaussianBlur stdDeviation="1"/>
<feComposite in2="hardAlpha" operator="out"/>
<feColorMatrix type="matrix" values="0 0 0 0 0 0 0 0 0 0 0 0 0 0 0 0 0 0 0.4 0"/>
<feBlend mode="normal" in2="BackgroundImageFix" result="effect1_dropShadow_370_2191"/>
<feBlend mode="normal" in="SourceGraphic" in2="effect1_dropShadow_370_2191" result="shape"/>
</filter>
<filter id="filter1_d_370_2191" x="0" y="12" width="74" height="9" filterUnits="userSpaceOnUse" color-interpolation-filters="sRGB">
<feFlood flood-opacity="0" result="BackgroundImageFix"/>
<feColorMatrix in="SourceAlpha" type="matrix" values="0 0 0 0 0 0 0 0 0 0 0 0 0 0 0 0 0 0 127 0" result="hardAlpha"/>
<feOffset dx="2" dy="3"/>
<feGaussianBlur stdDeviation="1"/>
<feComposite in2="hardAlpha" operator="out"/>
<feColorMatrix type="matrix" values="0 0 0 0 0 0 0 0 0 0 0 0 0 0 0 0 0 0 0.4 0"/>
<feBlend mode="normal" in2="BackgroundImageFix" result="effect1_dropShadow_370_2191"/>
<feBlend mode="normal" in="SourceGraphic" in2="effect1_dropShadow_370_2191" result="shape"/>
</filter>
<filter id="filter2_d_370_2191" x="0" y="24" width="74" height="9" filterUnits="userSpaceOnUse" color-interpolation-filters="sRGB">
<feFlood flood-opacity="0" result="BackgroundImageFix"/>
<feColorMatrix in="SourceAlpha" type="matrix" values="0 0 0 0 0 0 0 0 0 0 0 0 0 0 0 0 0 0 127 0" result="hardAlpha"/>
<feOffset dx="2" dy="3"/>
<feGaussianBlur stdDeviation="1"/>
<feComposite in2="hardAlpha" operator="out"/>
<feColorMatrix type="matrix" values="0 0 0 0 0 0 0 0 0 0 0 0 0 0 0 0 0 0 0.4 0"/>
<feBlend mode="normal" in2="BackgroundImageFix" result="effect1_dropShadow_370_2191"/>
<feBlend mode="normal" in="SourceGraphic" in2="effect1_dropShadow_370_2191" result="shape"/>
</filter>
</defs>
</svg>
