<svg width="60" height="61" viewBox="0 0 60 61" fill="none" xmlns="http://www.w3.org/2000/svg">
<g filter="url(#filter0_d_370_2195)">
<path opacity="0.85" d="M7.14779 1.52414C7.15307 1.5331 7.15774 1.54145 7.16072 1.54813C7.18452 1.60122 7.25412 1.69951 7.27007 1.74533C7.29473 1.87189 7.2011 1.88105 6.99229 1.77252C6.80599 1.65893 6.72597 1.65466 6.75648 1.75994C6.81774 1.87937 7.18489 2.27794 7.26489 2.41066C7.31068 2.48661 7.19141 2.39654 7.31867 2.55107C7.47437 2.74013 7.74162 3.00683 7.79708 3.11433C7.85803 3.2325 7.43918 2.86507 7.66581 3.14496C7.76479 3.2672 7.92779 3.44273 8.00618 3.54615C8.08393 3.64619 8.13772 3.72369 8.16613 3.77662C8.13026 3.76558 7.74854 3.42181 7.62472 3.31772C7.46084 3.17994 7.29131 3.03051 7.11817 2.88138C6.87425 2.67128 6.63579 2.46448 6.37502 2.23551C6.13245 2.02253 6.0357 1.94071 6.24616 2.19356C6.32327 2.28621 6.48319 2.45169 6.53517 2.52138C6.61714 2.63128 6.46955 2.53048 6.42189 2.51075C6.24829 2.43889 6.09701 2.38892 5.90887 2.30138C5.78505 2.24377 5.85302 2.37866 5.7806 2.37245C5.74955 2.36977 5.61429 2.25969 5.58557 2.2585C5.54381 2.25672 5.78324 2.55556 5.93693 2.74395C6.10815 2.95383 6.41003 3.28889 6.54877 3.46825C6.82688 3.82775 6.53533 3.64489 6.64567 3.83728C6.69718 3.95211 6.69069 4.00997 6.62633 4.0097C6.63308 4.04065 6.65044 4.08204 6.67831 4.13367C6.68124 4.17733 6.43325 3.94334 6.11087 3.65526C5.87864 3.4433 5.67737 3.26789 5.51908 3.13951C5.33849 3.00231 5.47128 3.16019 5.50283 3.23225C5.5569 3.35575 5.29449 3.16553 5.25527 3.19783C5.2268 3.22122 5.05139 3.07461 5.03154 3.10928C5.0383 3.16478 4.97535 3.15089 4.84584 3.06831C4.74847 3.00023 4.58003 2.85269 4.60515 2.91109C4.64686 3.00809 5.22027 3.60571 5.39726 3.82462C5.57817 4.04837 5.41962 3.97638 5.4681 4.07799C5.53937 4.22738 5.4637 4.21692 5.63597 4.46418C5.72446 4.60707 5.73452 4.67381 5.66567 4.66114C5.67793 4.70584 5.6653 4.72592 5.62794 4.72109C5.53157 4.65901 5.48609 4.59607 5.27851 4.41374C4.96017 4.13411 4.78528 4.03536 4.58261 3.88048C3.99468 3.43117 4.10863 3.7199 4.03181 3.79672C4.77827 4.58594 5.87898 5.6518 6.67339 6.46347C7.09235 6.89247 7.5198 7.32505 7.9507 7.75609C8.73696 8.54188 9.46018 9.24504 10.2407 10.0259C11.3944 11.1802 12.5396 12.3087 13.6925 13.4574C14.2016 13.9647 14.7042 14.4656 15.2142 14.9689C15.5304 15.2765 15.851 15.5942 16.1678 15.9135C16.4312 16.1839 16.6827 16.4567 16.9621 16.7431C17.9773 17.7841 19.0512 18.808 20.0772 19.8401C20.3925 20.1571 20.5324 20.3171 20.8609 20.6466C21.6449 21.4326 22.4352 22.2203 23.2207 23.0058C23.8669 23.6521 24.5356 24.3286 25.1833 24.9694C25.4455 25.2251 25.6996 25.4666 25.9335 25.6827C26.68 26.3918 27.4655 27.1899 28.2542 27.9786C28.4954 28.2476 28.8061 28.5745 29.1383 28.9087C29.7121 29.4935 30.3225 30.1084 30.8612 30.662C31.8222 31.6468 32.8335 32.6455 33.777 33.5414C34.4465 34.1772 35.1983 34.9425 35.8944 35.6391C36.8807 36.626 37.8212 37.5511 38.796 38.5159C40.4988 40.2013 42.3806 42.0571 44.0374 43.7573C44.401 44.1305 44.785 44.5173 45.155 44.8956C45.5473 45.2961 45.9511 45.6999 46.3516 46.0923C46.5705 46.3052 46.7891 46.5177 47.0076 46.7299C47.1471 46.8744 47.2844 47.0175 47.4195 47.1592C47.7304 47.4742 48.0421 47.7893 48.3547 48.1044C48.8905 48.6453 49.4091 49.1812 49.8869 49.6878C50.4587 50.2977 51.0404 50.8656 51.6925 51.518C52.0121 51.8379 52.4544 52.2933 52.728 52.5335C52.7792 52.5098 52.7497 52.4057 52.6405 52.2242C52.5682 52.0811 52.6046 52.0448 52.7476 52.1171C52.9233 52.2108 53.0365 52.2405 53.0855 52.2055C53.0893 52.1411 52.8553 51.8666 52.674 51.6273C52.5208 51.4227 52.5099 51.3541 52.643 51.4326C52.7793 51.5301 52.8965 51.6075 52.9938 51.6643C53.0519 51.6674 52.8271 51.3915 52.7771 51.2886C52.7373 51.2065 52.8187 51.2474 52.778 51.1649C52.6646 50.9655 52.6159 50.8291 52.6325 50.7575C52.6419 50.6994 52.7241 50.7141 52.8767 50.8011C53.0928 50.9529 53.3408 51.1382 53.6189 51.3559C53.9798 51.6211 54.6133 52.1348 54.5166 51.9317C54.443 51.777 54.4219 51.6762 54.3371 51.51C54.2269 51.3311 54.1681 51.202 54.1615 51.1245C54.1948 51.0715 53.8314 50.6235 53.9848 50.691C54.0454 50.7178 54.3234 50.9611 54.351 50.9561C54.333 50.9185 54.2668 50.8345 54.1623 50.7164C53.982 50.4897 53.9056 50.3606 53.9412 50.3428C53.9792 50.3282 54.0154 50.3117 54.0497 50.2933C54.0671 50.2995 54.0673 50.2884 54.0504 50.2605C54.0334 50.2326 53.9996 50.1886 53.9509 50.1309C53.8161 49.8269 54.1694 50.0035 54.5948 50.2667C54.9308 50.4745 55.2296 50.6877 55.2748 50.6069C55.3078 50.5479 55.3691 50.517 55.415 50.471C55.4689 50.4172 55.6593 50.5034 55.7342 50.4714C55.798 50.4441 55.6958 50.2561 55.6999 50.1701C55.7369 50.1603 55.7514 50.1279 55.7433 50.0732C55.6878 49.9725 55.6701 49.9088 55.6907 49.8831C55.6939 49.8808 55.3514 49.5934 55.3531 49.5895C55.0013 49.2301 54.6396 48.8675 54.2791 48.5126C53.7528 47.9861 53.23 47.4579 52.7154 46.9327C52.2101 46.4184 51.8114 46.0428 51.2996 45.5333C50.416 44.6538 49.5264 43.7594 48.644 42.877C47.8201 42.053 47.113 41.3825 46.3324 40.6216C45.5089 39.8189 44.8281 39.1032 44.0347 38.3071C43.5868 37.8556 43.1357 37.4045 42.6841 36.9566C42.326 36.6032 41.978 36.2717 41.6153 35.9106C41.1212 35.4184 40.6375 34.9219 40.2024 34.4601C40.0597 34.3085 40.0543 34.29 39.8905 34.1215C39.6344 33.858 39.1652 33.4144 38.9118 33.1702C38.3363 32.6149 37.7485 32.0388 37.1608 31.4537C36.1316 30.4349 35.1057 29.4006 34.1132 28.3812C33.8875 28.1458 33.6495 27.9027 33.4074 27.6602C32.7733 27.0243 32.1344 26.3901 31.5003 25.7545C31.252 25.5078 31.0047 25.259 30.7617 25.0115C30.6055 24.8501 30.4702 24.703 30.3765 24.5926C29.8618 24.0564 29.3159 23.5408 28.8139 23.0469C28.8072 23.0456 28.6443 22.8883 28.6376 22.887C28.0614 22.3146 24.3552 18.6123 24.377 18.6874C23.9798 18.3089 23.4472 17.7485 23.0481 17.3438C21.801 16.0792 20.6205 14.8352 19.379 13.5685C18.5004 12.6653 17.5789 11.7442 16.6768 10.8678C16.1245 10.3346 15.6037 9.85527 15.0328 9.28747C14.0254 8.28293 13.0209 7.27457 12.0234 6.2664C11.7681 6.00909 11.5128 5.7518 11.2571 5.49452C11.1293 5.36592 11.0015 5.23733 10.8735 5.10877C10.7628 4.99649 10.6508 4.88405 10.5384 4.77233C10.4554 4.69079 10.3722 4.6084 10.2891 4.52554C9.8717 4.1084 9.45395 3.69156 9.0372 3.27381C8.92075 3.15597 8.80528 3.03836 8.69125 2.92143C8.59123 2.82044 8.49046 2.71948 8.38948 2.6191C8.13239 2.36211 7.88047 2.10788 7.62477 1.85099C7.56105 1.78699 7.49731 1.72299 7.43357 1.65897C7.34709 1.57157 7.2607 1.48416 7.17439 1.39677C7.11873 1.34274 7.11102 1.33589 7.09009 1.32329C7.03172 1.28389 7.00824 1.28063 7.0216 1.31376C7.04266 1.35553 7.09548 1.42745 7.11556 1.46871C7.12295 1.48392 7.13674 1.5054 7.14779 1.52414Z" fill="white"/>
<path opacity="0.85" d="M52.8522 1.52414C52.8469 1.5331 52.8423 1.54145 52.8393 1.54813C52.8155 1.60122 52.7459 1.69951 52.7299 1.74533C52.7053 1.87189 52.7989 1.88105 53.0077 1.77252C53.194 1.65893 53.274 1.65466 53.2435 1.75994C53.1823 1.87937 52.8151 2.27794 52.7351 2.41066C52.6893 2.48661 52.8086 2.39654 52.6813 2.55107C52.5256 2.74013 52.2584 3.00683 52.2029 3.11433C52.142 3.2325 52.5608 2.86507 52.3342 3.14496C52.2352 3.2672 52.0722 3.44273 51.9938 3.54615C51.9161 3.64619 51.8623 3.72369 51.8339 3.77662C51.8697 3.76558 52.2515 3.42181 52.3753 3.31772C52.5392 3.17994 52.7087 3.03051 52.8818 2.88138C53.1258 2.67128 53.3642 2.46448 53.625 2.23551C53.8675 2.02253 53.9643 1.94071 53.7538 2.19356C53.6767 2.28621 53.5168 2.45169 53.4648 2.52138C53.3829 2.63128 53.5305 2.53048 53.5781 2.51075C53.7517 2.43889 53.903 2.38892 54.0911 2.30138C54.215 2.24377 54.147 2.37866 54.2194 2.37245C54.2504 2.36977 54.3857 2.25969 54.4144 2.2585C54.4562 2.25672 54.2168 2.55556 54.0631 2.74395C53.8918 2.95383 53.59 3.28889 53.4512 3.46825C53.1731 3.82775 53.4647 3.64489 53.3543 3.83728C53.3028 3.95211 53.3093 4.00997 53.3737 4.0097C53.3669 4.04065 53.3496 4.08204 53.3217 4.13367C53.3188 4.17733 53.5668 3.94334 53.8891 3.65526C54.1214 3.4433 54.3226 3.26789 54.4809 3.13951C54.6615 3.00231 54.5287 3.16019 54.4972 3.23225C54.4431 3.35575 54.7055 3.16553 54.7447 3.19783C54.7732 3.22122 54.9486 3.07461 54.9685 3.10928C54.9617 3.16478 55.0246 3.15089 55.1542 3.06831C55.2515 3.00023 55.42 2.85269 55.3948 2.91109C55.3531 3.00809 54.7797 3.60571 54.6027 3.82462C54.4218 4.04837 54.5804 3.97638 54.5319 4.07799C54.4606 4.22738 54.5363 4.21692 54.364 4.46418C54.2755 4.60707 54.2655 4.67381 54.3343 4.66114C54.3221 4.70584 54.3347 4.72592 54.3721 4.72109C54.4684 4.65901 54.5139 4.59607 54.7215 4.41374C55.0398 4.13411 55.2147 4.03536 55.4174 3.88048C56.0053 3.43117 55.8914 3.7199 55.9682 3.79672C55.2217 4.58594 54.121 5.6518 53.3266 6.46347C52.9077 6.89247 52.4802 7.32505 52.0493 7.75609C51.263 8.54188 50.5398 9.24504 49.7593 10.0259C48.6056 11.1802 47.4604 12.3087 46.3075 13.4574C45.7984 13.9647 45.2958 14.4656 44.7858 14.9689C44.4696 15.2765 44.149 15.5942 43.8322 15.9135C43.5688 16.1839 43.3173 16.4567 43.0379 16.7431C42.0227 17.7841 40.9488 18.808 39.9228 19.8401C39.6075 20.1571 39.4676 20.3171 39.1391 20.6466C38.3551 21.4326 37.5648 22.2203 36.7793 23.0058C36.1331 23.6521 35.4644 24.3286 34.8167 24.9694C34.5545 25.2251 34.3004 25.4666 34.0665 25.6827C33.32 26.3918 32.5345 27.1899 31.7458 27.9786C31.5046 28.2476 31.1939 28.5745 30.8617 28.9087C30.2879 29.4935 29.6775 30.1084 29.1388 30.662C28.1778 31.6468 27.1665 32.6455 26.223 33.5414C25.5535 34.1772 24.8017 34.9425 24.1056 35.6391C23.1193 36.626 22.1788 37.5511 21.204 38.5159C19.5012 40.2013 17.6194 42.0571 15.9626 43.7573C15.599 44.1305 15.215 44.5173 14.845 44.8956C14.4527 45.2961 14.0489 45.6999 13.6484 46.0923C13.4295 46.3052 13.2109 46.5177 12.9924 46.7299C12.8529 46.8744 12.7156 47.0175 12.5805 47.1592C12.2696 47.4742 11.9579 47.7893 11.6453 48.1044C11.1095 48.6453 10.5909 49.1812 10.1131 49.6878C9.5413 50.2977 8.9596 50.8656 8.30751 51.518C7.98788 51.8379 7.54556 52.2933 7.27196 52.5335C7.22085 52.5098 7.2503 52.4057 7.35945 52.2242C7.43181 52.0811 7.39544 52.0448 7.2524 52.1171C7.07666 52.2108 6.96349 52.2405 6.91455 52.2055C6.91069 52.1411 7.14468 51.8666 7.32596 51.6273C7.47921 51.4227 7.49013 51.3541 7.35695 51.4326C7.22068 51.5301 7.10352 51.6075 7.0062 51.6643C6.94813 51.6674 7.17293 51.3915 7.22288 51.2886C7.26275 51.2065 7.18134 51.2474 7.22204 51.1649C7.33544 50.9655 7.38414 50.8291 7.36748 50.7575C7.35812 50.6994 7.27592 50.7141 7.12327 50.8011C6.90718 50.9529 6.65925 51.1382 6.3811 51.3559C6.02024 51.6211 5.38671 52.1348 5.48335 51.9317C5.55697 51.777 5.57806 51.6762 5.66288 51.51C5.77312 51.3311 5.83195 51.202 5.83854 51.1245C5.80524 51.0715 6.16861 50.6235 6.01524 50.691C5.95459 50.7178 5.67657 50.9611 5.64898 50.9561C5.66703 50.9185 5.73316 50.8345 5.83773 50.7164C6.01798 50.4897 6.09437 50.3606 6.05879 50.3428C6.02077 50.3282 5.98462 50.3117 5.95032 50.2933C5.9329 50.2995 5.93266 50.2884 5.94962 50.2605C5.96658 50.2326 6.00039 50.1886 6.04909 50.1309C6.18387 49.8269 5.83063 50.0035 5.40519 50.2667C5.06924 50.4745 4.77035 50.6877 4.72518 50.6069C4.69224 50.5479 4.63093 50.517 4.58495 50.471C4.53114 50.4172 4.34069 50.5034 4.26582 50.4714C4.20198 50.4441 4.30415 50.2561 4.30013 50.1701C4.26312 50.1603 4.2486 50.1279 4.25665 50.0732C4.31224 49.9725 4.32989 49.9088 4.30933 49.8831C4.30606 49.8808 4.64863 49.5934 4.64692 49.5895C4.99871 49.2301 5.36037 48.8675 5.72094 48.5126C6.24725 47.9861 6.77004 47.4579 7.28462 46.9327C7.78986 46.4184 8.18863 46.0428 8.70044 45.5333C9.58396 44.6538 10.4736 43.7594 11.356 42.877C12.1799 42.053 12.887 41.3825 13.6676 40.6216C14.4911 39.8189 15.1719 39.1032 15.9653 38.3071C16.4132 37.8556 16.8643 37.4045 17.3159 36.9566C17.674 36.6032 18.022 36.2717 18.3847 35.9106C18.8788 35.4184 19.3625 34.9219 19.7976 34.4601C19.9403 34.3085 19.9457 34.29 20.1095 34.1215C20.3656 33.858 20.8348 33.4144 21.0882 33.1702C21.6637 32.6149 22.2515 32.0388 22.8392 31.4537C23.8684 30.4349 24.8943 29.4006 25.8868 28.3812C26.1125 28.1458 26.3505 27.9027 26.5926 27.6602C27.2267 27.0243 27.8656 26.3901 28.4997 25.7545C28.748 25.5078 28.9953 25.259 29.2383 25.0115C29.3945 24.8501 29.5298 24.703 29.6235 24.5926C30.1382 24.0564 30.6841 23.5408 31.1861 23.0469C31.1928 23.0456 31.3557 22.8883 31.3624 22.887C31.9386 22.3146 35.6448 18.6123 35.623 18.6874C36.0202 18.3089 36.5528 17.7485 36.9519 17.3438C38.199 16.0792 39.3795 14.8352 40.621 13.5685C41.4996 12.6653 42.4211 11.7442 43.3232 10.8678C43.8755 10.3346 44.3963 9.85527 44.9672 9.28747C45.9746 8.28293 46.9791 7.27457 47.9766 6.2664C48.2319 6.00909 48.4872 5.7518 48.7429 5.49452C48.8707 5.36592 48.9985 5.23733 49.1265 5.10877C49.2372 4.99649 49.3492 4.88405 49.4616 4.77233C49.5446 4.69079 49.6278 4.6084 49.7109 4.52554C50.1283 4.1084 50.546 3.69156 50.9628 3.27381C51.0793 3.15597 51.1947 3.03836 51.3087 2.92143C51.4088 2.82044 51.5095 2.71948 51.6105 2.6191C51.8676 2.36211 52.1195 2.10788 52.3752 1.85099C52.439 1.78699 52.5027 1.72299 52.5664 1.65897C52.6529 1.57157 52.7393 1.48416 52.8256 1.39677C52.8813 1.34274 52.889 1.33589 52.9099 1.32329C52.9683 1.28389 52.9918 1.28063 52.9784 1.31376C52.9573 1.35553 52.9045 1.42745 52.8844 1.46871C52.8771 1.48392 52.8633 1.5054 52.8522 1.52414Z" fill="white"/>
</g>
<defs>
<filter id="filter0_d_370_2195" x="0.0317383" y="1.29102" width="59.9365" height="59.2422" filterUnits="userSpaceOnUse" color-interpolation-filters="sRGB">
<feFlood flood-opacity="0" result="BackgroundImageFix"/>
<feColorMatrix in="SourceAlpha" type="matrix" values="0 0 0 0 0 0 0 0 0 0 0 0 0 0 0 0 0 0 127 0" result="hardAlpha"/>
<feOffset dy="4"/>
<feGaussianBlur stdDeviation="2"/>
<feComposite in2="hardAlpha" operator="out"/>
<feColorMatrix type="matrix" values="0 0 0 0 0 0 0 0 0 0 0 0 0 0 0 0 0 0 0.25 0"/>
<feBlend mode="normal" in2="BackgroundImageFix" result="effect1_dropShadow_370_2195"/>
<feBlend mode="normal" in="SourceGraphic" in2="effect1_dropShadow_370_2195" result="shape"/>
</filter>
</defs>
</svg>
