<svg width="26" height="26" viewBox="0 0 26 26" fill="none" xmlns="http://www.w3.org/2000/svg">
<path d="M0.307155 0.942082C0.310895 0.958977 0.314312 0.975888 0.316851 0.992913C0.337044 1.12751 0.38114 1.25941 0.397363 1.39669C0.437081 1.86502 0.414896 2.33746 0.331549 2.79833C0.252786 3.13257 0.230647 3.48075 0.266311 3.82436C0.313766 4.09176 0.514875 4.23617 0.570746 4.47845C0.602717 4.61709 0.547737 4.75124 0.621747 4.8766C0.712296 5.02994 0.85253 5.02746 0.895331 5.26661C0.942373 5.52963 0.735865 5.76595 0.868899 6.01071C0.927001 6.11763 1.01591 6.17522 1.06366 6.29028C1.11036 6.39268 1.14484 6.50169 1.1662 6.61443C1.15388 6.72854 0.963338 6.90298 0.903481 6.99362C0.824251 7.11357 0.740481 7.20598 0.655838 7.31635C0.536597 7.47179 0.419652 7.6173 0.29103 7.76345C0.171382 7.89943 0.124484 7.96809 0.246166 8.16293C0.290752 8.23431 0.376217 8.2599 0.408171 8.34131C0.458563 8.46964 0.393326 8.68472 0.375627 8.81312C0.31116 9.28067 0.258305 9.74633 0.185899 10.2087C0.138246 10.513 0.191528 10.8206 0.170876 11.125C0.162018 11.2553 0.0975809 11.3711 0.0897236 11.4976C0.0782902 11.6813 0.219663 11.9544 0.309502 12.1139C0.409598 12.2916 0.576881 12.4441 0.660429 12.6307C0.827891 13.0049 0.703289 13.5044 0.782801 13.8815C0.826486 14.1725 0.83998 14.4683 0.823004 14.7629C0.832907 14.8741 0.848336 14.9846 0.869214 15.0938C0.881452 15.281 0.754864 15.3453 0.594535 15.503C0.477874 15.5961 0.378941 15.715 0.30365 15.8525C0.220185 16.0519 0.296526 16.1672 0.32374 16.3534C0.370375 16.6725 0.251498 17.0043 0.249681 17.3331C0.248349 17.5714 0.163771 17.7038 0.167662 17.9543C0.184017 18.1784 0.163836 18.4039 0.108131 18.6196C0.0646773 18.7542 -0.0183098 18.8503 0.00362519 19.0032C0.0400545 19.2573 0.347613 19.3686 0.451593 19.5613C0.557873 19.7581 0.497324 20.156 0.536745 20.4002C0.594696 20.7593 0.572076 21.059 0.68226 21.4037C0.74303 21.6537 0.763202 21.9142 0.741791 22.1725C0.756752 22.3215 0.758708 22.4719 0.747628 22.6214C0.706012 22.779 0.677536 22.6987 0.575131 22.8148C0.418079 22.9927 0.346212 23.3427 0.252304 23.5623C-0.0201157 24.1995 0.0856437 25.0028 0.0856437 25.7089C0.488974 25.9055 1.058 25.7453 1.47982 25.8246C1.70253 25.8707 1.92841 25.8943 2.15479 25.895C2.56767 25.8928 2.94229 25.8006 3.35237 25.8024C3.95856 25.805 4.55571 25.728 5.16021 25.7089C5.42714 25.7005 5.6907 25.6929 5.95684 25.6616C6.12068 25.6228 6.28832 25.609 6.45538 25.6204C6.59558 25.6528 6.7333 25.7506 6.88189 25.7832C7.42195 25.9014 7.9729 25.6717 8.51343 25.6993C8.6795 25.7078 8.75828 25.8001 8.93107 25.8042C9.34342 25.8141 9.75786 25.802 10.1705 25.802C10.5099 25.802 10.8632 25.8381 11.2016 25.8065C11.3377 25.7763 11.4678 25.7187 11.586 25.6365C11.9683 25.4646 12.3842 25.5226 12.7985 25.5226C12.9325 25.6508 13.1 25.7252 13.275 25.7344C13.5793 25.7845 13.9011 25.8056 14.188 25.8741C14.6991 25.9834 15.2269 25.9254 15.71 25.7068C16.0529 25.5519 16.4513 25.6136 16.8171 25.6158C17.3353 25.6188 17.8253 25.5479 18.3347 25.5022C19.2246 25.4224 20.2062 25.3024 21.0879 25.5022C21.2815 25.5461 21.4839 25.5589 21.6804 25.5972C21.8886 25.6348 22.1008 25.6349 22.309 25.5975C22.4224 25.5701 22.5356 25.5419 22.6488 25.513C22.7233 25.5364 22.797 25.5631 22.8697 25.5932C23.0341 25.6121 23.1987 25.6274 23.3636 25.6393C23.6463 25.6626 23.9233 25.742 24.1818 25.8741C24.4922 26.0495 24.7941 25.9861 25.1367 25.9877C25.3047 25.9884 25.5405 26.0488 25.6754 25.8952C25.6826 25.5515 25.6475 25.2083 25.5712 24.8757C25.5146 24.5508 25.5146 24.2165 25.5712 23.8916C25.642 23.5147 25.6795 23.1306 25.6832 22.7452C25.6673 22.4315 25.5337 22.2449 25.4232 21.9782C25.3292 21.7423 25.3084 21.4772 25.364 21.2262C25.4253 21.0477 25.4764 20.8648 25.5169 20.6788C25.533 20.426 25.4015 20.1911 25.3613 19.9478C25.3293 19.7537 25.3614 19.5677 25.3291 19.3754C25.2469 18.9802 25.1983 18.577 25.1839 18.1713C25.1711 17.8614 25.1965 17.5511 25.2595 17.2492C25.3561 16.954 25.4699 16.6663 25.6001 16.3881C25.7645 15.9487 26.0658 15.3978 25.9871 14.9086C25.9272 14.5358 25.8952 14.1696 25.8292 13.7956C25.7533 13.48 25.7039 13.157 25.6818 12.8308C25.6767 12.4342 25.4636 12.0453 25.5216 11.6508C25.5445 11.4949 25.6815 11.3357 25.6874 11.1857C25.6728 11.096 25.6334 11.0139 25.5749 10.9514C25.468 10.7381 25.414 10.496 25.4187 10.2507C25.4248 10.0086 25.43 9.76645 25.4342 9.5243C25.4404 9.47284 25.4375 9.4205 25.4257 9.37032C25.414 9.32013 25.3935 9.27311 25.3656 9.23198C25.2503 8.45401 25.3895 7.64232 25.5703 6.89644C25.7132 6.30747 25.8477 5.91383 25.8383 5.3347C25.8315 4.91216 25.8394 4.48847 25.8394 4.06579C25.8394 3.57111 25.9121 3.0918 25.9234 2.60083C25.933 2.18189 25.8568 1.78739 25.8352 1.37352C25.8424 1.15834 25.8377 0.94287 25.8212 0.728356C25.7801 0.521028 25.7588 0.309305 25.7574 0.0968077C25.7577 0.0710652 25.5922 0.324728 25.5917 0.298986C25.4049 0.264004 25.2146 0.259482 25.0267 0.285556C24.7502 0.284939 24.4742 0.260007 24.2011 0.210989C23.9333 0.169284 23.7299 0.275905 23.4617 0.286559C22.9987 0.304963 22.5301 0.283078 22.0666 0.283078C21.6338 0.283078 21.272 0.45085 20.8671 0.541433C20.44 0.637008 20.0732 0.476891 19.6558 0.464541C19.4196 0.447786 19.1826 0.447786 18.9464 0.464541C18.7595 0.486595 18.581 0.56198 18.3909 0.569133C18.1319 0.578614 17.8745 0.519669 17.6389 0.396944C17.5616 0.355611 17.5553 0.29595 17.468 0.274119C17.3316 0.239994 17.0918 0.35753 16.9612 0.39959C16.6642 0.493137 16.3585 0.546569 16.0504 0.558776C15.5126 0.606367 14.9715 0.567669 14.4431 0.443827C14.3219 0.39938 14.1956 0.375865 14.0683 0.374069C13.7348 0.365874 13.4004 0.38765 13.067 0.380609C12.937 0.388014 12.8066 0.381213 12.6778 0.360304C12.5944 0.336469 12.5202 0.282207 12.4666 0.205851C12.1906 0.10683 11.9118 0.245935 11.6503 0.283078C11.6482 0.308224 11.5641 0.333352 11.562 0.35848C11.2603 0.376119 9.31451 0.393983 9.33998 0.638891C9.13625 0.724668 8.8492 0.596904 8.63809 0.571273C7.9784 0.491233 7.34164 0.199052 6.68288 0.0832104C6.21491 -0.0300385 5.73097 -0.0276627 5.26388 0.0901767C4.97877 0.177891 4.71608 0.368744 4.41702 0.382863C3.88862 0.395861 3.35997 0.37801 2.83318 0.329384C2.69855 0.320014 2.56392 0.310961 2.42921 0.303417C2.36187 0.299654 2.29452 0.296316 2.22715 0.293398C2.16856 0.286546 2.10962 0.284528 2.05077 0.287361C2.00757 0.293969 1.96406 0.297831 1.92048 0.298929C1.70129 0.300177 1.4821 0.304387 1.26292 0.299767C1.20139 0.293415 1.14017 0.283547 1.07951 0.270205C1.02672 0.265774 0.973735 0.26491 0.920851 0.267616C0.785833 0.2681 0.652898 0.257485 0.518273 0.252046C0.484728 0.250779 0.451179 0.249524 0.417622 0.248283C0.371954 0.243998 0.32631 0.239354 0.280688 0.23435C0.25188 0.241838 0.248057 0.245822 0.239248 0.284101C0.213572 0.371302 0.206548 0.464192 0.218758 0.555087C0.235261 0.650271 0.26802 0.738059 0.284132 0.835441C0.290065 0.871354 0.29933 0.906672 0.307155 0.942082Z" fill="#DEC09C"/>
</svg>
