<svg width="38" height="3" viewBox="0 0 38 3" fill="none" xmlns="http://www.w3.org/2000/svg">
<path d="M0 1.5C0 0.671573 0.895431 0 2 0H8C9.10457 0 10 0.671573 10 1.5C10 2.32843 9.10457 3 8 3H2C0.89543 3 0 2.32843 0 1.5Z" fill="#FE4421"/>
<path d="M14 1.5C14 0.671573 14.8954 0 16 0H22C23.1046 0 24 0.671573 24 1.5C24 2.32843 23.1046 3 22 3H16C14.8954 3 14 2.32843 14 1.5Z" fill="#FE4421"/>
<path d="M28 1.5C28 0.671573 28.8954 0 30 0H36C37.1046 0 38 0.671573 38 1.5C38 2.32843 37.1046 3 36 3H30C28.8954 3 28 2.32843 28 1.5Z" fill="#FE4421"/>
</svg>
