<svg width="359" height="20" viewBox="0 0 359 20" fill="none" xmlns="http://www.w3.org/2000/svg">
<g opacity="0.9">
<path d="M343.414 9.99996C344.078 9.52656 344.64 8.92612 345.069 8.23349C345.499 7.54087 345.786 6.76986 345.915 5.96525C346.129 4.61368 345.799 3.23225 344.996 2.12402C344.193 1.01579 342.984 0.271243 341.633 0.0537105C340.491 -0.126971 339.324 0.152256 338.388 0.830206C337.452 1.50816 336.823 2.52954 336.638 3.67054C336.483 4.64466 336.72 5.64072 337.299 6.43963C337.878 7.23853 338.75 7.77485 339.724 7.93061C340.564 8.06311 341.422 7.85757 342.11 7.35898C342.798 6.8604 343.261 6.1094 343.397 5.27041C343.511 4.56815 343.351 3.84891 342.951 3.26085C343.231 3.57595 343.437 3.9493 343.555 4.35391C343.673 4.75853 343.7 5.1843 343.633 5.60046C343.488 6.50278 343.027 7.32419 342.332 7.91832C341.638 8.51246 340.755 8.84072 339.841 8.84462H339.832C339.708 8.84481 339.584 8.83874 339.461 8.82644C339.376 8.81865 339.363 8.81765 337.574 8.80626C336.629 8.80073 335.212 8.79261 334.989 8.78482C334.832 8.77164 334.673 8.79202 334.524 8.84462H333.311C334.331 8.41985 335.184 7.67471 335.742 6.72191C335.979 6.25526 336.084 5.73303 336.047 5.21105C336.01 4.68906 335.832 4.18695 335.532 3.75838C335.423 3.6145 335.283 3.49773 335.121 3.41721C334.908 2.49971 334.495 1.64043 333.912 0.900396C333.716 0.664962 333.435 0.517092 333.129 0.489316C332.824 0.461541 332.52 0.556135 332.285 0.75229C332.05 0.948444 331.902 1.23009 331.874 1.53527C331.846 1.84045 331.941 2.14416 332.137 2.3796C332.17 2.42155 333.376 3.94011 332.731 5.30065C332.37 6.06182 331.011 7.54496 325.939 8.32891C322.512 8.70642 319.066 8.87863 315.618 8.84462H43.1494C39.7017 8.87861 36.255 8.7064 32.8278 8.32891C27.7565 7.54496 26.3973 6.06182 26.0364 5.30065C25.3912 3.94011 26.5976 2.42155 26.6308 2.3796C26.8258 2.14412 26.9196 1.84091 26.8915 1.53643C26.8633 1.23195 26.7156 0.951037 26.4807 0.75527C26.2459 0.559502 25.9429 0.464846 25.6384 0.49205C25.3338 0.519254 25.0524 0.666098 24.856 0.900396C24.2726 1.64016 23.8595 2.49952 23.6463 3.41721C23.4851 3.49775 23.3446 3.61452 23.236 3.75838C22.9356 4.18688 22.7573 4.68902 22.7203 5.21104C22.6833 5.73306 22.789 6.25532 23.0259 6.72191C23.5839 7.6747 24.4371 8.41985 25.4563 8.84462H24.244C24.0948 8.79203 23.9361 8.77165 23.7784 8.78482C23.5553 8.79261 22.1382 8.80073 21.1933 8.80626C19.4042 8.81765 19.3912 8.81865 19.306 8.82644C19.183 8.83876 19.0595 8.84483 18.936 8.84462H18.9262C18.0123 8.8407 17.1295 8.51241 16.4351 7.91827C15.7408 7.32412 15.2799 6.50272 15.1347 5.60046C15.068 5.1843 15.0946 4.75852 15.2126 4.35391C15.3306 3.94929 15.537 3.57594 15.8169 3.26085C15.4161 3.84875 15.2564 4.56814 15.3708 5.27041C15.5066 6.1094 15.9693 6.8604 16.6576 7.35898C17.3459 7.85756 18.2037 8.06311 19.0432 7.93061C19.5256 7.85355 19.988 7.68222 20.4041 7.4264C20.8202 7.17059 21.1819 6.8353 21.4684 6.4397C21.7549 6.0441 21.9606 5.59593 22.0739 5.12079C22.1871 4.64565 22.2057 4.15285 22.1284 3.67054C21.9442 2.5296 21.3152 1.50822 20.3792 0.830257C19.4433 0.152293 18.2767 -0.126956 17.1352 0.0537105C15.7841 0.271239 14.5745 1.01578 13.7716 2.12402C12.9688 3.23225 12.6383 4.61368 12.8527 5.96526C12.9814 6.76991 13.2687 7.54097 13.698 8.23361C14.1272 8.92625 14.6899 9.52667 15.3532 9.99997C14.6899 10.4733 14.1272 11.0737 13.698 11.7663C13.2687 12.459 12.9814 13.23 12.8527 14.0347C12.6383 15.3863 12.9688 16.7677 13.7716 17.8759C14.5745 18.9842 15.7841 19.7287 17.1352 19.9463C18.2767 20.127 19.4433 19.8477 20.3792 19.1697C21.3152 18.4917 21.9442 17.4704 22.1284 16.3294C22.2057 15.8471 22.1871 15.3543 22.0739 14.8792C21.9606 14.404 21.7549 13.9558 21.4684 13.5602C21.1819 13.1646 20.8202 12.8294 20.4041 12.5735C19.988 12.3177 19.5256 12.1464 19.0432 12.0693C18.2037 11.9369 17.3459 12.1424 16.6576 12.641C15.9693 13.1396 15.5066 13.8906 15.3708 14.7296C15.2564 15.4319 15.4161 16.1512 15.8169 16.7391C15.537 16.424 15.3306 16.0507 15.2126 15.6461C15.0947 15.2415 15.068 14.8157 15.1347 14.3996C15.2799 13.4973 15.7408 12.6759 16.4351 12.0817C17.1295 11.4876 18.0123 11.1593 18.9262 11.1553H18.936C19.0595 11.1551 19.183 11.1612 19.306 11.1735C19.3912 11.1813 19.4042 11.1823 21.1933 11.1937C22.1382 11.1992 23.5553 11.2073 23.7784 11.2151C23.9361 11.2283 24.0948 11.2079 24.244 11.1553H25.4563C24.4371 11.5801 23.5839 12.3252 23.0259 13.278C22.789 13.7446 22.6833 14.2669 22.7203 14.7889C22.7573 15.311 22.9356 15.8131 23.236 16.2416C23.3446 16.3855 23.4851 16.5022 23.6463 16.5827C23.8595 17.5004 24.2726 18.3598 24.856 19.0995C25.0524 19.3338 25.3338 19.4807 25.6384 19.5079C25.9429 19.5351 26.2459 19.4404 26.4807 19.2447C26.7156 19.0489 26.8633 18.768 26.8915 18.4635C26.9196 18.159 26.8258 17.8558 26.6308 17.6203C26.5976 17.5784 25.3912 16.0598 26.0364 14.6994C26.3973 13.9381 27.7565 12.455 32.8278 11.671C36.255 11.2935 39.7017 11.1213 43.1494 11.1553H315.618C319.066 11.1213 322.512 11.2935 325.939 11.671C331.011 12.455 332.37 13.9381 332.731 14.6994C333.376 16.0598 332.17 17.5784 332.137 17.6203C331.941 17.8558 331.846 18.1595 331.874 18.4647C331.902 18.7699 332.05 19.0515 332.285 19.2477C332.52 19.4438 332.824 19.5384 333.129 19.5106C333.435 19.4829 333.716 19.335 333.912 19.0995C334.495 18.3595 334.908 17.5002 335.121 16.5827C335.283 16.5022 335.423 16.3855 335.532 16.2416C335.832 15.813 336.01 15.3109 336.047 14.7889C336.084 14.2669 335.979 13.7447 335.742 13.278C335.184 12.3252 334.331 11.5801 333.311 11.1553H334.524C334.673 11.208 334.832 11.2283 334.989 11.2151C335.212 11.2073 336.629 11.1992 337.574 11.1937C339.363 11.1823 339.376 11.1813 339.461 11.1735C339.584 11.1612 339.708 11.1551 339.832 11.1553H339.841C340.755 11.1592 341.638 11.4875 342.332 12.0817C343.027 12.6758 343.488 13.4972 343.633 14.3996C343.7 14.8157 343.673 15.2415 343.555 15.6461C343.437 16.0507 343.231 16.424 342.951 16.7391C343.351 16.1511 343.511 15.4318 343.397 14.7296C343.261 13.8906 342.798 13.1396 342.11 12.641C341.422 12.1424 340.564 11.9369 339.724 12.0693C338.75 12.2251 337.878 12.7614 337.299 13.5603C336.72 14.3592 336.483 15.3553 336.638 16.3294C336.823 17.4704 337.452 18.4918 338.388 19.1698C339.324 19.8477 340.491 20.127 341.633 19.9463C342.984 19.7287 344.193 18.9842 344.996 17.8759C345.799 16.7677 346.129 15.3863 345.915 14.0347C345.786 13.2301 345.499 12.4591 345.069 11.7664C344.64 11.0738 344.078 10.4734 343.414 9.99996ZM341.029 15.4563C340.953 15.5604 340.839 15.6302 340.712 15.6505C340.562 15.6744 340.419 15.7276 340.289 15.8071C340.16 15.8865 340.048 15.9907 339.959 16.1136C339.87 16.2365 339.806 16.3757 339.771 16.5233C339.735 16.671 339.73 16.8241 339.754 16.9739C339.778 17.1315 339.836 17.2822 339.923 17.4161C339.658 17.2642 339.431 17.0549 339.257 16.8036C339.084 16.5523 338.969 16.2654 338.921 15.9639C338.892 15.7814 338.899 15.5948 338.942 15.415C338.985 15.2351 339.063 15.0654 339.171 14.9157C339.28 14.766 339.416 14.6391 339.574 14.5423C339.732 14.4456 339.907 14.3808 340.089 14.3517C340.324 14.3148 340.563 14.3721 340.755 14.5112C340.947 14.6503 341.077 14.8599 341.115 15.0941C341.125 15.1571 341.123 15.2216 341.108 15.2837C341.093 15.3459 341.066 15.4045 341.029 15.4563ZM17.6528 15.0941C17.6909 14.8599 17.8202 14.6503 18.0124 14.5112C18.2046 14.3721 18.4441 14.3147 18.6784 14.3517C18.861 14.3808 19.0361 14.4456 19.1936 14.5424C19.3512 14.6392 19.4881 14.7661 19.5967 14.9158C19.7052 15.0655 19.7831 15.2351 19.8261 15.4149C19.8691 15.5948 19.8762 15.7813 19.847 15.9639C19.7989 16.2654 19.6839 16.5523 19.5105 16.8036C19.3371 17.0548 19.1097 17.2641 18.8449 17.4161C18.9488 17.2546 19.0108 17.0698 19.0253 16.8784C19.0397 16.6869 19.0063 16.4949 18.9279 16.3196C18.8495 16.1444 18.7287 15.9914 18.5764 15.8746C18.424 15.7577 18.245 15.6807 18.0554 15.6505C17.9923 15.6405 17.9319 15.6182 17.8775 15.5849C17.8231 15.5515 17.7758 15.5077 17.7384 15.456C17.701 15.4043 17.6742 15.3457 17.6595 15.2836C17.6448 15.2214 17.6425 15.157 17.6528 15.0941ZM17.7386 4.54365C17.8144 4.43955 17.9283 4.36971 18.0554 4.34946C18.245 4.31922 18.424 4.24219 18.5764 4.12536C18.7287 4.00852 18.8495 3.85556 18.9279 3.68029C19.0063 3.50503 19.0397 3.31299 19.0253 3.12155C19.0108 2.93011 18.9488 2.7453 18.8449 2.58383C19.1097 2.7358 19.3371 2.94509 19.5105 3.19636C19.6839 3.44763 19.7989 3.73452 19.847 4.036C19.8762 4.21859 19.8691 4.40513 19.8261 4.58497C19.7831 4.76481 19.7052 4.93443 19.5967 5.08414C19.4881 5.23385 19.3512 5.36071 19.1936 5.45749C19.0361 5.55427 18.861 5.61907 18.6784 5.64819C18.4441 5.68517 18.2046 5.62783 18.0124 5.48872C17.8202 5.34961 17.6909 5.14004 17.6528 4.90586C17.6424 4.84281 17.6447 4.77833 17.6594 4.71616C17.6742 4.65399 17.7011 4.59534 17.7386 4.54365ZM341.115 4.90586C341.077 5.14003 340.947 5.34959 340.755 5.4887C340.563 5.62782 340.324 5.68516 340.089 5.64819C339.907 5.61913 339.732 5.55436 339.574 5.45758C339.416 5.36081 339.28 5.23393 339.171 5.0842C339.063 4.93447 338.985 4.76482 338.942 4.58496C338.899 4.40511 338.892 4.21856 338.921 4.036C338.969 3.73451 339.084 3.44758 339.257 3.19628C339.431 2.94499 339.658 2.73571 339.923 2.58383C339.836 2.71775 339.778 2.8684 339.754 3.02602C339.73 3.17586 339.735 3.32897 339.771 3.47658C339.806 3.6242 339.87 3.76344 339.959 3.88634C340.048 4.00924 340.16 4.1134 340.289 4.19286C340.419 4.27233 340.562 4.32554 340.712 4.34946C340.775 4.3594 340.836 4.3817 340.89 4.41508C340.945 4.44846 340.992 4.49226 341.029 4.54397C341.067 4.59567 341.093 4.65426 341.108 4.71637C341.123 4.77847 341.125 4.84287 341.115 4.90586Z" fill="#C2B5A6"/>
<path d="M349.243 11.5992C348.927 11.5992 348.618 11.5054 348.355 11.3297C348.092 11.154 347.887 10.9042 347.766 10.612C347.645 10.3198 347.613 9.99824 347.675 9.68802C347.737 9.3778 347.889 9.09285 348.113 8.86919C348.336 8.64553 348.621 8.49321 348.931 8.4315C349.242 8.36979 349.563 8.40145 349.855 8.52249C350.148 8.64353 350.397 8.8485 350.573 9.11149C350.749 9.37448 350.843 9.68368 350.843 9.99997C350.843 10.21 350.801 10.418 350.721 10.612C350.641 10.806 350.523 10.9823 350.374 11.1308C350.226 11.2794 350.049 11.3972 349.855 11.4775C349.661 11.5579 349.453 11.5992 349.243 11.5992Z" fill="#C2B5A6"/>
<path d="M353.913 10.9888C353.717 10.9889 353.526 10.931 353.363 10.8223C353.201 10.7137 353.074 10.5593 352.999 10.3786C352.924 10.1979 352.904 9.9991 352.943 9.80726C352.981 9.61542 353.075 9.43919 353.213 9.30086C353.351 9.16253 353.528 9.06831 353.719 9.03013C353.911 8.99195 354.11 9.01151 354.291 9.08635C354.472 9.16118 354.626 9.28793 354.735 9.45055C354.843 9.61318 354.901 9.80438 354.901 9.99997C354.901 10.2622 354.797 10.5136 354.612 10.699C354.426 10.8844 354.175 10.9887 353.913 10.9888Z" fill="#C2B5A6"/>
<path d="M358.126 10.6425C357.999 10.6426 357.874 10.6049 357.769 10.5343C357.663 10.4637 357.581 10.3633 357.532 10.2459C357.483 10.1285 357.471 9.99933 357.496 9.87469C357.52 9.75004 357.582 9.63555 357.671 9.54568C357.761 9.45582 357.876 9.39462 358 9.36982C358.125 9.34502 358.254 9.35774 358.372 9.40636C358.489 9.45499 358.589 9.53734 358.66 9.643C358.731 9.74866 358.768 9.87289 358.768 9.99997C358.768 10.1703 358.7 10.3337 358.58 10.4542C358.459 10.5746 358.296 10.6424 358.126 10.6425Z" fill="#C2B5A6"/>
<path d="M9.52425 11.5992C9.20793 11.5993 8.89867 11.5056 8.6356 11.33C8.37252 11.1543 8.16744 10.9046 8.0463 10.6124C7.92516 10.3202 7.8934 9.99865 7.95503 9.68839C8.01666 9.37813 8.16891 9.09312 8.39254 8.8694C8.61617 8.64568 8.90112 8.4933 9.21135 8.43154C9.52158 8.36978 9.84317 8.40141 10.1354 8.52243C10.4277 8.64345 10.6775 8.84843 10.8532 9.11143C11.029 9.37443 11.1228 9.68365 11.1228 9.99997C11.1227 10.424 10.9543 10.8306 10.6546 11.1305C10.3548 11.4303 9.94825 11.5989 9.52425 11.5992Z" fill="#C2B5A6"/>
<path d="M4.85476 10.9888C4.65919 10.9888 4.46804 10.9307 4.30547 10.822C4.14289 10.7133 4.0162 10.5589 3.9414 10.3782C3.86661 10.1975 3.84707 9.99865 3.88527 9.80686C3.92346 9.61506 4.01766 9.43889 4.15597 9.30063C4.29428 9.16236 4.47048 9.06821 4.66229 9.03008C4.8541 8.99195 5.05291 9.01156 5.23358 9.08641C5.41425 9.16126 5.56868 9.288 5.67732 9.45061C5.78597 9.61322 5.84395 9.80439 5.84396 9.99996C5.844 10.1299 5.81844 10.2585 5.76874 10.3785C5.71904 10.4985 5.64617 10.6076 5.5543 10.6994C5.46243 10.7912 5.35337 10.8641 5.23333 10.9137C5.1133 10.9634 4.98466 10.9889 4.85476 10.9888Z" fill="#C2B5A6"/>
<path d="M0.641907 10.6425C0.514853 10.6424 0.390688 10.6046 0.285107 10.534C0.179526 10.4633 0.0972688 10.3629 0.0487325 10.2455C0.000196211 10.128 -0.0124399 9.99887 0.0124213 9.87428C0.0372825 9.74968 0.098525 9.63525 0.188408 9.54545C0.27829 9.45565 0.392778 9.39452 0.517399 9.36977C0.64202 9.34503 0.77118 9.35778 0.888552 9.40643C1.00592 9.45507 1.10624 9.53742 1.17682 9.64307C1.2474 9.74872 1.28507 9.87292 1.28508 9.99997C1.28508 10.0844 1.26845 10.168 1.23612 10.246C1.20379 10.324 1.15641 10.3949 1.09667 10.4546C1.03694 10.5142 0.966032 10.5616 0.888 10.5938C0.809967 10.6261 0.726343 10.6426 0.641907 10.6425Z" fill="#C2B5A6"/>
</g>
</svg>
