<svg width="89" height="63" viewBox="0 0 89 63" fill="none" xmlns="http://www.w3.org/2000/svg">
<g filter="url(#filter0_d_325_2228)">
<path d="M84.973 1.66247e-06L0 0V58H78.4011C78.3862 57.5834 78.3173 57.1701 78.1957 56.7692C78.1198 56.214 78.2182 55.4276 77.8653 54.9978C77.5503 54.6141 77.1091 54.4854 76.8766 54.0247C76.7764 53.8262 76.7791 53.5811 76.6827 53.3962C76.5444 53.1852 76.3849 52.9872 76.2066 52.8047C75.8743 52.3537 75.6961 51.8182 75.6957 51.2695C75.6491 50.7042 75.8555 49.9721 75.3486 49.5401C75.0879 49.3181 74.6671 49.242 74.4313 48.9816C73.9856 48.4894 74.215 48.0152 74.1884 47.3825C74.1958 47.444 74.1851 47.5063 74.1577 47.5625C74.1302 47.6188 74.0869 47.6669 74.0324 47.7018C73.5753 47.7211 73.5583 46.8649 73.3839 46.5966C73.299 46.4661 73.0977 46.4164 73.0376 46.2901C72.9088 46.0193 72.9891 45.7597 72.8436 45.484C72.718 45.2389 72.606 44.9879 72.5081 44.732C72.4333 44.5458 72.2991 44.1804 72.1373 43.8553V40.5692C72.5154 40.3183 72.9204 40.1056 73.3458 39.9344C73.0038 39.6846 73.2735 39.6288 73.3095 39.3967C73.3635 39.0485 73.2979 38.7982 73.5041 38.5051C73.776 38.1186 74.1538 38.0666 74.5814 37.9169C75.0567 37.7505 75.1187 37.5316 75.3299 37.0789C75.5717 36.5883 75.7049 36.0567 75.7214 35.5162C75.6988 35.0888 75.6157 34.6661 75.4743 34.2594C75.4037 33.9389 75.4232 33.6066 75.531 33.2954C75.6388 32.9842 75.831 32.7048 76.0888 32.4849C76.421 32.1735 76.6461 31.7754 76.735 31.3423C76.8449 29.8873 75.1448 30.2539 74.3946 29.4672C74.2465 29.2651 74.1339 29.0419 74.061 28.8062C74.0176 28.6539 73.965 28.504 73.9035 28.3573C73.8103 28.2393 73.694 28.1392 73.5608 28.0621C73.4019 27.575 74.2048 27.5172 74.3485 27.179C74.4816 26.8657 74.2393 26.7294 74.183 26.4732C74.1154 26.1659 74.2162 25.8587 73.8172 25.6879C73.5817 25.5871 73.2628 25.6993 73.0136 25.6682C73.0828 25.3166 73.2448 24.9869 73.4846 24.7094C73.7244 24.4319 74.0344 24.2154 74.3863 24.0798C74.7324 23.9274 75.2474 23.9392 75.5611 23.7781C75.8214 23.6095 76.0212 23.3705 76.134 23.0928C76.4968 22.5217 76.7955 21.9166 77.0251 21.2874C77.1461 20.8909 77.0461 20.677 77.6032 20.4942C77.8275 20.4484 78.0559 20.4225 78.2854 20.4167C78.5716 20.3056 78.8679 20.2194 79.1708 20.159C79.4248 20.1827 79.6812 20.1522 79.921 20.0699C79.9617 19.6091 79.9648 19.1461 79.9303 18.6848C79.9472 18.2457 79.8862 17.8071 79.7497 17.3868C79.6625 17.1985 79.5974 17.0017 79.5555 16.8001C79.5312 15.7922 80.6374 15.1003 80.6322 14.1284C80.6288 13.4841 80.0749 12.7998 79.784 12.245C79.526 11.7531 79.4454 11.7636 78.9063 11.5627C78.4657 11.4454 78.0376 11.2897 77.6277 11.0977C77.0421 10.7157 77.2684 10.049 77.2125 9.50534C76.7036 9.42984 76.12 9.6715 75.6282 9.44898C75.3649 9.29847 75.1624 9.06985 75.0525 8.79916C75.0405 8.70261 75.0109 8.6087 74.9652 8.52152C74.8361 8.35591 74.6806 8.21011 74.504 8.08929C74.3522 7.7352 74.3519 7.3396 74.5032 6.9853C75.4245 6.6866 76.4572 6.87875 77.3904 6.96116C77.4501 6.75195 77.6484 6.58848 77.7016 6.38421C77.7885 6.05021 77.6139 5.8337 77.5798 5.51598C77.5617 5.32509 77.5899 5.13282 77.6621 4.95363C77.7344 4.77444 77.849 4.61299 77.9972 4.48143C78.2614 4.33638 78.7028 4.4355 78.9784 4.44325C80.3301 4.48131 80.9349 2.66401 81.6834 1.81644C82.1679 1.26778 82.2485 1.39825 82.9919 1.42166C83.6602 1.47444 84.3322 1.47154 85 1.41301C84.9961 0.942207 84.9731 0.471867 84.973 1.66247e-06Z" fill="#DEC09C"/>
</g>
<defs>
<filter id="filter0_d_325_2228" x="0" y="0" width="89" height="63" filterUnits="userSpaceOnUse" color-interpolation-filters="sRGB">
<feFlood flood-opacity="0" result="BackgroundImageFix"/>
<feColorMatrix in="SourceAlpha" type="matrix" values="0 0 0 0 0 0 0 0 0 0 0 0 0 0 0 0 0 0 127 0" result="hardAlpha"/>
<feOffset dx="2" dy="3"/>
<feGaussianBlur stdDeviation="1"/>
<feComposite in2="hardAlpha" operator="out"/>
<feColorMatrix type="matrix" values="0 0 0 0 0 0 0 0 0 0 0 0 0 0 0 0 0 0 0.4 0"/>
<feBlend mode="normal" in2="BackgroundImageFix" result="effect1_dropShadow_325_2228"/>
<feBlend mode="normal" in="SourceGraphic" in2="effect1_dropShadow_325_2228" result="shape"/>
</filter>
</defs>
</svg>
