<svg width="560" height="3" viewBox="0 0 560 3" fill="none" xmlns="http://www.w3.org/2000/svg">
<path opacity="0.9" d="M165.717 1.99991C179.571 1.94806 193.635 1.99991 207.488 1.99991C278.079 2.00221 326.267 1.95744 395.424 1.95745C402.143 1.95745 408.813 1.83614 415.509 1.78321C422.45 1.72905 429.375 1.87038 436.28 1.87038C463.541 1.87038 490.625 1.60652 518.913 1.56528C525.472 1.55587 532.253 1.64654 539.23 1.60892C546.07 1.57358 553.011 1.54768 560 1.52175M517.086 1C489.475 1.24493 461.743 0.898683 433.999 1.13072C406.78 1.35912 379.394 1.33804 352.051 1.39218C338.34 1.4192 324.623 1.26024 310.967 1.26145C297.231 1.26145 304.024 1.35215 290.35 1.39218C262.618 1.47226 234.744 1.34851 206.808 1.34743C179.2 1.34743 151.493 1.47815 123.946 1.47925C96.3815 1.47925 68.4582 1.34031 40.8559 1.52169C27.2003 1.61118 13.5815 1.52169 0 1.52169" stroke="#C2B5A6"/>
</svg>
