<svg width="149" height="149" viewBox="0 0 149 149" fill="none" xmlns="http://www.w3.org/2000/svg">
<g opacity="0.9">
<path d="M149 5C149 4.44771 148.552 4 148 4C147.448 4 147 4.44771 147 5C147 5.55229 147.448 6 148 6C148.552 6 149 5.55229 149 5Z" fill="#C2B5A6"/>
<path d="M5 147C4.44772 147 4 147.448 4 148C4 148.552 4.44772 149 5 149C5.55228 149 6 148.552 6 148C6 147.448 5.55228 147 5 147Z" fill="#C2B5A6"/>
<path d="M149 1C149 0.447708 148.552 0 148 0C147.448 0 147 0.447708 147 1C147 1.55229 147.448 2 148 2C148.552 2 149 1.55229 149 1Z" fill="#C2B5A6"/>
<path d="M1 147C0.447715 147 -2.41411e-08 147.448 0 148C2.41411e-08 148.552 0.447715 149 1 149C1.55228 149 2 148.552 2 148C2 147.448 1.55228 147 1 147Z" fill="#C2B5A6"/>
<path d="M88.6964 147.982L10.0289 146.964C9.75936 146.961 9.49966 147.065 9.30678 147.253C9.1139 147.442 9.0036 147.699 9.00009 147.969C8.99657 148.238 9.10014 148.498 9.28805 148.692C9.47595 148.885 9.73285 148.996 10.0024 149H10.0289L88.6964 147.982Z" fill="#C2B5A6"/>
<path d="M138.455 134.799C135.86 132.203 132.013 131.842 132.013 131.842C132.013 131.842 132.374 135.691 134.969 138.287C137.563 140.884 141.41 141.244 141.41 141.244C141.41 141.244 141.05 137.396 138.455 134.799Z" fill="#C2B5A6"/>
<path d="M130.898 136.058C130.898 136.058 130.937 136.235 130.971 136.553C131.022 136.987 131.046 137.424 131.045 137.861C131.04 138.467 130.99 139.072 130.894 139.67C130.833 139.994 130.778 140.325 130.688 140.653C130.611 140.986 130.512 141.312 130.392 141.631C130.276 141.949 130.133 142.256 129.965 142.55C129.808 142.842 129.616 143.109 129.49 143.391C129.362 143.674 129.212 143.935 129.117 144.213C129.025 144.493 128.889 144.734 128.801 144.986C128.702 145.231 128.644 145.486 128.549 145.686C128.468 145.896 128.401 146.087 128.352 146.254C128.295 146.435 128.249 146.619 128.214 146.806L128.213 146.814C128.21 146.829 128.211 146.845 128.214 146.86C128.217 146.875 128.224 146.89 128.233 146.902C128.242 146.915 128.253 146.926 128.266 146.934C128.28 146.943 128.294 146.948 128.31 146.951C128.326 146.953 128.343 146.953 128.359 146.948C128.542 146.895 128.72 146.826 128.893 146.744C129.089 146.654 129.281 146.553 129.467 146.443C129.702 146.299 129.923 146.132 130.125 145.944C130.377 145.736 130.605 145.501 130.804 145.241C131.033 144.957 131.23 144.649 131.394 144.323C131.55 143.964 131.671 143.591 131.754 143.209C131.82 142.812 131.929 142.428 131.97 142.028C132.211 140.609 132.141 139.154 131.763 137.764C131.615 137.146 131.388 136.548 131.089 135.987L131.086 135.984C131.074 135.962 131.055 135.946 131.032 135.938C131.008 135.93 130.983 135.931 130.961 135.94C130.938 135.949 130.919 135.966 130.908 135.987C130.896 136.009 130.893 136.034 130.898 136.058Z" fill="#C2B5A6"/>
<path d="M147.982 88.7446L149 10.0312C149.002 9.89751 148.977 9.76479 148.927 9.64061C148.878 9.51643 148.804 9.40326 148.711 9.30751C148.618 9.21176 148.507 9.13533 148.384 9.08258C148.261 9.02983 148.129 9.0018 147.996 9.00008C147.862 8.99835 147.729 9.02298 147.605 9.07256C147.481 9.12213 147.368 9.19568 147.272 9.28899C147.177 9.38229 147.1 9.49356 147.048 9.61641C146.995 9.73926 146.967 9.87131 146.965 10.005V10.0312L147.982 88.7446Z" fill="#C2B5A6"/>
<path d="M135.995 131.161C136.555 131.461 137.153 131.688 137.771 131.836C139.16 132.214 140.614 132.284 142.032 132.043C142.432 132.002 142.816 131.893 143.212 131.827C143.594 131.744 143.967 131.623 144.325 131.467C144.651 131.303 144.959 131.105 145.244 130.877C145.502 130.677 145.738 130.449 145.946 130.197C146.134 129.995 146.301 129.774 146.444 129.539C146.554 129.352 146.655 129.161 146.745 128.964C146.828 128.792 146.896 128.613 146.949 128.43C146.954 128.411 146.954 128.391 146.949 128.372C146.945 128.353 146.935 128.335 146.922 128.32C146.909 128.306 146.892 128.295 146.873 128.288C146.855 128.282 146.835 128.28 146.815 128.283L146.807 128.285C146.621 128.32 146.436 128.366 146.255 128.423C146.088 128.472 145.897 128.539 145.688 128.621C145.488 128.715 145.232 128.773 144.988 128.872C144.737 128.961 144.495 129.096 144.216 129.189C143.938 129.283 143.677 129.434 143.395 129.561C143.112 129.687 142.846 129.88 142.554 130.037C142.26 130.205 141.953 130.348 141.636 130.464C141.317 130.584 140.99 130.683 140.658 130.76C140.329 130.85 139.999 130.905 139.676 130.967C139.078 131.062 138.473 131.112 137.868 131.117C137.431 131.118 136.994 131.094 136.56 131.043C136.242 131.009 136.065 130.97 136.065 130.97C136.041 130.965 136.016 130.969 135.995 130.98C135.973 130.992 135.957 131.01 135.948 131.033C135.939 131.056 135.938 131.081 135.946 131.104C135.954 131.127 135.97 131.146 135.991 131.159L135.995 131.161Z" fill="#C2B5A6"/>
<path d="M145.342 14.6049C145.342 14.6049 145.224 27.9908 145.045 48.07C144.963 58.1099 144.869 69.8233 144.767 82.3731C144.724 88.6481 144.679 95.1327 144.632 101.722C144.609 105.017 144.586 108.333 144.563 111.671C144.542 113.328 144.584 115.031 144.407 116.653C144.188 118.19 143.661 119.666 142.856 120.993C142.037 122.333 140.95 123.489 139.663 124.387C138.382 125.315 136.961 126.032 135.453 126.509C132.432 127.488 129.207 127.661 126.099 127.009C124.634 126.655 123.249 126.027 122.017 125.158C120.791 124.288 119.736 123.2 118.904 121.948C117.274 119.483 116.607 116.504 117.031 113.579L117.123 112.999C117.157 112.811 117.211 112.672 117.25 112.506L117.382 112.025L117.567 111.534C118.192 109.934 119.242 108.536 120.603 107.49C121.965 106.444 123.586 105.79 125.292 105.599C125.622 105.557 125.954 105.563 126.284 105.537C126.615 105.536 126.945 105.567 127.275 105.577C127.509 105.608 127.996 105.667 128.263 105.738C128.56 105.806 128.852 105.894 129.138 106.001C130.306 106.433 131.348 107.152 132.166 108.091C132.985 109.031 133.554 110.161 133.822 111.378C134.077 112.536 134.043 113.739 133.723 114.88C133.386 115.959 132.742 116.916 131.871 117.636C131.06 118.319 130.076 118.765 129.027 118.924C127.979 119.082 126.907 118.948 125.93 118.535C125.047 118.107 124.319 117.413 123.851 116.549C123.63 116.132 123.47 115.686 123.375 115.223C123.33 114.996 123.303 114.766 123.294 114.534C123.282 114.42 123.281 114.305 123.29 114.191L123.3 113.934L123.302 113.891C123.303 113.865 123.285 113.972 123.298 113.904C123.347 113.654 123.396 113.405 123.444 113.159C123.506 112.935 123.603 112.785 123.671 112.592C123.758 112.402 123.867 112.222 123.994 112.056C124.106 111.879 124.244 111.718 124.403 111.58C124.979 111.003 125.727 110.63 126.534 110.517C126.727 110.496 126.921 110.488 127.115 110.493L127.259 110.489L127.332 110.487L127.368 110.486C127.421 110.493 127.336 110.475 127.359 110.48L127.982 110.598C128.066 110.622 128.146 110.654 128.224 110.692C128.386 110.746 128.539 110.821 128.681 110.915C129.276 111.265 129.729 111.813 129.96 112.464C130.017 112.616 130.058 112.773 130.084 112.932C130.127 113.085 130.145 113.243 130.136 113.402C130.146 113.548 130.144 113.696 130.131 113.842C130.097 114.003 130.076 114.18 130.032 114.32C129.863 114.836 129.526 115.281 129.074 115.582C128.68 115.861 128.209 116.011 127.727 116.01C127.624 116.017 127.521 116.016 127.418 116.007C127.304 115.987 127.194 115.967 127.087 115.947C126.91 115.896 126.741 115.821 126.585 115.724C126.346 115.58 126.14 115.388 125.98 115.16C125.82 114.931 125.71 114.672 125.656 114.399C125.623 114.207 125.607 114.013 125.61 113.819L125.408 113.796C125.389 114.01 125.392 114.226 125.417 114.439C125.46 114.756 125.568 115.061 125.735 115.334C125.903 115.606 126.125 115.841 126.389 116.022C126.577 116.155 126.784 116.261 127.003 116.335C127.109 116.361 127.218 116.388 127.33 116.416C127.46 116.44 127.592 116.45 127.724 116.448C128.299 116.475 128.867 116.325 129.354 116.017C129.947 115.665 130.397 115.115 130.625 114.463C130.684 114.296 130.708 114.141 130.752 113.976C130.786 113.785 130.801 113.59 130.798 113.396C130.816 113.204 130.804 113.01 130.763 112.821C130.74 112.623 130.699 112.427 130.639 112.237C130.389 111.407 129.855 110.692 129.132 110.214C128.939 110.074 128.728 109.959 128.504 109.874C128.395 109.821 128.283 109.775 128.168 109.736L127.551 109.587C127.522 109.581 127.493 109.577 127.463 109.576L127.419 109.574L127.151 109.563C126.91 109.545 126.667 109.546 126.426 109.565C125.398 109.671 124.432 110.109 123.674 110.813C123.467 110.986 123.282 111.186 123.126 111.407C122.949 111.624 122.797 111.859 122.671 112.109C122.542 112.373 122.429 112.643 122.332 112.92C122.275 113.164 122.217 113.411 122.159 113.659C122.151 113.694 122.145 113.73 122.142 113.766L122.13 113.925L122.112 114.138C122.098 114.28 122.094 114.424 122.102 114.567C122.103 114.858 122.127 115.148 122.173 115.436C122.27 116.025 122.452 116.598 122.714 117.135C123.276 118.267 124.179 119.193 125.296 119.784C126.515 120.371 127.877 120.599 129.221 120.441C130.565 120.283 131.836 119.746 132.887 118.892C134.023 117.991 134.874 116.78 135.336 115.405C135.776 113.985 135.855 112.477 135.564 111.019C135.259 109.488 134.574 108.059 133.572 106.863C132.57 105.667 131.283 104.742 129.831 104.173C128.296 103.617 126.656 103.413 125.032 103.574C123.408 103.735 121.84 104.258 120.444 105.105C118.241 106.393 116.536 108.387 115.606 110.766L115.378 111.367C115.311 111.577 115.257 111.798 115.196 112.014C115.143 112.227 115.071 112.46 115.035 112.658L114.939 113.238C114.453 116.689 115.262 120.198 117.211 123.086C119.202 126.049 122.26 128.13 125.746 128.894C129.172 129.557 132.712 129.315 136.016 128.191C137.688 127.633 139.26 126.811 140.672 125.756C142.126 124.704 143.347 123.363 144.26 121.817C145.172 120.271 145.755 118.554 145.973 116.772C146.136 115.067 146.072 113.419 146.074 111.745C146.06 108.409 146.045 105.091 146.03 101.79C146.002 95.1973 145.973 88.7092 145.945 82.4304C145.876 69.8723 145.812 58.1513 145.757 48.1048C145.63 28.0107 145.546 14.6149 145.546 14.6149L145.342 14.6049Z" fill="#C2B5A6"/>
<path d="M128.64 98.8034C128.64 98.8034 128.943 98.8969 129.473 99.0606C129.605 99.1017 129.751 99.147 129.911 99.1964C130.06 99.2574 130.221 99.3233 130.394 99.3939C130.779 99.5374 131.154 99.7093 131.514 99.9083C131.713 100.014 131.921 100.124 132.136 100.238C132.337 100.373 132.546 100.512 132.76 100.655C133.2 100.953 133.624 101.274 134.032 101.616C134.423 102.007 134.85 102.371 135.213 102.813C135.592 103.239 135.943 103.688 136.265 104.159C136.564 104.638 136.818 105.143 137.024 105.669C137.251 106.173 137.38 106.7 137.595 107.166C137.742 107.658 137.995 108.096 138.154 108.547C138.239 108.77 138.342 108.985 138.434 109.197C138.516 109.411 138.583 109.622 138.669 109.825C138.847 110.23 138.97 110.617 139.105 110.968C139.251 111.319 139.366 111.636 139.452 111.903C139.555 112.199 139.672 112.489 139.803 112.773L140.113 112.807C140.288 112.535 140.441 112.25 140.57 111.953C140.631 111.81 140.699 111.653 140.773 111.48C140.821 111.304 140.872 111.113 140.927 110.908C141.058 110.447 141.133 109.971 141.151 109.492C141.17 109.228 141.173 108.953 141.179 108.665C141.151 108.384 141.129 108.088 141.086 107.788C141.004 107.154 140.842 106.533 140.605 105.939C140.32 105.319 139.966 104.734 139.548 104.195C139.149 103.628 138.657 103.125 138.214 102.6C137.74 102.106 137.235 101.645 136.701 101.218C136.189 100.808 135.648 100.439 135.081 100.111C134.55 99.8185 134 99.5624 133.435 99.3449C133.166 99.2471 132.906 99.1522 132.652 99.0602C132.393 98.9933 132.142 98.9287 131.901 98.8664C131.465 98.7485 131.022 98.6625 130.574 98.6092C130.376 98.5804 130.191 98.5532 130.021 98.5281C129.854 98.5237 129.7 98.5196 129.562 98.5158C129.007 98.5029 128.691 98.4952 128.691 98.4952L128.64 98.8034Z" fill="#C2B5A6"/>
<path d="M141.936 100.435C141.936 100.435 141.967 100.376 142.026 100.266C142.102 100.108 142.167 99.9448 142.22 99.7777C142.301 99.5322 142.364 99.2811 142.408 99.0264C142.465 98.7097 142.494 98.3886 142.495 98.0668C142.504 97.696 142.477 97.3253 142.415 96.9596C142.359 96.5554 142.251 96.1601 142.095 95.7832C141.911 95.3862 141.686 95.0093 141.425 94.6585C141.161 94.2986 140.894 93.9324 140.627 93.5666C140.366 93.2008 140.101 92.8405 139.814 92.5038C139.281 91.864 138.696 91.2691 138.066 90.7253C137.799 90.4874 137.519 90.265 137.227 90.0592C136.956 89.8717 136.707 89.7 136.487 89.5475C136.254 89.417 136.051 89.303 135.883 89.2092C135.551 89.029 135.36 88.9259 135.36 88.9259L135.171 89.1738C135.171 89.1738 135.302 89.3408 135.53 89.633C135.644 89.7756 135.781 89.9486 135.939 90.1467C136.081 90.3551 136.242 90.5901 136.417 90.8466C136.609 91.1147 136.784 91.3941 136.942 91.6833C137.135 91.9919 137.311 92.3101 137.472 92.6367C137.651 92.9674 137.814 93.3194 137.975 93.6773C138.149 94.0268 138.296 94.397 138.439 94.7672C138.745 95.4996 138.824 96.323 139.083 97C139.346 97.6311 139.686 98.2276 140.094 98.7763C140.407 99.2128 140.752 99.6253 141.127 100.01C141.273 100.162 141.396 100.278 141.487 100.358C141.579 100.441 141.628 100.485 141.628 100.485L141.936 100.435Z" fill="#C2B5A6"/>
<path d="M14.8537 145.382C14.8537 145.382 28.2419 145.466 48.324 145.593C58.3651 145.648 70.0794 145.713 82.6303 145.782C88.9057 145.809 95.3898 145.838 101.979 145.867C105.273 145.881 108.59 145.896 111.928 145.911C113.601 145.909 115.249 145.973 116.952 145.81C118.733 145.591 120.45 145.008 121.995 144.095C123.54 143.182 124.88 141.96 125.932 140.506C126.986 139.092 127.807 137.519 128.364 135.846C129.488 132.541 129.73 128.999 129.067 125.571C128.303 122.083 126.224 119.023 123.262 117.031C120.376 115.08 116.869 114.271 113.42 114.758L112.84 114.854C112.643 114.89 112.41 114.961 112.197 115.015C111.981 115.075 111.76 115.129 111.55 115.197L110.949 115.426C108.572 116.355 106.579 118.061 105.292 120.266C104.445 121.663 103.922 123.231 103.761 124.856C103.6 126.481 103.805 128.122 104.36 129.657C104.929 131.111 105.853 132.398 107.049 133.401C108.244 134.403 109.673 135.089 111.202 135.394C112.66 135.685 114.167 135.607 115.586 135.166C116.96 134.704 118.171 133.853 119.071 132.716C119.924 131.664 120.461 130.392 120.619 129.047C120.777 127.702 120.549 126.34 119.962 125.12C119.372 124.003 118.446 123.099 117.315 122.536C116.778 122.275 116.206 122.093 115.616 121.995C115.329 121.949 115.039 121.926 114.748 121.924C114.605 121.917 114.462 121.92 114.319 121.935L114.001 121.96L113.948 121.964C113.912 121.968 113.876 121.974 113.841 121.982C113.593 122.04 113.347 122.097 113.103 122.155C112.826 122.252 112.555 122.365 112.292 122.494C112.042 122.62 111.807 122.772 111.59 122.949C111.369 123.106 111.17 123.29 110.996 123.498C110.293 124.256 109.856 125.222 109.75 126.251C109.73 126.492 109.729 126.735 109.748 126.977L109.755 127.155L109.758 127.244L109.76 127.289C109.762 127.318 109.765 127.348 109.771 127.377L109.921 127.994C109.959 128.109 110.005 128.221 110.058 128.33C110.143 128.554 110.257 128.765 110.397 128.959C110.875 129.682 111.591 130.216 112.42 130.467C112.61 130.526 112.805 130.568 113.003 130.591C113.192 130.631 113.386 130.643 113.578 130.625C113.772 130.629 113.966 130.613 114.157 130.579C114.323 130.536 114.478 130.511 114.645 130.453C115.296 130.225 115.846 129.774 116.198 129.181C116.505 128.694 116.656 128.125 116.628 127.55C116.631 127.418 116.62 127.286 116.596 127.156C116.568 127.044 116.542 126.935 116.515 126.829C116.441 126.61 116.336 126.403 116.203 126.214C116.022 125.95 115.787 125.728 115.515 125.56C115.242 125.392 114.938 125.284 114.621 125.242C114.408 125.217 114.192 125.214 113.978 125.233L114.001 125.435C114.195 125.431 114.389 125.447 114.58 125.481C114.853 125.534 115.112 125.645 115.341 125.805C115.569 125.965 115.761 126.171 115.904 126.41C116.001 126.567 116.076 126.735 116.128 126.912C116.147 127.02 116.167 127.13 116.188 127.243C116.197 127.346 116.198 127.45 116.191 127.553C116.191 128.036 116.042 128.507 115.763 128.901C115.461 129.353 115.017 129.69 114.502 129.859C114.361 129.903 114.184 129.924 114.023 129.958C113.877 129.971 113.73 129.973 113.584 129.963C113.425 129.972 113.267 129.955 113.115 129.911C112.955 129.885 112.798 129.844 112.647 129.787C111.996 129.556 111.448 129.103 111.098 128.507C111.004 128.366 110.929 128.212 110.876 128.05C110.838 127.972 110.806 127.892 110.782 127.809L110.723 127.498L110.664 127.185C110.658 127.161 110.677 127.246 110.67 127.193L110.671 127.157L110.673 127.085L110.676 126.94C110.672 126.747 110.68 126.553 110.701 126.36C110.814 125.552 111.187 124.803 111.763 124.226C111.901 124.068 112.061 123.93 112.239 123.818C112.405 123.691 112.584 123.582 112.774 123.494C112.968 123.426 113.117 123.329 113.341 123.267C113.587 123.219 113.836 123.17 114.086 123.121C114.153 123.109 114.047 123.127 114.072 123.125L114.372 123.113C114.487 123.104 114.602 123.106 114.716 123.117C114.947 123.126 115.177 123.153 115.404 123.198C115.867 123.293 116.313 123.453 116.73 123.674C117.592 124.143 118.286 124.871 118.714 125.755C119.127 126.732 119.261 127.805 119.102 128.854C118.944 129.903 118.498 130.887 117.815 131.699C117.096 132.57 116.14 133.214 115.062 133.552C113.921 133.872 112.719 133.906 111.561 133.651C110.345 133.383 109.215 132.813 108.276 131.994C107.337 131.175 106.619 130.133 106.187 128.964C106.08 128.679 105.992 128.387 105.924 128.089C105.854 127.822 105.795 127.335 105.763 127.101C105.753 126.771 105.722 126.44 105.724 126.109C105.75 125.779 105.744 125.446 105.785 125.116C105.936 123.774 106.372 122.48 107.066 121.322C108.127 119.522 109.767 118.135 111.717 117.387L112.208 117.201L112.688 117.071C112.854 117.03 112.993 116.977 113.181 116.943L113.761 116.85C116.684 116.427 119.661 117.094 122.125 118.725C123.376 119.557 124.464 120.613 125.334 121.839C126.202 123.072 126.83 124.458 127.184 125.924C127.835 129.034 127.662 132.26 126.683 135.283C126.206 136.791 125.49 138.214 124.563 139.496C123.665 140.784 122.51 141.872 121.17 142.69C119.844 143.496 118.369 144.024 116.833 144.243C115.212 144.42 113.509 144.378 111.853 144.398C108.522 144.421 105.207 144.444 101.911 144.468C95.3255 144.514 88.8447 144.559 82.5733 144.603C70.0303 144.705 58.3234 144.799 48.2896 144.881C28.222 145.06 14.8437 145.179 14.8437 145.179L14.8537 145.382Z" fill="#C2B5A6"/>
<path d="M98.6858 128.517C98.6858 128.517 98.6931 128.834 98.7064 129.388C98.7103 129.527 98.7143 129.68 98.7183 129.848C98.7435 130.019 98.7713 130.204 98.7998 130.401C98.853 130.85 98.9389 131.293 99.0568 131.729C99.119 131.97 99.1837 132.221 99.2508 132.481C99.3423 132.734 99.4376 132.995 99.535 133.264C99.977 134.448 100.609 135.551 101.406 136.532C101.833 137.066 102.295 137.572 102.788 138.045C103.313 138.49 103.816 138.981 104.382 139.38C104.92 139.799 105.506 140.153 106.126 140.438C106.719 140.676 107.339 140.837 107.973 140.919C108.274 140.962 108.569 140.984 108.85 141.012C109.138 141.007 109.412 141.003 109.675 140.985C110.155 140.967 110.63 140.892 111.092 140.761C111.296 140.705 111.487 140.654 111.664 140.606L112.136 140.403C112.432 140.273 112.718 140.121 112.99 139.947L112.956 139.636C112.672 139.505 112.382 139.387 112.086 139.285C111.819 139.198 111.502 139.084 111.151 138.938C110.8 138.802 110.414 138.679 110.009 138.501C109.807 138.416 109.596 138.347 109.381 138.266C109.169 138.174 108.955 138.07 108.732 137.986C108.28 137.826 107.843 137.574 107.351 137.426C106.886 137.211 106.359 137.081 105.855 136.855C105.33 136.649 104.824 136.394 104.346 136.095C103.876 135.774 103.426 135.422 103.001 135.043C102.56 134.68 102.196 134.253 101.804 133.861C101.463 133.454 101.143 133.029 100.845 132.589C100.701 132.374 100.563 132.166 100.428 131.964C100.314 131.749 100.203 131.541 100.098 131.342C99.899 130.982 99.7272 130.607 99.584 130.221C99.5131 130.049 99.4473 129.888 99.3866 129.738C99.337 129.579 99.2917 129.432 99.2508 129.3C99.0872 128.769 98.9938 128.466 98.9938 128.466L98.6858 128.517Z" fill="#C2B5A6"/>
<path d="M100.675 141.462C100.675 141.462 100.63 141.413 100.547 141.321C100.468 141.229 100.352 141.106 100.2 140.96C99.8151 140.586 99.4028 140.24 98.9667 139.927C98.4183 139.519 97.8222 139.179 97.1915 138.915C96.5152 138.657 95.6918 138.577 94.9599 138.271C94.5903 138.128 94.22 137.98 93.871 137.807C93.5132 137.645 93.1609 137.482 92.831 137.303C92.4879 137.14 92.1759 136.953 91.8778 136.773C91.5888 136.615 91.3095 136.439 91.0412 136.248C90.7855 136.072 90.5504 135.912 90.3417 135.77C90.1443 135.611 89.9708 135.474 89.8291 135.361L89.3693 135.001L89.1216 135.191C89.1216 135.191 89.225 135.381 89.4051 135.714C89.4992 135.882 89.6131 136.085 89.7429 136.319C89.8953 136.539 90.0675 136.787 90.2543 137.058C90.4601 137.35 90.6826 137.631 90.9207 137.898C91.1745 138.209 91.4484 138.502 91.7407 138.777C92.0393 139.089 92.3592 139.379 92.6979 139.647C93.0344 139.935 93.394 140.199 93.7597 140.46C94.1253 140.727 94.4916 140.995 94.8513 141.258C95.2017 141.52 95.5784 141.745 95.9753 141.93C96.352 142.086 96.7471 142.193 97.1511 142.249C97.5164 142.311 97.8868 142.338 98.2573 142.33C98.5789 142.329 98.8998 142.299 99.2164 142.242C99.471 142.198 99.722 142.135 99.9675 142.054C100.134 142.001 100.297 141.936 100.455 141.86C100.566 141.801 100.625 141.77 100.625 141.77L100.675 141.462Z" fill="#C2B5A6"/>
</g>
</svg>
