<svg width="149" height="149" viewBox="0 0 149 149" fill="none" xmlns="http://www.w3.org/2000/svg">
<g opacity="0.9">
<path d="M149 144C149 144.552 148.552 145 148 145C147.448 145 147 144.552 147 144C147 143.448 147.448 143 148 143C148.552 143 149 143.448 149 144Z" fill="#C2B5A6"/>
<path d="M5 2C4.44772 2 4 1.55228 4 1C4 0.447715 4.44772 -2.41411e-08 5 0C5.55228 2.41411e-08 6 0.447715 6 1C6 1.55228 5.55228 2 5 2Z" fill="#C2B5A6"/>
<path d="M149 148C149 148.552 148.552 149 148 149C147.448 149 147 148.552 147 148C147 147.448 147.448 147 148 147C148.552 147 149 147.448 149 148Z" fill="#C2B5A6"/>
<path d="M1 2C0.447715 2 -2.41411e-08 1.55228 0 1C2.41411e-08 0.447715 0.447715 -2.41411e-08 1 0C1.55228 2.41411e-08 2 0.447715 2 1C2 1.55228 1.55228 2 1 2Z" fill="#C2B5A6"/>
<path d="M88.6964 1.01801L10.0289 2.03602C9.75936 2.03903 9.49966 1.93492 9.30678 1.74655C9.1139 1.55817 9.0036 1.30092 9.00009 1.03125C8.99657 0.761588 9.10014 0.501546 9.28805 0.308204C9.47595 0.114862 9.73285 0.00401717 10.0024 4.37113e-08H10.0289L88.6964 1.01801Z" fill="#C2B5A6"/>
<path d="M138.455 14.2011C135.86 16.7971 132.013 17.1583 132.013 17.1583C132.013 17.1583 132.374 13.309 134.969 10.7129C137.563 8.11625 141.41 7.75567 141.41 7.75567C141.41 7.75567 141.05 11.6044 138.455 14.2011Z" fill="#C2B5A6"/>
<path d="M130.898 12.9422C130.898 12.9422 130.937 12.7649 130.971 12.4467C131.022 12.0126 131.046 11.5758 131.045 11.1388C131.04 10.5329 130.99 9.92813 130.894 9.32978C130.833 9.00632 130.778 8.67527 130.688 8.34686C130.611 8.01445 130.512 7.68761 130.392 7.36862C130.276 7.05077 130.133 6.74353 129.965 6.45038C129.808 6.15773 129.616 5.89129 129.49 5.60862C129.362 5.32629 129.212 5.06521 129.117 4.78715C129.025 4.50747 128.889 4.26553 128.801 4.01367C128.702 3.76948 128.644 3.5143 128.549 3.31416C128.468 3.10438 128.401 2.9132 128.352 2.74618C128.295 2.56499 128.249 2.38065 128.214 2.19408L128.213 2.18614C128.21 2.17079 128.211 2.15505 128.214 2.13984C128.217 2.12463 128.224 2.11025 128.233 2.09752C128.242 2.08479 128.253 2.07397 128.266 2.06569C128.28 2.0574 128.294 2.05182 128.31 2.04925C128.326 2.0467 128.343 2.04748 128.359 2.05156C128.542 2.10521 128.72 2.17359 128.893 2.25604C129.089 2.3463 129.281 2.44663 129.467 2.55663C129.702 2.70081 129.923 2.86797 130.125 3.05566C130.377 3.2637 130.605 3.49949 130.804 3.75856C131.033 4.0429 131.23 4.35083 131.394 4.67714C131.55 5.03574 131.671 5.40892 131.754 5.79125C131.82 6.18793 131.929 6.57233 131.97 6.9716C132.211 8.39107 132.141 9.84612 131.763 11.2356C131.615 11.8543 131.388 12.4517 131.089 13.0131L131.086 13.0164C131.074 13.0375 131.055 13.0535 131.032 13.0615C131.008 13.0695 130.983 13.069 130.961 13.06C130.938 13.051 130.919 13.0342 130.908 13.0126C130.896 12.991 130.893 12.966 130.898 12.9422Z" fill="#C2B5A6"/>
<path d="M147.982 60.2554L149 138.969C149.002 139.102 148.977 139.235 148.927 139.359C148.878 139.484 148.804 139.597 148.711 139.692C148.618 139.788 148.507 139.865 148.384 139.917C148.261 139.97 148.129 139.998 147.996 140C147.862 140.002 147.729 139.977 147.605 139.927C147.481 139.878 147.368 139.804 147.272 139.711C147.177 139.618 147.1 139.506 147.048 139.384C146.995 139.261 146.967 139.129 146.965 138.995V138.969L147.982 60.2554Z" fill="#C2B5A6"/>
<path d="M135.995 17.839C136.555 17.5388 137.153 17.312 137.771 17.1643C139.16 16.7864 140.614 16.7155 142.032 16.9565C142.432 16.998 142.816 17.1066 143.212 17.1733C143.594 17.2563 143.967 17.3768 144.325 17.5332C144.651 17.697 144.959 17.8947 145.244 18.123C145.502 18.3228 145.738 18.5508 145.946 18.8027C146.134 19.0052 146.301 19.2259 146.444 19.4615C146.554 19.6477 146.655 19.8393 146.745 20.0358C146.828 20.2079 146.896 20.3866 146.949 20.57C146.954 20.5891 146.954 20.6091 146.949 20.6282C146.945 20.6474 146.935 20.665 146.922 20.6796C146.909 20.6942 146.892 20.7052 146.873 20.7117C146.855 20.7182 146.835 20.7199 146.815 20.7168L146.807 20.7151C146.621 20.6797 146.436 20.6336 146.255 20.5769C146.088 20.5282 145.897 20.4609 145.688 20.3794C145.488 20.2849 145.232 20.2273 144.988 20.1275C144.737 20.0394 144.495 19.9035 144.216 19.8114C143.938 19.7166 143.677 19.5665 143.395 19.4386C143.112 19.3126 142.846 19.1201 142.554 18.9631C142.26 18.7948 141.953 18.652 141.636 18.5362C141.317 18.4159 140.99 18.317 140.658 18.2403C140.329 18.1495 139.999 18.0945 139.676 18.0332C139.078 17.9379 138.473 17.8876 137.868 17.8828C137.431 17.8816 136.994 17.9064 136.56 17.957C136.242 17.9911 136.065 18.0299 136.065 18.0299C136.041 18.035 136.016 18.0314 135.995 18.0199C135.973 18.0084 135.957 17.9896 135.948 17.9669C135.939 17.9443 135.938 17.9192 135.946 17.8961C135.954 17.873 135.97 17.8535 135.991 17.841L135.995 17.839Z" fill="#C2B5A6"/>
<path d="M145.342 134.395C145.342 134.395 145.224 121.009 145.045 100.93C144.963 90.8901 144.869 79.1767 144.767 66.6269C144.724 60.3519 144.679 53.8673 144.632 47.2781C144.609 43.9835 144.586 40.6672 144.563 37.3293C144.542 35.6724 144.584 33.9687 144.407 32.347C144.188 30.8102 143.661 29.3337 142.856 28.0069C142.037 26.6667 140.95 25.511 139.663 24.6128C138.382 23.6848 136.961 22.9684 135.453 22.4909C132.432 21.5115 129.207 21.3392 126.099 21.9909C124.634 22.3447 123.249 22.9727 122.017 23.8417C120.791 24.7116 119.736 25.7999 118.904 27.0521C117.274 29.5171 116.607 32.4956 117.031 35.4205L117.123 36.0011C117.157 36.189 117.211 36.3282 117.25 36.4942L117.382 36.975L117.567 37.4659C118.192 39.0656 119.242 40.464 120.603 41.5101C121.965 42.5562 123.586 43.2101 125.292 43.4013C125.622 43.4427 125.954 43.437 126.284 43.4629C126.615 43.4639 126.945 43.4334 127.275 43.4231C127.509 43.3916 127.996 43.3326 128.263 43.2621C128.56 43.1942 128.852 43.1062 129.138 42.9986C130.306 42.5669 131.348 41.8483 132.166 40.9088C132.985 39.9693 133.554 38.8391 133.822 37.6219C134.077 36.4641 134.043 35.2611 133.723 34.1195C133.386 33.0408 132.742 32.0835 131.871 31.3644C131.06 30.6809 130.076 30.2351 129.027 30.0764C127.979 29.9177 126.907 30.0522 125.93 30.465C125.047 30.8929 124.319 31.5874 123.851 32.4507C123.63 32.8678 123.47 33.3142 123.375 33.7765C123.33 34.0037 123.303 34.2341 123.294 34.4655C123.282 34.5797 123.281 34.6947 123.29 34.8091L123.3 35.0663L123.302 35.109C123.303 35.1352 123.285 35.0282 123.298 35.0958C123.347 35.3463 123.396 35.5946 123.444 35.8407C123.506 36.0647 123.603 36.2149 123.671 36.4084C123.758 36.5981 123.867 36.7776 123.994 36.9435C124.106 37.1212 124.244 37.2817 124.403 37.4201C124.979 37.9967 125.727 38.3699 126.534 38.4832C126.727 38.5036 126.921 38.5117 127.115 38.5073L127.259 38.511L127.332 38.5127L127.368 38.5137C127.421 38.5067 127.336 38.5253 127.359 38.52L127.982 38.4024C128.066 38.3776 128.146 38.3458 128.224 38.3075C128.386 38.2542 128.539 38.1793 128.681 38.0849C129.276 37.7351 129.729 37.1866 129.96 36.5357C130.017 36.3841 130.058 36.2274 130.084 36.0677C130.127 35.9153 130.145 35.7565 130.136 35.5981C130.146 35.4515 130.144 35.3044 130.131 35.1581C130.097 34.9974 130.076 34.8204 130.032 34.6796C129.863 34.1635 129.526 33.7192 129.074 33.418C128.68 33.1388 128.209 32.9891 127.727 32.9895C127.624 32.9827 127.521 32.9837 127.418 32.9925C127.304 33.013 127.194 33.0332 127.087 33.0528C126.91 33.104 126.741 33.1793 126.585 33.2765C126.346 33.4201 126.14 33.6122 125.98 33.8404C125.82 34.0686 125.71 34.3279 125.656 34.6014C125.623 34.7928 125.607 34.987 125.61 35.1813L125.408 35.2038C125.389 34.9897 125.392 34.7741 125.417 34.5606C125.46 34.2436 125.568 33.939 125.735 33.6664C125.903 33.3939 126.125 33.1595 126.389 32.9783C126.577 32.8446 126.784 32.739 127.003 32.6651C127.109 32.6386 127.218 32.6117 127.33 32.5839C127.46 32.5604 127.592 32.5497 127.724 32.5521C128.299 32.5249 128.867 32.6752 129.354 32.9825C129.947 33.3351 130.397 33.8853 130.625 34.5368C130.684 34.7041 130.708 34.8589 130.752 35.0242C130.786 35.2155 130.801 35.4096 130.798 35.6038C130.816 35.7963 130.804 35.9905 130.763 36.1794C130.74 36.3773 130.699 36.5725 130.639 36.7626C130.389 37.5925 129.855 38.3084 129.132 38.7861C128.939 38.9264 128.728 39.0407 128.504 39.1261C128.395 39.1788 128.283 39.2247 128.168 39.2636L127.551 39.4127C127.522 39.4189 127.493 39.4226 127.463 39.424L127.419 39.426L127.151 39.4366C126.91 39.4547 126.667 39.4542 126.426 39.4349C125.398 39.3288 124.432 38.8909 123.674 38.1873C123.467 38.0137 123.282 37.814 123.126 37.5931C122.949 37.3761 122.797 37.1405 122.671 36.8905C122.542 36.6273 122.429 36.3566 122.332 36.08C122.275 35.8358 122.217 35.5894 122.159 35.341C122.151 35.3055 122.145 35.2697 122.142 35.2336L122.13 35.0749L122.112 34.8621C122.098 34.7196 122.094 34.5761 122.102 34.433C122.103 34.1421 122.127 33.8517 122.173 33.5644C122.27 32.9747 122.452 32.4022 122.714 31.8648C123.276 30.7332 124.179 29.8068 125.296 29.2164C126.515 28.6291 127.877 28.401 129.221 28.5589C130.565 28.7167 131.836 29.2539 132.887 30.1078C134.023 31.0087 134.874 32.22 135.336 33.595C135.776 35.0151 135.855 36.5229 135.564 37.9812C135.259 39.5118 134.574 40.9409 133.572 42.1372C132.57 43.3334 131.283 44.2582 129.831 44.8265C128.296 45.3825 126.656 45.5875 125.032 45.4263C123.408 45.2652 121.84 44.7421 120.444 43.8953C118.241 42.6073 116.536 40.6126 115.606 38.2343L115.378 37.6329C115.311 37.4231 115.257 37.2017 115.196 36.9857C115.143 36.7729 115.071 36.5396 115.035 36.3421L114.939 35.7622C114.453 32.3113 115.262 28.8023 117.211 25.9138C119.202 22.9505 122.26 20.8702 125.746 20.106C129.172 19.4427 132.712 19.6851 136.016 20.8092C137.688 21.367 139.26 22.1889 140.672 23.2435C142.126 24.2957 143.347 25.6367 144.26 27.1827C145.172 28.7287 145.755 30.4464 145.973 32.2283C146.136 33.9326 146.072 35.5806 146.074 37.2554C146.06 40.5911 146.045 43.9094 146.03 47.2102C146.002 53.8027 145.973 60.2908 145.945 66.5696C145.876 79.1277 145.812 90.8487 145.757 100.895C145.63 120.989 145.546 134.385 145.546 134.385L145.342 134.395Z" fill="#C2B5A6"/>
<path d="M128.64 50.1966C128.64 50.1966 128.943 50.1031 129.473 49.9394C129.605 49.8983 129.751 49.853 129.911 49.8036C130.06 49.7426 130.221 49.6767 130.394 49.6061C130.779 49.4626 131.154 49.2907 131.514 49.0917C131.713 48.986 131.921 48.8757 132.136 48.7617C132.337 48.6272 132.546 48.488 132.76 48.3451C133.2 48.0467 133.624 47.726 134.032 47.3844C134.423 46.9928 134.85 46.6285 135.213 46.1869C135.592 45.7614 135.943 45.312 136.265 44.8414C136.564 44.3625 136.818 43.857 137.024 43.3313C137.251 42.8273 137.38 42.3 137.595 41.8345C137.742 41.3424 137.995 40.9043 138.154 40.4532C138.239 40.2299 138.342 40.0152 138.434 39.8031C138.516 39.5887 138.583 39.3776 138.669 39.1748C138.847 38.7699 138.97 38.3834 139.105 38.0321C139.251 37.6813 139.366 37.3641 139.452 37.097C139.555 36.8013 139.672 36.511 139.803 36.2271L140.113 36.1927C140.288 36.4648 140.441 36.7505 140.57 37.047C140.631 37.1898 140.699 37.3473 140.773 37.5195C140.821 37.6961 140.872 37.8874 140.927 38.0918C141.058 38.5534 141.133 39.029 141.151 39.5085C141.17 39.7723 141.173 40.0473 141.179 40.3349C141.151 40.6163 141.129 40.9115 141.086 41.2125C141.004 41.8463 140.842 42.4672 140.605 43.0606C140.32 43.6807 139.966 44.2662 139.548 44.8053C139.149 45.3716 138.657 45.8747 138.214 46.3999C137.74 46.8936 137.235 47.3555 136.701 47.7824C136.189 48.1915 135.648 48.5613 135.081 48.8886C134.55 49.1815 134 49.4376 133.435 49.6551C133.166 49.7529 132.906 49.8478 132.652 49.9398C132.393 50.0067 132.142 50.0713 131.901 50.1336C131.465 50.2515 131.022 50.3375 130.574 50.3908C130.376 50.4196 130.191 50.4468 130.021 50.4719C129.854 50.4763 129.7 50.4804 129.562 50.4842C129.007 50.4971 128.691 50.5048 128.691 50.5048L128.64 50.1966Z" fill="#C2B5A6"/>
<path d="M141.936 48.5645C141.936 48.5645 141.967 48.6235 142.026 48.7342C142.102 48.8921 142.167 49.0552 142.22 49.2223C142.301 49.4678 142.364 49.7189 142.408 49.9736C142.465 50.2903 142.494 50.6114 142.495 50.9332C142.504 51.304 142.477 51.6747 142.415 52.0404C142.359 52.4446 142.251 52.8399 142.095 53.2168C141.911 53.6138 141.686 53.9907 141.425 54.3415C141.161 54.7014 140.894 55.0676 140.627 55.4334C140.366 55.7992 140.101 56.1595 139.814 56.4962C139.281 57.136 138.696 57.7309 138.066 58.2747C137.799 58.5126 137.519 58.735 137.227 58.9408C136.956 59.1283 136.707 59.3 136.487 59.4525C136.254 59.583 136.051 59.697 135.883 59.7908C135.551 59.971 135.36 60.0741 135.36 60.0741L135.171 59.8262C135.171 59.8262 135.302 59.6592 135.53 59.367C135.644 59.2244 135.781 59.0514 135.939 58.8533C136.081 58.6449 136.242 58.4099 136.417 58.1534C136.609 57.8853 136.784 57.6059 136.942 57.3167C137.135 57.0081 137.311 56.6899 137.472 56.3633C137.651 56.0326 137.814 55.6806 137.975 55.3227C138.149 54.9732 138.296 54.603 138.439 54.2328C138.745 53.5004 138.824 52.677 139.083 52C139.346 51.3689 139.686 50.7724 140.094 50.2237C140.407 49.7872 140.752 49.3747 141.127 48.9897C141.273 48.8382 141.396 48.7216 141.487 48.6424C141.579 48.5592 141.628 48.5148 141.628 48.5148L141.936 48.5645Z" fill="#C2B5A6"/>
<path d="M14.8537 3.618C14.8537 3.618 28.2419 3.53385 48.324 3.40728C58.3651 3.3519 70.0794 3.28729 82.6303 3.2184C88.9057 3.19058 95.3898 3.16207 101.979 3.13323C105.273 3.11864 108.59 3.10405 111.928 3.08945C113.601 3.09149 115.249 3.02715 116.952 3.19024C118.733 3.40859 120.45 3.99237 121.995 4.90504C123.54 5.8177 124.88 7.03962 125.932 8.49434C126.986 9.90773 127.807 11.4807 128.364 13.1536C129.488 16.4591 129.73 20.0008 129.067 23.4288C128.303 26.9173 126.224 29.9765 123.262 31.9695C120.376 33.9195 116.869 34.7293 113.42 34.2422L112.84 34.1461C112.643 34.1099 112.41 34.0387 112.197 33.985C111.981 33.925 111.76 33.8707 111.55 33.8034L110.949 33.5744C108.572 32.6446 106.579 30.9388 105.292 28.7336C104.445 27.3372 103.922 25.7689 103.761 24.1438C103.6 22.5187 103.805 20.8781 104.36 19.3425C104.929 17.889 105.853 16.6017 107.049 15.5992C108.244 14.5967 109.673 13.9111 111.202 13.6056C112.66 13.3146 114.167 13.3932 115.586 13.8343C116.96 14.2958 118.171 15.1471 119.071 16.2845C119.924 17.3355 120.461 18.6078 120.619 19.9527C120.777 21.2977 120.549 22.6598 119.962 23.8801C119.372 24.9971 118.446 25.9007 117.315 26.4636C116.778 26.7249 116.206 26.9072 115.616 27.0047C115.329 27.0506 115.039 27.0743 114.748 27.0756C114.605 27.0833 114.462 27.0796 114.319 27.0647L114.001 27.0399L113.948 27.0355C113.912 27.0318 113.876 27.0261 113.841 27.0183C113.593 26.9603 113.347 26.9027 113.103 26.8453C112.826 26.7479 112.555 26.6347 112.292 26.5063C112.042 26.3804 111.807 26.2276 111.59 26.0506C111.369 25.8942 111.17 25.7099 110.996 25.5022C110.293 24.7443 109.856 23.7781 109.75 22.7494C109.73 22.5079 109.729 22.2651 109.748 22.0234L109.755 21.8448L109.758 21.7556L109.76 21.7112C109.762 21.6816 109.765 21.6521 109.771 21.6231L109.921 21.006C109.959 20.891 110.005 20.7786 110.058 20.6697C110.143 20.4462 110.257 20.235 110.397 20.0414C110.875 19.3177 111.591 18.7841 112.42 18.5333C112.61 18.4736 112.805 18.4322 113.003 18.4093C113.192 18.3686 113.386 18.3569 113.578 18.3749C113.772 18.3714 113.966 18.3867 114.157 18.4206C114.323 18.4643 114.478 18.4891 114.645 18.5472C115.296 18.7754 115.846 19.2258 116.198 19.8193C116.505 20.3059 116.656 20.8754 116.628 21.4504C116.631 21.5825 116.62 21.7145 116.596 21.8444C116.568 21.9561 116.542 22.0651 116.515 22.1715C116.441 22.3903 116.336 22.5973 116.203 22.7859C116.022 23.0496 115.787 23.2725 115.515 23.44C115.242 23.6075 114.938 23.716 114.621 23.7585C114.408 23.7832 114.192 23.7862 113.978 23.7675L114.001 23.5653C114.195 23.5686 114.389 23.5532 114.58 23.5193C114.853 23.4657 115.112 23.3552 115.341 23.1951C115.569 23.035 115.761 22.8287 115.904 22.5897C116.001 22.4334 116.076 22.2646 116.128 22.088C116.147 21.9803 116.167 21.87 116.188 21.7566C116.197 21.6537 116.198 21.5502 116.191 21.4471C116.191 20.9642 116.042 20.493 115.763 20.099C115.461 19.6473 115.017 19.3098 114.502 19.1407C114.361 19.0972 114.184 19.0764 114.023 19.0423C113.877 19.0288 113.73 19.027 113.584 19.037C113.425 19.0276 113.267 19.0452 113.115 19.089C112.955 19.1147 112.798 19.1561 112.647 19.2126C111.996 19.4441 111.448 19.8973 111.098 20.4927C111.004 20.6344 110.929 20.7881 110.876 20.9497C110.838 21.0276 110.806 21.1083 110.782 21.1913L110.723 21.5018L110.664 21.8153C110.658 21.8388 110.677 21.754 110.67 21.807L110.671 21.8428L110.673 21.915L110.676 22.0595C110.672 22.2535 110.68 22.4475 110.701 22.6404C110.814 23.448 111.187 24.1967 111.763 24.7735C111.901 24.932 112.061 25.0698 112.239 25.1825C112.405 25.3095 112.584 25.4178 112.774 25.5055C112.968 25.5738 113.117 25.6709 113.341 25.7332C113.587 25.7813 113.836 25.8299 114.086 25.879C114.153 25.8913 114.047 25.8734 114.072 25.8751L114.372 25.8866C114.487 25.8957 114.602 25.8945 114.716 25.883C114.947 25.8737 115.177 25.8465 115.404 25.8018C115.867 25.7069 116.313 25.5467 116.73 25.326C117.592 24.8569 118.286 24.1291 118.714 23.2449C119.127 22.2675 119.261 21.1951 119.102 20.1461C118.944 19.0971 118.498 18.1125 117.815 17.3012C117.096 16.4296 116.14 15.7858 115.062 15.4481C113.921 15.1276 112.719 15.0936 111.561 15.349C110.345 15.6172 109.215 16.1869 108.276 17.0059C107.337 17.8249 106.619 18.8668 106.187 20.036C106.08 20.3211 105.992 20.6134 105.924 20.9106C105.854 21.178 105.795 21.6651 105.763 21.8994C105.753 22.2292 105.722 22.5596 105.724 22.8906C105.75 23.2206 105.744 23.554 105.785 23.8841C105.936 25.226 106.372 26.52 107.066 27.6784C108.127 29.478 109.767 30.8649 111.717 31.6133L112.208 31.7989L112.688 31.9294C112.854 31.9698 112.993 32.0232 113.181 32.0567L113.761 32.1498C116.684 32.5734 119.661 31.9062 122.125 30.2752C123.376 29.4428 124.464 28.3871 125.334 27.1608C126.202 25.9281 126.83 24.5422 127.184 23.0762C127.835 19.9662 127.662 16.74 126.683 13.7173C126.206 12.2085 125.49 10.7861 124.563 9.50406C123.665 8.21601 122.51 7.12835 121.17 6.30982C119.844 5.50447 118.369 4.97633 116.833 4.75729C115.212 4.58036 113.509 4.6221 111.853 4.60188C108.522 4.57873 105.207 4.55555 101.911 4.53231C95.3255 4.48623 88.8447 4.44117 82.5733 4.39712C70.0303 4.29539 58.3234 4.20058 48.2896 4.11907C28.222 3.94044 14.8437 3.82147 14.8437 3.82147L14.8537 3.618Z" fill="#C2B5A6"/>
<path d="M98.6858 20.4831C98.6858 20.4831 98.6931 20.1663 98.7064 19.6116C98.7103 19.4727 98.7143 19.3195 98.7183 19.1519C98.7435 18.9813 98.7713 18.7964 98.7998 18.5989C98.853 18.1505 98.9389 17.7066 99.0568 17.2707C99.119 17.0298 99.1837 16.7793 99.2508 16.5191C99.3423 16.2663 99.4376 16.0051 99.535 15.7364C99.977 14.5524 100.609 13.4486 101.406 12.4683C101.833 11.934 102.295 11.4283 102.788 10.9545C103.313 10.5105 103.816 10.0187 104.382 9.62005C104.92 9.20149 105.506 8.84655 106.126 8.56227C106.719 8.32429 107.339 8.1626 107.973 8.08109C108.274 8.03766 108.569 8.01614 108.85 7.98798C109.138 7.99327 109.412 7.9966 109.675 8.01512C110.155 8.03299 110.63 8.10821 111.092 8.23915C111.296 8.29453 111.487 8.34618 111.664 8.39389L112.136 8.59709C112.432 8.72655 112.718 8.87911 112.99 9.05336L112.956 9.36358C112.672 9.49534 112.382 9.61257 112.086 9.71479C111.819 9.802 111.502 9.91629 111.151 10.0624C110.8 10.1977 110.414 10.3206 110.009 10.4985C109.807 10.5844 109.596 10.6526 109.381 10.7342C109.169 10.8263 108.955 10.9297 108.732 11.0142C108.28 11.1736 107.843 11.4264 107.351 11.5735C106.886 11.7886 106.359 11.9185 105.855 12.1448C105.33 12.3512 104.824 12.6055 104.346 12.9047C103.876 13.2262 103.426 13.5778 103.001 13.9572C102.56 14.3204 102.196 14.7465 101.804 15.1385C101.463 15.5462 101.143 15.971 100.845 16.4114C100.701 16.6258 100.563 16.8341 100.428 17.0364C100.314 17.2511 100.203 17.4586 100.098 17.658C99.899 18.0184 99.7272 18.3932 99.584 18.7791C99.5131 18.9515 99.4473 19.1123 99.3866 19.2616C99.337 19.4214 99.2917 19.5676 99.2508 19.7004C99.0872 20.2306 98.9938 20.5335 98.9938 20.5335L98.6858 20.4831Z" fill="#C2B5A6"/>
<path d="M100.675 7.53795C100.675 7.53795 100.63 7.58702 100.547 7.67911C100.468 7.77094 100.352 7.89418 100.2 8.04003C99.8151 8.41447 99.4028 8.75972 98.9667 9.0729C98.4183 9.48134 97.8222 9.82131 97.1915 10.0853C96.5152 10.3434 95.6918 10.423 94.9599 10.7289C94.5903 10.8717 94.22 11.0198 93.871 11.1928C93.5132 11.3551 93.1609 11.5182 92.831 11.6968C92.4879 11.8602 92.1759 12.0471 91.8778 12.2267C91.5888 12.3852 91.3095 12.5607 91.0412 12.7523C90.7855 12.9276 90.5504 13.088 90.3417 13.2305C90.1443 13.3885 89.9708 13.5261 89.8291 13.6394L89.3693 13.9989L89.1216 13.8094C89.1216 13.8094 89.225 13.6189 89.4051 13.2858C89.4992 13.1185 89.6131 12.915 89.7429 12.6813C89.8953 12.4613 90.0675 12.2131 90.2543 11.9424C90.4601 11.6498 90.6826 11.3693 90.9207 11.1023C91.1745 10.7915 91.4484 10.4975 91.7407 10.2225C92.0393 9.91102 92.3592 9.62058 92.6979 9.35326C93.0344 9.0653 93.394 8.80089 93.7597 8.54008C94.1253 8.27261 94.4916 8.00522 94.8513 7.74176C95.2017 7.47961 95.5784 7.25462 95.9753 7.07041C96.352 6.91415 96.7471 6.80668 97.1511 6.75062C97.5164 6.68898 97.8868 6.66201 98.2573 6.67006C98.5789 6.67139 98.8998 6.70077 99.2164 6.75788C99.471 6.80224 99.722 6.86505 99.9675 6.94581C100.134 6.99874 100.297 7.06363 100.455 7.13998C100.566 7.19861 100.625 7.22976 100.625 7.22976L100.675 7.53795Z" fill="#C2B5A6"/>
</g>
</svg>
