<svg width="206" height="46" viewBox="0 0 206 46" fill="none" xmlns="http://www.w3.org/2000/svg">
<g opacity="0.85" filter="url(#filter0_i_325_1969)">
<path d="M1.72479 1.66676C1.74579 1.69665 1.76498 1.72657 1.77924 1.75669C1.89263 1.99483 2.14025 2.22819 2.23135 2.47107C2.45438 3.29965 2.3298 4.1355 1.86177 4.9509C1.41949 5.54224 1.29517 6.15825 1.49544 6.76618C1.76192 7.23926 2.89122 7.49476 3.20496 7.92342C3.38449 8.1687 3.07575 8.40605 3.49135 8.62784C3.99981 8.89913 4.78729 8.89474 5.02763 9.31786C5.29179 9.78319 4.13217 10.2013 4.8792 10.6343C5.20547 10.8235 5.70473 10.9254 5.97288 11.129C6.23508 11.3101 6.4287 11.503 6.54867 11.7024C6.47949 11.9043 5.40951 12.213 5.07339 12.3733C4.62848 12.5856 4.15809 12.749 3.68278 12.9443C3.0132 13.2193 2.35651 13.4768 1.63425 13.7353C0.962374 13.9759 0.699024 14.0974 1.38232 14.4421C1.63268 14.5684 2.1126 14.6137 2.29204 14.7577C2.57501 14.9847 2.20868 15.3653 2.10929 15.5924C1.74728 16.4197 1.45048 17.2435 1.04389 18.0616C0.776306 18.6 1.0755 19.1442 0.959534 19.6826C0.909793 19.9132 0.547954 20.1181 0.503832 20.3418C0.439629 20.667 1.23349 21.1501 1.73798 21.4322C2.30005 21.7466 3.23941 22.0165 3.70856 22.3467C4.64892 23.0086 3.94924 23.8924 4.39573 24.5596C4.64104 25.0745 4.71681 25.5978 4.62148 26.119C4.67709 26.3157 4.76373 26.5112 4.88097 26.7044C4.94969 27.0356 4.23885 27.1494 3.33854 27.4284C2.68345 27.5932 2.1279 27.8035 1.70511 28.0468C1.23642 28.3995 1.66511 28.6035 1.81792 28.933C2.0798 29.4975 1.41226 30.0846 1.40205 30.6662C1.39457 31.0879 0.919638 31.322 0.941487 31.7654C1.03332 32.1617 0.92 32.5607 0.607195 32.9423C0.363188 33.1805 -0.102817 33.3504 0.0203569 33.621C0.224922 34.0707 1.95198 34.2676 2.53587 34.6084C3.13267 34.9567 2.79266 35.6606 3.01403 36.0927C3.33945 36.728 3.21243 37.2582 3.83115 37.868C4.1724 38.3104 4.28567 38.7713 4.16544 39.2282C4.24945 39.4919 4.26043 39.7579 4.19822 40.0224C3.96453 40.3013 3.80463 40.1592 3.22958 40.3646C2.34768 40.6794 1.94411 41.2986 1.41678 41.6872C-0.112957 42.8144 0.480922 44.2357 0.480922 45.485C2.74578 45.8327 5.94108 45.5493 8.30977 45.6897C9.56035 45.7713 10.8287 45.813 12.1 45.8143C14.4184 45.8104 16.5221 45.6473 18.8249 45.6504C22.2288 45.6549 25.5821 45.5188 28.9765 45.485C30.4755 45.4701 31.9555 45.4566 33.4499 45.4013C34.3699 45.3327 35.3113 45.3082 36.2494 45.3284C37.0367 45.3856 37.8101 45.5588 38.6444 45.6164C41.6771 45.8256 44.7709 45.4192 47.8062 45.468C48.7387 45.483 49.1811 45.6463 50.1514 45.6536C52.4669 45.6711 54.7942 45.6498 57.1111 45.6498C59.0174 45.6498 61.0012 45.7136 62.9015 45.6577C63.6653 45.6042 64.3963 45.5023 65.06 45.3569C67.2068 45.0528 69.5422 45.1554 71.8686 45.1554C72.6211 45.3822 73.5615 45.5139 74.5443 45.5302C76.253 45.6188 138.06 45.6561 139.671 45.7773C142.541 45.9707 145.505 45.868 148.218 45.4812C150.143 45.2072 152.381 45.3164 154.435 45.3202C157.345 45.3256 160.096 45.2002 162.957 45.1194C167.954 44.9782 173.466 44.7658 178.417 45.1194C179.504 45.197 180.64 45.2196 181.744 45.2874C182.913 45.3538 184.104 45.354 185.274 45.288C185.91 45.2394 186.546 45.1895 187.182 45.1384C187.6 45.1798 188.014 45.2271 188.422 45.2803C189.345 45.3137 190.269 45.3408 191.195 45.3618C192.783 45.403 194.338 45.5436 195.79 45.7773C197.533 46.0876 199.229 45.9753 201.152 45.9782C202.096 45.9796 203.42 46.0864 204.177 45.8146C204.218 45.2065 204.021 44.5994 203.592 44.0108C203.274 43.436 203.274 42.8446 203.592 42.2698C203.989 41.6028 204.2 40.9234 204.221 40.2414C204.132 39.6865 203.381 39.3563 202.761 38.8845C202.233 38.4672 202.116 37.9982 202.428 37.554C202.773 37.2382 203.06 36.9147 203.287 36.5856C203.378 36.1384 202.639 35.7227 202.414 35.2923C202.234 34.9488 202.414 34.6198 202.232 34.2796C201.771 33.5804 201.498 32.867 201.417 32.1492C201.345 31.601 201.488 31.0519 201.842 30.5179C202.384 29.9954 203.023 29.4865 203.754 28.9944C204.678 28.217 206.37 27.2423 205.928 26.3767C205.591 25.7171 205.411 25.0693 205.041 24.4076C204.615 23.8493 204.337 23.2777 204.213 22.7006C204.184 21.999 202.988 21.3109 203.313 20.613C203.442 20.3371 204.211 20.0554 204.245 19.79C204.163 19.6313 203.941 19.4861 203.613 19.3755C203.013 18.9982 202.71 18.5698 202.736 18.1358C202.77 17.7075 202.799 17.2791 202.823 16.8507C202.857 16.7596 202.841 16.667 202.775 16.5783C202.709 16.4895 202.594 16.4063 202.437 16.3335C201.79 14.9571 202.572 13.521 203.587 12.2014C204.389 11.1594 205.145 10.4629 205.092 9.43831C205.054 8.69075 205.098 7.94114 205.098 7.19332C205.098 6.31812 205.506 5.47011 205.57 4.60147C205.624 3.86027 205.196 3.16231 205.075 2.43007C205.115 2.04937 205.088 1.66816 204.996 1.28863C204.765 0.921819 204.645 0.547231 204.638 0.171275C204.639 0.125731 203.71 0.574519 203.707 0.528975C202.658 0.467085 201.59 0.459084 200.535 0.505214C198.982 0.504123 197.432 0.460012 195.898 0.373289C194.395 0.299502 193.253 0.488139 191.747 0.50699C189.146 0.53955 186.515 0.50083 183.912 0.50083C181.482 0.50083 179.45 0.797657 177.177 0.957919C174.779 1.12701 172.719 0.84373 170.375 0.82188C169.048 0.792237 167.718 0.792237 166.391 0.82188C165.342 0.8609 164.34 0.994273 163.272 1.00693C161.818 1.0237 160.372 0.919414 159.049 0.702285C158.615 0.629157 158.58 0.523603 158.09 0.484979C157.324 0.424605 155.977 0.632554 155.243 0.706967C153.576 0.872474 151.859 0.967006 150.129 0.988604C147.109 1.0728 144.07 1.00434 141.103 0.785232C140.423 0.706595 139.714 0.664992 138.999 0.661815C137.126 0.647315 75.2485 0.685843 73.376 0.673386C72.646 0.686486 71.9142 0.674454 71.1907 0.637462C70.7225 0.595291 70.3059 0.499288 70.0049 0.364197C68.455 0.189006 66.8896 0.435116 65.4207 0.50083C65.409 0.545319 64.9367 0.589776 64.925 0.634233C63.2309 0.665442 52.3046 0.697047 52.4476 1.13034C51.3036 1.2821 49.6917 1.05606 48.5062 1.01071C44.8018 0.869105 41.2261 0.352168 37.527 0.147218C34.8991 -0.0531451 32.1816 -0.0489418 29.5587 0.159543C27.9577 0.314731 26.4826 0.652393 24.8033 0.677374C21.8361 0.700369 18.8675 0.668786 15.9094 0.582755C15.1534 0.566179 14.3974 0.550161 13.6409 0.536814C13.2628 0.530157 12.8846 0.524251 12.5063 0.519088C12.1773 0.506967 11.8463 0.503395 11.5159 0.508408C11.2732 0.520099 11.029 0.526932 10.7842 0.528874C9.5534 0.531082 8.32253 0.53853 7.09179 0.530357C6.74625 0.519118 6.40251 0.501661 6.06187 0.478055C5.76542 0.470216 5.4679 0.468687 5.17093 0.473474C4.41275 0.474331 3.66627 0.45555 2.9103 0.445927C2.72193 0.443686 2.53354 0.441466 2.34511 0.439269C2.08867 0.43169 1.83235 0.423473 1.57617 0.414619C1.4144 0.427867 1.39293 0.434916 1.34347 0.50264C1.19929 0.656918 1.15984 0.821263 1.22841 0.982077C1.32108 1.15048 1.50504 1.3058 1.59551 1.47809C1.62883 1.54163 1.68085 1.60411 1.72479 1.66676Z" fill="#FE4421"/>
</g>
<defs>
<filter id="filter0_i_325_1969" x="0" y="0" width="208" height="48" filterUnits="userSpaceOnUse" color-interpolation-filters="sRGB">
<feFlood flood-opacity="0" result="BackgroundImageFix"/>
<feBlend mode="normal" in="SourceGraphic" in2="BackgroundImageFix" result="shape"/>
<feColorMatrix in="SourceAlpha" type="matrix" values="0 0 0 0 0 0 0 0 0 0 0 0 0 0 0 0 0 0 127 0" result="hardAlpha"/>
<feOffset dx="2" dy="3"/>
<feGaussianBlur stdDeviation="1"/>
<feComposite in2="hardAlpha" operator="arithmetic" k2="-1" k3="1"/>
<feColorMatrix type="matrix" values="0 0 0 0 0 0 0 0 0 0 0 0 0 0 0 0 0 0 0.4 0"/>
<feBlend mode="normal" in2="shape" result="effect1_innerShadow_325_1969"/>
</filter>
</defs>
</svg>
